<?xml version="1.0" encoding="UTF-8"?>
<!DOCTYPE svg PUBLIC "-//W3C//DTD SVG 1.1//EN" "http://www.w3.org/Graphics/SVG/1.1/DTD/svg11.dtd">
<svg xmlns="http://www.w3.org/2000/svg" version="1.1" width="157px" height="157px" style="shape-rendering:geometricPrecision; text-rendering:geometricPrecision; image-rendering:optimizeQuality; fill-rule:evenodd; clip-rule:evenodd" xmlns:xlink="http://www.w3.org/1999/xlink">
<g><path style="opacity:1" fill="#fcfcfc" d="M -0.5,-0.5 C 51.8333,-0.5 104.167,-0.5 156.5,-0.5C 156.5,51.8333 156.5,104.167 156.5,156.5C 104.167,156.5 51.8333,156.5 -0.5,156.5C -0.5,104.167 -0.5,51.8333 -0.5,-0.5 Z"/></g>
<g><path style="opacity:1" fill="#010101" d="M 123.5,12.5 C 123.5,18.8333 123.5,25.1667 123.5,31.5C 129.833,31.5 136.167,31.5 142.5,31.5C 142.5,63.5 142.5,95.5 142.5,127.5C 135.978,127.177 129.645,127.51 123.5,128.5C 122.511,133.975 122.178,139.642 122.5,145.5C 116.642,145.178 110.975,145.511 105.5,146.5C 79.5,146.5 53.5,146.5 27.5,146.5C 27.5,140.167 27.5,133.833 27.5,127.5C 21.1667,127.5 14.8333,127.5 8.5,127.5C 8.5,95.5 8.5,63.5 8.5,31.5C 14.8333,31.5 21.1667,31.5 27.5,31.5C 27.5,25.1667 27.5,18.8333 27.5,12.5C 59.5,12.5 91.5,12.5 123.5,12.5 Z"/></g>
<g><path style="opacity:1" fill="#fdfdfd" d="M 103.5,32.5 C 103.5,38.1667 103.5,43.8333 103.5,49.5C 96.9779,49.1765 90.6446,49.5098 84.5,50.5C 84.5,56.8333 84.5,63.1667 84.5,69.5C 78.1667,69.5 71.8333,69.5 65.5,69.5C 64.5104,75.31 64.1771,81.31 64.5,87.5C 58.8333,87.5 53.1667,87.5 47.5,87.5C 47.5,69.1667 47.5,50.8333 47.5,32.5C 66.1667,32.5 84.8333,32.5 103.5,32.5 Z"/></g>
<g><path style="opacity:1" fill="#868686" d="M 103.5,31.5 C 104.49,37.6446 104.823,43.9779 104.5,50.5C 98.1667,50.5 91.8333,50.5 85.5,50.5C 85.1667,50.5 84.8333,50.5 84.5,50.5C 90.6446,49.5098 96.9779,49.1765 103.5,49.5C 103.5,43.8333 103.5,38.1667 103.5,32.5C 103.5,32.1667 103.5,31.8333 103.5,31.5 Z"/></g>
<g><path style="opacity:1" fill="#6b6b6b" d="M 123.5,11.5 C 123.5,11.8333 123.5,12.1667 123.5,12.5C 91.5,12.5 59.5,12.5 27.5,12.5C 27.5,18.8333 27.5,25.1667 27.5,31.5C 21.1667,31.5 14.8333,31.5 8.5,31.5C 8.5,63.5 8.5,95.5 8.5,127.5C 8.16667,127.5 7.83333,127.5 7.5,127.5C 7.5,95.1667 7.5,62.8333 7.5,30.5C 13.8333,30.5 20.1667,30.5 26.5,30.5C 26.5,24.1667 26.5,17.8333 26.5,11.5C 58.8333,11.5 91.1667,11.5 123.5,11.5 Z"/></g>
<g><path style="opacity:1" fill="#999999" d="M 103.5,31.5 C 103.5,31.8333 103.5,32.1667 103.5,32.5C 84.8333,32.5 66.1667,32.5 47.5,32.5C 47.5,50.8333 47.5,69.1667 47.5,87.5C 47.5,87.8333 47.5,88.1667 47.5,88.5C 47.1667,88.5 46.8333,88.5 46.5,88.5C 46.5,69.5 46.5,50.5 46.5,31.5C 65.5,31.5 84.5,31.5 103.5,31.5 Z"/></g>
<g><path style="opacity:1" fill="#4c4c4c" d="M 84.5,50.5 C 84.8333,50.5 85.1667,50.5 85.5,50.5C 85.5,56.8333 85.5,63.1667 85.5,69.5C 91.69,69.1771 97.69,69.5104 103.5,70.5C 97.5,70.5 91.5,70.5 85.5,70.5C 85.1667,70.5 84.8333,70.5 84.5,70.5C 78.5,70.5 72.5,70.5 66.5,70.5C 66.5,76.5 66.5,82.5 66.5,88.5C 66.5,88.8333 66.5,89.1667 66.5,89.5C 66.1667,89.5 65.8333,89.5 65.5,89.5C 58.9779,89.8235 52.6446,89.4902 46.5,88.5C 46.8333,88.5 47.1667,88.5 47.5,88.5C 53.5,88.5 59.5,88.5 65.5,88.5C 65.5,82.1667 65.5,75.8333 65.5,69.5C 71.8333,69.5 78.1667,69.5 84.5,69.5C 84.5,63.1667 84.5,56.8333 84.5,50.5 Z"/></g>
<g><path style="opacity:1" fill="#000000" d="M 84.5,70.5 C 84.5,76.5 84.5,82.5 84.5,88.5C 78.5,88.5 72.5,88.5 66.5,88.5C 66.5,82.5 66.5,76.5 66.5,70.5C 72.5,70.5 78.5,70.5 84.5,70.5 Z"/></g>
<g><path style="opacity:1" fill="#f9f9f9" d="M 85.5,70.5 C 91.5,70.5 97.5,70.5 103.5,70.5C 104.833,89.1667 104.833,107.833 103.5,126.5C 84.8333,126.5 66.1667,126.5 47.5,126.5C 47.5,120.5 47.5,114.5 47.5,108.5C 53.8333,108.5 60.1667,108.5 66.5,108.5C 66.5,102.167 66.5,95.8333 66.5,89.5C 72.8333,89.5 79.1667,89.5 85.5,89.5C 85.5,83.1667 85.5,76.8333 85.5,70.5 Z"/></g>
<g><path style="opacity:1" fill="#868686" d="M 123.5,11.5 C 124.49,17.6446 124.823,23.9779 124.5,30.5C 130.833,30.5 137.167,30.5 143.5,30.5C 143.832,63.0043 143.498,95.3376 142.5,127.5C 142.5,95.5 142.5,63.5 142.5,31.5C 136.167,31.5 129.833,31.5 123.5,31.5C 123.5,25.1667 123.5,18.8333 123.5,12.5C 123.5,12.1667 123.5,11.8333 123.5,11.5 Z"/></g>
<g><path style="opacity:1" fill="#c3c3c3" d="M 65.5,69.5 C 65.5,75.8333 65.5,82.1667 65.5,88.5C 59.5,88.5 53.5,88.5 47.5,88.5C 47.5,88.1667 47.5,87.8333 47.5,87.5C 53.1667,87.5 58.8333,87.5 64.5,87.5C 64.1771,81.31 64.5104,75.31 65.5,69.5 Z"/></g>
<g><path style="opacity:1" fill="#666666" d="M 84.5,70.5 C 84.8333,70.5 85.1667,70.5 85.5,70.5C 85.5,76.8333 85.5,83.1667 85.5,89.5C 79.1667,89.5 72.8333,89.5 66.5,89.5C 66.5,89.1667 66.5,88.8333 66.5,88.5C 72.5,88.5 78.5,88.5 84.5,88.5C 84.5,82.5 84.5,76.5 84.5,70.5 Z"/></g>
<g><path style="opacity:1" fill="#595959" d="M 65.5,89.5 C 65.8333,89.5 66.1667,89.5 66.5,89.5C 66.5,95.8333 66.5,102.167 66.5,108.5C 60.1667,108.5 53.8333,108.5 47.5,108.5C 47.1667,108.5 46.8333,108.5 46.5,108.5C 52.6446,107.51 58.9779,107.177 65.5,107.5C 65.5,101.5 65.5,95.5 65.5,89.5 Z"/></g>
<g><path style="opacity:1" fill="#7e7e7e" d="M 46.5,108.5 C 46.8333,108.5 47.1667,108.5 47.5,108.5C 47.5,114.5 47.5,120.5 47.5,126.5C 66.1667,126.5 84.8333,126.5 103.5,126.5C 84.674,127.497 65.674,127.83 46.5,127.5C 46.5,121.167 46.5,114.833 46.5,108.5 Z"/></g>
<g><path style="opacity:1" fill="#a5a5a5" d="M 142.5,127.5 C 136.69,128.49 130.69,128.823 124.5,128.5C 124.823,134.69 124.49,140.69 123.5,146.5C 123.5,140.5 123.5,134.5 123.5,128.5C 129.645,127.51 135.978,127.177 142.5,127.5 Z"/></g>
<g><path style="opacity:1" fill="#999999" d="M 7.5,127.5 C 7.83333,127.5 8.16667,127.5 8.5,127.5C 14.8333,127.5 21.1667,127.5 27.5,127.5C 27.5,133.833 27.5,140.167 27.5,146.5C 26.5104,140.69 26.1771,134.69 26.5,128.5C 19.9779,128.823 13.6446,128.49 7.5,127.5 Z"/></g>
<g><path style="opacity:1" fill="#1d1d1d" d="M 123.5,128.5 C 123.5,134.5 123.5,140.5 123.5,146.5C 117.5,146.5 111.5,146.5 105.5,146.5C 110.975,145.511 116.642,145.178 122.5,145.5C 122.178,139.642 122.511,133.975 123.5,128.5 Z"/></g>
</svg>
