<?xml version="1.0" encoding="UTF-8"?>
<!DOCTYPE svg PUBLIC "-//W3C//DTD SVG 1.1//EN" "http://www.w3.org/Graphics/SVG/1.1/DTD/svg11.dtd">
<svg xmlns="http://www.w3.org/2000/svg" version="1.1" width="150px" height="150px" style="shape-rendering:geometricPrecision; text-rendering:geometricPrecision; image-rendering:optimizeQuality; fill-rule:evenodd; clip-rule:evenodd" xmlns:xlink="http://www.w3.org/1999/xlink">
<g><path style="opacity:1" fill="#fdfdfd" d="M -0.5,-0.5 C 49.5,-0.5 99.5,-0.5 149.5,-0.5C 149.5,49.5 149.5,99.5 149.5,149.5C 99.5,149.5 49.5,149.5 -0.5,149.5C -0.5,99.5 -0.5,49.5 -0.5,-0.5 Z"/></g>
<g><path style="opacity:1" fill="#010101" d="M 53.5,9.5 C 66.1667,9.5 78.8333,9.5 91.5,9.5C 91.1682,47.6703 91.5015,85.6703 92.5,123.5C 104.655,124.495 116.989,124.829 129.5,124.5C 129.5,130.5 129.5,136.5 129.5,142.5C 123.642,142.178 117.975,142.511 112.5,143.5C 80.1667,143.5 47.8333,143.5 15.5,143.5C 15.5,137.167 15.5,130.833 15.5,124.5C 28.3443,124.829 41.011,124.495 53.5,123.5C 53.5,98.1667 53.5,72.8333 53.5,47.5C 47.1667,47.5 40.8333,47.5 34.5,47.5C 34.5,41.1667 34.5,34.8333 34.5,28.5C 40.8333,28.5 47.1667,28.5 53.5,28.5C 53.5,22.1667 53.5,15.8333 53.5,9.5 Z"/></g>
<g><path style="opacity:1" fill="#848484" d="M 53.5,8.5 C 53.5,8.83333 53.5,9.16667 53.5,9.5C 53.5,15.8333 53.5,22.1667 53.5,28.5C 47.1667,28.5 40.8333,28.5 34.5,28.5C 40.31,27.5104 46.31,27.1771 52.5,27.5C 52.1765,20.9779 52.5098,14.6446 53.5,8.5 Z"/></g>
<g><path style="opacity:1" fill="#545454" d="M 53.5,9.5 C 53.5,9.16667 53.5,8.83333 53.5,8.5C 66.5,8.5 79.5,8.5 92.5,8.5C 92.5,46.8333 92.5,85.1667 92.5,123.5C 91.5015,85.6703 91.1682,47.6703 91.5,9.5C 78.8333,9.5 66.1667,9.5 53.5,9.5 Z"/></g>
<g><path style="opacity:1" fill="#a6a6a6" d="M 34.5,47.5 C 40.8333,47.5 47.1667,47.5 53.5,47.5C 53.5,72.8333 53.5,98.1667 53.5,123.5C 53.1667,123.5 52.8333,123.5 52.5,123.5C 52.5,98.5 52.5,73.5 52.5,48.5C 46.31,48.8229 40.31,48.4896 34.5,47.5 Z"/></g>
<g><path style="opacity:1" fill="#7b7b7b" d="M 52.5,123.5 C 52.8333,123.5 53.1667,123.5 53.5,123.5C 41.011,124.495 28.3443,124.829 15.5,124.5C 15.5,130.833 15.5,137.167 15.5,143.5C 14.5093,137.021 14.176,130.354 14.5,123.5C 27.1667,123.5 39.8333,123.5 52.5,123.5 Z"/></g>
<g><path style="opacity:1" fill="#3a3a3a" d="M 92.5,123.5 C 105.167,123.5 117.833,123.5 130.5,123.5C 130.5,130.167 130.5,136.833 130.5,143.5C 124.5,143.5 118.5,143.5 112.5,143.5C 117.975,142.511 123.642,142.178 129.5,142.5C 129.5,136.5 129.5,130.5 129.5,124.5C 116.989,124.829 104.655,124.495 92.5,123.5 Z"/></g>
</svg>
