<?xml version="1.0" encoding="UTF-8"?>
<!DOCTYPE svg PUBLIC "-//W3C//DTD SVG 1.1//EN" "http://www.w3.org/Graphics/SVG/1.1/DTD/svg11.dtd">
<svg xmlns="http://www.w3.org/2000/svg" version="1.1" width="147px" height="147px" style="shape-rendering:geometricPrecision; text-rendering:geometricPrecision; image-rendering:optimizeQuality; fill-rule:evenodd; clip-rule:evenodd" xmlns:xlink="http://www.w3.org/1999/xlink">
<g><path style="opacity:1" fill="#fefefe" d="M -0.5,-0.5 C 48.5,-0.5 97.5,-0.5 146.5,-0.5C 146.5,48.5 146.5,97.5 146.5,146.5C 97.5,146.5 48.5,146.5 -0.5,146.5C -0.5,97.5 -0.5,48.5 -0.5,-0.5 Z"/></g>
<g><path style="opacity:1" fill="#010101" d="M 36.5,9.5 C 61.8333,9.5 87.1667,9.5 112.5,9.5C 112.177,15.69 112.51,21.69 113.5,27.5C 119.645,28.4902 125.978,28.8235 132.5,28.5C 132.5,41.1667 132.5,53.8333 132.5,66.5C 125.978,66.1765 119.645,66.5098 113.5,67.5C 112.51,73.31 112.177,79.31 112.5,85.5C 93.326,85.1697 74.326,85.503 55.5,86.5C 55.5,99.1667 55.5,111.833 55.5,124.5C 68.3443,124.829 81.011,124.495 93.5,123.5C 94.4896,117.69 94.8229,111.69 94.5,105.5C 107.167,105.5 119.833,105.5 132.5,105.5C 132.5,112.167 132.5,118.833 132.5,125.5C 131.511,130.975 131.178,136.642 131.5,142.5C 125.642,142.178 119.975,142.511 114.5,143.5C 82.1667,143.5 49.8333,143.5 17.5,143.5C 17.5,124.5 17.5,105.5 17.5,86.5C 23.6446,85.5098 29.9779,85.1765 36.5,85.5C 36.5,79.1667 36.5,72.8333 36.5,66.5C 55.8333,66.5 75.1667,66.5 94.5,66.5C 94.8287,53.6557 94.4954,40.989 93.5,28.5C 80.8333,28.5 68.1667,28.5 55.5,28.5C 55.5,34.8333 55.5,41.1667 55.5,47.5C 42.8333,47.5 30.1667,47.5 17.5,47.5C 17.5,41.1667 17.5,34.8333 17.5,28.5C 23.8333,28.5 30.1667,28.5 36.5,28.5C 36.5,22.1667 36.5,15.8333 36.5,9.5 Z"/></g>
<g><path style="opacity:1" fill="#464646" d="M 36.5,9.5 C 36.5,9.16667 36.5,8.83333 36.5,8.5C 62.1667,8.5 87.8333,8.5 113.5,8.5C 113.5,14.8333 113.5,21.1667 113.5,27.5C 112.51,21.69 112.177,15.69 112.5,9.5C 87.1667,9.5 61.8333,9.5 36.5,9.5 Z"/></g>
<g><path style="opacity:1" fill="#7b7b7b" d="M 36.5,8.5 C 36.5,8.83333 36.5,9.16667 36.5,9.5C 36.5,15.8333 36.5,22.1667 36.5,28.5C 30.1667,28.5 23.8333,28.5 17.5,28.5C 23.31,27.5104 29.31,27.1771 35.5,27.5C 35.1765,20.9779 35.5098,14.6446 36.5,8.5 Z"/></g>
<g><path style="opacity:1" fill="#979797" d="M 17.5,28.5 C 17.5,34.8333 17.5,41.1667 17.5,47.5C 30.1667,47.5 42.8333,47.5 55.5,47.5C 42.6774,48.4955 29.6774,48.8288 16.5,48.5C 16.176,41.6457 16.5093,34.979 17.5,28.5 Z"/></g>
<g><path style="opacity:1" fill="#c5c5c5" d="M 93.5,28.5 C 93.8286,41.0113 93.4952,53.3446 92.5,65.5C 92.5,53.5 92.5,41.5 92.5,29.5C 80.5,29.5 68.5,29.5 56.5,29.5C 56.8229,35.69 56.4896,41.69 55.5,47.5C 55.5,41.1667 55.5,34.8333 55.5,28.5C 68.1667,28.5 80.8333,28.5 93.5,28.5 Z"/></g>
<g><path style="opacity:1" fill="#929292" d="M 113.5,27.5 C 120.167,27.5 126.833,27.5 133.5,27.5C 133.829,40.6774 133.495,53.6774 132.5,66.5C 132.5,53.8333 132.5,41.1667 132.5,28.5C 125.978,28.8235 119.645,28.4902 113.5,27.5 Z"/></g>
<g><path style="opacity:1" fill="#929292" d="M 93.5,28.5 C 94.4954,40.989 94.8287,53.6557 94.5,66.5C 75.1667,66.5 55.8333,66.5 36.5,66.5C 54.9925,65.5031 73.6592,65.1698 92.5,65.5C 93.4952,53.3446 93.8286,41.0113 93.5,28.5 Z"/></g>
<g><path style="opacity:1" fill="#a7a7a7" d="M 132.5,66.5 C 126.69,67.4896 120.69,67.8229 114.5,67.5C 114.823,74.0221 114.49,80.3554 113.5,86.5C 113.5,80.1667 113.5,73.8333 113.5,67.5C 119.645,66.5098 125.978,66.1765 132.5,66.5 Z"/></g>
<g><path style="opacity:1" fill="#b1b1b1" d="M 36.5,66.5 C 36.5,72.8333 36.5,79.1667 36.5,85.5C 29.9779,85.1765 23.6446,85.5098 17.5,86.5C 17.1667,86.5 16.8333,86.5 16.5,86.5C 22.412,84.5437 28.7453,83.8771 35.5,84.5C 35.1771,78.31 35.5104,72.31 36.5,66.5 Z"/></g>
<g><path style="opacity:1" fill="#626262" d="M 113.5,67.5 C 113.5,73.8333 113.5,80.1667 113.5,86.5C 94.5,86.5 75.5,86.5 56.5,86.5C 56.1667,86.5 55.8333,86.5 55.5,86.5C 74.326,85.503 93.326,85.1697 112.5,85.5C 112.177,79.31 112.51,73.31 113.5,67.5 Z"/></g>
<g><path style="opacity:1" fill="#727272" d="M 132.5,143.5 C 132.5,137.5 132.5,131.5 132.5,125.5C 132.5,118.833 132.5,112.167 132.5,105.5C 119.833,105.5 107.167,105.5 94.5,105.5C 94.8229,111.69 94.4896,117.69 93.5,123.5C 93.5,117.167 93.5,110.833 93.5,104.5C 106.833,104.5 120.167,104.5 133.5,104.5C 133.829,117.677 133.495,130.677 132.5,143.5 Z"/></g>
<g><path style="opacity:1" fill="#7f7f7f" d="M 55.5,86.5 C 55.8333,86.5 56.1667,86.5 56.5,86.5C 56.5,98.8333 56.5,111.167 56.5,123.5C 68.8333,123.5 81.1667,123.5 93.5,123.5C 81.011,124.495 68.3443,124.829 55.5,124.5C 55.5,111.833 55.5,99.1667 55.5,86.5 Z"/></g>
<g><path style="opacity:1" fill="#1c1c1c" d="M 132.5,125.5 C 132.5,131.5 132.5,137.5 132.5,143.5C 126.5,143.5 120.5,143.5 114.5,143.5C 119.975,142.511 125.642,142.178 131.5,142.5C 131.178,136.642 131.511,130.975 132.5,125.5 Z"/></g>
<g><path style="opacity:1" fill="#8f8f8f" d="M 16.5,86.5 C 16.8333,86.5 17.1667,86.5 17.5,86.5C 17.5,105.5 17.5,124.5 17.5,143.5C 49.8333,143.5 82.1667,143.5 114.5,143.5C 120.5,143.5 126.5,143.5 132.5,143.5C 94.0036,144.499 55.3369,144.832 16.5,144.5C 16.5,125.167 16.5,105.833 16.5,86.5 Z"/></g>
</svg>
