<?xml version="1.0" encoding="UTF-8"?>
<!DOCTYPE svg PUBLIC "-//W3C//DTD SVG 1.1//EN" "http://www.w3.org/Graphics/SVG/1.1/DTD/svg11.dtd">
<svg xmlns="http://www.w3.org/2000/svg" version="1.1" width="147px" height="147px" style="shape-rendering:geometricPrecision; text-rendering:geometricPrecision; image-rendering:optimizeQuality; fill-rule:evenodd; clip-rule:evenodd" xmlns:xlink="http://www.w3.org/1999/xlink">
<g><path style="opacity:1" fill="#fdfdfd" d="M -0.5,-0.5 C 48.5,-0.5 97.5,-0.5 146.5,-0.5C 146.5,48.5 146.5,97.5 146.5,146.5C 97.5,146.5 48.5,146.5 -0.5,146.5C -0.5,97.5 -0.5,48.5 -0.5,-0.5 Z"/></g>
<g><path style="opacity:1" fill="#030303" d="M 113.5,24.5 C 119.645,25.4902 125.978,25.8235 132.5,25.5C 132.5,38.1667 132.5,50.8333 132.5,63.5C 126.167,63.5 119.833,63.5 113.5,63.5C 113.5,69.8333 113.5,76.1667 113.5,82.5C 119.833,82.5 126.167,82.5 132.5,82.5C 132.5,95.5 132.5,108.5 132.5,121.5C 126.167,121.5 119.833,121.5 113.5,121.5C 113.5,127.833 113.5,134.167 113.5,140.5C 87.8333,140.5 62.1667,140.5 36.5,140.5C 36.8235,133.978 36.4902,127.645 35.5,121.5C 29.69,120.51 23.69,120.177 17.5,120.5C 17.5,114.5 17.5,108.5 17.5,102.5C 30.1667,102.5 42.8333,102.5 55.5,102.5C 55.5,108.833 55.5,115.167 55.5,121.5C 68.3443,121.829 81.011,121.495 93.5,120.5C 93.5,108.167 93.5,95.8333 93.5,83.5C 81.3446,82.5048 69.0113,82.1714 56.5,82.5C 56.5,76.5 56.5,70.5 56.5,64.5C 62.358,64.8222 68.0247,64.4889 73.5,63.5C 80.5,63.5 87.5,63.5 94.5,63.5C 94.8287,50.6557 94.4954,37.989 93.5,25.5C 80.8333,25.5 68.1667,25.5 55.5,25.5C 55.5,31.8333 55.5,38.1667 55.5,44.5C 42.8333,44.5 30.1667,44.5 17.5,44.5C 17.5,38.1667 17.5,31.8333 17.5,25.5C 23.8333,25.5 30.1667,25.5 36.5,25.5C 36.5,19.1667 36.5,12.8333 36.5,6.5C 61.8333,6.5 87.1667,6.5 112.5,6.5C 112.177,12.69 112.51,18.69 113.5,24.5 Z"/></g>
<g><path style="opacity:1" fill="#717171" d="M 113.5,24.5 C 112.51,18.69 112.177,12.69 112.5,6.5C 87.1667,6.5 61.8333,6.5 36.5,6.5C 36.5,12.8333 36.5,19.1667 36.5,25.5C 30.1667,25.5 23.8333,25.5 17.5,25.5C 17.5,31.8333 17.5,38.1667 17.5,44.5C 30.1667,44.5 42.8333,44.5 55.5,44.5C 42.6774,45.4955 29.6774,45.8288 16.5,45.5C 16.5,38.5 16.5,31.5 16.5,24.5C 22.8333,24.5 29.1667,24.5 35.5,24.5C 35.5,18.1667 35.5,11.8333 35.5,5.5C 61.5,5.5 87.5,5.5 113.5,5.5C 113.5,11.8333 113.5,18.1667 113.5,24.5 Z"/></g>
<g><path style="opacity:1" fill="#c5c5c5" d="M 93.5,25.5 C 93.8286,38.0113 93.4952,50.3446 92.5,62.5C 92.5,50.5 92.5,38.5 92.5,26.5C 80.5,26.5 68.5,26.5 56.5,26.5C 56.8229,32.69 56.4896,38.69 55.5,44.5C 55.5,38.1667 55.5,31.8333 55.5,25.5C 68.1667,25.5 80.8333,25.5 93.5,25.5 Z"/></g>
<g><path style="opacity:1" fill="#929292" d="M 113.5,24.5 C 120.167,24.5 126.833,24.5 133.5,24.5C 133.829,37.6774 133.495,50.6774 132.5,63.5C 132.5,50.8333 132.5,38.1667 132.5,25.5C 125.978,25.8235 119.645,25.4902 113.5,24.5 Z"/></g>
<g><path style="opacity:1" fill="#8e8e8e" d="M 93.5,25.5 C 94.4954,37.989 94.8287,50.6557 94.5,63.5C 87.5,63.5 80.5,63.5 73.5,63.5C 67.5,63.5 61.5,63.5 55.5,63.5C 67.6554,62.5048 79.9887,62.1714 92.5,62.5C 93.4952,50.3446 93.8286,38.0113 93.5,25.5 Z"/></g>
<g><path style="opacity:1" fill="#2b2b2b" d="M 55.5,63.5 C 61.5,63.5 67.5,63.5 73.5,63.5C 68.0247,64.4889 62.358,64.8222 56.5,64.5C 56.5,70.5 56.5,76.5 56.5,82.5C 55.5098,76.3554 55.1765,70.0221 55.5,63.5 Z"/></g>
<g><path style="opacity:1" fill="#b0b0b0" d="M 132.5,63.5 C 126.69,64.4896 120.69,64.8229 114.5,64.5C 114.5,70.1667 114.5,75.8333 114.5,81.5C 120.69,81.1771 126.69,81.5104 132.5,82.5C 126.167,82.5 119.833,82.5 113.5,82.5C 113.5,76.1667 113.5,69.8333 113.5,63.5C 119.833,63.5 126.167,63.5 132.5,63.5 Z"/></g>
<g><path style="opacity:1" fill="#7c7c7c" d="M 55.5,63.5 C 55.1765,70.0221 55.5098,76.3554 56.5,82.5C 69.0113,82.1714 81.3446,82.5048 93.5,83.5C 81.1667,83.5 68.8333,83.5 56.5,83.5C 55.1803,80.572 54.5136,77.2386 54.5,73.5C 54.5016,69.9825 54.8349,66.6491 55.5,63.5 Z"/></g>
<g><path style="opacity:1" fill="#5c5c5c" d="M 55.5,101.5 C 55.5,101.833 55.5,102.167 55.5,102.5C 42.8333,102.5 30.1667,102.5 17.5,102.5C 17.5,108.5 17.5,114.5 17.5,120.5C 23.69,120.177 29.69,120.51 35.5,121.5C 29.1667,121.5 22.8333,121.5 16.5,121.5C 16.5,114.833 16.5,108.167 16.5,101.5C 29.5,101.5 42.5,101.5 55.5,101.5 Z"/></g>
<g><path style="opacity:1" fill="#e2e2e2" d="M 56.5,83.5 C 68.8333,83.5 81.1667,83.5 93.5,83.5C 93.5,95.8333 93.5,108.167 93.5,120.5C 93.1667,120.5 92.8333,120.5 92.5,120.5C 92.5,108.5 92.5,96.5 92.5,84.5C 80.3217,84.8284 68.3217,84.4951 56.5,83.5 Z"/></g>
<g><path style="opacity:1" fill="#7f7f7f" d="M 55.5,101.5 C 56.4902,107.645 56.8235,113.978 56.5,120.5C 68.5,120.5 80.5,120.5 92.5,120.5C 92.8333,120.5 93.1667,120.5 93.5,120.5C 81.011,121.495 68.3443,121.829 55.5,121.5C 55.5,115.167 55.5,108.833 55.5,102.5C 55.5,102.167 55.5,101.833 55.5,101.5 Z"/></g>
<g><path style="opacity:1" fill="#9a9a9a" d="M 16.5,121.5 C 22.8333,121.5 29.1667,121.5 35.5,121.5C 36.4902,127.645 36.8235,133.978 36.5,140.5C 35.5104,134.69 35.1771,128.69 35.5,122.5C 28.9779,122.823 22.6446,122.49 16.5,121.5 Z"/></g>
<g><path style="opacity:1" fill="#b7b7b7" d="M 132.5,121.5 C 126.69,122.49 120.69,122.823 114.5,122.5C 114.823,128.69 114.49,134.69 113.5,140.5C 113.5,134.167 113.5,127.833 113.5,121.5C 119.833,121.5 126.167,121.5 132.5,121.5 Z"/></g>
</svg>
