<?xml version="1.0" encoding="UTF-8"?>
<!DOCTYPE svg PUBLIC "-//W3C//DTD SVG 1.1//EN" "http://www.w3.org/Graphics/SVG/1.1/DTD/svg11.dtd">
<svg xmlns="http://www.w3.org/2000/svg" version="1.1" width="154px" height="154px" style="shape-rendering:geometricPrecision; text-rendering:geometricPrecision; image-rendering:optimizeQuality; fill-rule:evenodd; clip-rule:evenodd" xmlns:xlink="http://www.w3.org/1999/xlink">
<g><path style="opacity:1" fill="#fdfdfd" d="M -0.5,-0.5 C 50.8333,-0.5 102.167,-0.5 153.5,-0.5C 153.5,50.8333 153.5,102.167 153.5,153.5C 102.167,153.5 50.8333,153.5 -0.5,153.5C -0.5,102.167 -0.5,50.8333 -0.5,-0.5 Z"/></g>
<g><path style="opacity:1" fill="#545454" d="M 120.5,11.5 C 120.5,11.8333 120.5,12.1667 120.5,12.5C 101.5,12.5 82.5,12.5 63.5,12.5C 63.8229,18.69 63.4896,24.69 62.5,30.5C 62.5,24.1667 62.5,17.8333 62.5,11.5C 81.8333,11.5 101.167,11.5 120.5,11.5 Z"/></g>
<g><path style="opacity:1" fill="#010101" d="M 120.5,12.5 C 120.169,38.0055 120.502,63.3388 121.5,88.5C 127.31,89.4896 133.31,89.8229 139.5,89.5C 139.5,95.5 139.5,101.5 139.5,107.5C 132.978,107.177 126.645,107.51 120.5,108.5C 120.5,114.833 120.5,121.167 120.5,127.5C 126.833,127.5 133.167,127.5 139.5,127.5C 139.5,133.833 139.5,140.167 139.5,146.5C 113.833,146.5 88.1667,146.5 62.5,146.5C 62.5,140.167 62.5,133.833 62.5,127.5C 69.0221,127.823 75.3554,127.49 81.5,126.5C 81.5,120.5 81.5,114.5 81.5,108.5C 56.3388,107.502 31.0055,107.169 5.5,107.5C 5.5,94.8333 5.5,82.1667 5.5,69.5C 11.8333,69.5 18.1667,69.5 24.5,69.5C 24.5,63.1667 24.5,56.8333 24.5,50.5C 31.0221,50.8235 37.3554,50.4902 43.5,49.5C 44.4896,43.69 44.8229,37.69 44.5,31.5C 50.69,31.8229 56.69,31.4896 62.5,30.5C 63.4896,24.69 63.8229,18.69 63.5,12.5C 82.5,12.5 101.5,12.5 120.5,12.5 Z"/></g>
<g><path style="opacity:1" fill="#404040" d="M 62.5,30.5 C 56.69,31.4896 50.69,31.8229 44.5,31.5C 44.8229,37.69 44.4896,43.69 43.5,49.5C 43.5,43.5 43.5,37.5 43.5,31.5C 49.6446,30.5098 55.9779,30.1765 62.5,30.5 Z"/></g>
<g><path style="opacity:1" fill="#949494" d="M 43.5,31.5 C 43.5,37.5 43.5,43.5 43.5,49.5C 37.3554,50.4902 31.0221,50.8235 24.5,50.5C 30.31,49.5104 36.31,49.1771 42.5,49.5C 42.1771,43.31 42.5104,37.31 43.5,31.5 Z"/></g>
<g><path style="opacity:1" fill="#9f9f9f" d="M 24.5,50.5 C 24.5,56.8333 24.5,63.1667 24.5,69.5C 18.1667,69.5 11.8333,69.5 5.5,69.5C 11.31,68.5104 17.31,68.1771 23.5,68.5C 23.1771,62.31 23.5104,56.31 24.5,50.5 Z"/></g>
<g><path style="opacity:1" fill="#7c7c7c" d="M 81.5,88.5 C 81.8286,75.9887 81.4952,63.6554 80.5,51.5C 74.8333,51.5 69.1667,51.5 63.5,51.5C 63.5,57.8333 63.5,64.1667 63.5,70.5C 57.1667,70.5 50.8333,70.5 44.5,70.5C 44.5,76.1667 44.5,81.8333 44.5,87.5C 44.5,87.8333 44.5,88.1667 44.5,88.5C 43.5098,82.3554 43.1765,76.0221 43.5,69.5C 49.8333,69.5 56.1667,69.5 62.5,69.5C 62.5,63.1667 62.5,56.8333 62.5,50.5C 69.1667,50.5 75.8333,50.5 82.5,50.5C 82.8287,63.3443 82.4954,76.011 81.5,88.5 Z"/></g>
<g><path style="opacity:1" fill="#fefefe" d="M 80.5,51.5 C 80.5,63.5 80.5,75.5 80.5,87.5C 68.5,87.5 56.5,87.5 44.5,87.5C 44.5,81.8333 44.5,76.1667 44.5,70.5C 50.8333,70.5 57.1667,70.5 63.5,70.5C 63.5,64.1667 63.5,57.8333 63.5,51.5C 69.1667,51.5 74.8333,51.5 80.5,51.5 Z"/></g>
<g><path style="opacity:1" fill="#cbcbcb" d="M 80.5,51.5 C 81.4952,63.6554 81.8286,75.9887 81.5,88.5C 69.1667,88.5 56.8333,88.5 44.5,88.5C 44.5,88.1667 44.5,87.8333 44.5,87.5C 56.5,87.5 68.5,87.5 80.5,87.5C 80.5,75.5 80.5,63.5 80.5,51.5 Z"/></g>
<g><path style="opacity:1" fill="#b3b3b3" d="M 120.5,11.5 C 121.498,36.6612 121.831,61.9945 121.5,87.5C 127.69,87.1771 133.69,87.5104 139.5,88.5C 133.5,88.5 127.5,88.5 121.5,88.5C 120.502,63.3388 120.169,38.0055 120.5,12.5C 120.5,12.1667 120.5,11.8333 120.5,11.5 Z"/></g>
<g><path style="opacity:1" fill="#696969" d="M 121.5,88.5 C 127.5,88.5 133.5,88.5 139.5,88.5C 140.491,94.979 140.824,101.646 140.5,108.5C 134.167,108.5 127.833,108.5 121.5,108.5C 121.167,108.5 120.833,108.5 120.5,108.5C 126.645,107.51 132.978,107.177 139.5,107.5C 139.5,101.5 139.5,95.5 139.5,89.5C 133.31,89.8229 127.31,89.4896 121.5,88.5 Z"/></g>
<g><path style="opacity:1" fill="#585858" d="M 5.5,69.5 C 5.5,82.1667 5.5,94.8333 5.5,107.5C 31.0055,107.169 56.3388,107.502 81.5,108.5C 55.8333,108.5 30.1667,108.5 4.5,108.5C 4.17119,95.3226 4.50452,82.3226 5.5,69.5 Z"/></g>
<g><path style="opacity:1" fill="#d2d2d2" d="M 4.5,108.5 C 30.1667,108.5 55.8333,108.5 81.5,108.5C 81.5,114.5 81.5,120.5 81.5,126.5C 81.1667,126.5 80.8333,126.5 80.5,126.5C 80.5,120.833 80.5,115.167 80.5,109.5C 54.9945,109.831 29.6612,109.498 4.5,108.5 Z"/></g>
<g><path style="opacity:1" fill="#868686" d="M 120.5,108.5 C 120.833,108.5 121.167,108.5 121.5,108.5C 121.5,114.5 121.5,120.5 121.5,126.5C 127.833,126.5 134.167,126.5 140.5,126.5C 140.824,133.354 140.491,140.021 139.5,146.5C 139.5,140.167 139.5,133.833 139.5,127.5C 133.167,127.5 126.833,127.5 120.5,127.5C 120.5,121.167 120.5,114.833 120.5,108.5 Z"/></g>
<g><path style="opacity:1" fill="#acacac" d="M 80.5,126.5 C 80.8333,126.5 81.1667,126.5 81.5,126.5C 75.3554,127.49 69.0221,127.823 62.5,127.5C 62.5,133.833 62.5,140.167 62.5,146.5C 61.5093,140.021 61.176,133.354 61.5,126.5C 67.8333,126.5 74.1667,126.5 80.5,126.5 Z"/></g>
</svg>
