<?xml version="1.0" encoding="UTF-8"?>
<!DOCTYPE svg PUBLIC "-//W3C//DTD SVG 1.1//EN" "http://www.w3.org/Graphics/SVG/1.1/DTD/svg11.dtd">
<svg xmlns="http://www.w3.org/2000/svg" version="1.1" width="147px" height="147px" style="shape-rendering:geometricPrecision; text-rendering:geometricPrecision; image-rendering:optimizeQuality; fill-rule:evenodd; clip-rule:evenodd" xmlns:xlink="http://www.w3.org/1999/xlink">
<g><path style="opacity:1" fill="#fdfdfd" d="M -0.5,-0.5 C 48.5,-0.5 97.5,-0.5 146.5,-0.5C 146.5,48.5 146.5,97.5 146.5,146.5C 97.5,146.5 48.5,146.5 -0.5,146.5C -0.5,97.5 -0.5,48.5 -0.5,-0.5 Z"/></g>
<g><path style="opacity:1" fill="#020202" d="M 128.5,29.5 C 127.511,34.9753 127.178,40.642 127.5,46.5C 121.5,46.5 115.5,46.5 109.5,46.5C 109.5,40.5 109.5,34.5 109.5,28.5C 90.1667,28.5 70.8333,28.5 51.5,28.5C 51.1713,41.3443 51.5046,54.011 52.5,66.5C 70.9925,67.4969 89.6592,67.8302 108.5,67.5C 108.178,73.358 108.511,79.0247 109.5,84.5C 115.645,85.4902 121.978,85.8235 128.5,85.5C 128.5,98.5 128.5,111.5 128.5,124.5C 122.167,124.5 115.833,124.5 109.5,124.5C 108.51,130.31 108.177,136.31 108.5,142.5C 102.642,142.178 96.9753,142.511 91.5,143.5C 71.8333,143.5 52.1667,143.5 32.5,143.5C 32.8235,136.978 32.4902,130.645 31.5,124.5C 25.69,123.51 19.69,123.177 13.5,123.5C 13.5,117.5 13.5,111.5 13.5,105.5C 26.1667,105.5 38.8333,105.5 51.5,105.5C 51.5,111.833 51.5,118.167 51.5,124.5C 64.3443,124.829 77.011,124.495 89.5,123.5C 89.5,111.167 89.5,98.8333 89.5,86.5C 64.3388,85.5023 39.0055,85.1689 13.5,85.5C 13.5,60.1667 13.5,34.8333 13.5,9.5C 51.8333,9.5 90.1667,9.5 128.5,9.5C 128.5,16.1667 128.5,22.8333 128.5,29.5 Z"/></g>
<g><path style="opacity:1" fill="#9b9b9b" d="M 109.5,46.5 C 115.645,47.4902 121.978,47.8235 128.5,47.5C 122.021,48.4907 115.354,48.824 108.5,48.5C 108.5,42.1667 108.5,35.8333 108.5,29.5C 89.8333,29.5 71.1667,29.5 52.5,29.5C 52.5,41.5 52.5,53.5 52.5,65.5C 71.674,65.1697 90.674,65.503 109.5,66.5C 90.5,66.5 71.5,66.5 52.5,66.5C 51.5046,54.011 51.1713,41.3443 51.5,28.5C 70.8333,28.5 90.1667,28.5 109.5,28.5C 109.5,34.5 109.5,40.5 109.5,46.5 Z"/></g>
<g><path style="opacity:1" fill="#2b2b2b" d="M 52.5,66.5 C 71.5,66.5 90.5,66.5 109.5,66.5C 109.5,72.5 109.5,78.5 109.5,84.5C 108.511,79.0247 108.178,73.358 108.5,67.5C 89.6592,67.8302 70.9925,67.4969 52.5,66.5 Z"/></g>
<g><path style="opacity:1" fill="#bfbfbf" d="M 109.5,66.5 C 110.49,72.31 110.823,78.31 110.5,84.5C 116.69,84.1771 122.69,84.5104 128.5,85.5C 121.978,85.8235 115.645,85.4902 109.5,84.5C 109.5,78.5 109.5,72.5 109.5,66.5 Z"/></g>
<g><path style="opacity:1" fill="#6e6e6e" d="M 128.5,47.5 C 128.5,41.5 128.5,35.5 128.5,29.5C 128.5,22.8333 128.5,16.1667 128.5,9.5C 90.1667,9.5 51.8333,9.5 13.5,9.5C 13.5,34.8333 13.5,60.1667 13.5,85.5C 39.0055,85.1689 64.3388,85.5023 89.5,86.5C 64.1667,86.5 38.8333,86.5 13.5,86.5C 12.5022,60.672 12.1689,34.672 12.5,8.5C 51.5,8.5 90.5,8.5 129.5,8.5C 129.829,21.6774 129.495,34.6774 128.5,47.5 Z"/></g>
<g><path style="opacity:1" fill="#222222" d="M 128.5,29.5 C 128.5,35.5 128.5,41.5 128.5,47.5C 121.978,47.8235 115.645,47.4902 109.5,46.5C 115.5,46.5 121.5,46.5 127.5,46.5C 127.178,40.642 127.511,34.9753 128.5,29.5 Z"/></g>
<g><path style="opacity:1" fill="#e8e8e8" d="M 13.5,86.5 C 38.8333,86.5 64.1667,86.5 89.5,86.5C 89.5,98.8333 89.5,111.167 89.5,123.5C 89.1667,123.5 88.8333,123.5 88.5,123.5C 88.5,111.5 88.5,99.5 88.5,87.5C 63.3278,87.831 38.3278,87.4977 13.5,86.5 Z"/></g>
<g><path style="opacity:1" fill="#5d5d5d" d="M 51.5,104.5 C 51.5,104.833 51.5,105.167 51.5,105.5C 38.8333,105.5 26.1667,105.5 13.5,105.5C 13.5,111.5 13.5,117.5 13.5,123.5C 19.69,123.177 25.69,123.51 31.5,124.5C 25.5,124.5 19.5,124.5 13.5,124.5C 12.5093,118.021 12.176,111.354 12.5,104.5C 25.5,104.5 38.5,104.5 51.5,104.5 Z"/></g>
<g><path style="opacity:1" fill="#7e7e7e" d="M 51.5,104.5 C 52.4902,110.645 52.8235,116.978 52.5,123.5C 64.5,123.5 76.5,123.5 88.5,123.5C 88.8333,123.5 89.1667,123.5 89.5,123.5C 77.011,124.495 64.3443,124.829 51.5,124.5C 51.5,118.167 51.5,111.833 51.5,105.5C 51.5,105.167 51.5,104.833 51.5,104.5 Z"/></g>
<g><path style="opacity:1" fill="#999999" d="M 13.5,124.5 C 19.5,124.5 25.5,124.5 31.5,124.5C 32.4902,130.645 32.8235,136.978 32.5,143.5C 31.5104,137.69 31.1771,131.69 31.5,125.5C 25.31,125.823 19.31,125.49 13.5,124.5 Z"/></g>
<g><path style="opacity:1" fill="#b7b7b7" d="M 109.5,124.5 C 115.833,124.5 122.167,124.5 128.5,124.5C 122.69,125.49 116.69,125.823 110.5,125.5C 110.823,131.69 110.49,137.69 109.5,143.5C 109.5,137.167 109.5,130.833 109.5,124.5 Z"/></g>
<g><path style="opacity:1" fill="#242424" d="M 109.5,124.5 C 109.5,130.833 109.5,137.167 109.5,143.5C 103.5,143.5 97.5,143.5 91.5,143.5C 96.9753,142.511 102.642,142.178 108.5,142.5C 108.177,136.31 108.51,130.31 109.5,124.5 Z"/></g>
</svg>
