<?xml version="1.0" encoding="UTF-8"?>
<!DOCTYPE svg PUBLIC "-//W3C//DTD SVG 1.1//EN" "http://www.w3.org/Graphics/SVG/1.1/DTD/svg11.dtd">
<svg xmlns="http://www.w3.org/2000/svg" version="1.1" width="154px" height="154px" style="shape-rendering:geometricPrecision; text-rendering:geometricPrecision; image-rendering:optimizeQuality; fill-rule:evenodd; clip-rule:evenodd" xmlns:xlink="http://www.w3.org/1999/xlink">
<g><path style="opacity:1" fill="#fdfdfd" d="M -0.5,-0.5 C 50.8333,-0.5 102.167,-0.5 153.5,-0.5C 153.5,50.8333 153.5,102.167 153.5,153.5C 102.167,153.5 50.8333,153.5 -0.5,153.5C -0.5,102.167 -0.5,50.8333 -0.5,-0.5 Z"/></g>
<g><path style="opacity:1" fill="#020202" d="M 34.5,9.5 C 59.8333,9.5 85.1667,9.5 110.5,9.5C 110.177,15.69 110.51,21.69 111.5,27.5C 117.31,28.4896 123.31,28.8229 129.5,28.5C 129.5,34.5 129.5,40.5 129.5,46.5C 123.642,46.1778 117.975,46.5111 112.5,47.5C 105.833,47.5 99.1667,47.5 92.5,47.5C 92.5,41.1667 92.5,34.8333 92.5,28.5C 79.5,28.5 66.5,28.5 53.5,28.5C 53.1713,41.3443 53.5046,54.011 54.5,66.5C 72.9925,67.4969 91.6592,67.8302 110.5,67.5C 110.178,73.358 110.511,79.0247 111.5,84.5C 117.645,85.4902 123.978,85.8235 130.5,85.5C 130.5,98.5 130.5,111.5 130.5,124.5C 124.167,124.5 117.833,124.5 111.5,124.5C 111.5,130.833 111.5,137.167 111.5,143.5C 85.8333,143.5 60.1667,143.5 34.5,143.5C 34.5,137.167 34.5,130.833 34.5,124.5C 28.1667,124.5 21.8333,124.5 15.5,124.5C 15.5,92.5 15.5,60.5 15.5,28.5C 21.8333,28.5 28.1667,28.5 34.5,28.5C 34.5,22.1667 34.5,15.8333 34.5,9.5 Z"/></g>
<g><path style="opacity:1" fill="#454545" d="M 34.5,9.5 C 34.5,9.16667 34.5,8.83333 34.5,8.5C 60.1667,8.5 85.8333,8.5 111.5,8.5C 111.5,14.8333 111.5,21.1667 111.5,27.5C 110.51,21.69 110.177,15.69 110.5,9.5C 85.1667,9.5 59.8333,9.5 34.5,9.5 Z"/></g>
<g><path style="opacity:1" fill="#7b7b7b" d="M 34.5,8.5 C 34.5,8.83333 34.5,9.16667 34.5,9.5C 34.5,15.8333 34.5,22.1667 34.5,28.5C 28.1667,28.5 21.8333,28.5 15.5,28.5C 21.31,27.5104 27.31,27.1771 33.5,27.5C 33.1765,20.9779 33.5098,14.6446 34.5,8.5 Z"/></g>
<g><path style="opacity:1" fill="#979797" d="M 112.5,47.5 C 118.5,47.5 124.5,47.5 130.5,47.5C 117.677,48.4955 104.677,48.8288 91.5,48.5C 91.5,42.1667 91.5,35.8333 91.5,29.5C 79.1667,29.5 66.8333,29.5 54.5,29.5C 54.5,41.5 54.5,53.5 54.5,65.5C 73.674,65.1697 92.674,65.503 111.5,66.5C 92.5,66.5 73.5,66.5 54.5,66.5C 53.5046,54.011 53.1713,41.3443 53.5,28.5C 66.5,28.5 79.5,28.5 92.5,28.5C 92.5,34.8333 92.5,41.1667 92.5,47.5C 99.1667,47.5 105.833,47.5 112.5,47.5 Z"/></g>
<g><path style="opacity:1" fill="#909090" d="M 111.5,27.5 C 118.167,27.5 124.833,27.5 131.5,27.5C 131.824,34.3543 131.491,41.021 130.5,47.5C 130.823,40.9779 130.49,34.6446 129.5,28.5C 123.31,28.8229 117.31,28.4896 111.5,27.5 Z"/></g>
<g><path style="opacity:1" fill="#222222" d="M 129.5,28.5 C 130.49,34.6446 130.823,40.9779 130.5,47.5C 124.5,47.5 118.5,47.5 112.5,47.5C 117.975,46.5111 123.642,46.1778 129.5,46.5C 129.5,40.5 129.5,34.5 129.5,28.5 Z"/></g>
<g><path style="opacity:1" fill="#2b2b2b" d="M 54.5,66.5 C 73.5,66.5 92.5,66.5 111.5,66.5C 111.5,72.5 111.5,78.5 111.5,84.5C 110.511,79.0247 110.178,73.358 110.5,67.5C 91.6592,67.8302 72.9925,67.4969 54.5,66.5 Z"/></g>
<g><path style="opacity:1" fill="#bfbfbf" d="M 111.5,66.5 C 112.49,72.31 112.823,78.31 112.5,84.5C 118.69,84.1771 124.69,84.5104 130.5,85.5C 123.978,85.8235 117.645,85.4902 111.5,84.5C 111.5,78.5 111.5,72.5 111.5,66.5 Z"/></g>
<g><path style="opacity:1" fill="#fefefe" d="M 54.5,87.5 C 66.5,87.5 78.5,87.5 90.5,87.5C 90.5,99.5 90.5,111.5 90.5,123.5C 90.5,111.5 90.5,99.5 90.5,87.5C 78.5,87.5 66.5,87.5 54.5,87.5 Z"/></g>
<g><path style="opacity:1" fill="#e2e2e2" d="M 54.5,87.5 C 66.6554,86.5048 78.9887,86.1714 91.5,86.5C 91.5,98.8333 91.5,111.167 91.5,123.5C 91.1667,123.5 90.8333,123.5 90.5,123.5C 90.5,111.5 90.5,99.5 90.5,87.5C 78.5,87.5 66.5,87.5 54.5,87.5 Z"/></g>
<g><path style="opacity:1" fill="#797979" d="M 91.5,86.5 C 78.9887,86.1714 66.6554,86.5048 54.5,87.5C 54.5,99.5 54.5,111.5 54.5,123.5C 66.5,123.5 78.5,123.5 90.5,123.5C 90.8333,123.5 91.1667,123.5 91.5,123.5C 79.011,124.495 66.3443,124.829 53.5,124.5C 53.5,111.5 53.5,98.5 53.5,85.5C 66.3443,85.1713 79.011,85.5046 91.5,86.5 Z"/></g>
<g><path style="opacity:1" fill="#979797" d="M 15.5,28.5 C 15.5,60.5 15.5,92.5 15.5,124.5C 21.8333,124.5 28.1667,124.5 34.5,124.5C 34.5,130.833 34.5,137.167 34.5,143.5C 33.5104,137.69 33.1771,131.69 33.5,125.5C 27.1667,125.5 20.8333,125.5 14.5,125.5C 14.1684,92.9957 14.5018,60.6624 15.5,28.5 Z"/></g>
<g><path style="opacity:1" fill="#b7b7b7" d="M 130.5,124.5 C 124.69,125.49 118.69,125.823 112.5,125.5C 112.823,131.69 112.49,137.69 111.5,143.5C 111.5,137.167 111.5,130.833 111.5,124.5C 117.833,124.5 124.167,124.5 130.5,124.5 Z"/></g>
</svg>
