<?xml version="1.0" encoding="UTF-8"?>
<!DOCTYPE svg PUBLIC "-//W3C//DTD SVG 1.1//EN" "http://www.w3.org/Graphics/SVG/1.1/DTD/svg11.dtd">
<svg xmlns="http://www.w3.org/2000/svg" version="1.1" width="157px" height="157px" style="shape-rendering:geometricPrecision; text-rendering:geometricPrecision; image-rendering:optimizeQuality; fill-rule:evenodd; clip-rule:evenodd" xmlns:xlink="http://www.w3.org/1999/xlink">
<g><path style="opacity:1" fill="#fefefe" d="M -0.5,-0.5 C 51.8333,-0.5 104.167,-0.5 156.5,-0.5C 156.5,51.8333 156.5,104.167 156.5,156.5C 104.167,156.5 51.8333,156.5 -0.5,156.5C -0.5,104.167 -0.5,51.8333 -0.5,-0.5 Z"/></g>
<g><path style="opacity:1" fill="#010101" d="M 134.5,69.5 C 127.978,69.1765 121.645,69.5098 115.5,70.5C 114.51,76.31 114.177,82.31 114.5,88.5C 108.31,88.1771 102.31,88.5104 96.5,89.5C 95.503,108.326 95.1697,127.326 95.5,146.5C 88.8333,146.5 82.1667,146.5 75.5,146.5C 70.0247,145.511 64.358,145.178 58.5,145.5C 58.8222,139.642 58.4889,133.975 57.5,128.5C 57.5,121.5 57.5,114.5 57.5,107.5C 58.4896,101.69 58.8229,95.69 58.5,89.5C 64.69,89.8229 70.69,89.4896 76.5,88.5C 76.5,88.1667 76.5,87.8333 76.5,87.5C 77.4889,82.0247 77.8222,76.358 77.5,70.5C 83.358,70.8222 89.0247,70.4889 94.5,69.5C 95.1174,69.3893 95.6174,69.056 96,68.5C 96.4999,56.1712 96.6665,43.8378 96.5,31.5C 83.5,31.5 70.5,31.5 57.5,31.5C 57.5,37.8333 57.5,44.1667 57.5,50.5C 44.8333,50.5 32.1667,50.5 19.5,50.5C 19.5,37.8333 19.5,25.1667 19.5,12.5C 57.8333,12.5 96.1667,12.5 134.5,12.5C 134.5,31.5 134.5,50.5 134.5,69.5 Z"/></g>
<g><path style="opacity:1" fill="#797979" d="M 134.5,69.5 C 134.5,50.5 134.5,31.5 134.5,12.5C 96.1667,12.5 57.8333,12.5 19.5,12.5C 19.5,25.1667 19.5,37.8333 19.5,50.5C 32.1667,50.5 44.8333,50.5 57.5,50.5C 44.6774,51.4955 31.6774,51.8288 18.5,51.5C 18.5,38.1667 18.5,24.8333 18.5,11.5C 57.5,11.5 96.5,11.5 135.5,11.5C 135.83,31.0072 135.497,50.3405 134.5,69.5 Z"/></g>
<g><path style="opacity:1" fill="#acacac" d="M 94.5,69.5 C 88.5,69.5 82.5,69.5 76.5,69.5C 82.31,68.5104 88.31,68.1771 94.5,68.5C 94.5,56.5 94.5,44.5 94.5,32.5C 82.5,32.5 70.5,32.5 58.5,32.5C 58.8229,38.69 58.4896,44.69 57.5,50.5C 57.5,44.1667 57.5,37.8333 57.5,31.5C 70.5,31.5 83.5,31.5 96.5,31.5C 96.6665,43.8378 96.4999,56.1712 96,68.5C 95.6174,69.056 95.1174,69.3893 94.5,69.5 Z"/></g>
<g><path style="opacity:1" fill="#a8a8a8" d="M 134.5,69.5 C 128.69,70.4896 122.69,70.8229 116.5,70.5C 116.823,77.0221 116.49,83.3554 115.5,89.5C 115.5,83.1667 115.5,76.8333 115.5,70.5C 121.645,69.5098 127.978,69.1765 134.5,69.5 Z"/></g>
<g><path style="opacity:1" fill="#3c3c3c" d="M 76.5,69.5 C 82.5,69.5 88.5,69.5 94.5,69.5C 89.0247,70.4889 83.358,70.8222 77.5,70.5C 77.8222,76.358 77.4889,82.0247 76.5,87.5C 76.5,81.5 76.5,75.5 76.5,69.5 Z"/></g>
<g><path style="opacity:1" fill="#c4c4c4" d="M 76.5,69.5 C 76.5,75.5 76.5,81.5 76.5,87.5C 76.5,87.8333 76.5,88.1667 76.5,88.5C 70.1667,88.5 63.8333,88.5 57.5,88.5C 63.31,87.5104 69.31,87.1771 75.5,87.5C 75.1771,81.31 75.5104,75.31 76.5,69.5 Z"/></g>
<g><path style="opacity:1" fill="#5b5b5b" d="M 115.5,70.5 C 115.5,76.8333 115.5,83.1667 115.5,89.5C 109.167,89.5 102.833,89.5 96.5,89.5C 102.31,88.5104 108.31,88.1771 114.5,88.5C 114.177,82.31 114.51,76.31 115.5,70.5 Z"/></g>
<g><path style="opacity:1" fill="#323232" d="M 57.5,88.5 C 63.8333,88.5 70.1667,88.5 76.5,88.5C 70.69,89.4896 64.69,89.8229 58.5,89.5C 58.8229,95.69 58.4896,101.69 57.5,107.5C 57.5,101.167 57.5,94.8333 57.5,88.5 Z"/></g>
<g><path style="opacity:1" fill="#202020" d="M 57.5,128.5 C 58.4889,133.975 58.8222,139.642 58.5,145.5C 64.358,145.178 70.0247,145.511 75.5,146.5C 69.5,146.5 63.5,146.5 57.5,146.5C 57.5,140.5 57.5,134.5 57.5,128.5 Z"/></g>
<g><path style="opacity:1" fill="#7f7f7f" d="M 96.5,89.5 C 96.5,108.833 96.5,128.167 96.5,147.5C 83.3226,147.829 70.3226,147.495 57.5,146.5C 63.5,146.5 69.5,146.5 75.5,146.5C 82.1667,146.5 88.8333,146.5 95.5,146.5C 95.1697,127.326 95.503,108.326 96.5,89.5 Z"/></g>
</svg>
