<?xml version="1.0" encoding="UTF-8"?>
<!DOCTYPE svg PUBLIC "-//W3C//DTD SVG 1.1//EN" "http://www.w3.org/Graphics/SVG/1.1/DTD/svg11.dtd">
<svg xmlns="http://www.w3.org/2000/svg" version="1.1" width="157px" height="157px" style="shape-rendering:geometricPrecision; text-rendering:geometricPrecision; image-rendering:optimizeQuality; fill-rule:evenodd; clip-rule:evenodd" xmlns:xlink="http://www.w3.org/1999/xlink">
<g><path style="opacity:1" fill="#fdfdfd" d="M -0.5,-0.5 C 51.8333,-0.5 104.167,-0.5 156.5,-0.5C 156.5,51.8333 156.5,104.167 156.5,156.5C 104.167,156.5 51.8333,156.5 -0.5,156.5C -0.5,104.167 -0.5,51.8333 -0.5,-0.5 Z"/></g>
<g><path style="opacity:1" fill="#020202" d="M 38.5,12.5 C 63.8333,12.5 89.1667,12.5 114.5,12.5C 114.177,18.69 114.51,24.69 115.5,30.5C 121.645,31.4902 127.978,31.8235 134.5,31.5C 134.5,44.1667 134.5,56.8333 134.5,69.5C 128.167,69.5 121.833,69.5 115.5,69.5C 115.5,75.8333 115.5,82.1667 115.5,88.5C 121.833,88.5 128.167,88.5 134.5,88.5C 134.5,101.5 134.5,114.5 134.5,127.5C 128.167,127.5 121.833,127.5 115.5,127.5C 115.5,133.833 115.5,140.167 115.5,146.5C 89.8333,146.5 64.1667,146.5 38.5,146.5C 38.8235,139.978 38.4902,133.645 37.5,127.5C 31.69,126.51 25.69,126.177 19.5,126.5C 19.5,114.167 19.5,101.833 19.5,89.5C 25.69,89.8229 31.69,89.4896 37.5,88.5C 38.4902,82.3554 38.8235,76.0221 38.5,69.5C 32.1667,69.5 25.8333,69.5 19.5,69.5C 19.5,56.8333 19.5,44.1667 19.5,31.5C 25.8333,31.5 32.1667,31.5 38.5,31.5C 38.5,25.1667 38.5,18.8333 38.5,12.5 Z"/></g>
<g><path style="opacity:1" fill="#464646" d="M 38.5,12.5 C 38.5,12.1667 38.5,11.8333 38.5,11.5C 64.1667,11.5 89.8333,11.5 115.5,11.5C 115.5,17.8333 115.5,24.1667 115.5,30.5C 114.51,24.69 114.177,18.69 114.5,12.5C 89.1667,12.5 63.8333,12.5 38.5,12.5 Z"/></g>
<g><path style="opacity:1" fill="#7b7b7b" d="M 38.5,11.5 C 38.5,11.8333 38.5,12.1667 38.5,12.5C 38.5,18.8333 38.5,25.1667 38.5,31.5C 32.1667,31.5 25.8333,31.5 19.5,31.5C 19.5,44.1667 19.5,56.8333 19.5,69.5C 25.8333,69.5 32.1667,69.5 38.5,69.5C 38.8235,76.0221 38.4902,82.3554 37.5,88.5C 37.5,82.5 37.5,76.5 37.5,70.5C 31.1667,70.5 24.8333,70.5 18.5,70.5C 18.5,57.1667 18.5,43.8333 18.5,30.5C 24.8333,30.5 31.1667,30.5 37.5,30.5C 37.1765,23.9779 37.5098,17.6446 38.5,11.5 Z"/></g>
<g><path style="opacity:1" fill="#fefefe" d="M 58.5,32.5 C 70.5,32.5 82.5,32.5 94.5,32.5C 94.5,44.5 94.5,56.5 94.5,68.5C 94.5,56.5 94.5,44.5 94.5,32.5C 82.5,32.5 70.5,32.5 58.5,32.5 Z"/></g>
<g><path style="opacity:1" fill="#d2d2d2" d="M 58.5,32.5 C 58.5,32.1667 58.5,31.8333 58.5,31.5C 70.8333,31.5 83.1667,31.5 95.5,31.5C 95.5,43.8333 95.5,56.1667 95.5,68.5C 95.1667,68.5 94.8333,68.5 94.5,68.5C 94.5,56.5 94.5,44.5 94.5,32.5C 82.5,32.5 70.5,32.5 58.5,32.5 Z"/></g>
<g><path style="opacity:1" fill="#929292" d="M 115.5,30.5 C 122.167,30.5 128.833,30.5 135.5,30.5C 135.829,43.6774 135.495,56.6774 134.5,69.5C 134.5,56.8333 134.5,44.1667 134.5,31.5C 127.978,31.8235 121.645,31.4902 115.5,30.5 Z"/></g>
<g><path style="opacity:1" fill="#9b9b9b" d="M 58.5,31.5 C 58.5,31.8333 58.5,32.1667 58.5,32.5C 58.5,44.5 58.5,56.5 58.5,68.5C 70.5,68.5 82.5,68.5 94.5,68.5C 94.8333,68.5 95.1667,68.5 95.5,68.5C 83.011,69.4954 70.3443,69.8287 57.5,69.5C 57.1713,56.6557 57.5046,43.989 58.5,31.5 Z"/></g>
<g><path style="opacity:1" fill="#b0b0b0" d="M 134.5,69.5 C 128.69,70.4896 122.69,70.8229 116.5,70.5C 116.5,76.1667 116.5,81.8333 116.5,87.5C 122.69,87.1771 128.69,87.5104 134.5,88.5C 128.167,88.5 121.833,88.5 115.5,88.5C 115.5,82.1667 115.5,75.8333 115.5,69.5C 121.833,69.5 128.167,69.5 134.5,69.5 Z"/></g>
<g><path style="opacity:1" fill="#5f5f5f" d="M 37.5,88.5 C 31.69,89.4896 25.69,89.8229 19.5,89.5C 19.5,101.833 19.5,114.167 19.5,126.5C 25.69,126.177 31.69,126.51 37.5,127.5C 31.1667,127.5 24.8333,127.5 18.5,127.5C 18.5,114.5 18.5,101.5 18.5,88.5C 24.8333,88.5 31.1667,88.5 37.5,88.5 Z"/></g>
<g><path style="opacity:1" fill="#fefefe" d="M 58.5,90.5 C 70.5,90.5 82.5,90.5 94.5,90.5C 94.5,102.5 94.5,114.5 94.5,126.5C 94.5,114.5 94.5,102.5 94.5,90.5C 82.5,90.5 70.5,90.5 58.5,90.5 Z"/></g>
<g><path style="opacity:1" fill="#aeaeae" d="M 95.5,126.5 C 95.1667,126.5 94.8333,126.5 94.5,126.5C 94.5,114.5 94.5,102.5 94.5,90.5C 82.5,90.5 70.5,90.5 58.5,90.5C 58.5,90.1667 58.5,89.8333 58.5,89.5C 70.6597,88.3401 82.9931,88.1735 95.5,89C 96.8296,101.598 96.8296,114.098 95.5,126.5 Z"/></g>
<g><path style="opacity:1" fill="#808080" d="M 58.5,89.5 C 58.5,89.8333 58.5,90.1667 58.5,90.5C 58.5,102.5 58.5,114.5 58.5,126.5C 70.5,126.5 82.5,126.5 94.5,126.5C 94.8333,126.5 95.1667,126.5 95.5,126.5C 83.011,127.495 70.3443,127.829 57.5,127.5C 57.1713,114.656 57.5046,101.989 58.5,89.5 Z"/></g>
<g><path style="opacity:1" fill="#9a9a9a" d="M 18.5,127.5 C 24.8333,127.5 31.1667,127.5 37.5,127.5C 38.4902,133.645 38.8235,139.978 38.5,146.5C 37.5104,140.69 37.1771,134.69 37.5,128.5C 30.9779,128.823 24.6446,128.49 18.5,127.5 Z"/></g>
<g><path style="opacity:1" fill="#b6b6b6" d="M 134.5,127.5 C 128.69,128.49 122.69,128.823 116.5,128.5C 116.823,134.69 116.49,140.69 115.5,146.5C 115.5,140.167 115.5,133.833 115.5,127.5C 121.833,127.5 128.167,127.5 134.5,127.5 Z"/></g>
</svg>
