<?xml version="1.0" encoding="UTF-8"?>
<!DOCTYPE svg PUBLIC "-//W3C//DTD SVG 1.1//EN" "http://www.w3.org/Graphics/SVG/1.1/DTD/svg11.dtd">
<svg xmlns="http://www.w3.org/2000/svg" version="1.1" width="150px" height="150px" style="shape-rendering:geometricPrecision; text-rendering:geometricPrecision; image-rendering:optimizeQuality; fill-rule:evenodd; clip-rule:evenodd" xmlns:xlink="http://www.w3.org/1999/xlink">
<g><path style="opacity:1" fill="#fdfdfd" d="M -0.5,-0.5 C 49.5,-0.5 99.5,-0.5 149.5,-0.5C 149.5,49.5 149.5,99.5 149.5,149.5C 99.5,149.5 49.5,149.5 -0.5,149.5C -0.5,99.5 -0.5,49.5 -0.5,-0.5 Z"/></g>
<g><path style="opacity:1" fill="#020202" d="M 118.5,27.5 C 124.645,28.4902 130.978,28.8235 137.5,28.5C 137.5,60.5 137.5,92.5 137.5,124.5C 131.167,124.5 124.833,124.5 118.5,124.5C 118.5,130.833 118.5,137.167 118.5,143.5C 92.8333,143.5 67.1667,143.5 41.5,143.5C 41.8235,136.978 41.4902,130.645 40.5,124.5C 34.69,123.51 28.69,123.177 22.5,123.5C 22.5,117.5 22.5,111.5 22.5,105.5C 35.1667,105.5 47.8333,105.5 60.5,105.5C 60.5,111.833 60.5,118.167 60.5,124.5C 73.3443,124.829 86.011,124.495 98.5,123.5C 98.5,111.167 98.5,98.8333 98.5,86.5C 79.674,85.503 60.674,85.1697 41.5,85.5C 41.5,79.1667 41.5,72.8333 41.5,66.5C 35.1667,66.5 28.8333,66.5 22.5,66.5C 22.5,53.8333 22.5,41.1667 22.5,28.5C 28.31,27.5104 34.31,27.1771 40.5,27.5C 41.4896,21.69 41.8229,15.69 41.5,9.5C 66.8333,9.5 92.1667,9.5 117.5,9.5C 117.177,15.69 117.51,21.69 118.5,27.5 Z"/></g>
<g><path style="opacity:1" fill="#4f4f4f" d="M 118.5,27.5 C 117.51,21.69 117.177,15.69 117.5,9.5C 92.1667,9.5 66.8333,9.5 41.5,9.5C 41.8229,15.69 41.4896,21.69 40.5,27.5C 40.5,21.1667 40.5,14.8333 40.5,8.5C 66.5,8.5 92.5,8.5 118.5,8.5C 118.5,14.8333 118.5,21.1667 118.5,27.5 Z"/></g>
<g><path style="opacity:1" fill="#969696" d="M 118.5,27.5 C 125.167,27.5 131.833,27.5 138.5,27.5C 138.832,60.0043 138.498,92.3376 137.5,124.5C 137.5,92.5 137.5,60.5 137.5,28.5C 130.978,28.8235 124.645,28.4902 118.5,27.5 Z"/></g>
<g><path style="opacity:1" fill="#8b8b8b" d="M 61.5,28.5 C 61.5,28.8333 61.5,29.1667 61.5,29.5C 61.5,41.5 61.5,53.5 61.5,65.5C 73.5,65.5 85.5,65.5 97.5,65.5C 98.4952,53.3446 98.8286,41.0113 98.5,28.5C 99.4954,40.989 99.8287,53.6557 99.5,66.5C 86.5,66.5 73.5,66.5 60.5,66.5C 60.1713,53.6557 60.5046,40.989 61.5,28.5 Z"/></g>
<g><path style="opacity:1" fill="#d2d2d2" d="M 61.5,29.5 C 61.5,29.1667 61.5,28.8333 61.5,28.5C 73.8333,28.5 86.1667,28.5 98.5,28.5C 98.8286,41.0113 98.4952,53.3446 97.5,65.5C 85.5,65.5 73.5,65.5 61.5,65.5C 61.5,53.5 61.5,41.5 61.5,29.5 Z"/></g>
<g><path style="opacity:1" fill="#fefefe" d="M 61.5,29.5 C 73.5,29.5 85.5,29.5 97.5,29.5C 97.5,41.5 97.5,53.5 97.5,65.5C 97.5,53.5 97.5,41.5 97.5,29.5C 85.5,29.5 73.5,29.5 61.5,29.5 Z"/></g>
<g><path style="opacity:1" fill="#7d7d7d" d="M 22.5,28.5 C 22.5,41.1667 22.5,53.8333 22.5,66.5C 28.8333,66.5 35.1667,66.5 41.5,66.5C 41.5,72.8333 41.5,79.1667 41.5,85.5C 60.674,85.1697 79.674,85.503 98.5,86.5C 79.5,86.5 60.5,86.5 41.5,86.5C 40.5098,80.3554 40.1765,74.0221 40.5,67.5C 34.1667,67.5 27.8333,67.5 21.5,67.5C 21.1712,54.3226 21.5045,41.3226 22.5,28.5 Z"/></g>
<g><path style="opacity:1" fill="#e8e8e8" d="M 41.5,86.5 C 60.5,86.5 79.5,86.5 98.5,86.5C 98.5,98.8333 98.5,111.167 98.5,123.5C 98.1667,123.5 97.8333,123.5 97.5,123.5C 97.5,111.5 97.5,99.5 97.5,87.5C 78.6592,87.8302 59.9925,87.4969 41.5,86.5 Z"/></g>
<g><path style="opacity:1" fill="#5d5d5d" d="M 60.5,104.5 C 60.5,104.833 60.5,105.167 60.5,105.5C 47.8333,105.5 35.1667,105.5 22.5,105.5C 22.5,111.5 22.5,117.5 22.5,123.5C 28.69,123.177 34.69,123.51 40.5,124.5C 34.1667,124.5 27.8333,124.5 21.5,124.5C 21.5,117.833 21.5,111.167 21.5,104.5C 34.5,104.5 47.5,104.5 60.5,104.5 Z"/></g>
<g><path style="opacity:1" fill="#7e7e7e" d="M 60.5,104.5 C 61.4902,110.645 61.8235,116.978 61.5,123.5C 73.5,123.5 85.5,123.5 97.5,123.5C 97.8333,123.5 98.1667,123.5 98.5,123.5C 86.011,124.495 73.3443,124.829 60.5,124.5C 60.5,118.167 60.5,111.833 60.5,105.5C 60.5,105.167 60.5,104.833 60.5,104.5 Z"/></g>
<g><path style="opacity:1" fill="#9a9a9a" d="M 21.5,124.5 C 27.8333,124.5 34.1667,124.5 40.5,124.5C 41.4902,130.645 41.8235,136.978 41.5,143.5C 40.5104,137.69 40.1771,131.69 40.5,125.5C 33.9779,125.823 27.6446,125.49 21.5,124.5 Z"/></g>
<g><path style="opacity:1" fill="#b6b6b6" d="M 137.5,124.5 C 131.69,125.49 125.69,125.823 119.5,125.5C 119.823,131.69 119.49,137.69 118.5,143.5C 118.5,137.167 118.5,130.833 118.5,124.5C 124.833,124.5 131.167,124.5 137.5,124.5 Z"/></g>
</svg>
