<?xml version="1.0" encoding="UTF-8"?>
<!DOCTYPE svg PUBLIC "-//W3C//DTD SVG 1.1//EN" "http://www.w3.org/Graphics/SVG/1.1/DTD/svg11.dtd">
<svg xmlns="http://www.w3.org/2000/svg" version="1.1" width="150px" height="150px" style="shape-rendering:geometricPrecision; text-rendering:geometricPrecision; image-rendering:optimizeQuality; fill-rule:evenodd; clip-rule:evenodd" xmlns:xlink="http://www.w3.org/1999/xlink">
<g><path style="opacity:1" fill="#fefefe" d="M -0.5,-0.5 C 49.5,-0.5 99.5,-0.5 149.5,-0.5C 149.5,49.5 149.5,99.5 149.5,149.5C 99.5,149.5 49.5,149.5 -0.5,149.5C -0.5,99.5 -0.5,49.5 -0.5,-0.5 Z"/></g>
<g><path style="opacity:1" fill="#030303" d="M 23.5,44.5 C 48.8333,44.5 74.1667,44.5 99.5,44.5C 99.1771,50.69 99.5104,56.69 100.5,62.5C 100.5,63.1667 100.833,63.5 101.5,63.5C 106.975,64.4889 112.642,64.8222 118.5,64.5C 118.178,70.358 118.511,76.0247 119.5,81.5C 119.5,94.8333 119.5,108.167 119.5,121.5C 125.833,121.5 132.167,121.5 138.5,121.5C 138.5,127.833 138.5,134.167 138.5,140.5C 125.833,140.5 113.167,140.5 100.5,140.5C 100.823,133.978 100.49,127.645 99.5,121.5C 93.69,120.51 87.69,120.177 81.5,120.5C 81.8229,114.31 81.4896,108.31 80.5,102.5C 68.1667,102.5 55.8333,102.5 43.5,102.5C 42.5098,108.645 42.1765,114.978 42.5,121.5C 55.1667,121.5 67.8333,121.5 80.5,121.5C 80.5,127.833 80.5,134.167 80.5,140.5C 61.5,140.5 42.5,140.5 23.5,140.5C 23.5,134.167 23.5,127.833 23.5,121.5C 17.1667,121.5 10.8333,121.5 4.5,121.5C 4.5,115.167 4.5,108.833 4.5,102.5C 10.31,101.51 16.31,101.177 22.5,101.5C 23.4902,95.3554 23.8235,89.0221 23.5,82.5C 42.8333,82.5 62.1667,82.5 81.5,82.5C 81.8097,76.2424 81.4764,70.0758 80.5,64C 61.5029,63.5001 42.5029,63.3334 23.5,63.5C 23.5,57.1667 23.5,50.8333 23.5,44.5 Z"/></g>
<g><path style="opacity:1" fill="#5e5e5e" d="M 23.5,44.5 C 49.1667,43.1667 74.8333,43.1667 100.5,44.5C 100.5,50.5 100.5,56.5 100.5,62.5C 99.5104,56.69 99.1771,50.69 99.5,44.5C 74.1667,44.5 48.8333,44.5 23.5,44.5 Z"/></g>
<g><path style="opacity:1" fill="#aeaeae" d="M 100.5,44.5 C 101.49,50.31 101.823,56.31 101.5,62.5C 107.69,62.1771 113.69,62.5104 119.5,63.5C 113.5,63.5 107.5,63.5 101.5,63.5C 100.833,63.5 100.5,63.1667 100.5,62.5C 100.5,56.5 100.5,50.5 100.5,44.5 Z"/></g>
<g><path style="opacity:1" fill="#232323" d="M 101.5,63.5 C 107.5,63.5 113.5,63.5 119.5,63.5C 119.5,69.5 119.5,75.5 119.5,81.5C 118.511,76.0247 118.178,70.358 118.5,64.5C 112.642,64.8222 106.975,64.4889 101.5,63.5 Z"/></g>
<g><path style="opacity:1" fill="#a7a7a7" d="M 23.5,63.5 C 42.5029,63.3334 61.5029,63.5001 80.5,64C 81.4764,70.0758 81.8097,76.2424 81.5,82.5C 62.1667,82.5 42.8333,82.5 23.5,82.5C 23.8235,89.0221 23.4902,95.3554 22.5,101.5C 22.5,94.8333 22.5,88.1667 22.5,81.5C 41.5,81.5 60.5,81.5 79.5,81.5C 79.5,75.8333 79.5,70.1667 79.5,64.5C 60.6592,64.8302 41.9925,64.4969 23.5,63.5 Z"/></g>
<g><path style="opacity:1" fill="#979797" d="M 119.5,63.5 C 120.497,82.326 120.83,101.326 120.5,120.5C 126.69,120.177 132.69,120.51 138.5,121.5C 132.167,121.5 125.833,121.5 119.5,121.5C 119.5,108.167 119.5,94.8333 119.5,81.5C 119.5,75.5 119.5,69.5 119.5,63.5 Z"/></g>
<g><path style="opacity:1" fill="#d1d1d1" d="M 43.5,103.5 C 43.5,103.167 43.5,102.833 43.5,102.5C 55.8333,102.5 68.1667,102.5 80.5,102.5C 80.5,108.5 80.5,114.5 80.5,120.5C 80.1667,120.5 79.8333,120.5 79.5,120.5C 79.5,114.833 79.5,109.167 79.5,103.5C 67.5,103.5 55.5,103.5 43.5,103.5 Z"/></g>
<g><path style="opacity:1" fill="#fefefe" d="M 43.5,103.5 C 55.5,103.5 67.5,103.5 79.5,103.5C 79.5,109.167 79.5,114.833 79.5,120.5C 67.5,120.5 55.5,120.5 43.5,120.5C 43.5,114.833 43.5,109.167 43.5,103.5 Z"/></g>
<g><path style="opacity:1" fill="#7f7f7f" d="M 43.5,102.5 C 43.5,102.833 43.5,103.167 43.5,103.5C 43.5,109.167 43.5,114.833 43.5,120.5C 55.5,120.5 67.5,120.5 79.5,120.5C 79.8333,120.5 80.1667,120.5 80.5,120.5C 80.5,120.833 80.5,121.167 80.5,121.5C 67.8333,121.5 55.1667,121.5 42.5,121.5C 42.1765,114.978 42.5098,108.645 43.5,102.5 Z"/></g>
<g><path style="opacity:1" fill="#606060" d="M 80.5,102.5 C 81.4896,108.31 81.8229,114.31 81.5,120.5C 87.69,120.177 93.69,120.51 99.5,121.5C 93.5,121.5 87.5,121.5 81.5,121.5C 81.5,127.833 81.5,134.167 81.5,140.5C 62.1667,141.833 42.8333,141.833 23.5,140.5C 42.5,140.5 61.5,140.5 80.5,140.5C 80.5,134.167 80.5,127.833 80.5,121.5C 80.5,121.167 80.5,120.833 80.5,120.5C 80.5,114.5 80.5,108.5 80.5,102.5 Z"/></g>
<g><path style="opacity:1" fill="#9a9a9a" d="M 4.5,102.5 C 4.5,108.833 4.5,115.167 4.5,121.5C 10.8333,121.5 17.1667,121.5 23.5,121.5C 23.5,127.833 23.5,134.167 23.5,140.5C 22.5104,134.69 22.1771,128.69 22.5,122.5C 16.1667,122.5 9.83333,122.5 3.5,122.5C 3.17596,115.646 3.50929,108.979 4.5,102.5 Z"/></g>
<g><path style="opacity:1" fill="#b3b3b3" d="M 99.5,121.5 C 100.49,127.645 100.823,133.978 100.5,140.5C 99.5104,134.69 99.1771,128.69 99.5,122.5C 93.8333,122.5 88.1667,122.5 82.5,122.5C 82.8229,128.69 82.4896,134.69 81.5,140.5C 81.5,134.167 81.5,127.833 81.5,121.5C 87.5,121.5 93.5,121.5 99.5,121.5 Z"/></g>
</svg>
