<?xml version="1.0" encoding="UTF-8"?>
<!DOCTYPE svg PUBLIC "-//W3C//DTD SVG 1.1//EN" "http://www.w3.org/Graphics/SVG/1.1/DTD/svg11.dtd">
<svg xmlns="http://www.w3.org/2000/svg" version="1.1" width="154px" height="154px" style="shape-rendering:geometricPrecision; text-rendering:geometricPrecision; image-rendering:optimizeQuality; fill-rule:evenodd; clip-rule:evenodd" xmlns:xlink="http://www.w3.org/1999/xlink">
<g><path style="opacity:1" fill="#fefefe" d="M -0.5,-0.5 C 50.8333,-0.5 102.167,-0.5 153.5,-0.5C 153.5,50.8333 153.5,102.167 153.5,153.5C 102.167,153.5 50.8333,153.5 -0.5,153.5C -0.5,102.167 -0.5,50.8333 -0.5,-0.5 Z"/></g>
<g><path style="opacity:1" fill="#d7d7d7" d="M 65.5,8.5 C 46.326,8.16971 27.326,8.50304 8.5,9.5C 8.16667,9.5 7.83333,9.5 7.5,9.5C 16.8095,8.16815 26.4761,7.50148 36.5,7.5C 46.3392,7.50018 56.0059,7.83351 65.5,8.5 Z"/></g>
<g><path style="opacity:1" fill="#000000" d="M 8.5,9.5 C 27.5,9.5 46.5,9.5 65.5,9.5C 65.5,22.1667 65.5,34.8333 65.5,47.5C 84.8333,47.5 104.167,47.5 123.5,47.5C 123.5,53.8333 123.5,60.1667 123.5,66.5C 129.833,66.5 136.167,66.5 142.5,66.5C 142.5,85.5 142.5,104.5 142.5,123.5C 136.31,123.177 130.31,123.51 124.5,124.5C 124.167,124.5 123.833,124.5 123.5,124.5C 122.51,130.31 122.177,136.31 122.5,142.5C 116.642,142.178 110.975,142.511 105.5,143.5C 92.5,143.5 79.5,143.5 66.5,143.5C 66.5,137.167 66.5,130.833 66.5,124.5C 79.0113,124.829 91.3446,124.495 103.5,123.5C 104.497,104.674 104.83,85.674 104.5,66.5C 91.6557,66.1713 78.989,66.5046 66.5,67.5C 65.503,86.326 65.1697,105.326 65.5,124.5C 59.1667,124.5 52.8333,124.5 46.5,124.5C 46.5,130.833 46.5,137.167 46.5,143.5C 33.8333,143.5 21.1667,143.5 8.5,143.5C 8.5,137.167 8.5,130.833 8.5,124.5C 14.8333,124.5 21.1667,124.5 27.5,124.5C 27.8316,92.329 27.4982,60.329 26.5,28.5C 20.69,27.5104 14.69,27.1771 8.5,27.5C 8.5,21.5 8.5,15.5 8.5,9.5 Z"/></g>
<g><path style="opacity:1" fill="#505050" d="M 7.5,9.5 C 7.83333,9.5 8.16667,9.5 8.5,9.5C 8.5,15.5 8.5,21.5 8.5,27.5C 14.69,27.1771 20.69,27.5104 26.5,28.5C 20.5,28.5 14.5,28.5 8.5,28.5C 7.50984,22.3554 7.1765,16.0221 7.5,9.5 Z"/></g>
<g><path style="opacity:1" fill="#707070" d="M 8.5,9.5 C 27.326,8.50304 46.326,8.16971 65.5,8.5C 66.4954,20.989 66.8287,33.6557 66.5,46.5C 85.674,46.1697 104.674,46.503 123.5,47.5C 104.167,47.5 84.8333,47.5 65.5,47.5C 65.5,34.8333 65.5,22.1667 65.5,9.5C 46.5,9.5 27.5,9.5 8.5,9.5 Z"/></g>
<g><path style="opacity:1" fill="#8e8e8e" d="M 8.5,28.5 C 14.5,28.5 20.5,28.5 26.5,28.5C 27.4982,60.329 27.8316,92.329 27.5,124.5C 21.1667,124.5 14.8333,124.5 8.5,124.5C 14.31,123.51 20.31,123.177 26.5,123.5C 26.5,92.1667 26.5,60.8333 26.5,29.5C 20.31,29.8229 14.31,29.4896 8.5,28.5 Z"/></g>
<g><path style="opacity:1" fill="#a5a5a5" d="M 123.5,47.5 C 124.49,53.31 124.823,59.31 124.5,65.5C 130.69,65.1771 136.69,65.5104 142.5,66.5C 136.167,66.5 129.833,66.5 123.5,66.5C 123.5,60.1667 123.5,53.8333 123.5,47.5 Z"/></g>
<g><path style="opacity:1" fill="#fefefe" d="M 66.5,67.5 C 78.8333,67.5 91.1667,67.5 103.5,67.5C 103.5,86.1667 103.5,104.833 103.5,123.5C 91.1667,123.5 78.8333,123.5 66.5,123.5C 66.5,104.833 66.5,86.1667 66.5,67.5 Z"/></g>
<g><path style="opacity:1" fill="#7c7c7c" d="M 66.5,67.5 C 78.989,66.5046 91.6557,66.1713 104.5,66.5C 104.83,85.674 104.497,104.674 103.5,123.5C 103.5,104.833 103.5,86.1667 103.5,67.5C 91.1667,67.5 78.8333,67.5 66.5,67.5 Z"/></g>
<g><path style="opacity:1" fill="#565656" d="M 142.5,66.5 C 143.833,85.8333 143.833,105.167 142.5,124.5C 136.5,124.5 130.5,124.5 124.5,124.5C 130.31,123.51 136.31,123.177 142.5,123.5C 142.5,104.5 142.5,85.5 142.5,66.5 Z"/></g>
<g><path style="opacity:1" fill="#afafaf" d="M 65.5,124.5 C 65.5,130.833 65.5,137.167 65.5,143.5C 64.5104,137.69 64.1771,131.69 64.5,125.5C 58.8333,125.5 53.1667,125.5 47.5,125.5C 47.8229,131.69 47.4896,137.69 46.5,143.5C 46.5,137.167 46.5,130.833 46.5,124.5C 52.8333,124.5 59.1667,124.5 65.5,124.5 Z"/></g>
<g><path style="opacity:1" fill="#6c6c6c" d="M 66.5,67.5 C 66.5,86.1667 66.5,104.833 66.5,123.5C 78.8333,123.5 91.1667,123.5 103.5,123.5C 91.3446,124.495 79.0113,124.829 66.5,124.5C 66.5,130.833 66.5,137.167 66.5,143.5C 79.5,143.5 92.5,143.5 105.5,143.5C 111.5,143.5 117.5,143.5 123.5,143.5C 104.167,144.833 84.8333,144.833 65.5,143.5C 65.5,137.167 65.5,130.833 65.5,124.5C 65.1697,105.326 65.503,86.326 66.5,67.5 Z"/></g>
<g><path style="opacity:1" fill="#a5a5a5" d="M 123.5,124.5 C 123.833,124.5 124.167,124.5 124.5,124.5C 130.5,124.5 136.5,124.5 142.5,124.5C 136.69,125.49 130.69,125.823 124.5,125.5C 124.823,131.69 124.49,137.69 123.5,143.5C 123.5,137.167 123.5,130.833 123.5,124.5 Z"/></g>
<g><path style="opacity:1" fill="#1c1c1c" d="M 123.5,124.5 C 123.5,130.833 123.5,137.167 123.5,143.5C 117.5,143.5 111.5,143.5 105.5,143.5C 110.975,142.511 116.642,142.178 122.5,142.5C 122.177,136.31 122.51,130.31 123.5,124.5 Z"/></g>
<g><path style="opacity:1" fill="#909090" d="M 8.5,124.5 C 8.5,130.833 8.5,137.167 8.5,143.5C 21.1667,143.5 33.8333,143.5 46.5,143.5C 33.6774,144.495 20.6774,144.829 7.5,144.5C 7.17596,137.646 7.50929,130.979 8.5,124.5 Z"/></g>
</svg>
