<?xml version="1.0" encoding="UTF-8"?>
<!DOCTYPE svg PUBLIC "-//W3C//DTD SVG 1.1//EN" "http://www.w3.org/Graphics/SVG/1.1/DTD/svg11.dtd">
<svg xmlns="http://www.w3.org/2000/svg" version="1.1" width="144px" height="144px" style="shape-rendering:geometricPrecision; text-rendering:geometricPrecision; image-rendering:optimizeQuality; fill-rule:evenodd; clip-rule:evenodd" xmlns:xlink="http://www.w3.org/1999/xlink">
<g><path style="opacity:1" fill="#fefefe" d="M -0.5,-0.5 C 47.5,-0.5 95.5,-0.5 143.5,-0.5C 143.5,47.5 143.5,95.5 143.5,143.5C 95.5,143.5 47.5,143.5 -0.5,143.5C -0.5,95.5 -0.5,47.5 -0.5,-0.5 Z"/></g>
<g><path style="opacity:1" fill="#020202" d="M 32.5,41.5 C 57.8333,41.5 83.1667,41.5 108.5,41.5C 108.177,47.69 108.51,53.69 109.5,59.5C 109.5,60.1667 109.833,60.5 110.5,60.5C 115.975,61.4889 121.642,61.8222 127.5,61.5C 127.5,67.5 127.5,73.5 127.5,79.5C 115.167,79.5 102.833,79.5 90.5,79.5C 89.5104,73.69 89.1771,67.69 89.5,61.5C 77.011,60.5046 64.3443,60.1713 51.5,60.5C 51.5,79.8333 51.5,99.1667 51.5,118.5C 64.3443,118.829 77.011,118.495 89.5,117.5C 90.4896,111.69 90.8229,105.69 90.5,99.5C 103.167,99.5 115.833,99.5 128.5,99.5C 128.5,105.833 128.5,112.167 128.5,118.5C 122.167,118.5 115.833,118.5 109.5,118.5C 109.5,124.833 109.5,131.167 109.5,137.5C 83.8333,137.5 58.1667,137.5 32.5,137.5C 32.5,131.167 32.5,124.833 32.5,118.5C 26.1667,118.5 19.8333,118.5 13.5,118.5C 13.5,99.1667 13.5,79.8333 13.5,60.5C 19.8333,60.5 26.1667,60.5 32.5,60.5C 32.5,54.1667 32.5,47.8333 32.5,41.5 Z"/></g>
<g><path style="opacity:1" fill="#5d5d5d" d="M 32.5,41.5 C 58.1667,40.1667 83.8333,40.1667 109.5,41.5C 109.5,47.5 109.5,53.5 109.5,59.5C 108.51,53.69 108.177,47.69 108.5,41.5C 83.1667,41.5 57.8333,41.5 32.5,41.5 Z"/></g>
<g><path style="opacity:1" fill="#a0a0a0" d="M 32.5,41.5 C 32.5,47.8333 32.5,54.1667 32.5,60.5C 26.1667,60.5 19.8333,60.5 13.5,60.5C 19.31,59.5104 25.31,59.1771 31.5,59.5C 31.1771,53.31 31.5104,47.31 32.5,41.5 Z"/></g>
<g><path style="opacity:1" fill="#adadad" d="M 109.5,41.5 C 110.49,47.31 110.823,53.31 110.5,59.5C 116.69,59.1771 122.69,59.5104 128.5,60.5C 122.5,60.5 116.5,60.5 110.5,60.5C 109.833,60.5 109.5,60.1667 109.5,59.5C 109.5,53.5 109.5,47.5 109.5,41.5 Z"/></g>
<g><path style="opacity:1" fill="#212121" d="M 110.5,60.5 C 116.5,60.5 122.5,60.5 128.5,60.5C 128.823,67.0221 128.49,73.3554 127.5,79.5C 127.5,73.5 127.5,67.5 127.5,61.5C 121.642,61.8222 115.975,61.4889 110.5,60.5 Z"/></g>
<g><path style="opacity:1" fill="#7a7a7a" d="M 128.5,60.5 C 129.833,67.1667 129.833,73.8333 128.5,80.5C 115.656,80.8287 102.989,80.4954 90.5,79.5C 102.833,79.5 115.167,79.5 127.5,79.5C 128.49,73.3554 128.823,67.0221 128.5,60.5 Z"/></g>
<g><path style="opacity:1" fill="#848484" d="M 89.5,61.5 C 89.1667,61.5 88.8333,61.5 88.5,61.5C 76.5,61.5 64.5,61.5 52.5,61.5C 52.5,80.1667 52.5,98.8333 52.5,117.5C 64.8333,117.5 77.1667,117.5 89.5,117.5C 77.011,118.495 64.3443,118.829 51.5,118.5C 51.5,99.1667 51.5,79.8333 51.5,60.5C 64.3443,60.1713 77.011,60.5046 89.5,61.5 Z"/></g>
<g><path style="opacity:1" fill="#e8e8e8" d="M 88.5,61.5 C 88.8333,61.5 89.1667,61.5 89.5,61.5C 89.1771,67.69 89.5104,73.69 90.5,79.5C 102.989,80.4954 115.656,80.8287 128.5,80.5C 115.673,81.6602 102.673,81.8269 89.5,81C 88.5223,74.5898 88.189,68.0898 88.5,61.5 Z"/></g>
<g><path style="opacity:1" fill="#6e6e6e" d="M 128.5,118.5 C 128.5,112.167 128.5,105.833 128.5,99.5C 115.833,99.5 103.167,99.5 90.5,99.5C 90.8229,105.69 90.4896,111.69 89.5,117.5C 89.5,111.167 89.5,104.833 89.5,98.5C 102.833,98.5 116.167,98.5 129.5,98.5C 129.824,105.354 129.491,112.021 128.5,118.5 Z"/></g>
<g><path style="opacity:1" fill="#979797" d="M 13.5,60.5 C 13.5,79.8333 13.5,99.1667 13.5,118.5C 19.8333,118.5 26.1667,118.5 32.5,118.5C 32.5,124.833 32.5,131.167 32.5,137.5C 31.5104,131.69 31.1771,125.69 31.5,119.5C 25.1667,119.5 18.8333,119.5 12.5,119.5C 12.1696,99.6596 12.5029,79.9929 13.5,60.5 Z"/></g>
<g><path style="opacity:1" fill="#b6b6b6" d="M 128.5,118.5 C 122.69,119.49 116.69,119.823 110.5,119.5C 110.823,125.69 110.49,131.69 109.5,137.5C 109.5,131.167 109.5,124.833 109.5,118.5C 115.833,118.5 122.167,118.5 128.5,118.5 Z"/></g>
</svg>
