<?xml version="1.0" encoding="UTF-8"?>
<!DOCTYPE svg PUBLIC "-//W3C//DTD SVG 1.1//EN" "http://www.w3.org/Graphics/SVG/1.1/DTD/svg11.dtd">
<svg xmlns="http://www.w3.org/2000/svg" version="1.1" width="160px" height="160px" style="shape-rendering:geometricPrecision; text-rendering:geometricPrecision; image-rendering:optimizeQuality; fill-rule:evenodd; clip-rule:evenodd" xmlns:xlink="http://www.w3.org/1999/xlink">
<g><path style="opacity:1" fill="#fefefe" d="M -0.5,-0.5 C 52.8333,-0.5 106.167,-0.5 159.5,-0.5C 159.5,52.8333 159.5,106.167 159.5,159.5C 106.167,159.5 52.8333,159.5 -0.5,159.5C -0.5,106.167 -0.5,52.8333 -0.5,-0.5 Z"/></g>
<g><path style="opacity:1" fill="#010101" d="M 125.5,13.5 C 125.5,51.8333 125.5,90.1667 125.5,128.5C 131.833,128.5 138.167,128.5 144.5,128.5C 144.5,134.833 144.5,141.167 144.5,147.5C 131.833,147.5 119.167,147.5 106.5,147.5C 106.823,140.978 106.49,134.645 105.5,128.5C 99.69,127.51 93.69,127.177 87.5,127.5C 87.8302,108.659 87.4969,89.9925 86.5,71.5C 74.011,70.5046 61.3443,70.1713 48.5,70.5C 48.5,89.8333 48.5,109.167 48.5,128.5C 61.1667,128.5 73.8333,128.5 86.5,128.5C 86.5,134.833 86.5,141.167 86.5,147.5C 67.5,147.5 48.5,147.5 29.5,147.5C 29.5,141.167 29.5,134.833 29.5,128.5C 23.1667,128.5 16.8333,128.5 10.5,128.5C 10.5,109.167 10.5,89.8333 10.5,70.5C 16.8333,70.5 23.1667,70.5 29.5,70.5C 29.5,64.1667 29.5,57.8333 29.5,51.5C 48.5,51.5 67.5,51.5 86.5,51.5C 86.5,45.1667 86.5,38.8333 86.5,32.5C 80.69,31.5104 74.69,31.1771 68.5,31.5C 68.5,25.5 68.5,19.5 68.5,13.5C 87.5,13.5 106.5,13.5 125.5,13.5 Z"/></g>
<g><path style="opacity:1" fill="#494949" d="M 125.5,12.5 C 125.5,12.8333 125.5,13.1667 125.5,13.5C 106.5,13.5 87.5,13.5 68.5,13.5C 68.5,19.5 68.5,25.5 68.5,31.5C 74.69,31.1771 80.69,31.5104 86.5,32.5C 80.1667,32.5 73.8333,32.5 67.5,32.5C 67.5,25.8333 67.5,19.1667 67.5,12.5C 86.8333,12.5 106.167,12.5 125.5,12.5 Z"/></g>
<g><path style="opacity:1" fill="#b7b7b7" d="M 67.5,32.5 C 73.8333,32.5 80.1667,32.5 86.5,32.5C 86.5,38.8333 86.5,45.1667 86.5,51.5C 67.5,51.5 48.5,51.5 29.5,51.5C 47.9925,50.5031 66.6592,50.1698 85.5,50.5C 85.5,44.8333 85.5,39.1667 85.5,33.5C 79.31,33.8229 73.31,33.4896 67.5,32.5 Z"/></g>
<g><path style="opacity:1" fill="#939393" d="M 29.5,51.5 C 29.5,57.8333 29.5,64.1667 29.5,70.5C 23.1667,70.5 16.8333,70.5 10.5,70.5C 10.5,89.8333 10.5,109.167 10.5,128.5C 16.8333,128.5 23.1667,128.5 29.5,128.5C 29.5,134.833 29.5,141.167 29.5,147.5C 28.5104,141.69 28.1771,135.69 28.5,129.5C 22.1667,129.5 15.8333,129.5 9.5,129.5C 9.5,109.5 9.5,89.5 9.5,69.5C 15.8333,69.5 22.1667,69.5 28.5,69.5C 28.1771,63.31 28.5104,57.31 29.5,51.5 Z"/></g>
<g><path style="opacity:1" fill="#858585" d="M 86.5,71.5 C 74.1667,71.5 61.8333,71.5 49.5,71.5C 49.5,90.1667 49.5,108.833 49.5,127.5C 61.8333,127.5 74.1667,127.5 86.5,127.5C 86.5,127.833 86.5,128.167 86.5,128.5C 73.8333,128.5 61.1667,128.5 48.5,128.5C 48.5,109.167 48.5,89.8333 48.5,70.5C 61.3443,70.1713 74.011,70.5046 86.5,71.5 Z"/></g>
<g><path style="opacity:1" fill="#fdfdfd" d="M 86.5,71.5 C 86.5,90.1667 86.5,108.833 86.5,127.5C 74.1667,127.5 61.8333,127.5 49.5,127.5C 49.5,108.833 49.5,90.1667 49.5,71.5C 61.8333,71.5 74.1667,71.5 86.5,71.5 Z"/></g>
<g><path style="opacity:1" fill="#5d5d5d" d="M 86.5,71.5 C 87.4969,89.9925 87.8302,108.659 87.5,127.5C 93.69,127.177 99.69,127.51 105.5,128.5C 99.5,128.5 93.5,128.5 87.5,128.5C 87.5,134.833 87.5,141.167 87.5,147.5C 68.1667,148.833 48.8333,148.833 29.5,147.5C 48.5,147.5 67.5,147.5 86.5,147.5C 86.5,141.167 86.5,134.833 86.5,128.5C 86.5,128.167 86.5,127.833 86.5,127.5C 86.5,108.833 86.5,90.1667 86.5,71.5 Z"/></g>
<g><path style="opacity:1" fill="#b4b4b4" d="M 105.5,128.5 C 106.49,134.645 106.823,140.978 106.5,147.5C 105.51,141.69 105.177,135.69 105.5,129.5C 99.8333,129.5 94.1667,129.5 88.5,129.5C 88.8229,135.69 88.4896,141.69 87.5,147.5C 87.5,141.167 87.5,134.833 87.5,128.5C 93.5,128.5 99.5,128.5 105.5,128.5 Z"/></g>
<g><path style="opacity:1" fill="#8d8d8d" d="M 125.5,12.5 C 126.499,50.663 126.832,88.9964 126.5,127.5C 132.833,127.5 139.167,127.5 145.5,127.5C 145.824,134.354 145.491,141.021 144.5,147.5C 144.5,141.167 144.5,134.833 144.5,128.5C 138.167,128.5 131.833,128.5 125.5,128.5C 125.5,90.1667 125.5,51.8333 125.5,13.5C 125.5,13.1667 125.5,12.8333 125.5,12.5 Z"/></g>
</svg>
