<?xml version="1.0" encoding="UTF-8"?>
<!DOCTYPE svg PUBLIC "-//W3C//DTD SVG 1.1//EN" "http://www.w3.org/Graphics/SVG/1.1/DTD/svg11.dtd">
<svg xmlns="http://www.w3.org/2000/svg" version="1.1" width="147px" height="147px" style="shape-rendering:geometricPrecision; text-rendering:geometricPrecision; image-rendering:optimizeQuality; fill-rule:evenodd; clip-rule:evenodd" xmlns:xlink="http://www.w3.org/1999/xlink">
<g><path style="opacity:1" fill="#fefefe" d="M -0.5,-0.5 C 48.5,-0.5 97.5,-0.5 146.5,-0.5C 146.5,48.5 146.5,97.5 146.5,146.5C 97.5,146.5 48.5,146.5 -0.5,146.5C -0.5,97.5 -0.5,48.5 -0.5,-0.5 Z"/></g>
<g><path style="opacity:1" fill="#030303" d="M 31.5,38.5 C 56.8333,38.5 82.1667,38.5 107.5,38.5C 107.177,44.69 107.51,50.69 108.5,56.5C 108.5,57.1667 108.833,57.5 109.5,57.5C 114.975,58.4889 120.642,58.8222 126.5,58.5C 126.178,64.358 126.511,70.0247 127.5,75.5C 127.5,82.5 127.5,89.5 127.5,96.5C 102.167,96.5 76.8333,96.5 51.5,96.5C 50.5098,102.645 50.1765,108.978 50.5,115.5C 69.8333,115.5 89.1667,115.5 108.5,115.5C 108.5,121.833 108.5,128.167 108.5,134.5C 82.8333,134.5 57.1667,134.5 31.5,134.5C 31.5,128.167 31.5,121.833 31.5,115.5C 25.1667,115.5 18.8333,115.5 12.5,115.5C 12.5,96.1667 12.5,76.8333 12.5,57.5C 18.8333,57.5 25.1667,57.5 31.5,57.5C 31.5,51.1667 31.5,44.8333 31.5,38.5 Z"/></g>
<g><path style="opacity:1" fill="#5d5d5d" d="M 31.5,38.5 C 57.1667,37.1667 82.8333,37.1667 108.5,38.5C 108.5,44.5 108.5,50.5 108.5,56.5C 107.51,50.69 107.177,44.69 107.5,38.5C 82.1667,38.5 56.8333,38.5 31.5,38.5 Z"/></g>
<g><path style="opacity:1" fill="#9f9f9f" d="M 31.5,38.5 C 31.5,44.8333 31.5,51.1667 31.5,57.5C 25.1667,57.5 18.8333,57.5 12.5,57.5C 18.31,56.5104 24.31,56.1771 30.5,56.5C 30.1771,50.31 30.5104,44.31 31.5,38.5 Z"/></g>
<g><path style="opacity:1" fill="#adadad" d="M 108.5,38.5 C 109.49,44.31 109.823,50.31 109.5,56.5C 115.69,56.1771 121.69,56.5104 127.5,57.5C 121.5,57.5 115.5,57.5 109.5,57.5C 108.833,57.5 108.5,57.1667 108.5,56.5C 108.5,50.5 108.5,44.5 108.5,38.5 Z"/></g>
<g><path style="opacity:1" fill="#858585" d="M 88.5,58.5 C 88.1667,58.5 87.8333,58.5 87.5,58.5C 75.5,58.5 63.5,58.5 51.5,58.5C 51.5,64.1667 51.5,69.8333 51.5,75.5C 51.5,75.8333 51.5,76.1667 51.5,76.5C 50.5098,70.3554 50.1765,64.0221 50.5,57.5C 63.3443,57.1713 76.011,57.5046 88.5,58.5 Z"/></g>
<g><path style="opacity:1" fill="#fefefe" d="M 87.5,58.5 C 87.5,64.1667 87.5,69.8333 87.5,75.5C 75.5,75.5 63.5,75.5 51.5,75.5C 51.5,69.8333 51.5,64.1667 51.5,58.5C 63.5,58.5 75.5,58.5 87.5,58.5 Z"/></g>
<g><path style="opacity:1" fill="#212121" d="M 109.5,57.5 C 115.5,57.5 121.5,57.5 127.5,57.5C 127.5,63.5 127.5,69.5 127.5,75.5C 126.511,70.0247 126.178,64.358 126.5,58.5C 120.642,58.8222 114.975,58.4889 109.5,57.5 Z"/></g>
<g><path style="opacity:1" fill="#cacaca" d="M 87.5,58.5 C 87.8333,58.5 88.1667,58.5 88.5,58.5C 88.5,64.5 88.5,70.5 88.5,76.5C 76.1667,76.5 63.8333,76.5 51.5,76.5C 51.5,76.1667 51.5,75.8333 51.5,75.5C 63.5,75.5 75.5,75.5 87.5,75.5C 87.5,69.8333 87.5,64.1667 87.5,58.5 Z"/></g>
<g><path style="opacity:1" fill="#c3c3c4" d="M 127.5,57.5 C 128.496,70.6562 128.829,83.9895 128.5,97.5C 102.833,97.5 77.1667,97.5 51.5,97.5C 51.5,97.1667 51.5,96.8333 51.5,96.5C 76.8333,96.5 102.167,96.5 127.5,96.5C 127.5,89.5 127.5,82.5 127.5,75.5C 127.5,69.5 127.5,63.5 127.5,57.5 Z"/></g>
<g><path style="opacity:1" fill="#7e7e7e" d="M 51.5,96.5 C 51.5,96.8333 51.5,97.1667 51.5,97.5C 51.5,103.167 51.5,108.833 51.5,114.5C 70.674,114.17 89.674,114.503 108.5,115.5C 89.1667,115.5 69.8333,115.5 50.5,115.5C 50.1765,108.978 50.5098,102.645 51.5,96.5 Z"/></g>
<g><path style="opacity:1" fill="#979797" d="M 12.5,57.5 C 12.5,76.8333 12.5,96.1667 12.5,115.5C 18.8333,115.5 25.1667,115.5 31.5,115.5C 31.5,121.833 31.5,128.167 31.5,134.5C 30.5104,128.69 30.1771,122.69 30.5,116.5C 24.1667,116.5 17.8333,116.5 11.5,116.5C 11.1696,96.6596 11.5029,76.9929 12.5,57.5 Z"/></g>
</svg>
