<?xml version="1.0" encoding="UTF-8"?>
<!DOCTYPE svg PUBLIC "-//W3C//DTD SVG 1.1//EN" "http://www.w3.org/Graphics/SVG/1.1/DTD/svg11.dtd">
<svg xmlns="http://www.w3.org/2000/svg" version="1.1" width="160px" height="160px" style="shape-rendering:geometricPrecision; text-rendering:geometricPrecision; image-rendering:optimizeQuality; fill-rule:evenodd; clip-rule:evenodd" xmlns:xlink="http://www.w3.org/1999/xlink">
<g><path style="opacity:1" fill="#fefefe" d="M -0.5,-0.5 C 52.8333,-0.5 106.167,-0.5 159.5,-0.5C 159.5,52.8333 159.5,106.167 159.5,159.5C 106.167,159.5 52.8333,159.5 -0.5,159.5C -0.5,106.167 -0.5,52.8333 -0.5,-0.5 Z"/></g>
<g><path style="opacity:1" fill="#010101" d="M 121.5,34.5 C 127.31,35.4896 133.31,35.8229 139.5,35.5C 139.5,41.5 139.5,47.5 139.5,53.5C 133.642,53.1778 127.975,53.5111 122.5,54.5C 121.833,54.5 121.167,54.5 120.5,54.5C 114.69,53.5104 108.69,53.1771 102.5,53.5C 102.823,47.31 102.49,41.31 101.5,35.5C 95.5,35.5 89.5,35.5 83.5,35.5C 82.5046,47.989 82.1713,60.6557 82.5,73.5C 88.8333,73.5 95.1667,73.5 101.5,73.5C 101.5,79.8333 101.5,86.1667 101.5,92.5C 95.31,92.1771 89.31,92.5104 83.5,93.5C 83.5,105.833 83.5,118.167 83.5,130.5C 89.31,131.49 95.31,131.823 101.5,131.5C 101.5,137.833 101.5,144.167 101.5,150.5C 76.1667,150.5 50.8333,150.5 25.5,150.5C 25.5,144.167 25.5,137.833 25.5,131.5C 31.8333,131.5 38.1667,131.5 44.5,131.5C 44.5,118.833 44.5,106.167 44.5,93.5C 38.3554,92.5098 32.0221,92.1765 25.5,92.5C 25.5,86.1667 25.5,79.8333 25.5,73.5C 31.8333,73.5 38.1667,73.5 44.5,73.5C 44.5,60.8333 44.5,48.1667 44.5,35.5C 51.0221,35.8235 57.3554,35.4902 63.5,34.5C 64.4896,28.69 64.8229,22.69 64.5,16.5C 83.1667,16.5 101.833,16.5 120.5,16.5C 120.177,22.69 120.51,28.69 121.5,34.5 Z"/></g>
<g><path style="opacity:1" fill="#404040" d="M 63.5,15.5 C 82.8333,15.5 102.167,15.5 121.5,15.5C 121.5,21.8333 121.5,28.1667 121.5,34.5C 120.51,28.69 120.177,22.69 120.5,16.5C 101.833,16.5 83.1667,16.5 64.5,16.5C 64.8229,22.69 64.4896,28.69 63.5,34.5C 63.5,28.1667 63.5,21.8333 63.5,15.5 Z"/></g>
<g><path style="opacity:1" fill="#848484" d="M 63.5,15.5 C 63.5,21.8333 63.5,28.1667 63.5,34.5C 57.3554,35.4902 51.0221,35.8235 44.5,35.5C 50.31,34.5104 56.31,34.1771 62.5,34.5C 62.1765,27.9779 62.5098,21.6446 63.5,15.5 Z"/></g>
<g><path style="opacity:1" fill="#d2d2d2" d="M 83.5,36.5 C 83.5,36.1667 83.5,35.8333 83.5,35.5C 89.5,35.5 95.5,35.5 101.5,35.5C 101.5,41.8333 101.5,48.1667 101.5,54.5C 100.51,48.69 100.177,42.69 100.5,36.5C 94.8333,36.5 89.1667,36.5 83.5,36.5 Z"/></g>
<g><path style="opacity:1" fill="#8f8f8f" d="M 121.5,34.5 C 128.167,34.5 134.833,34.5 141.5,34.5C 141.824,41.3543 141.491,48.021 140.5,54.5C 140.823,47.9779 140.49,41.6446 139.5,35.5C 133.31,35.8229 127.31,35.4896 121.5,34.5 Z"/></g>
<g><path style="opacity:1" fill="#363636" d="M 101.5,35.5 C 102.49,41.31 102.823,47.31 102.5,53.5C 108.69,53.1771 114.69,53.5104 120.5,54.5C 114.167,54.5 107.833,54.5 101.5,54.5C 101.5,48.1667 101.5,41.8333 101.5,35.5 Z"/></g>
<g><path style="opacity:1" fill="#222222" d="M 139.5,35.5 C 140.49,41.6446 140.823,47.9779 140.5,54.5C 134.5,54.5 128.5,54.5 122.5,54.5C 127.975,53.5111 133.642,53.1778 139.5,53.5C 139.5,47.5 139.5,41.5 139.5,35.5 Z"/></g>
<g><path style="opacity:1" fill="#939393" d="M 44.5,35.5 C 44.5,48.1667 44.5,60.8333 44.5,73.5C 38.1667,73.5 31.8333,73.5 25.5,73.5C 25.1667,73.5 24.8333,73.5 24.5,73.5C 30.6446,72.5098 36.9779,72.1765 43.5,72.5C 43.1714,59.9887 43.5048,47.6554 44.5,35.5 Z"/></g>
<g><path style="opacity:1" fill="#909090" d="M 83.5,35.5 C 83.5,35.8333 83.5,36.1667 83.5,36.5C 83.5,48.5 83.5,60.5 83.5,72.5C 90.0221,72.1765 96.3554,72.5098 102.5,73.5C 102.167,73.5 101.833,73.5 101.5,73.5C 95.1667,73.5 88.8333,73.5 82.5,73.5C 82.1713,60.6557 82.5046,47.989 83.5,35.5 Z"/></g>
<g><path style="opacity:1" fill="#6e6e6e" d="M 24.5,73.5 C 24.8333,73.5 25.1667,73.5 25.5,73.5C 25.5,79.8333 25.5,86.1667 25.5,92.5C 32.0221,92.1765 38.3554,92.5098 44.5,93.5C 44.1667,93.5 43.8333,93.5 43.5,93.5C 37.1667,93.5 30.8333,93.5 24.5,93.5C 24.5,86.8333 24.5,80.1667 24.5,73.5 Z"/></g>
<g><path style="opacity:1" fill="#656565" d="M 101.5,73.5 C 101.833,73.5 102.167,73.5 102.5,73.5C 102.5,80.1667 102.5,86.8333 102.5,93.5C 96.1667,93.5 89.8333,93.5 83.5,93.5C 89.31,92.5104 95.31,92.1771 101.5,92.5C 101.5,86.1667 101.5,79.8333 101.5,73.5 Z"/></g>
<g><path style="opacity:1" fill="#7e7e7e" d="M 43.5,93.5 C 43.8333,93.5 44.1667,93.5 44.5,93.5C 44.5,106.167 44.5,118.833 44.5,131.5C 38.1667,131.5 31.8333,131.5 25.5,131.5C 25.5,137.833 25.5,144.167 25.5,150.5C 24.5093,144.021 24.176,137.354 24.5,130.5C 30.8333,130.5 37.1667,130.5 43.5,130.5C 43.5,118.167 43.5,105.833 43.5,93.5 Z"/></g>
<g><path style="opacity:1" fill="#777777" d="M 83.5,130.5 C 89.8333,130.5 96.1667,130.5 102.5,130.5C 102.5,137.5 102.5,144.5 102.5,151.5C 76.6612,151.831 50.9946,151.498 25.5,150.5C 50.8333,150.5 76.1667,150.5 101.5,150.5C 101.5,144.167 101.5,137.833 101.5,131.5C 95.31,131.823 89.31,131.49 83.5,130.5 Z"/></g>
</svg>
