<?xml version="1.0" encoding="UTF-8"?>
<!DOCTYPE svg PUBLIC "-//W3C//DTD SVG 1.1//EN" "http://www.w3.org/Graphics/SVG/1.1/DTD/svg11.dtd">
<svg xmlns="http://www.w3.org/2000/svg" version="1.1" width="154px" height="154px" style="shape-rendering:geometricPrecision; text-rendering:geometricPrecision; image-rendering:optimizeQuality; fill-rule:evenodd; clip-rule:evenodd" xmlns:xlink="http://www.w3.org/1999/xlink">
<g><path style="opacity:1" fill="#fcfcfc" d="M -0.5,-0.5 C 50.8333,-0.5 102.167,-0.5 153.5,-0.5C 153.5,50.8333 153.5,102.167 153.5,153.5C 102.167,153.5 50.8333,153.5 -0.5,153.5C -0.5,102.167 -0.5,50.8333 -0.5,-0.5 Z"/></g>
<g><path style="opacity:1" fill="#020202" d="M 40.5,34.5 C 72.5,34.5 104.5,34.5 136.5,34.5C 136.5,60.5 136.5,86.5 136.5,112.5C 135.511,117.975 135.178,123.642 135.5,129.5C 129.642,129.178 123.975,129.511 118.5,130.5C 117.51,136.645 117.177,142.978 117.5,149.5C 85.5,149.5 53.5,149.5 21.5,149.5C 21.5,143.167 21.5,136.833 21.5,130.5C 47.0055,130.831 72.3388,130.498 97.5,129.5C 97.5,123.5 97.5,117.5 97.5,111.5C 78.5,111.5 59.5,111.5 40.5,111.5C 40.5,104.833 40.5,98.1667 40.5,91.5C 34.1667,91.5 27.8333,91.5 21.5,91.5C 21.5,78.8333 21.5,66.1667 21.5,53.5C 27.8333,53.5 34.1667,53.5 40.5,53.5C 40.5,47.1667 40.5,40.8333 40.5,34.5 Z"/></g>
<g><path style="opacity:1" fill="#a0a0a0" d="M 40.5,34.5 C 40.5,40.8333 40.5,47.1667 40.5,53.5C 34.1667,53.5 27.8333,53.5 21.5,53.5C 27.31,52.5104 33.31,52.1771 39.5,52.5C 39.1771,46.31 39.5104,40.31 40.5,34.5 Z"/></g>
<g><path style="opacity:1" fill="#7b7b7b" d="M 97.5,91.5 C 97.8286,78.9887 97.4952,66.6554 96.5,54.5C 84.5,54.5 72.5,54.5 60.5,54.5C 60.5,66.5 60.5,78.5 60.5,90.5C 60.5,90.8333 60.5,91.1667 60.5,91.5C 59.5046,79.011 59.1713,66.3443 59.5,53.5C 72.5,53.5 85.5,53.5 98.5,53.5C 98.8287,66.3443 98.4954,79.011 97.5,91.5 Z"/></g>
<g><path style="opacity:1" fill="#fefefe" d="M 96.5,54.5 C 96.5,66.5 96.5,78.5 96.5,90.5C 84.5,90.5 72.5,90.5 60.5,90.5C 60.5,78.5 60.5,66.5 60.5,54.5C 72.5,54.5 84.5,54.5 96.5,54.5 Z"/></g>
<g><path style="opacity:1" fill="#dfdfdf" d="M 96.5,54.5 C 97.4952,66.6554 97.8286,78.9887 97.5,91.5C 85.1667,91.5 72.8333,91.5 60.5,91.5C 60.5,91.1667 60.5,90.8333 60.5,90.5C 72.5,90.5 84.5,90.5 96.5,90.5C 96.5,78.5 96.5,66.5 96.5,54.5 Z"/></g>
<g><path style="opacity:1" fill="#676767" d="M 21.5,53.5 C 21.5,66.1667 21.5,78.8333 21.5,91.5C 27.8333,91.5 34.1667,91.5 40.5,91.5C 40.5,98.1667 40.5,104.833 40.5,111.5C 39.5098,105.355 39.1765,99.0221 39.5,92.5C 33.1667,92.5 26.8333,92.5 20.5,92.5C 20.1712,79.3226 20.5045,66.3226 21.5,53.5 Z"/></g>
<g><path style="opacity:1" fill="#1c1c1c" d="M 136.5,112.5 C 136.5,118.5 136.5,124.5 136.5,130.5C 130.5,130.5 124.5,130.5 118.5,130.5C 123.975,129.511 129.642,129.178 135.5,129.5C 135.178,123.642 135.511,117.975 136.5,112.5 Z"/></g>
<g><path style="opacity:1" fill="#aeaeae" d="M 118.5,130.5 C 124.5,130.5 130.5,130.5 136.5,130.5C 130.69,131.49 124.69,131.823 118.5,131.5C 118.823,138.022 118.49,144.355 117.5,150.5C 117.5,150.167 117.5,149.833 117.5,149.5C 117.177,142.978 117.51,136.645 118.5,130.5 Z"/></g>
<g><path style="opacity:1" fill="#858585" d="M 97.5,129.5 C 72.3388,130.498 47.0055,130.831 21.5,130.5C 21.5,136.833 21.5,143.167 21.5,149.5C 53.5,149.5 85.5,149.5 117.5,149.5C 117.5,149.833 117.5,150.167 117.5,150.5C 85.1667,150.5 52.8333,150.5 20.5,150.5C 20.5,143.5 20.5,136.5 20.5,129.5C 46.1667,129.5 71.8333,129.5 97.5,129.5 Z"/></g>
</svg>
