<?xml version="1.0" encoding="UTF-8"?>
<!DOCTYPE svg PUBLIC "-//W3C//DTD SVG 1.1//EN" "http://www.w3.org/Graphics/SVG/1.1/DTD/svg11.dtd">
<svg xmlns="http://www.w3.org/2000/svg" version="1.1" width="160px" height="160px" style="shape-rendering:geometricPrecision; text-rendering:geometricPrecision; image-rendering:optimizeQuality; fill-rule:evenodd; clip-rule:evenodd" xmlns:xlink="http://www.w3.org/1999/xlink">
<g><path style="opacity:1" fill="#fdfdfd" d="M -0.5,-0.5 C 52.8333,-0.5 106.167,-0.5 159.5,-0.5C 159.5,52.8333 159.5,106.167 159.5,159.5C 106.167,159.5 52.8333,159.5 -0.5,159.5C -0.5,106.167 -0.5,52.8333 -0.5,-0.5 Z"/></g>
<g><path style="opacity:1" fill="#d7d7d7" d="M 65.5,8.5 C 46.326,8.16971 27.326,8.50304 8.5,9.5C 8.16667,9.5 7.83333,9.5 7.5,9.5C 16.8095,8.16815 26.4761,7.50148 36.5,7.5C 46.3392,7.50018 56.0059,7.83351 65.5,8.5 Z"/></g>
<g><path style="opacity:1" fill="#000000" d="M 8.5,9.5 C 27.5,9.5 46.5,9.5 65.5,9.5C 65.1697,28.674 65.503,47.674 66.5,66.5C 72.31,67.4896 78.31,67.8229 84.5,67.5C 84.5,73.5 84.5,79.5 84.5,85.5C 78.31,85.1771 72.31,85.5104 66.5,86.5C 65.503,105.326 65.1697,124.326 65.5,143.5C 46.5,143.5 27.5,143.5 8.5,143.5C 8.5,137.167 8.5,130.833 8.5,124.5C 14.8333,124.5 21.1667,124.5 27.5,124.5C 27.8316,92.329 27.4982,60.329 26.5,28.5C 20.69,27.5104 14.69,27.1771 8.5,27.5C 8.5,21.5 8.5,15.5 8.5,9.5 Z"/></g>
<g><path style="opacity:1" fill="#505050" d="M 7.5,9.5 C 7.83333,9.5 8.16667,9.5 8.5,9.5C 8.5,15.5 8.5,21.5 8.5,27.5C 14.69,27.1771 20.69,27.5104 26.5,28.5C 20.5,28.5 14.5,28.5 8.5,28.5C 7.50984,22.3554 7.1765,16.0221 7.5,9.5 Z"/></g>
<g><path style="opacity:1" fill="#6e6e6e" d="M 8.5,9.5 C 27.326,8.50304 46.326,8.16971 65.5,8.5C 66.497,27.326 66.8303,46.326 66.5,65.5C 72.5,65.5 78.5,65.5 84.5,65.5C 78.69,66.4896 72.69,66.8229 66.5,66.5C 65.503,47.674 65.1697,28.674 65.5,9.5C 46.5,9.5 27.5,9.5 8.5,9.5 Z"/></g>
<g><path style="opacity:1" fill="#010101" d="M 123.5,47.5 C 123.5,53.8333 123.5,60.1667 123.5,66.5C 129.833,66.5 136.167,66.5 142.5,66.5C 142.5,92.1667 142.5,117.833 142.5,143.5C 129.833,143.5 117.167,143.5 104.5,143.5C 104.5,117.833 104.5,92.1667 104.5,66.5C 98.1667,66.5 91.8333,66.5 85.5,66.5C 85.5,66.1667 85.5,65.8333 85.5,65.5C 85.5,59.5 85.5,53.5 85.5,47.5C 98.1667,47.5 110.833,47.5 123.5,47.5 Z"/></g>
<g><path style="opacity:1" fill="#8e8e8e" d="M 8.5,28.5 C 14.5,28.5 20.5,28.5 26.5,28.5C 27.4982,60.329 27.8316,92.329 27.5,124.5C 21.1667,124.5 14.8333,124.5 8.5,124.5C 14.31,123.51 20.31,123.177 26.5,123.5C 26.5,92.1667 26.5,60.8333 26.5,29.5C 20.31,29.8229 14.31,29.4896 8.5,28.5 Z"/></g>
<g><path style="opacity:1" fill="#717171" d="M 123.5,47.5 C 110.833,47.5 98.1667,47.5 85.5,47.5C 85.5,53.5 85.5,59.5 85.5,65.5C 85.1667,65.5 84.8333,65.5 84.5,65.5C 84.5,59.1667 84.5,52.8333 84.5,46.5C 97.6774,46.1712 110.677,46.5045 123.5,47.5 Z"/></g>
<g><path style="opacity:1" fill="#a5a5a5" d="M 123.5,47.5 C 124.49,53.31 124.823,59.31 124.5,65.5C 130.69,65.1771 136.69,65.5104 142.5,66.5C 136.167,66.5 129.833,66.5 123.5,66.5C 123.5,60.1667 123.5,53.8333 123.5,47.5 Z"/></g>
<g><path style="opacity:1" fill="#292929" d="M 84.5,65.5 C 84.8333,65.5 85.1667,65.5 85.5,65.5C 85.5,65.8333 85.5,66.1667 85.5,66.5C 85.5,66.8333 85.5,67.1667 85.5,67.5C 85.1667,67.5 84.8333,67.5 84.5,67.5C 78.31,67.8229 72.31,67.4896 66.5,66.5C 72.69,66.8229 78.69,66.4896 84.5,65.5 Z"/></g>
<g><path style="opacity:1" fill="#818181" d="M 85.5,67.5 C 85.5,67.1667 85.5,66.8333 85.5,66.5C 91.8333,66.5 98.1667,66.5 104.5,66.5C 104.5,92.1667 104.5,117.833 104.5,143.5C 117.167,143.5 129.833,143.5 142.5,143.5C 129.677,144.495 116.677,144.829 103.5,144.5C 103.5,118.833 103.5,93.1667 103.5,67.5C 97.5,67.5 91.5,67.5 85.5,67.5 Z"/></g>
<g><path style="opacity:1" fill="#666666" d="M 84.5,67.5 C 84.8333,67.5 85.1667,67.5 85.5,67.5C 85.5,73.8333 85.5,80.1667 85.5,86.5C 79.1667,86.5 72.8333,86.5 66.5,86.5C 72.31,85.5104 78.31,85.1771 84.5,85.5C 84.5,79.5 84.5,73.5 84.5,67.5 Z"/></g>
<g><path style="opacity:1" fill="#888888" d="M 66.5,86.5 C 66.5,105.833 66.5,125.167 66.5,144.5C 46.8333,144.5 27.1667,144.5 7.5,144.5C 7.17596,137.646 7.50929,130.979 8.5,124.5C 8.5,130.833 8.5,137.167 8.5,143.5C 27.5,143.5 46.5,143.5 65.5,143.5C 65.1697,124.326 65.503,105.326 66.5,86.5 Z"/></g>
</svg>
