<?xml version="1.0" encoding="UTF-8"?>
<!DOCTYPE svg PUBLIC "-//W3C//DTD SVG 1.1//EN" "http://www.w3.org/Graphics/SVG/1.1/DTD/svg11.dtd">
<svg xmlns="http://www.w3.org/2000/svg" version="1.1" width="154px" height="154px" style="shape-rendering:geometricPrecision; text-rendering:geometricPrecision; image-rendering:optimizeQuality; fill-rule:evenodd; clip-rule:evenodd" xmlns:xlink="http://www.w3.org/1999/xlink">
<g><path style="opacity:1" fill="#fefefe" d="M -0.5,-0.5 C 50.8333,-0.5 102.167,-0.5 153.5,-0.5C 153.5,50.8333 153.5,102.167 153.5,153.5C 102.167,153.5 50.8333,153.5 -0.5,153.5C -0.5,102.167 -0.5,50.8333 -0.5,-0.5 Z"/></g>
<g><path style="opacity:1" fill="#585858" d="M 55.5,9.5 C 68.3226,8.50452 81.3226,8.17119 94.5,8.5C 94.824,15.3543 94.4907,22.021 93.5,28.5C 93.5,28.1667 93.5,27.8333 93.5,27.5C 93.5,21.5 93.5,15.5 93.5,9.5C 81.1667,9.5 68.8333,9.5 56.5,9.5C 56.1667,9.5 55.8333,9.5 55.5,9.5 Z"/></g>
<g><path style="opacity:1" fill="#000000" d="M 56.5,9.5 C 68.8333,9.5 81.1667,9.5 93.5,9.5C 93.5,15.5 93.5,21.5 93.5,27.5C 81.1667,27.5 68.8333,27.5 56.5,27.5C 56.5,21.5 56.5,15.5 56.5,9.5 Z"/></g>
<g><path style="opacity:1" fill="#3a3a3a" d="M 55.5,9.5 C 55.8333,9.5 56.1667,9.5 56.5,9.5C 56.5,15.5 56.5,21.5 56.5,27.5C 68.8333,27.5 81.1667,27.5 93.5,27.5C 93.5,27.8333 93.5,28.1667 93.5,28.5C 80.8333,28.5 68.1667,28.5 55.5,28.5C 55.5,22.1667 55.5,15.8333 55.5,9.5 Z"/></g>
<g><path style="opacity:1" fill="#010101" d="M 36.5,47.5 C 55.5,47.5 74.5,47.5 93.5,47.5C 93.1689,73.0055 93.5023,98.3388 94.5,123.5C 100.31,124.49 106.31,124.823 112.5,124.5C 112.5,130.833 112.5,137.167 112.5,143.5C 87.1667,143.5 61.8333,143.5 36.5,143.5C 36.5,137.167 36.5,130.833 36.5,124.5C 42.8333,124.5 49.1667,124.5 55.5,124.5C 55.5,105.167 55.5,85.8333 55.5,66.5C 49.1667,66.5 42.8333,66.5 36.5,66.5C 36.5,60.1667 36.5,53.8333 36.5,47.5 Z"/></g>
<g><path style="opacity:1" fill="#636363" d="M 36.5,47.5 C 55.6595,46.503 74.9928,46.1697 94.5,46.5C 94.5,72.1667 94.5,97.8333 94.5,123.5C 93.5023,98.3388 93.1689,73.0055 93.5,47.5C 74.5,47.5 55.5,47.5 36.5,47.5 Z"/></g>
<g><path style="opacity:1" fill="#9d9d9d" d="M 36.5,66.5 C 42.8333,66.5 49.1667,66.5 55.5,66.5C 55.5,85.8333 55.5,105.167 55.5,124.5C 49.1667,124.5 42.8333,124.5 36.5,124.5C 42.31,123.51 48.31,123.177 54.5,123.5C 54.5,104.833 54.5,86.1667 54.5,67.5C 48.31,67.8229 42.31,67.4896 36.5,66.5 Z"/></g>
<g><path style="opacity:1" fill="#6b6b6b" d="M 94.5,123.5 C 100.833,123.5 107.167,123.5 113.5,123.5C 113.5,130.5 113.5,137.5 113.5,144.5C 87.6612,144.831 61.9946,144.498 36.5,143.5C 61.8333,143.5 87.1667,143.5 112.5,143.5C 112.5,137.167 112.5,130.833 112.5,124.5C 106.31,124.823 100.31,124.49 94.5,123.5 Z"/></g>
</svg>
