<?xml version="1.0" encoding="UTF-8"?>
<!DOCTYPE svg PUBLIC "-//W3C//DTD SVG 1.1//EN" "http://www.w3.org/Graphics/SVG/1.1/DTD/svg11.dtd">
<svg xmlns="http://www.w3.org/2000/svg" version="1.1" width="163px" height="163px" style="shape-rendering:geometricPrecision; text-rendering:geometricPrecision; image-rendering:optimizeQuality; fill-rule:evenodd; clip-rule:evenodd" xmlns:xlink="http://www.w3.org/1999/xlink">
<g><path style="opacity:1" fill="#fefefe" d="M -0.5,-0.5 C 53.8333,-0.5 108.167,-0.5 162.5,-0.5C 162.5,53.8333 162.5,108.167 162.5,162.5C 108.167,162.5 53.8333,162.5 -0.5,162.5C -0.5,108.167 -0.5,53.8333 -0.5,-0.5 Z"/></g>
<g><path style="opacity:1" fill="#d9d9d9" d="M 145.5,2.5 C 132.656,2.17132 119.989,2.50465 107.5,3.5C 106.51,9.6446 106.177,15.9779 106.5,22.5C 105.173,15.7653 105.173,8.93196 106.5,2C 119.673,1.17312 132.673,1.33979 145.5,2.5 Z"/></g>
<g><path style="opacity:1" fill="#010101" d="M 107.5,3.5 C 120.167,3.5 132.833,3.5 145.5,3.5C 145.5,9.5 145.5,15.5 145.5,21.5C 132.833,21.5 120.167,21.5 107.5,21.5C 107.5,15.5 107.5,9.5 107.5,3.5 Z"/></g>
<g><path style="opacity:1" fill="#818181" d="M 107.5,3.5 C 119.989,2.50465 132.656,2.17132 145.5,2.5C 146.833,9.16667 146.833,15.8333 145.5,22.5C 145.5,22.1667 145.5,21.8333 145.5,21.5C 145.5,15.5 145.5,9.5 145.5,3.5C 132.833,3.5 120.167,3.5 107.5,3.5 Z"/></g>
<g><path style="opacity:1" fill="#474747" d="M 107.5,3.5 C 107.5,9.5 107.5,15.5 107.5,21.5C 120.167,21.5 132.833,21.5 145.5,21.5C 145.5,21.8333 145.5,22.1667 145.5,22.5C 132.5,22.5 119.5,22.5 106.5,22.5C 106.177,15.9779 106.51,9.6446 107.5,3.5 Z"/></g>
<g><path style="opacity:1" fill="#020202" d="M 145.5,41.5 C 145.5,67.5 145.5,93.5 145.5,119.5C 144.511,124.975 144.178,130.642 144.5,136.5C 138.642,136.178 132.975,136.511 127.5,137.5C 126.51,143.645 126.177,149.978 126.5,156.5C 100.833,156.5 75.1667,156.5 49.5,156.5C 49.5,150.167 49.5,143.833 49.5,137.5C 43.1667,137.5 36.8333,137.5 30.5,137.5C 30.5,124.833 30.5,112.167 30.5,99.5C 43.1667,99.5 55.8333,99.5 68.5,99.5C 68.5,112.167 68.5,124.833 68.5,137.5C 81.3443,137.829 94.011,137.495 106.5,136.5C 106.5,111.5 106.5,86.5 106.5,61.5C 100.69,60.5104 94.69,60.1771 88.5,60.5C 88.5,54.1667 88.5,47.8333 88.5,41.5C 107.5,41.5 126.5,41.5 145.5,41.5 Z"/></g>
<g><path style="opacity:1" fill="#686868" d="M 145.5,41.5 C 126.5,41.5 107.5,41.5 88.5,41.5C 88.5,47.8333 88.5,54.1667 88.5,60.5C 94.69,60.1771 100.69,60.5104 106.5,61.5C 100.167,61.5 93.8333,61.5 87.5,61.5C 87.5,54.5 87.5,47.5 87.5,40.5C 107.007,40.1697 126.341,40.503 145.5,41.5 Z"/></g>
<g><path style="opacity:1" fill="#848484" d="M 30.5,99.5 C 43.3226,98.5045 56.3226,98.1712 69.5,98.5C 69.5,111.167 69.5,123.833 69.5,136.5C 81.8333,136.5 94.1667,136.5 106.5,136.5C 94.011,137.495 81.3443,137.829 68.5,137.5C 68.5,124.833 68.5,112.167 68.5,99.5C 55.8333,99.5 43.1667,99.5 30.5,99.5 Z"/></g>
<g><path style="opacity:1" fill="#1b1b1b" d="M 145.5,119.5 C 145.5,125.5 145.5,131.5 145.5,137.5C 139.5,137.5 133.5,137.5 127.5,137.5C 132.975,136.511 138.642,136.178 144.5,136.5C 144.178,130.642 144.511,124.975 145.5,119.5 Z"/></g>
<g><path style="opacity:1" fill="#878787" d="M 30.5,99.5 C 30.5,112.167 30.5,124.833 30.5,137.5C 36.8333,137.5 43.1667,137.5 49.5,137.5C 49.5,143.833 49.5,150.167 49.5,156.5C 48.5104,150.69 48.1771,144.69 48.5,138.5C 42.1667,138.5 35.8333,138.5 29.5,138.5C 29.1712,125.323 29.5045,112.323 30.5,99.5 Z"/></g>
<g><path style="opacity:1" fill="#9b9b9b" d="M 127.5,137.5 C 133.5,137.5 139.5,137.5 145.5,137.5C 139.69,138.49 133.69,138.823 127.5,138.5C 127.5,144.833 127.5,151.167 127.5,157.5C 101.328,157.831 75.328,157.498 49.5,156.5C 75.1667,156.5 100.833,156.5 126.5,156.5C 126.177,149.978 126.51,143.645 127.5,137.5 Z"/></g>
</svg>
