<?xml version="1.0" encoding="UTF-8"?>
<!DOCTYPE svg PUBLIC "-//W3C//DTD SVG 1.1//EN" "http://www.w3.org/Graphics/SVG/1.1/DTD/svg11.dtd">
<svg xmlns="http://www.w3.org/2000/svg" version="1.1" width="163px" height="163px" style="shape-rendering:geometricPrecision; text-rendering:geometricPrecision; image-rendering:optimizeQuality; fill-rule:evenodd; clip-rule:evenodd" xmlns:xlink="http://www.w3.org/1999/xlink">
<g><path style="opacity:1" fill="#fefefe" d="M -0.5,-0.5 C 53.8333,-0.5 108.167,-0.5 162.5,-0.5C 162.5,53.8333 162.5,108.167 162.5,162.5C 108.167,162.5 53.8333,162.5 -0.5,162.5C -0.5,108.167 -0.5,53.8333 -0.5,-0.5 Z"/></g>
<g><path style="opacity:1" fill="#5f5f5f" d="M 68.5,88.5 C 68.5,88.8333 68.5,89.1667 68.5,89.5C 67.5023,64.3388 67.1689,39.0055 67.5,13.5C 48.5,13.5 29.5,13.5 10.5,13.5C 10.5,19.5 10.5,25.5 10.5,31.5C 16.69,31.1771 22.69,31.5104 28.5,32.5C 22.1667,32.5 15.8333,32.5 9.5,32.5C 9.5,25.8333 9.5,19.1667 9.5,12.5C 29.1667,12.5 48.8333,12.5 68.5,12.5C 68.5,37.8333 68.5,63.1667 68.5,88.5 Z"/></g>
<g><path style="opacity:1" fill="#010101" d="M 68.5,89.5 C 74.5,89.5 80.5,89.5 86.5,89.5C 87.4902,83.3554 87.8235,77.0221 87.5,70.5C 93.8333,70.5 100.167,70.5 106.5,70.5C 106.5,64.1667 106.5,57.8333 106.5,51.5C 119.167,51.5 131.833,51.5 144.5,51.5C 144.5,57.8333 144.5,64.1667 144.5,70.5C 138.167,70.5 131.833,70.5 125.5,70.5C 125.5,76.8333 125.5,83.1667 125.5,89.5C 119.167,89.5 112.833,89.5 106.5,89.5C 106.5,96.1667 106.5,102.833 106.5,109.5C 112.833,109.5 119.167,109.5 125.5,109.5C 125.5,115.5 125.5,121.5 125.5,127.5C 131.645,128.49 137.978,128.823 144.5,128.5C 144.5,134.833 144.5,141.167 144.5,147.5C 131.833,147.5 119.167,147.5 106.5,147.5C 106.823,140.978 106.49,134.645 105.5,128.5C 99.69,127.51 93.69,127.177 87.5,127.5C 87.8229,121.31 87.4896,115.31 86.5,109.5C 80.5,109.5 74.5,109.5 68.5,109.5C 67.5046,121.989 67.1713,134.656 67.5,147.5C 48.5,147.5 29.5,147.5 10.5,147.5C 10.5,141.167 10.5,134.833 10.5,128.5C 16.8333,128.5 23.1667,128.5 29.5,128.5C 29.8316,96.329 29.4982,64.329 28.5,32.5C 22.69,31.5104 16.69,31.1771 10.5,31.5C 10.5,25.5 10.5,19.5 10.5,13.5C 29.5,13.5 48.5,13.5 67.5,13.5C 67.1689,39.0055 67.5023,64.3388 68.5,89.5 Z"/></g>
<g><path style="opacity:1" fill="#868686" d="M 144.5,51.5 C 131.833,51.5 119.167,51.5 106.5,51.5C 106.5,57.8333 106.5,64.1667 106.5,70.5C 100.167,70.5 93.8333,70.5 87.5,70.5C 87.8235,77.0221 87.4902,83.3554 86.5,89.5C 86.5,83.1667 86.5,76.8333 86.5,70.5C 92.6446,69.5098 98.9779,69.1765 105.5,69.5C 105.5,63.1667 105.5,56.8333 105.5,50.5C 118.677,50.1712 131.677,50.5045 144.5,51.5 Z"/></g>
<g><path style="opacity:1" fill="#8a8a8a" d="M 9.5,32.5 C 15.8333,32.5 22.1667,32.5 28.5,32.5C 29.4982,64.329 29.8316,96.329 29.5,128.5C 23.1667,128.5 16.8333,128.5 10.5,128.5C 10.5,134.833 10.5,141.167 10.5,147.5C 29.5,147.5 48.5,147.5 67.5,147.5C 67.1713,134.656 67.5046,121.989 68.5,109.5C 68.5,109.833 68.5,110.167 68.5,110.5C 68.5,123.167 68.5,135.833 68.5,148.5C 48.8333,148.5 29.1667,148.5 9.5,148.5C 9.5,141.5 9.5,134.5 9.5,127.5C 15.8333,127.5 22.1667,127.5 28.5,127.5C 28.5,96.1667 28.5,64.8333 28.5,33.5C 21.9779,33.8235 15.6446,33.4902 9.5,32.5 Z"/></g>
<g><path style="opacity:1" fill="#8f8f8f" d="M 144.5,70.5 C 138.69,71.4896 132.69,71.8229 126.5,71.5C 126.5,77.8333 126.5,84.1667 126.5,90.5C 120.167,90.5 113.833,90.5 107.5,90.5C 107.5,96.5 107.5,102.5 107.5,108.5C 113.833,108.5 120.167,108.5 126.5,108.5C 126.5,114.833 126.5,121.167 126.5,127.5C 126.167,127.5 125.833,127.5 125.5,127.5C 125.5,121.5 125.5,115.5 125.5,109.5C 119.167,109.5 112.833,109.5 106.5,109.5C 106.5,102.833 106.5,96.1667 106.5,89.5C 112.833,89.5 119.167,89.5 125.5,89.5C 125.5,83.1667 125.5,76.8333 125.5,70.5C 131.833,70.5 138.167,70.5 144.5,70.5 Z"/></g>
<g><path style="opacity:1" fill="#cbcbcb" d="M 86.5,70.5 C 86.5,76.8333 86.5,83.1667 86.5,89.5C 80.5,89.5 74.5,89.5 68.5,89.5C 68.5,89.1667 68.5,88.8333 68.5,88.5C 74.1667,88.5 79.8333,88.5 85.5,88.5C 85.1771,82.31 85.5104,76.31 86.5,70.5 Z"/></g>
<g><path style="opacity:1" fill="#d7d7d7" d="M 68.5,110.5 C 68.5,110.167 68.5,109.833 68.5,109.5C 74.5,109.5 80.5,109.5 86.5,109.5C 86.5,115.833 86.5,122.167 86.5,128.5C 85.5104,122.69 85.1771,116.69 85.5,110.5C 79.8333,110.5 74.1667,110.5 68.5,110.5 Z"/></g>
<g><path style="opacity:1" fill="#424242" d="M 86.5,109.5 C 87.4896,115.31 87.8229,121.31 87.5,127.5C 93.69,127.177 99.69,127.51 105.5,128.5C 99.1667,128.5 92.8333,128.5 86.5,128.5C 86.5,122.167 86.5,115.833 86.5,109.5 Z"/></g>
<g><path style="opacity:1" fill="#8b8b8b" d="M 86.5,128.5 C 92.8333,128.5 99.1667,128.5 105.5,128.5C 106.49,134.645 106.823,140.978 106.5,147.5C 105.51,141.69 105.177,135.69 105.5,129.5C 98.9779,129.823 92.6446,129.49 86.5,128.5 Z"/></g>
<g><path style="opacity:1" fill="#818181" d="M 125.5,127.5 C 125.833,127.5 126.167,127.5 126.5,127.5C 132.833,127.5 139.167,127.5 145.5,127.5C 145.824,134.354 145.491,141.021 144.5,147.5C 144.5,141.167 144.5,134.833 144.5,128.5C 137.978,128.823 131.645,128.49 125.5,127.5 Z"/></g>
</svg>
