<?xml version="1.0" encoding="UTF-8"?>
<!DOCTYPE svg PUBLIC "-//W3C//DTD SVG 1.1//EN" "http://www.w3.org/Graphics/SVG/1.1/DTD/svg11.dtd">
<svg xmlns="http://www.w3.org/2000/svg" version="1.1" width="154px" height="154px" style="shape-rendering:geometricPrecision; text-rendering:geometricPrecision; image-rendering:optimizeQuality; fill-rule:evenodd; clip-rule:evenodd" xmlns:xlink="http://www.w3.org/1999/xlink">
<g><path style="opacity:1" fill="#fefefe" d="M -0.5,-0.5 C 50.8333,-0.5 102.167,-0.5 153.5,-0.5C 153.5,50.8333 153.5,102.167 153.5,153.5C 102.167,153.5 50.8333,153.5 -0.5,153.5C -0.5,102.167 -0.5,50.8333 -0.5,-0.5 Z"/></g>
<g><path style="opacity:1" fill="#010101" d="M 99.5,123.5 C 105.31,124.49 111.31,124.823 117.5,124.5C 117.5,130.833 117.5,137.167 117.5,143.5C 92.1667,143.5 66.8333,143.5 41.5,143.5C 41.5,137.167 41.5,130.833 41.5,124.5C 47.8333,124.5 54.1667,124.5 60.5,124.5C 60.8316,92.329 60.4982,60.329 59.5,28.5C 53.69,27.5104 47.69,27.1771 41.5,27.5C 41.5,21.5 41.5,15.5 41.5,9.5C 60.5,9.5 79.5,9.5 98.5,9.5C 98.1682,47.6703 98.5015,85.6703 99.5,123.5 Z"/></g>
<g><path style="opacity:1" fill="#575757" d="M 99.5,123.5 C 98.5015,85.6703 98.1682,47.6703 98.5,9.5C 79.5,9.5 60.5,9.5 41.5,9.5C 41.5,15.5 41.5,21.5 41.5,27.5C 47.69,27.1771 53.69,27.5104 59.5,28.5C 53.5,28.5 47.5,28.5 41.5,28.5C 40.5093,22.021 40.176,15.3543 40.5,8.5C 60.1667,8.5 79.8333,8.5 99.5,8.5C 99.5,46.8333 99.5,85.1667 99.5,123.5 Z"/></g>
<g><path style="opacity:1" fill="#a2a2a2" d="M 41.5,28.5 C 47.5,28.5 53.5,28.5 59.5,28.5C 60.4982,60.329 60.8316,92.329 60.5,124.5C 54.1667,124.5 47.8333,124.5 41.5,124.5C 47.31,123.51 53.31,123.177 59.5,123.5C 59.5,92.1667 59.5,60.8333 59.5,29.5C 53.31,29.8229 47.31,29.4896 41.5,28.5 Z"/></g>
<g><path style="opacity:1" fill="#6b6b6b" d="M 99.5,123.5 C 105.833,123.5 112.167,123.5 118.5,123.5C 118.5,130.5 118.5,137.5 118.5,144.5C 92.6612,144.831 66.9946,144.498 41.5,143.5C 66.8333,143.5 92.1667,143.5 117.5,143.5C 117.5,137.167 117.5,130.833 117.5,124.5C 111.31,124.823 105.31,124.49 99.5,123.5 Z"/></g>
</svg>
