<?xml version="1.0" encoding="UTF-8"?>
<!DOCTYPE svg PUBLIC "-//W3C//DTD SVG 1.1//EN" "http://www.w3.org/Graphics/SVG/1.1/DTD/svg11.dtd">
<svg xmlns="http://www.w3.org/2000/svg" version="1.1" width="160px" height="160px" style="shape-rendering:geometricPrecision; text-rendering:geometricPrecision; image-rendering:optimizeQuality; fill-rule:evenodd; clip-rule:evenodd" xmlns:xlink="http://www.w3.org/1999/xlink">
<g><path style="opacity:1" fill="#fcfcfc" d="M -0.5,-0.5 C 52.8333,-0.5 106.167,-0.5 159.5,-0.5C 159.5,52.8333 159.5,106.167 159.5,159.5C 106.167,159.5 52.8333,159.5 -0.5,159.5C -0.5,106.167 -0.5,52.8333 -0.5,-0.5 Z"/></g>
<g><path style="opacity:1" fill="#010101" d="M 32.5,51.5 C 45.1667,51.5 57.8333,51.5 70.5,51.5C 70.5,57.8333 70.5,64.1667 70.5,70.5C 76.8333,70.5 83.1667,70.5 89.5,70.5C 90.4902,64.3554 90.8235,58.0221 90.5,51.5C 103.167,51.5 115.833,51.5 128.5,51.5C 128.5,57.8333 128.5,64.1667 128.5,70.5C 134.833,70.5 141.167,70.5 147.5,70.5C 147.5,96.1667 147.5,121.833 147.5,147.5C 134.833,147.5 122.167,147.5 109.5,147.5C 109.83,128.326 109.497,109.326 108.5,90.5C 102.5,89.1667 96.5,89.1667 90.5,90.5C 89.5048,102.655 89.1714,114.989 89.5,127.5C 83.5,127.5 77.5,127.5 71.5,127.5C 71.8286,114.989 71.4952,102.655 70.5,90.5C 64.5,89.1667 58.5,89.1667 52.5,90.5C 51.503,109.326 51.1697,128.326 51.5,147.5C 38.8333,147.5 26.1667,147.5 13.5,147.5C 13.5,121.833 13.5,96.1667 13.5,70.5C 19.8333,70.5 26.1667,70.5 32.5,70.5C 32.5,64.1667 32.5,57.8333 32.5,51.5 Z"/></g>
<g><path style="opacity:1" fill="#6f6f6f" d="M 128.5,51.5 C 115.833,51.5 103.167,51.5 90.5,51.5C 90.8235,58.0221 90.4902,64.3554 89.5,70.5C 89.5,70.1667 89.5,69.8333 89.5,69.5C 89.5,63.1667 89.5,56.8333 89.5,50.5C 102.677,50.1712 115.677,50.5045 128.5,51.5 Z"/></g>
<g><path style="opacity:1" fill="#9f9f9f" d="M 32.5,51.5 C 32.5,57.8333 32.5,64.1667 32.5,70.5C 26.1667,70.5 19.8333,70.5 13.5,70.5C 19.31,69.5104 25.31,69.1771 31.5,69.5C 31.1771,63.31 31.5104,57.31 32.5,51.5 Z"/></g>
<g><path style="opacity:1" fill="#939393" d="M 70.5,51.5 C 71.4896,57.31 71.8229,63.31 71.5,69.5C 77.5,69.5 83.5,69.5 89.5,69.5C 89.5,69.8333 89.5,70.1667 89.5,70.5C 83.1667,70.5 76.8333,70.5 70.5,70.5C 70.5,64.1667 70.5,57.8333 70.5,51.5 Z"/></g>
<g><path style="opacity:1" fill="#a5a5a5" d="M 128.5,51.5 C 129.49,57.31 129.823,63.31 129.5,69.5C 135.69,69.1771 141.69,69.5104 147.5,70.5C 141.167,70.5 134.833,70.5 128.5,70.5C 128.5,64.1667 128.5,57.8333 128.5,51.5 Z"/></g>
<g><path style="opacity:1" fill="#454545" d="M 70.5,90.5 C 71.4952,102.655 71.8286,114.989 71.5,127.5C 77.5,127.5 83.5,127.5 89.5,127.5C 89.1714,114.989 89.5048,102.655 90.5,90.5C 90.5,103.167 90.5,115.833 90.5,128.5C 83.8333,128.5 77.1667,128.5 70.5,128.5C 70.5,115.833 70.5,103.167 70.5,90.5 Z"/></g>
<g><path style="opacity:1" fill="#acacac" d="M 52.5,90.5 C 58.5,89.1667 64.5,89.1667 70.5,90.5C 70.5,103.167 70.5,115.833 70.5,128.5C 69.5046,116.011 69.1713,103.344 69.5,90.5C 63.8333,90.5 58.1667,90.5 52.5,90.5 Z"/></g>
<g><path style="opacity:1" fill="#b9b9b9" d="M 108.5,90.5 C 102.833,90.5 97.1667,90.5 91.5,90.5C 91.8287,103.344 91.4954,116.011 90.5,128.5C 90.5,115.833 90.5,103.167 90.5,90.5C 96.5,89.1667 102.5,89.1667 108.5,90.5 Z"/></g>
<g><path style="opacity:1" fill="#898989" d="M 13.5,70.5 C 13.5,96.1667 13.5,121.833 13.5,147.5C 26.1667,147.5 38.8333,147.5 51.5,147.5C 38.6774,148.495 25.6774,148.829 12.5,148.5C 12.1689,122.328 12.5022,96.328 13.5,70.5 Z"/></g>
</svg>
