<?xml version="1.0" encoding="UTF-8"?>
<!DOCTYPE svg PUBLIC "-//W3C//DTD SVG 1.1//EN" "http://www.w3.org/Graphics/SVG/1.1/DTD/svg11.dtd">
<svg xmlns="http://www.w3.org/2000/svg" version="1.1" width="154px" height="154px" style="shape-rendering:geometricPrecision; text-rendering:geometricPrecision; image-rendering:optimizeQuality; fill-rule:evenodd; clip-rule:evenodd" xmlns:xlink="http://www.w3.org/1999/xlink">
<g><path style="opacity:1" fill="#fdfdfd" d="M -0.5,-0.5 C 50.8333,-0.5 102.167,-0.5 153.5,-0.5C 153.5,50.8333 153.5,102.167 153.5,153.5C 102.167,153.5 50.8333,153.5 -0.5,153.5C -0.5,122.833 -0.5,92.1667 -0.5,61.5C -0.166667,61.5 0.166667,61.5 0.5,61.5C 6.31004,62.4896 12.31,62.8229 18.5,62.5C 18.1689,88.0055 18.5023,113.339 19.5,138.5C 32.3226,139.495 45.3226,139.829 58.5,139.5C 58.5,113.833 58.5,88.1667 58.5,62.5C 70.8333,62.5 83.1667,62.5 95.5,62.5C 96.4977,87.6612 96.8311,112.995 96.5,138.5C 109.167,138.5 121.833,138.5 134.5,138.5C 134.5,112.833 134.5,87.1667 134.5,61.5C 128.69,60.5104 122.69,60.1771 116.5,60.5C 116.823,54.31 116.49,48.31 115.5,42.5C 96.1667,41.1667 76.8333,41.1667 57.5,42.5C 56.5104,48.31 56.1771,54.31 56.5,60.5C 50.8333,60.5 45.1667,60.5 39.5,60.5C 39.8229,54.31 39.4896,48.31 38.5,42.5C 25.6774,41.5045 12.6774,41.1712 -0.5,41.5C -0.5,27.5 -0.5,13.5 -0.5,-0.5 Z"/></g>
<g><path style="opacity:1" fill="#878787" d="M -0.5,41.5 C 12.6774,41.1712 25.6774,41.5045 38.5,42.5C 25.8333,42.5 13.1667,42.5 0.5,42.5C 0.5,48.8333 0.5,55.1667 0.5,61.5C 0.166667,61.5 -0.166667,61.5 -0.5,61.5C -0.5,54.8333 -0.5,48.1667 -0.5,41.5 Z"/></g>
<g><path style="opacity:1" fill="#010101" d="M 115.5,42.5 C 115.5,48.8333 115.5,55.1667 115.5,61.5C 121.833,61.5 128.167,61.5 134.5,61.5C 134.5,87.1667 134.5,112.833 134.5,138.5C 121.833,138.5 109.167,138.5 96.5,138.5C 96.8311,112.995 96.4977,87.6612 95.5,62.5C 83.3446,61.5048 71.0113,61.1714 58.5,61.5C 58.5,55.1667 58.5,48.8333 58.5,42.5C 77.5,42.5 96.5,42.5 115.5,42.5 Z"/></g>
<g><path style="opacity:1" fill="#010101" d="M 38.5,42.5 C 38.5,48.8333 38.5,55.1667 38.5,61.5C 44.8333,61.5 51.1667,61.5 57.5,61.5C 57.5,87.1667 57.5,112.833 57.5,138.5C 44.8333,138.5 32.1667,138.5 19.5,138.5C 19.5,112.833 19.5,87.1667 19.5,61.5C 13.1667,61.5 6.83333,61.5 0.5,61.5C 0.5,55.1667 0.5,48.8333 0.5,42.5C 13.1667,42.5 25.8333,42.5 38.5,42.5 Z"/></g>
<g><path style="opacity:1" fill="#727272" d="M 115.5,42.5 C 96.5,42.5 77.5,42.5 58.5,42.5C 58.5,48.8333 58.5,55.1667 58.5,61.5C 71.0113,61.1714 83.3446,61.5048 95.5,62.5C 83.1667,62.5 70.8333,62.5 58.5,62.5C 58.5,88.1667 58.5,113.833 58.5,139.5C 45.3226,139.829 32.3226,139.495 19.5,138.5C 32.1667,138.5 44.8333,138.5 57.5,138.5C 57.5,112.833 57.5,87.1667 57.5,61.5C 57.5,55.1667 57.5,48.8333 57.5,42.5C 76.8333,41.1667 96.1667,41.1667 115.5,42.5 Z"/></g>
<g><path style="opacity:1" fill="#a5a5a5" d="M 38.5,42.5 C 39.4896,48.31 39.8229,54.31 39.5,60.5C 45.1667,60.5 50.8333,60.5 56.5,60.5C 56.1771,54.31 56.5104,48.31 57.5,42.5C 57.5,48.8333 57.5,55.1667 57.5,61.5C 51.1667,61.5 44.8333,61.5 38.5,61.5C 38.5,55.1667 38.5,48.8333 38.5,42.5 Z"/></g>
<g><path style="opacity:1" fill="#a5a5a5" d="M 115.5,42.5 C 116.49,48.31 116.823,54.31 116.5,60.5C 122.69,60.1771 128.69,60.5104 134.5,61.5C 128.167,61.5 121.833,61.5 115.5,61.5C 115.5,55.1667 115.5,48.8333 115.5,42.5 Z"/></g>
<g><path style="opacity:1" fill="#8a8a8a" d="M 0.5,61.5 C 6.83333,61.5 13.1667,61.5 19.5,61.5C 19.5,87.1667 19.5,112.833 19.5,138.5C 18.5023,113.339 18.1689,88.0055 18.5,62.5C 12.31,62.8229 6.31004,62.4896 0.5,61.5 Z"/></g>
</svg>
