<?xml version="1.0" encoding="UTF-8"?>
<!DOCTYPE svg PUBLIC "-//W3C//DTD SVG 1.1//EN" "http://www.w3.org/Graphics/SVG/1.1/DTD/svg11.dtd">
<svg xmlns="http://www.w3.org/2000/svg" version="1.1" width="140px" height="140px" style="shape-rendering:geometricPrecision; text-rendering:geometricPrecision; image-rendering:optimizeQuality; fill-rule:evenodd; clip-rule:evenodd" xmlns:xlink="http://www.w3.org/1999/xlink">
<g><path style="opacity:1" fill="#fdfdfd" d="M -0.5,-0.5 C 46.1667,-0.5 92.8333,-0.5 139.5,-0.5C 139.5,46.1667 139.5,92.8333 139.5,139.5C 92.8333,139.5 46.1667,139.5 -0.5,139.5C -0.5,92.8333 -0.5,46.1667 -0.5,-0.5 Z"/></g>
<g><path style="opacity:1" fill="#010101" d="M 29.5,35.5 C 54.8333,35.5 80.1667,35.5 105.5,35.5C 105.177,41.69 105.51,47.69 106.5,53.5C 106.5,54.1667 106.833,54.5 107.5,54.5C 112.975,55.4889 118.642,55.8222 124.5,55.5C 124.178,61.358 124.511,67.0247 125.5,72.5C 125.5,85.8333 125.5,99.1667 125.5,112.5C 119.167,112.5 112.833,112.5 106.5,112.5C 106.5,118.833 106.5,125.167 106.5,131.5C 80.8333,131.5 55.1667,131.5 29.5,131.5C 29.5,125.167 29.5,118.833 29.5,112.5C 23.1667,112.5 16.8333,112.5 10.5,112.5C 10.5,93.1667 10.5,73.8333 10.5,54.5C 16.8333,54.5 23.1667,54.5 29.5,54.5C 29.5,48.1667 29.5,41.8333 29.5,35.5 Z"/></g>
<g><path style="opacity:1" fill="#5d5d5d" d="M 29.5,35.5 C 55.1667,34.1667 80.8333,34.1667 106.5,35.5C 106.5,41.5 106.5,47.5 106.5,53.5C 105.51,47.69 105.177,41.69 105.5,35.5C 80.1667,35.5 54.8333,35.5 29.5,35.5 Z"/></g>
<g><path style="opacity:1" fill="#9f9f9f" d="M 29.5,35.5 C 29.5,41.8333 29.5,48.1667 29.5,54.5C 23.1667,54.5 16.8333,54.5 10.5,54.5C 16.31,53.5104 22.31,53.1771 28.5,53.5C 28.1771,47.31 28.5104,41.31 29.5,35.5 Z"/></g>
<g><path style="opacity:1" fill="#aeaeae" d="M 106.5,35.5 C 107.49,41.31 107.823,47.31 107.5,53.5C 113.69,53.1771 119.69,53.5104 125.5,54.5C 119.5,54.5 113.5,54.5 107.5,54.5C 106.833,54.5 106.5,54.1667 106.5,53.5C 106.5,47.5 106.5,41.5 106.5,35.5 Z"/></g>
<g><path style="opacity:1" fill="#212121" d="M 107.5,54.5 C 113.5,54.5 119.5,54.5 125.5,54.5C 125.5,60.5 125.5,66.5 125.5,72.5C 124.511,67.0247 124.178,61.358 124.5,55.5C 118.642,55.8222 112.975,55.4889 107.5,54.5 Z"/></g>
<g><path style="opacity:1" fill="#7b7b7b" d="M 86.5,111.5 C 74.011,112.495 61.3443,112.829 48.5,112.5C 48.5,93.1667 48.5,73.8333 48.5,54.5C 61.5,54.5 74.5,54.5 87.5,54.5C 87.8303,73.674 87.497,92.674 86.5,111.5 Z"/></g>
<g><path style="opacity:1" fill="#fefefe" d="M 86.5,111.5 C 74.1667,111.5 61.8333,111.5 49.5,111.5C 49.5,92.8333 49.5,74.1667 49.5,55.5C 61.8333,55.5 74.1667,55.5 86.5,55.5C 86.5,74.1667 86.5,92.8333 86.5,111.5 Z"/></g>
<g><path style="opacity:1" fill="#979797" d="M 10.5,54.5 C 10.5,73.8333 10.5,93.1667 10.5,112.5C 16.8333,112.5 23.1667,112.5 29.5,112.5C 29.5,118.833 29.5,125.167 29.5,131.5C 28.5104,125.69 28.1771,119.69 28.5,113.5C 22.1667,113.5 15.8333,113.5 9.5,113.5C 9.1696,93.6596 9.50293,73.9929 10.5,54.5 Z"/></g>
<g><path style="opacity:1" fill="#b7b7b7" d="M 125.5,112.5 C 119.69,113.49 113.69,113.823 107.5,113.5C 107.823,119.69 107.49,125.69 106.5,131.5C 106.5,125.167 106.5,118.833 106.5,112.5C 112.833,112.5 119.167,112.5 125.5,112.5 Z"/></g>
</svg>
