<?xml version="1.0" encoding="UTF-8"?>
<!DOCTYPE svg PUBLIC "-//W3C//DTD SVG 1.1//EN" "http://www.w3.org/Graphics/SVG/1.1/DTD/svg11.dtd">
<svg xmlns="http://www.w3.org/2000/svg" version="1.1" width="163px" height="163px" style="shape-rendering:geometricPrecision; text-rendering:geometricPrecision; image-rendering:optimizeQuality; fill-rule:evenodd; clip-rule:evenodd" xmlns:xlink="http://www.w3.org/1999/xlink">
<g><path style="opacity:1" fill="#fefefe" d="M -0.5,-0.5 C 53.8333,-0.5 108.167,-0.5 162.5,-0.5C 162.5,53.8333 162.5,108.167 162.5,162.5C 108.167,162.5 53.8333,162.5 -0.5,162.5C -0.5,108.167 -0.5,53.8333 -0.5,-0.5 Z"/></g>
<g><path style="opacity:1" fill="#010101" d="M 54.5,38.5 C 54.5,44.8333 54.5,51.1667 54.5,57.5C 60.8333,57.5 67.1667,57.5 73.5,57.5C 73.1713,70.3443 73.5046,83.011 74.5,95.5C 86.8333,95.5 99.1667,95.5 111.5,95.5C 112.495,83.011 112.829,70.3443 112.5,57.5C 99.8333,57.5 87.1667,57.5 74.5,57.5C 74.5,51.1667 74.5,44.8333 74.5,38.5C 93.5,38.5 112.5,38.5 131.5,38.5C 131.5,44.8333 131.5,51.1667 131.5,57.5C 137.833,57.5 144.167,57.5 150.5,57.5C 150.5,70.1667 150.5,82.8333 150.5,95.5C 144.31,95.1771 138.31,95.5104 132.5,96.5C 132.167,96.5 131.833,96.5 131.5,96.5C 130.51,102.31 130.177,108.31 130.5,114.5C 111.659,114.17 92.9925,114.503 74.5,115.5C 73.5098,121.645 73.1765,127.978 73.5,134.5C 79.8333,134.5 86.1667,134.5 92.5,134.5C 92.5,140.833 92.5,147.167 92.5,153.5C 67.1667,153.5 41.8333,153.5 16.5,153.5C 16.5,147.167 16.5,140.833 16.5,134.5C 22.8333,134.5 29.1667,134.5 35.5,134.5C 35.5,108.833 35.5,83.1667 35.5,57.5C 29.1667,57.5 22.8333,57.5 16.5,57.5C 15.5098,51.3554 15.1765,45.0221 15.5,38.5C 28.5,38.5 41.5,38.5 54.5,38.5 Z"/></g>
<g><path style="opacity:1" fill="#636363" d="M 131.5,38.5 C 112.5,38.5 93.5,38.5 74.5,38.5C 74.5,44.8333 74.5,51.1667 74.5,57.5C 74.5,57.8333 74.5,58.1667 74.5,58.5C 74.5,70.8333 74.5,83.1667 74.5,95.5C 73.5046,83.011 73.1713,70.3443 73.5,57.5C 73.5,51.1667 73.5,44.8333 73.5,38.5C 92.8333,37.1667 112.167,37.1667 131.5,38.5 Z"/></g>
<g><path style="opacity:1" fill="#a5a5a5" d="M 54.5,38.5 C 55.4896,44.31 55.8229,50.31 55.5,56.5C 61.1667,56.5 66.8333,56.5 72.5,56.5C 72.1771,50.31 72.5104,44.31 73.5,38.5C 73.5,44.8333 73.5,51.1667 73.5,57.5C 67.1667,57.5 60.8333,57.5 54.5,57.5C 54.5,51.1667 54.5,44.8333 54.5,38.5 Z"/></g>
<g><path style="opacity:1" fill="#a5a5a5" d="M 131.5,38.5 C 132.49,44.31 132.823,50.31 132.5,56.5C 138.69,56.1771 144.69,56.5104 150.5,57.5C 144.167,57.5 137.833,57.5 131.5,57.5C 131.5,51.1667 131.5,44.8333 131.5,38.5 Z"/></g>
<g><path style="opacity:1" fill="#fdfdfd" d="M 74.5,58.5 C 86.8333,58.5 99.1667,58.5 111.5,58.5C 111.5,70.8333 111.5,83.1667 111.5,95.5C 99.1667,95.5 86.8333,95.5 74.5,95.5C 74.5,83.1667 74.5,70.8333 74.5,58.5 Z"/></g>
<g><path style="opacity:1" fill="#7c7c7c" d="M 74.5,58.5 C 74.5,58.1667 74.5,57.8333 74.5,57.5C 87.1667,57.5 99.8333,57.5 112.5,57.5C 112.829,70.3443 112.495,83.011 111.5,95.5C 111.5,83.1667 111.5,70.8333 111.5,58.5C 99.1667,58.5 86.8333,58.5 74.5,58.5 Z"/></g>
<g><path style="opacity:1" fill="#666666" d="M 150.5,57.5 C 151.495,70.3226 151.829,83.3226 151.5,96.5C 145.167,96.5 138.833,96.5 132.5,96.5C 138.31,95.5104 144.31,95.1771 150.5,95.5C 150.5,82.8333 150.5,70.1667 150.5,57.5 Z"/></g>
<g><path style="opacity:1" fill="#888888" d="M 16.5,57.5 C 22.8333,57.5 29.1667,57.5 35.5,57.5C 35.5,83.1667 35.5,108.833 35.5,134.5C 29.1667,134.5 22.8333,134.5 16.5,134.5C 16.5,140.833 16.5,147.167 16.5,153.5C 15.5093,147.021 15.176,140.354 15.5,133.5C 21.8333,133.5 28.1667,133.5 34.5,133.5C 34.5,108.5 34.5,83.5 34.5,58.5C 28.31,58.8229 22.31,58.4896 16.5,57.5 Z"/></g>
<g><path style="opacity:1" fill="#313131" d="M 131.5,96.5 C 131.5,102.833 131.5,109.167 131.5,115.5C 112.5,115.5 93.5,115.5 74.5,115.5C 92.9925,114.503 111.659,114.17 130.5,114.5C 130.177,108.31 130.51,102.31 131.5,96.5 Z"/></g>
<g><path style="opacity:1" fill="#888888" d="M 74.5,115.5 C 74.5,121.5 74.5,127.5 74.5,133.5C 81.0221,133.177 87.3554,133.51 93.5,134.5C 93.1667,134.5 92.8333,134.5 92.5,134.5C 86.1667,134.5 79.8333,134.5 73.5,134.5C 73.1765,127.978 73.5098,121.645 74.5,115.5 Z"/></g>
<g><path style="opacity:1" fill="#787878" d="M 92.5,134.5 C 92.8333,134.5 93.1667,134.5 93.5,134.5C 93.5,141.167 93.5,147.833 93.5,154.5C 67.6612,154.831 41.9946,154.498 16.5,153.5C 41.8333,153.5 67.1667,153.5 92.5,153.5C 92.5,147.167 92.5,140.833 92.5,134.5 Z"/></g>
</svg>
