<?xml version="1.0" encoding="UTF-8"?>
<!DOCTYPE svg PUBLIC "-//W3C//DTD SVG 1.1//EN" "http://www.w3.org/Graphics/SVG/1.1/DTD/svg11.dtd">
<svg xmlns="http://www.w3.org/2000/svg" version="1.1" width="157px" height="157px" style="shape-rendering:geometricPrecision; text-rendering:geometricPrecision; image-rendering:optimizeQuality; fill-rule:evenodd; clip-rule:evenodd" xmlns:xlink="http://www.w3.org/1999/xlink">
<g><path style="opacity:1" fill="#fefefe" d="M -0.5,-0.5 C 51.8333,-0.5 104.167,-0.5 156.5,-0.5C 156.5,51.8333 156.5,104.167 156.5,156.5C 104.167,156.5 51.8333,156.5 -0.5,156.5C -0.5,104.167 -0.5,51.8333 -0.5,-0.5 Z"/></g>
<g><path style="opacity:1" fill="#8e8e8e" d="M 144.5,35.5 C 131.833,35.5 119.167,35.5 106.5,35.5C 106.5,41.8333 106.5,48.1667 106.5,54.5C 100.167,54.5 93.8333,54.5 87.5,54.5C 87.5,54.1667 87.5,53.8333 87.5,53.5C 87.8333,53.5 88.1667,53.5 88.5,53.5C 94.1667,53.5 99.8333,53.5 105.5,53.5C 105.5,47.1667 105.5,40.8333 105.5,34.5C 118.677,34.1712 131.677,34.5045 144.5,35.5 Z"/></g>
<g><path style="opacity:1" fill="#010101" d="M 29.5,35.5 C 48.5,35.5 67.5,35.5 86.5,35.5C 86.5,41.8333 86.5,48.1667 86.5,54.5C 73.8333,54.5 61.1667,54.5 48.5,54.5C 48.5,67.5 48.5,80.5 48.5,93.5C 61.3443,93.8287 74.011,93.4954 86.5,92.5C 87.4954,80.011 87.8287,67.3443 87.5,54.5C 93.8333,54.5 100.167,54.5 106.5,54.5C 106.5,48.1667 106.5,41.8333 106.5,35.5C 119.167,35.5 131.833,35.5 144.5,35.5C 144.5,41.8333 144.5,48.1667 144.5,54.5C 138.167,54.5 131.833,54.5 125.5,54.5C 125.5,80.1667 125.5,105.833 125.5,131.5C 131.833,131.5 138.167,131.5 144.5,131.5C 144.5,137.833 144.5,144.167 144.5,150.5C 119.167,150.5 93.8333,150.5 68.5,150.5C 68.5,144.167 68.5,137.833 68.5,131.5C 74.69,131.823 80.69,131.49 86.5,130.5C 86.5,124.5 86.5,118.5 86.5,112.5C 67.674,111.503 48.674,111.17 29.5,111.5C 29.8229,105.31 29.4896,99.31 28.5,93.5C 22.69,92.5104 16.69,92.1771 10.5,92.5C 10.5,79.8333 10.5,67.1667 10.5,54.5C 16.8333,54.5 23.1667,54.5 29.5,54.5C 29.5,48.1667 29.5,41.8333 29.5,35.5 Z"/></g>
<g><path style="opacity:1" fill="#b6b6b6" d="M 29.5,35.5 C 48.9929,34.5029 68.6596,34.1696 88.5,34.5C 88.5,40.8333 88.5,47.1667 88.5,53.5C 88.1667,53.5 87.8333,53.5 87.5,53.5C 87.8229,47.31 87.4896,41.31 86.5,35.5C 67.5,35.5 48.5,35.5 29.5,35.5 Z"/></g>
<g><path style="opacity:1" fill="#a0a0a0" d="M 29.5,35.5 C 29.5,41.8333 29.5,48.1667 29.5,54.5C 23.1667,54.5 16.8333,54.5 10.5,54.5C 10.1667,54.5 9.83333,54.5 9.5,54.5C 15.6446,53.5098 21.9779,53.1765 28.5,53.5C 28.1771,47.31 28.5104,41.31 29.5,35.5 Z"/></g>
<g><path style="opacity:1" fill="#6b6b6b" d="M 9.5,54.5 C 9.83333,54.5 10.1667,54.5 10.5,54.5C 10.5,67.1667 10.5,79.8333 10.5,92.5C 16.69,92.1771 22.69,92.5104 28.5,93.5C 22.1667,93.5 15.8333,93.5 9.5,93.5C 9.5,80.5 9.5,67.5 9.5,54.5 Z"/></g>
<g><path style="opacity:1" fill="#747474" d="M 86.5,35.5 C 87.4896,41.31 87.8229,47.31 87.5,53.5C 87.5,53.8333 87.5,54.1667 87.5,54.5C 87.8287,67.3443 87.4954,80.011 86.5,92.5C 74.011,93.4954 61.3443,93.8287 48.5,93.5C 48.5,80.5 48.5,67.5 48.5,54.5C 61.1667,54.5 73.8333,54.5 86.5,54.5C 86.5,48.1667 86.5,41.8333 86.5,35.5 Z"/></g>
<g><path style="opacity:1" fill="#fefefe" d="M 85.5,55.5 C 85.5,67.5 85.5,79.5 85.5,91.5C 73.5,91.5 61.5,91.5 49.5,91.5C 49.5,79.5 49.5,67.5 49.5,55.5C 61.5,55.5 73.5,55.5 85.5,55.5 Z"/></g>
<g><path style="opacity:1" fill="#dedede" d="M 85.5,55.5 C 86.4952,67.6554 86.8286,79.9887 86.5,92.5C 73.9887,92.8286 61.6554,92.4952 49.5,91.5C 61.5,91.5 73.5,91.5 85.5,91.5C 85.5,79.5 85.5,67.5 85.5,55.5 Z"/></g>
<g><path style="opacity:1" fill="#9b9b9b" d="M 144.5,54.5 C 138.69,55.4896 132.69,55.8229 126.5,55.5C 126.5,80.5 126.5,105.5 126.5,130.5C 132.69,130.177 138.69,130.51 144.5,131.5C 138.167,131.5 131.833,131.5 125.5,131.5C 125.5,105.833 125.5,80.1667 125.5,54.5C 131.833,54.5 138.167,54.5 144.5,54.5 Z"/></g>
<g><path style="opacity:1" fill="#454545" d="M 28.5,93.5 C 29.4896,99.31 29.8229,105.31 29.5,111.5C 48.674,111.17 67.674,111.503 86.5,112.5C 67.1667,112.5 47.8333,112.5 28.5,112.5C 28.5,106.167 28.5,99.8333 28.5,93.5 Z"/></g>
<g><path style="opacity:1" fill="#6b6b6b" d="M 86.5,130.5 C 80.69,131.49 74.69,131.823 68.5,131.5C 68.5,137.833 68.5,144.167 68.5,150.5C 93.8333,150.5 119.167,150.5 144.5,150.5C 119.005,151.498 93.3388,151.831 67.5,151.5C 67.5,144.5 67.5,137.5 67.5,130.5C 73.8333,130.5 80.1667,130.5 86.5,130.5 Z"/></g>
</svg>
