<?xml version="1.0" encoding="UTF-8"?>
<!DOCTYPE svg PUBLIC "-//W3C//DTD SVG 1.1//EN" "http://www.w3.org/Graphics/SVG/1.1/DTD/svg11.dtd">
<svg xmlns="http://www.w3.org/2000/svg" version="1.1" width="157px" height="157px" style="shape-rendering:geometricPrecision; text-rendering:geometricPrecision; image-rendering:optimizeQuality; fill-rule:evenodd; clip-rule:evenodd" xmlns:xlink="http://www.w3.org/1999/xlink">
<g><path style="opacity:1" fill="#fefefe" d="M -0.5,-0.5 C 51.8333,-0.5 104.167,-0.5 156.5,-0.5C 156.5,51.8333 156.5,104.167 156.5,156.5C 104.167,156.5 51.8333,156.5 -0.5,156.5C -0.5,104.167 -0.5,51.8333 -0.5,-0.5 Z"/></g>
<g><path style="opacity:1" fill="#020202" d="M 48.5,45.5 C 48.5,51.8333 48.5,58.1667 48.5,64.5C 55.0221,64.8235 61.3554,64.4902 67.5,63.5C 68.4896,57.69 68.8229,51.69 68.5,45.5C 87.5,45.5 106.5,45.5 125.5,45.5C 125.5,51.8333 125.5,58.1667 125.5,64.5C 131.833,64.5 138.167,64.5 144.5,64.5C 144.5,70.8333 144.5,77.1667 144.5,83.5C 131.833,83.5 119.167,83.5 106.5,83.5C 106.5,77.1667 106.5,70.8333 106.5,64.5C 99.8333,64.5 93.1667,64.5 86.5,64.5C 86.5,70.8333 86.5,77.1667 86.5,83.5C 80.31,83.1771 74.31,83.5104 68.5,84.5C 68.5,96.8333 68.5,109.167 68.5,121.5C 74.31,122.49 80.31,122.823 86.5,122.5C 86.5,128.833 86.5,135.167 86.5,141.5C 61.1667,141.5 35.8333,141.5 10.5,141.5C 10.5,135.167 10.5,128.833 10.5,122.5C 16.8333,122.5 23.1667,122.5 29.5,122.5C 29.5,103.167 29.5,83.8333 29.5,64.5C 23.1667,64.5 16.8333,64.5 10.5,64.5C 10.5,58.1667 10.5,51.8333 10.5,45.5C 23.1667,45.5 35.8333,45.5 48.5,45.5 Z"/></g>
<g><path style="opacity:1" fill="#626262" d="M 125.5,45.5 C 106.5,45.5 87.5,45.5 68.5,45.5C 68.8229,51.69 68.4896,57.69 67.5,63.5C 67.5,57.5 67.5,51.5 67.5,45.5C 86.8333,44.1667 106.167,44.1667 125.5,45.5 Z"/></g>
<g><path style="opacity:1" fill="#a5a5a5" d="M 48.5,45.5 C 49.4896,51.31 49.8229,57.31 49.5,63.5C 55.1667,63.5 60.8333,63.5 66.5,63.5C 66.1771,57.31 66.5104,51.31 67.5,45.5C 67.5,51.5 67.5,57.5 67.5,63.5C 61.3554,64.4902 55.0221,64.8235 48.5,64.5C 48.5,58.1667 48.5,51.8333 48.5,45.5 Z"/></g>
<g><path style="opacity:1" fill="#a5a5a5" d="M 125.5,45.5 C 126.49,51.31 126.823,57.31 126.5,63.5C 132.69,63.1771 138.69,63.5104 144.5,64.5C 138.167,64.5 131.833,64.5 125.5,64.5C 125.5,58.1667 125.5,51.8333 125.5,45.5 Z"/></g>
<g><path style="opacity:1" fill="#6f6f6f" d="M 144.5,83.5 C 131.677,84.4955 118.677,84.8288 105.5,84.5C 105.5,78.1667 105.5,71.8333 105.5,65.5C 99.5,65.5 93.5,65.5 87.5,65.5C 87.5,71.8333 87.5,78.1667 87.5,84.5C 81.1667,84.5 74.8333,84.5 68.5,84.5C 74.31,83.5104 80.31,83.1771 86.5,83.5C 86.5,77.1667 86.5,70.8333 86.5,64.5C 93.1667,64.5 99.8333,64.5 106.5,64.5C 106.5,70.8333 106.5,77.1667 106.5,83.5C 119.167,83.5 131.833,83.5 144.5,83.5 Z"/></g>
<g><path style="opacity:1" fill="#898989" d="M 48.5,45.5 C 35.8333,45.5 23.1667,45.5 10.5,45.5C 10.5,51.8333 10.5,58.1667 10.5,64.5C 16.8333,64.5 23.1667,64.5 29.5,64.5C 29.5,83.8333 29.5,103.167 29.5,122.5C 23.1667,122.5 16.8333,122.5 10.5,122.5C 10.5,128.833 10.5,135.167 10.5,141.5C 35.8333,141.5 61.1667,141.5 86.5,141.5C 86.8333,141.5 87.1667,141.5 87.5,141.5C 61.672,142.498 35.672,142.831 9.5,142.5C 9.5,135.5 9.5,128.5 9.5,121.5C 15.8333,121.5 22.1667,121.5 28.5,121.5C 28.5,102.833 28.5,84.1667 28.5,65.5C 22.1667,65.5 15.8333,65.5 9.5,65.5C 9.5,58.5 9.5,51.5 9.5,44.5C 22.6774,44.1712 35.6774,44.5045 48.5,45.5 Z"/></g>
<g><path style="opacity:1" fill="#636363" d="M 68.5,121.5 C 74.8333,121.5 81.1667,121.5 87.5,121.5C 87.5,128.167 87.5,134.833 87.5,141.5C 87.1667,141.5 86.8333,141.5 86.5,141.5C 86.5,135.167 86.5,128.833 86.5,122.5C 80.31,122.823 74.31,122.49 68.5,121.5 Z"/></g>
</svg>
