<?xml version="1.0" encoding="UTF-8"?>
<!DOCTYPE svg PUBLIC "-//W3C//DTD SVG 1.1//EN" "http://www.w3.org/Graphics/SVG/1.1/DTD/svg11.dtd">
<svg xmlns="http://www.w3.org/2000/svg" version="1.1" width="144px" height="144px" style="shape-rendering:geometricPrecision; text-rendering:geometricPrecision; image-rendering:optimizeQuality; fill-rule:evenodd; clip-rule:evenodd" xmlns:xlink="http://www.w3.org/1999/xlink">
<g><path style="opacity:1" fill="#fefefe" d="M -0.5,-0.5 C 47.5,-0.5 95.5,-0.5 143.5,-0.5C 143.5,47.5 143.5,95.5 143.5,143.5C 95.5,143.5 47.5,143.5 -0.5,143.5C -0.5,95.5 -0.5,47.5 -0.5,-0.5 Z"/></g>
<g><path style="opacity:1" fill="#020202" d="M 34.5,35.5 C 59.8333,35.5 85.1667,35.5 110.5,35.5C 110.5,41.8333 110.5,48.1667 110.5,54.5C 91.5,54.5 72.5,54.5 53.5,54.5C 53.1765,61.0221 53.5098,67.3554 54.5,73.5C 72.9925,74.4969 91.6592,74.8302 110.5,74.5C 110.177,80.69 110.51,86.69 111.5,92.5C 117.645,93.4902 123.978,93.8235 130.5,93.5C 130.5,99.8333 130.5,106.167 130.5,112.5C 124.167,112.5 117.833,112.5 111.5,112.5C 111.5,118.833 111.5,125.167 111.5,131.5C 79.5,131.5 47.5,131.5 15.5,131.5C 15.5,125.167 15.5,118.833 15.5,112.5C 41.0055,112.831 66.3388,112.498 91.5,111.5C 91.5,105.5 91.5,99.5 91.5,93.5C 72.674,92.503 53.674,92.1697 34.5,92.5C 34.8229,86.31 34.4896,80.31 33.5,74.5C 27.69,73.5104 21.69,73.1771 15.5,73.5C 15.5,67.1667 15.5,60.8333 15.5,54.5C 21.8333,54.5 28.1667,54.5 34.5,54.5C 34.5,48.1667 34.5,41.8333 34.5,35.5 Z"/></g>
<g><path style="opacity:1" fill="#5d5d5d" d="M 34.5,35.5 C 59.9946,34.5022 85.6612,34.1689 111.5,34.5C 111.5,41.1667 111.5,47.8333 111.5,54.5C 111.167,54.5 110.833,54.5 110.5,54.5C 110.5,48.1667 110.5,41.8333 110.5,35.5C 85.1667,35.5 59.8333,35.5 34.5,35.5 Z"/></g>
<g><path style="opacity:1" fill="#9f9f9f" d="M 34.5,35.5 C 34.5,41.8333 34.5,48.1667 34.5,54.5C 28.1667,54.5 21.8333,54.5 15.5,54.5C 21.31,53.5104 27.31,53.1771 33.5,53.5C 33.1771,47.31 33.5104,41.31 34.5,35.5 Z"/></g>
<g><path style="opacity:1" fill="#868686" d="M 110.5,54.5 C 110.833,54.5 111.167,54.5 111.5,54.5C 92.674,55.497 73.674,55.8303 54.5,55.5C 54.5,61.5 54.5,67.5 54.5,73.5C 53.5098,67.3554 53.1765,61.0221 53.5,54.5C 72.5,54.5 91.5,54.5 110.5,54.5 Z"/></g>
<g><path style="opacity:1" fill="#707070" d="M 15.5,54.5 C 15.5,60.8333 15.5,67.1667 15.5,73.5C 21.69,73.1771 27.69,73.5104 33.5,74.5C 27.1667,74.5 20.8333,74.5 14.5,74.5C 14.176,67.6457 14.5093,60.979 15.5,54.5 Z"/></g>
<g><path style="opacity:1" fill="#414141" d="M 54.5,73.5 C 73.5,73.5 92.5,73.5 111.5,73.5C 111.5,79.8333 111.5,86.1667 111.5,92.5C 110.51,86.69 110.177,80.69 110.5,74.5C 91.6592,74.8302 72.9925,74.4969 54.5,73.5 Z"/></g>
<g><path style="opacity:1" fill="#5c5c5c" d="M 33.5,74.5 C 34.4896,80.31 34.8229,86.31 34.5,92.5C 53.674,92.1697 72.674,92.503 91.5,93.5C 72.5,93.5 53.5,93.5 34.5,93.5C 33.5098,87.3554 33.1765,81.0221 33.5,74.5 Z"/></g>
<g><path style="opacity:1" fill="#d2d2d2" d="M 34.5,93.5 C 53.5,93.5 72.5,93.5 91.5,93.5C 91.5,99.5 91.5,105.5 91.5,111.5C 91.1667,111.5 90.8333,111.5 90.5,111.5C 90.5,105.833 90.5,100.167 90.5,94.5C 71.6592,94.8302 52.9925,94.4969 34.5,93.5 Z"/></g>
<g><path style="opacity:1" fill="#8a8a8a" d="M 111.5,92.5 C 118.167,92.5 124.833,92.5 131.5,92.5C 131.824,99.3543 131.491,106.021 130.5,112.5C 130.5,106.167 130.5,99.8333 130.5,93.5C 123.978,93.8235 117.645,93.4902 111.5,92.5 Z"/></g>
<g><path style="opacity:1" fill="#858585" d="M 90.5,111.5 C 90.8333,111.5 91.1667,111.5 91.5,111.5C 66.3388,112.498 41.0055,112.831 15.5,112.5C 15.5,118.833 15.5,125.167 15.5,131.5C 47.5,131.5 79.5,131.5 111.5,131.5C 79.3376,132.498 47.0043,132.832 14.5,132.5C 14.5,125.5 14.5,118.5 14.5,111.5C 39.8333,111.5 65.1667,111.5 90.5,111.5 Z"/></g>
<g><path style="opacity:1" fill="#b7b7b7" d="M 130.5,112.5 C 124.69,113.49 118.69,113.823 112.5,113.5C 112.823,119.69 112.49,125.69 111.5,131.5C 111.5,125.167 111.5,118.833 111.5,112.5C 117.833,112.5 124.167,112.5 130.5,112.5 Z"/></g>
</svg>
