<?xml version="1.0" encoding="UTF-8"?>
<!DOCTYPE svg PUBLIC "-//W3C//DTD SVG 1.1//EN" "http://www.w3.org/Graphics/SVG/1.1/DTD/svg11.dtd">
<svg xmlns="http://www.w3.org/2000/svg" version="1.1" width="150px" height="150px" style="shape-rendering:geometricPrecision; text-rendering:geometricPrecision; image-rendering:optimizeQuality; fill-rule:evenodd; clip-rule:evenodd" xmlns:xlink="http://www.w3.org/1999/xlink">
<g><path style="opacity:1" fill="#fdfdfd" d="M -0.5,-0.5 C 49.5,-0.5 99.5,-0.5 149.5,-0.5C 149.5,49.5 149.5,99.5 149.5,149.5C 99.5,149.5 49.5,149.5 -0.5,149.5C -0.5,99.5 -0.5,49.5 -0.5,-0.5 Z"/></g>
<g><path style="opacity:1" fill="#010101" d="M 30.5,7.5 C 43.1667,7.5 55.8333,7.5 68.5,7.5C 68.1714,20.0113 68.5048,32.3446 69.5,44.5C 81.6554,45.4952 93.9887,45.8286 106.5,45.5C 106.5,51.8333 106.5,58.1667 106.5,64.5C 93.8333,64.5 81.1667,64.5 68.5,64.5C 68.1697,83.674 68.503,102.674 69.5,121.5C 75.5,122.833 81.5,122.833 87.5,121.5C 88.4896,115.69 88.8229,109.69 88.5,103.5C 101.167,103.5 113.833,103.5 126.5,103.5C 126.5,109.833 126.5,116.167 126.5,122.5C 120.167,122.5 113.833,122.5 107.5,122.5C 107.5,128.833 107.5,135.167 107.5,141.5C 94.1667,141.5 80.8333,141.5 67.5,141.5C 62.0247,140.511 56.358,140.178 50.5,140.5C 50.8222,134.642 50.4889,128.975 49.5,123.5C 43.3554,122.51 37.0221,122.177 30.5,122.5C 30.5,103.167 30.5,83.8333 30.5,64.5C 24.1667,64.5 17.8333,64.5 11.5,64.5C 11.5,58.1667 11.5,51.8333 11.5,45.5C 17.8333,45.5 24.1667,45.5 30.5,45.5C 30.5,32.8333 30.5,20.1667 30.5,7.5 Z"/></g>
<g><path style="opacity:1" fill="#666666" d="M 30.5,7.5 C 30.5,7.16667 30.5,6.83333 30.5,6.5C 43.5,6.5 56.5,6.5 69.5,6.5C 69.5,19.1667 69.5,31.8333 69.5,44.5C 68.5048,32.3446 68.1714,20.0113 68.5,7.5C 55.8333,7.5 43.1667,7.5 30.5,7.5 Z"/></g>
<g><path style="opacity:1" fill="#595959" d="M 69.5,44.5 C 82.1667,44.5 94.8333,44.5 107.5,44.5C 107.5,51.1667 107.5,57.8333 107.5,64.5C 107.167,64.5 106.833,64.5 106.5,64.5C 106.5,58.1667 106.5,51.8333 106.5,45.5C 93.9887,45.8286 81.6554,45.4952 69.5,44.5 Z"/></g>
<g><path style="opacity:1" fill="#878787" d="M 30.5,6.5 C 30.5,6.83333 30.5,7.16667 30.5,7.5C 30.5,20.1667 30.5,32.8333 30.5,45.5C 24.1667,45.5 17.8333,45.5 11.5,45.5C 11.5,51.8333 11.5,58.1667 11.5,64.5C 17.8333,64.5 24.1667,64.5 30.5,64.5C 30.5,83.8333 30.5,103.167 30.5,122.5C 29.503,103.674 29.1697,84.674 29.5,65.5C 23.1667,65.5 16.8333,65.5 10.5,65.5C 10.5,58.5 10.5,51.5 10.5,44.5C 16.8333,44.5 23.1667,44.5 29.5,44.5C 29.1713,31.6557 29.5046,18.989 30.5,6.5 Z"/></g>
<g><path style="opacity:1" fill="#747474" d="M 106.5,64.5 C 106.833,64.5 107.167,64.5 107.5,64.5C 95.011,65.4954 82.3443,65.8287 69.5,65.5C 69.5,84.1667 69.5,102.833 69.5,121.5C 68.503,102.674 68.1697,83.674 68.5,64.5C 81.1667,64.5 93.8333,64.5 106.5,64.5 Z"/></g>
<g><path style="opacity:1" fill="#6d6d6d" d="M 126.5,122.5 C 126.5,116.167 126.5,109.833 126.5,103.5C 113.833,103.5 101.167,103.5 88.5,103.5C 88.8229,109.69 88.4896,115.69 87.5,121.5C 87.5,115.167 87.5,108.833 87.5,102.5C 100.833,102.5 114.167,102.5 127.5,102.5C 127.824,109.354 127.491,116.021 126.5,122.5 Z"/></g>
<g><path style="opacity:1" fill="#b6b6b6" d="M 126.5,122.5 C 120.69,123.49 114.69,123.823 108.5,123.5C 108.823,129.69 108.49,135.69 107.5,141.5C 107.5,135.167 107.5,128.833 107.5,122.5C 113.833,122.5 120.167,122.5 126.5,122.5 Z"/></g>
<g><path style="opacity:1" fill="#acacac" d="M 30.5,122.5 C 37.0221,122.177 43.3554,122.51 49.5,123.5C 49.5,129.5 49.5,135.5 49.5,141.5C 48.5104,135.69 48.1771,129.69 48.5,123.5C 42.31,123.823 36.31,123.49 30.5,122.5 Z"/></g>
<g><path style="opacity:1" fill="#202020" d="M 49.5,123.5 C 50.4889,128.975 50.8222,134.642 50.5,140.5C 56.358,140.178 62.0247,140.511 67.5,141.5C 61.5,141.5 55.5,141.5 49.5,141.5C 49.5,135.5 49.5,129.5 49.5,123.5 Z"/></g>
</svg>
