<?xml version="1.0" encoding="UTF-8"?>
<!DOCTYPE svg PUBLIC "-//W3C//DTD SVG 1.1//EN" "http://www.w3.org/Graphics/SVG/1.1/DTD/svg11.dtd">
<svg xmlns="http://www.w3.org/2000/svg" version="1.1" width="154px" height="154px" style="shape-rendering:geometricPrecision; text-rendering:geometricPrecision; image-rendering:optimizeQuality; fill-rule:evenodd; clip-rule:evenodd" xmlns:xlink="http://www.w3.org/1999/xlink">
<g><path style="opacity:1" fill="#fdfdfd" d="M -0.5,-0.5 C 50.8333,-0.5 102.167,-0.5 153.5,-0.5C 153.5,50.8333 153.5,102.167 153.5,153.5C 102.167,153.5 50.8333,153.5 -0.5,153.5C -0.5,102.167 -0.5,50.8333 -0.5,-0.5 Z"/></g>
<g><path style="opacity:1" fill="#010101" d="M 55.5,45.5 C 55.5,71.1667 55.5,96.8333 55.5,122.5C 68.3443,122.829 81.011,122.495 93.5,121.5C 94.4977,96.3388 94.8311,71.0055 94.5,45.5C 107.167,45.5 119.833,45.5 132.5,45.5C 132.5,71.5 132.5,97.5 132.5,123.5C 131.511,128.975 131.178,134.642 131.5,140.5C 125.642,140.178 119.975,140.511 114.5,141.5C 88.5,141.5 62.5,141.5 36.5,141.5C 36.5,135.167 36.5,128.833 36.5,122.5C 30.1667,122.5 23.8333,122.5 17.5,122.5C 17.5,96.8333 17.5,71.1667 17.5,45.5C 30.1667,45.5 42.8333,45.5 55.5,45.5 Z"/></g>
<g><path style="opacity:1" fill="#7a7a7a" d="M 55.5,45.5 C 42.8333,45.5 30.1667,45.5 17.5,45.5C 17.5,71.1667 17.5,96.8333 17.5,122.5C 16.5022,96.672 16.1689,70.672 16.5,44.5C 29.6774,44.1712 42.6774,44.5045 55.5,45.5 Z"/></g>
<g><path style="opacity:1" fill="#848484" d="M 55.5,45.5 C 56.4977,70.6612 56.8311,95.9945 56.5,121.5C 68.8333,121.5 81.1667,121.5 93.5,121.5C 81.011,122.495 68.3443,122.829 55.5,122.5C 55.5,96.8333 55.5,71.1667 55.5,45.5 Z"/></g>
<g><path style="opacity:1" fill="#6a6a6a" d="M 132.5,45.5 C 119.833,45.5 107.167,45.5 94.5,45.5C 94.8311,71.0055 94.4977,96.3388 93.5,121.5C 93.5,95.8333 93.5,70.1667 93.5,44.5C 106.677,44.1712 119.677,44.5045 132.5,45.5 Z"/></g>
<g><path style="opacity:1" fill="#999999" d="M 17.5,122.5 C 23.8333,122.5 30.1667,122.5 36.5,122.5C 36.5,128.833 36.5,135.167 36.5,141.5C 35.5104,135.69 35.1771,129.69 35.5,123.5C 29.31,123.823 23.31,123.49 17.5,122.5 Z"/></g>
<g><path style="opacity:1" fill="#1c1c1c" d="M 132.5,123.5 C 132.5,129.5 132.5,135.5 132.5,141.5C 126.5,141.5 120.5,141.5 114.5,141.5C 119.975,140.511 125.642,140.178 131.5,140.5C 131.178,134.642 131.511,128.975 132.5,123.5 Z"/></g>
</svg>
