<?xml version="1.0" encoding="UTF-8"?>
<!DOCTYPE svg PUBLIC "-//W3C//DTD SVG 1.1//EN" "http://www.w3.org/Graphics/SVG/1.1/DTD/svg11.dtd">
<svg xmlns="http://www.w3.org/2000/svg" version="1.1" width="140px" height="140px" style="shape-rendering:geometricPrecision; text-rendering:geometricPrecision; image-rendering:optimizeQuality; fill-rule:evenodd; clip-rule:evenodd" xmlns:xlink="http://www.w3.org/1999/xlink">
<g><path style="opacity:1" fill="#fefefe" d="M -0.5,-0.5 C 46.1667,-0.5 92.8333,-0.5 139.5,-0.5C 139.5,46.1667 139.5,92.8333 139.5,139.5C 92.8333,139.5 46.1667,139.5 -0.5,139.5C -0.5,92.8333 -0.5,46.1667 -0.5,-0.5 Z"/></g>
<g><path style="opacity:1" fill="#000000" d="M 48.5,38.5 C 48.5,57.8333 48.5,77.1667 48.5,96.5C 61.3443,96.8287 74.011,96.4954 86.5,95.5C 87.497,76.674 87.8303,57.674 87.5,38.5C 100.167,38.5 112.833,38.5 125.5,38.5C 125.5,57.5 125.5,76.5 125.5,95.5C 119.31,95.1771 113.31,95.5104 107.5,96.5C 106.833,96.5 106.5,96.8333 106.5,97.5C 105.511,102.975 105.178,108.642 105.5,114.5C 99.642,114.178 93.9753,114.511 88.5,115.5C 87.8333,115.5 87.5,115.833 87.5,116.5C 86.5104,122.31 86.1771,128.31 86.5,134.5C 79.8333,134.5 73.1667,134.5 66.5,134.5C 61.0247,133.511 55.358,133.178 49.5,133.5C 49.8222,127.642 49.4889,121.975 48.5,116.5C 48.5,115.833 48.1667,115.5 47.5,115.5C 41.69,114.51 35.69,114.177 29.5,114.5C 29.8229,108.31 29.4896,102.31 28.5,96.5C 22.69,95.5104 16.69,95.1771 10.5,95.5C 10.5,76.5 10.5,57.5 10.5,38.5C 23.1667,38.5 35.8333,38.5 48.5,38.5 Z"/></g>
<g><path style="opacity:1" fill="#dedede" d="M 86.5,38.5 C 86.5,57.5 86.5,76.5 86.5,95.5C 73.9887,95.8286 61.6554,95.4952 49.5,94.5C 61.5,94.5 73.5,94.5 85.5,94.5C 85.1698,75.6592 85.5031,56.9925 86.5,38.5 Z"/></g>
<g><path style="opacity:1" fill="#757575" d="M 48.5,38.5 C 35.8333,38.5 23.1667,38.5 10.5,38.5C 10.5,57.5 10.5,76.5 10.5,95.5C 16.69,95.1771 22.69,95.5104 28.5,96.5C 22.1667,96.5 15.8333,96.5 9.5,96.5C 9.5,76.8333 9.5,57.1667 9.5,37.5C 22.6774,37.1712 35.6774,37.5045 48.5,38.5 Z"/></g>
<g><path style="opacity:1" fill="#6c6c6c" d="M 125.5,38.5 C 112.833,38.5 100.167,38.5 87.5,38.5C 87.8303,57.674 87.497,76.674 86.5,95.5C 86.5,76.5 86.5,57.5 86.5,38.5C 99.5,37.1667 112.5,37.1667 125.5,38.5 Z"/></g>
<g><path style="opacity:1" fill="#6e6e6e" d="M 48.5,38.5 C 49.4969,56.9925 49.8302,75.6592 49.5,94.5C 61.6554,95.4952 73.9887,95.8286 86.5,95.5C 74.011,96.4954 61.3443,96.8287 48.5,96.5C 48.5,77.1667 48.5,57.8333 48.5,38.5 Z"/></g>
<g><path style="opacity:1" fill="#717172" d="M 125.5,38.5 C 126.833,57.8333 126.833,77.1667 125.5,96.5C 119.5,96.5 113.5,96.5 107.5,96.5C 113.31,95.5104 119.31,95.1771 125.5,95.5C 125.5,76.5 125.5,57.5 125.5,38.5 Z"/></g>
<g><path style="opacity:1" fill="#bebebf" d="M 107.5,96.5 C 113.5,96.5 119.5,96.5 125.5,96.5C 119.69,97.4896 113.69,97.8229 107.5,97.5C 107.823,103.69 107.49,109.69 106.5,115.5C 106.5,109.5 106.5,103.5 106.5,97.5C 106.5,96.8333 106.833,96.5 107.5,96.5 Z"/></g>
<g><path style="opacity:1" fill="#535353" d="M 28.5,96.5 C 29.4896,102.31 29.8229,108.31 29.5,114.5C 35.69,114.177 41.69,114.51 47.5,115.5C 41.5,115.5 35.5,115.5 29.5,115.5C 28.5098,109.355 28.1765,103.022 28.5,96.5 Z"/></g>
<g><path style="opacity:1" fill="#373737" d="M 106.5,97.5 C 106.5,103.5 106.5,109.5 106.5,115.5C 100.5,115.5 94.5,115.5 88.5,115.5C 93.9753,114.511 99.642,114.178 105.5,114.5C 105.178,108.642 105.511,102.975 106.5,97.5 Z"/></g>
<g><path style="opacity:1" fill="#c8c8c8" d="M 88.5,115.5 C 94.5,115.5 100.5,115.5 106.5,115.5C 100.69,116.49 94.69,116.823 88.5,116.5C 88.8229,122.69 88.4896,128.69 87.5,134.5C 87.5,128.5 87.5,122.5 87.5,116.5C 87.5,115.833 87.8333,115.5 88.5,115.5 Z"/></g>
<g><path style="opacity:1" fill="#acacac" d="M 29.5,115.5 C 35.5,115.5 41.5,115.5 47.5,115.5C 48.1667,115.5 48.5,115.833 48.5,116.5C 48.5,122.5 48.5,128.5 48.5,134.5C 47.5104,128.69 47.1771,122.69 47.5,116.5C 41.31,116.823 35.31,116.49 29.5,115.5 Z"/></g>
<g><path style="opacity:1" fill="#1f1f1f" d="M 48.5,116.5 C 49.4889,121.975 49.8222,127.642 49.5,133.5C 55.358,133.178 61.0247,133.511 66.5,134.5C 60.5,134.5 54.5,134.5 48.5,134.5C 48.5,128.5 48.5,122.5 48.5,116.5 Z"/></g>
<g><path style="opacity:1" fill="#888888" d="M 87.5,116.5 C 87.5,122.5 87.5,128.5 87.5,134.5C 74.5,135.833 61.5,135.833 48.5,134.5C 54.5,134.5 60.5,134.5 66.5,134.5C 73.1667,134.5 79.8333,134.5 86.5,134.5C 86.1771,128.31 86.5104,122.31 87.5,116.5 Z"/></g>
</svg>
