<?xml version="1.0" encoding="UTF-8"?>
<!DOCTYPE svg PUBLIC "-//W3C//DTD SVG 1.1//EN" "http://www.w3.org/Graphics/SVG/1.1/DTD/svg11.dtd">
<svg xmlns="http://www.w3.org/2000/svg" version="1.1" width="150px" height="150px" style="shape-rendering:geometricPrecision; text-rendering:geometricPrecision; image-rendering:optimizeQuality; fill-rule:evenodd; clip-rule:evenodd" xmlns:xlink="http://www.w3.org/1999/xlink">
<g><path style="opacity:1" fill="#fdfdfd" d="M -0.5,-0.5 C 49.5,-0.5 99.5,-0.5 149.5,-0.5C 149.5,49.5 149.5,99.5 149.5,149.5C 99.5,149.5 49.5,149.5 -0.5,149.5C -0.5,99.5 -0.5,49.5 -0.5,-0.5 Z"/></g>
<g><path style="opacity:1" fill="#010101" d="M 8.5,35.5 C 21.1667,35.5 33.8333,35.5 46.5,35.5C 46.5,54.5 46.5,73.5 46.5,92.5C 52.8333,92.5 59.1667,92.5 65.5,92.5C 66.4952,80.3446 66.8286,68.0113 66.5,55.5C 72.5,55.5 78.5,55.5 84.5,55.5C 84.1714,68.0113 84.5048,80.3446 85.5,92.5C 91.5,92.5 97.5,92.5 103.5,92.5C 104.497,73.674 104.83,54.674 104.5,35.5C 117.167,35.5 129.833,35.5 142.5,35.5C 142.5,60.8333 142.5,86.1667 142.5,111.5C 136.31,111.177 130.31,111.51 124.5,112.5C 123.833,112.5 123.5,112.833 123.5,113.5C 122.511,118.975 122.178,124.642 122.5,130.5C 116.642,130.178 110.975,130.511 105.5,131.5C 98.8333,131.5 92.1667,131.5 85.5,131.5C 85.5,125.167 85.5,118.833 85.5,112.5C 78.8333,112.5 72.1667,112.5 65.5,112.5C 65.5,118.833 65.5,125.167 65.5,131.5C 52.8333,131.5 40.1667,131.5 27.5,131.5C 27.8235,124.978 27.4902,118.645 26.5,112.5C 20.69,111.51 14.69,111.177 8.5,111.5C 8.5,86.1667 8.5,60.8333 8.5,35.5 Z"/></g>
<g><path style="opacity:1" fill="#7e7e7e" d="M 142.5,35.5 C 129.833,35.5 117.167,35.5 104.5,35.5C 104.83,54.674 104.497,73.674 103.5,92.5C 103.5,92.1667 103.5,91.8333 103.5,91.5C 103.5,72.5 103.5,53.5 103.5,34.5C 116.677,34.1712 129.677,34.5045 142.5,35.5 Z"/></g>
<g><path style="opacity:1" fill="#434343" d="M 85.5,54.5 C 85.5,67.1667 85.5,79.8333 85.5,92.5C 84.5048,80.3446 84.1714,68.0113 84.5,55.5C 78.5,55.5 72.5,55.5 66.5,55.5C 66.8286,68.0113 66.4952,80.3446 65.5,92.5C 65.5,79.8333 65.5,67.1667 65.5,54.5C 72.1667,54.5 78.8333,54.5 85.5,54.5 Z"/></g>
<g><path style="opacity:1" fill="#d6d6d6" d="M 85.5,54.5 C 86.4952,66.6554 86.8286,78.9887 86.5,91.5C 92.1667,91.5 97.8333,91.5 103.5,91.5C 103.5,91.8333 103.5,92.1667 103.5,92.5C 97.5,92.5 91.5,92.5 85.5,92.5C 85.5,79.8333 85.5,67.1667 85.5,54.5 Z"/></g>
<g><path style="opacity:1" fill="#505050" d="M 8.5,35.5 C 8.5,60.8333 8.5,86.1667 8.5,111.5C 14.69,111.177 20.69,111.51 26.5,112.5C 20.5,112.5 14.5,112.5 8.5,112.5C 7.16667,86.8333 7.16667,61.1667 8.5,35.5 Z"/></g>
<g><path style="opacity:1" fill="#575757" d="M 142.5,35.5 C 143.833,61.1667 143.833,86.8333 142.5,112.5C 136.5,112.5 130.5,112.5 124.5,112.5C 130.31,111.51 136.31,111.177 142.5,111.5C 142.5,86.1667 142.5,60.8333 142.5,35.5 Z"/></g>
<g><path style="opacity:1" fill="#989898" d="M 8.5,112.5 C 14.5,112.5 20.5,112.5 26.5,112.5C 27.4902,118.645 27.8235,124.978 27.5,131.5C 26.5104,125.69 26.1771,119.69 26.5,113.5C 20.31,113.823 14.31,113.49 8.5,112.5 Z"/></g>
<g><path style="opacity:1" fill="#a5a5a5" d="M 124.5,112.5 C 130.5,112.5 136.5,112.5 142.5,112.5C 136.69,113.49 130.69,113.823 124.5,113.5C 124.823,119.69 124.49,125.69 123.5,131.5C 123.5,125.5 123.5,119.5 123.5,113.5C 123.5,112.833 123.833,112.5 124.5,112.5 Z"/></g>
<g><path style="opacity:1" fill="#898989" d="M 105.5,131.5 C 111.5,131.5 117.5,131.5 123.5,131.5C 110.677,132.495 97.6774,132.829 84.5,132.5C 84.5,126.167 84.5,119.833 84.5,113.5C 78.5,113.5 72.5,113.5 66.5,113.5C 66.5,119.833 66.5,126.167 66.5,132.5C 53.3226,132.829 40.3226,132.495 27.5,131.5C 40.1667,131.5 52.8333,131.5 65.5,131.5C 65.5,125.167 65.5,118.833 65.5,112.5C 72.1667,112.5 78.8333,112.5 85.5,112.5C 85.5,118.833 85.5,125.167 85.5,131.5C 92.1667,131.5 98.8333,131.5 105.5,131.5 Z"/></g>
<g><path style="opacity:1" fill="#1d1d1d" d="M 123.5,113.5 C 123.5,119.5 123.5,125.5 123.5,131.5C 117.5,131.5 111.5,131.5 105.5,131.5C 110.975,130.511 116.642,130.178 122.5,130.5C 122.178,124.642 122.511,118.975 123.5,113.5 Z"/></g>
</svg>
