<?xml version="1.0" encoding="UTF-8"?>
<!DOCTYPE svg PUBLIC "-//W3C//DTD SVG 1.1//EN" "http://www.w3.org/Graphics/SVG/1.1/DTD/svg11.dtd">
<svg xmlns="http://www.w3.org/2000/svg" version="1.1" width="154px" height="154px" style="shape-rendering:geometricPrecision; text-rendering:geometricPrecision; image-rendering:optimizeQuality; fill-rule:evenodd; clip-rule:evenodd" xmlns:xlink="http://www.w3.org/1999/xlink">
<g><path style="opacity:1" fill="#fefefe" d="M -0.5,-0.5 C 50.8333,-0.5 102.167,-0.5 153.5,-0.5C 153.5,50.8333 153.5,102.167 153.5,153.5C 102.167,153.5 50.8333,153.5 -0.5,153.5C -0.5,102.167 -0.5,50.8333 -0.5,-0.5 Z"/></g>
<g><path style="opacity:1" fill="#868686" d="M 141.5,42.5 C 128.833,42.5 116.167,42.5 103.5,42.5C 103.5,48.8333 103.5,55.1667 103.5,61.5C 97.1667,61.5 90.8333,61.5 84.5,61.5C 84.8235,68.0221 84.4902,74.3554 83.5,80.5C 83.5,74.1667 83.5,67.8333 83.5,61.5C 89.6446,60.5098 95.9779,60.1765 102.5,60.5C 102.5,54.1667 102.5,47.8333 102.5,41.5C 115.677,41.1712 128.677,41.5045 141.5,42.5 Z"/></g>
<g><path style="opacity:1" fill="#020202" d="M 7.5,42.5 C 20.1667,42.5 32.8333,42.5 45.5,42.5C 45.5,48.8333 45.5,55.1667 45.5,61.5C 51.8333,61.5 58.1667,61.5 64.5,61.5C 64.1765,68.0221 64.5098,74.3554 65.5,80.5C 71.5,80.5 77.5,80.5 83.5,80.5C 84.4902,74.3554 84.8235,68.0221 84.5,61.5C 90.8333,61.5 97.1667,61.5 103.5,61.5C 103.5,55.1667 103.5,48.8333 103.5,42.5C 116.167,42.5 128.833,42.5 141.5,42.5C 141.5,48.8333 141.5,55.1667 141.5,61.5C 135.167,61.5 128.833,61.5 122.5,61.5C 122.5,67.8333 122.5,74.1667 122.5,80.5C 116.167,80.5 109.833,80.5 103.5,80.5C 103.5,87.1667 103.5,93.8333 103.5,100.5C 109.833,100.5 116.167,100.5 122.5,100.5C 122.5,106.5 122.5,112.5 122.5,118.5C 128.645,119.49 134.978,119.823 141.5,119.5C 141.5,125.833 141.5,132.167 141.5,138.5C 128.833,138.5 116.167,138.5 103.5,138.5C 103.823,131.978 103.49,125.645 102.5,119.5C 96.69,118.51 90.69,118.177 84.5,118.5C 84.8229,112.31 84.4896,106.31 83.5,100.5C 77.5,100.5 71.5,100.5 65.5,100.5C 64.5104,106.31 64.1771,112.31 64.5,118.5C 58.31,118.177 52.31,118.51 46.5,119.5C 45.5098,125.645 45.1765,131.978 45.5,138.5C 32.8333,138.5 20.1667,138.5 7.5,138.5C 7.5,132.167 7.5,125.833 7.5,119.5C 13.8333,119.5 20.1667,119.5 26.5,119.5C 26.5,113.167 26.5,106.833 26.5,100.5C 32.69,100.823 38.69,100.49 44.5,99.5C 45.4902,93.3554 45.8235,87.0221 45.5,80.5C 39.1667,80.5 32.8333,80.5 26.5,80.5C 26.5,74.1667 26.5,67.8333 26.5,61.5C 20.1667,61.5 13.8333,61.5 7.5,61.5C 7.5,55.1667 7.5,48.8333 7.5,42.5 Z"/></g>
<g><path style="opacity:1" fill="#939393" d="M 45.5,42.5 C 46.4896,48.31 46.8229,54.31 46.5,60.5C 52.8333,60.5 59.1667,60.5 65.5,60.5C 65.5,66.8333 65.5,73.1667 65.5,79.5C 65.5,79.8333 65.5,80.1667 65.5,80.5C 64.5098,74.3554 64.1765,68.0221 64.5,61.5C 58.1667,61.5 51.8333,61.5 45.5,61.5C 45.5,55.1667 45.5,48.8333 45.5,42.5 Z"/></g>
<g><path style="opacity:1" fill="#848484" d="M 7.5,42.5 C 7.5,48.8333 7.5,55.1667 7.5,61.5C 13.8333,61.5 20.1667,61.5 26.5,61.5C 26.5,67.8333 26.5,74.1667 26.5,80.5C 32.8333,80.5 39.1667,80.5 45.5,80.5C 45.8235,87.0221 45.4902,93.3554 44.5,99.5C 44.5,93.5 44.5,87.5 44.5,81.5C 38.1667,81.5 31.8333,81.5 25.5,81.5C 25.5,75.1667 25.5,68.8333 25.5,62.5C 19.1667,62.5 12.8333,62.5 6.5,62.5C 6.17596,55.6457 6.50929,48.979 7.5,42.5 Z"/></g>
<g><path style="opacity:1" fill="#8e8e8e" d="M 141.5,61.5 C 135.69,62.4896 129.69,62.8229 123.5,62.5C 123.5,68.8333 123.5,75.1667 123.5,81.5C 117.167,81.5 110.833,81.5 104.5,81.5C 104.5,87.5 104.5,93.5 104.5,99.5C 110.833,99.5 117.167,99.5 123.5,99.5C 123.5,105.833 123.5,112.167 123.5,118.5C 123.167,118.5 122.833,118.5 122.5,118.5C 122.5,112.5 122.5,106.5 122.5,100.5C 116.167,100.5 109.833,100.5 103.5,100.5C 103.5,93.8333 103.5,87.1667 103.5,80.5C 109.833,80.5 116.167,80.5 122.5,80.5C 122.5,74.1667 122.5,67.8333 122.5,61.5C 128.833,61.5 135.167,61.5 141.5,61.5 Z"/></g>
<g><path style="opacity:1" fill="#cacaca" d="M 83.5,61.5 C 83.5,67.8333 83.5,74.1667 83.5,80.5C 77.5,80.5 71.5,80.5 65.5,80.5C 65.5,80.1667 65.5,79.8333 65.5,79.5C 71.1667,79.5 76.8333,79.5 82.5,79.5C 82.1771,73.31 82.5104,67.31 83.5,61.5 Z"/></g>
<g><path style="opacity:1" fill="#d7d7d7" d="M 65.5,101.5 C 65.5,101.167 65.5,100.833 65.5,100.5C 71.5,100.5 77.5,100.5 83.5,100.5C 83.5,106.833 83.5,113.167 83.5,119.5C 82.5104,113.69 82.1771,107.69 82.5,101.5C 76.8333,101.5 71.1667,101.5 65.5,101.5 Z"/></g>
<g><path style="opacity:1" fill="#818181" d="M 44.5,99.5 C 38.69,100.49 32.69,100.823 26.5,100.5C 26.5,106.833 26.5,113.167 26.5,119.5C 20.1667,119.5 13.8333,119.5 7.5,119.5C 7.5,125.833 7.5,132.167 7.5,138.5C 20.1667,138.5 32.8333,138.5 45.5,138.5C 32.6774,139.495 19.6774,139.829 6.5,139.5C 6.5,132.5 6.5,125.5 6.5,118.5C 12.8333,118.5 19.1667,118.5 25.5,118.5C 25.5,112.167 25.5,105.833 25.5,99.5C 31.8333,99.5 38.1667,99.5 44.5,99.5 Z"/></g>
<g><path style="opacity:1" fill="#484848" d="M 65.5,100.5 C 65.5,100.833 65.5,101.167 65.5,101.5C 65.8229,107.69 65.4896,113.69 64.5,119.5C 58.5,119.5 52.5,119.5 46.5,119.5C 52.31,118.51 58.31,118.177 64.5,118.5C 64.1771,112.31 64.5104,106.31 65.5,100.5 Z"/></g>
<g><path style="opacity:1" fill="#424242" d="M 83.5,100.5 C 84.4896,106.31 84.8229,112.31 84.5,118.5C 90.69,118.177 96.69,118.51 102.5,119.5C 96.1667,119.5 89.8333,119.5 83.5,119.5C 83.5,113.167 83.5,106.833 83.5,100.5 Z"/></g>
<g><path style="opacity:1" fill="#838383" d="M 122.5,118.5 C 122.833,118.5 123.167,118.5 123.5,118.5C 129.833,118.5 136.167,118.5 142.5,118.5C 142.824,125.354 142.491,132.021 141.5,138.5C 141.5,132.167 141.5,125.833 141.5,119.5C 134.978,119.823 128.645,119.49 122.5,118.5 Z"/></g>
<g><path style="opacity:1" fill="#8b8b8b" d="M 83.5,119.5 C 89.8333,119.5 96.1667,119.5 102.5,119.5C 103.49,125.645 103.823,131.978 103.5,138.5C 102.51,132.69 102.177,126.69 102.5,120.5C 95.9779,120.823 89.6446,120.49 83.5,119.5 Z"/></g>
<g><path style="opacity:1" fill="#989898" d="M 46.5,119.5 C 52.5,119.5 58.5,119.5 64.5,119.5C 58.69,120.49 52.69,120.823 46.5,120.5C 46.8229,126.69 46.4896,132.69 45.5,138.5C 45.1765,131.978 45.5098,125.645 46.5,119.5 Z"/></g>
</svg>
