<?xml version="1.0" encoding="UTF-8"?>
<!DOCTYPE svg PUBLIC "-//W3C//DTD SVG 1.1//EN" "http://www.w3.org/Graphics/SVG/1.1/DTD/svg11.dtd">
<svg xmlns="http://www.w3.org/2000/svg" version="1.1" width="154px" height="154px" style="shape-rendering:geometricPrecision; text-rendering:geometricPrecision; image-rendering:optimizeQuality; fill-rule:evenodd; clip-rule:evenodd" xmlns:xlink="http://www.w3.org/1999/xlink">
<g><path style="opacity:1" fill="#fdfdfd" d="M -0.5,-0.5 C 50.8333,-0.5 102.167,-0.5 153.5,-0.5C 153.5,50.8333 153.5,102.167 153.5,153.5C 102.167,153.5 50.8333,153.5 -0.5,153.5C -0.5,102.167 -0.5,50.8333 -0.5,-0.5 Z"/></g>
<g><path style="opacity:1" fill="#020202" d="M 60.5,25.5 C 60.3334,44.5029 60.5001,63.5029 61,82.5C 73.5979,83.8296 86.0979,83.8296 98.5,82.5C 99.497,63.674 99.8303,44.674 99.5,25.5C 112.167,25.5 124.833,25.5 137.5,25.5C 137.5,51.5 137.5,77.5 137.5,103.5C 136.511,108.975 136.178,114.642 136.5,120.5C 130.642,120.178 124.975,120.511 119.5,121.5C 118.51,127.645 118.177,133.978 118.5,140.5C 86.5,140.5 54.5,140.5 22.5,140.5C 21.5098,134.355 21.1765,128.022 21.5,121.5C 47.1667,121.5 72.8333,121.5 98.5,121.5C 98.5,115.167 98.5,108.833 98.5,102.5C 79.5,102.5 60.5,102.5 41.5,102.5C 41.5,95.8333 41.5,89.1667 41.5,82.5C 35.1667,82.5 28.8333,82.5 22.5,82.5C 22.5,63.5 22.5,44.5 22.5,25.5C 35.1667,25.5 47.8333,25.5 60.5,25.5 Z"/></g>
<g><path style="opacity:1" fill="#6c6c6c" d="M 137.5,25.5 C 124.833,25.5 112.167,25.5 99.5,25.5C 99.8303,44.674 99.497,63.674 98.5,82.5C 98.5,63.5 98.5,44.5 98.5,25.5C 111.5,24.1667 124.5,24.1667 137.5,25.5 Z"/></g>
<g><path style="opacity:1" fill="#787878" d="M 60.5,25.5 C 47.8333,25.5 35.1667,25.5 22.5,25.5C 22.5,44.5 22.5,63.5 22.5,82.5C 28.8333,82.5 35.1667,82.5 41.5,82.5C 41.5,89.1667 41.5,95.8333 41.5,102.5C 40.5098,96.3554 40.1765,90.0221 40.5,83.5C 34.1667,83.5 27.8333,83.5 21.5,83.5C 21.5,63.8333 21.5,44.1667 21.5,24.5C 34.6774,24.1712 47.6774,24.5045 60.5,25.5 Z"/></g>
<g><path style="opacity:1" fill="#b4b4b4" d="M 60.5,25.5 C 61.4969,43.9925 61.8302,62.6592 61.5,81.5C 73.5,81.5 85.5,81.5 97.5,81.5C 97.1698,62.6592 97.5031,43.9925 98.5,25.5C 98.5,44.5 98.5,63.5 98.5,82.5C 86.0979,83.8296 73.5979,83.8296 61,82.5C 60.5001,63.5029 60.3334,44.5029 60.5,25.5 Z"/></g>
<g><path style="opacity:1" fill="#1b1b1b" d="M 137.5,103.5 C 137.5,109.5 137.5,115.5 137.5,121.5C 131.5,121.5 125.5,121.5 119.5,121.5C 124.975,120.511 130.642,120.178 136.5,120.5C 136.178,114.642 136.511,108.975 137.5,103.5 Z"/></g>
<g><path style="opacity:1" fill="#9a9a9a" d="M 119.5,121.5 C 125.5,121.5 131.5,121.5 137.5,121.5C 131.69,122.49 125.69,122.823 119.5,122.5C 119.5,128.833 119.5,135.167 119.5,141.5C 86.9957,141.832 54.6624,141.498 22.5,140.5C 54.5,140.5 86.5,140.5 118.5,140.5C 118.177,133.978 118.51,127.645 119.5,121.5 Z"/></g>
</svg>
