<?xml version="1.0" encoding="UTF-8"?>
<!DOCTYPE svg PUBLIC "-//W3C//DTD SVG 1.1//EN" "http://www.w3.org/Graphics/SVG/1.1/DTD/svg11.dtd">
<svg xmlns="http://www.w3.org/2000/svg" version="1.1" width="140px" height="140px" style="shape-rendering:geometricPrecision; text-rendering:geometricPrecision; image-rendering:optimizeQuality; fill-rule:evenodd; clip-rule:evenodd" xmlns:xlink="http://www.w3.org/1999/xlink">
<g><path style="opacity:1" fill="#fefefe" d="M -0.5,-0.5 C 46.1667,-0.5 92.8333,-0.5 139.5,-0.5C 139.5,46.1667 139.5,92.8333 139.5,139.5C 92.8333,139.5 46.1667,139.5 -0.5,139.5C -0.5,92.8333 -0.5,46.1667 -0.5,-0.5 Z"/></g>
<g><path style="opacity:1" fill="#010101" d="M 124.5,29.5 C 124.5,35.8333 124.5,42.1667 124.5,48.5C 117.978,48.1765 111.645,48.5098 105.5,49.5C 104.51,55.31 104.177,61.31 104.5,67.5C 98.31,67.1771 92.31,67.5104 86.5,68.5C 85.5104,74.31 85.1771,80.31 85.5,86.5C 79.31,86.1771 73.31,86.5104 67.5,87.5C 66.1742,93.5678 66.1742,99.7345 67.5,106C 80.0069,106.827 92.3403,106.66 104.5,105.5C 105.49,99.69 105.823,93.69 105.5,87.5C 111.833,87.5 118.167,87.5 124.5,87.5C 124.5,94.1667 124.5,100.833 124.5,107.5C 123.511,112.975 123.178,118.642 123.5,124.5C 117.642,124.178 111.975,124.511 106.5,125.5C 74.1667,125.5 41.8333,125.5 9.5,125.5C 9.5,119.167 9.5,112.833 9.5,106.5C 15.8333,106.5 22.1667,106.5 28.5,106.5C 28.5,100.167 28.5,93.8333 28.5,87.5C 35.2547,88.1229 41.588,87.4563 47.5,85.5C 48.4889,80.0247 48.8222,74.358 48.5,68.5C 54.358,68.8222 60.0247,68.4889 65.5,67.5C 66.4896,61.69 66.8229,55.69 66.5,49.5C 54.011,48.5046 41.3443,48.1713 28.5,48.5C 28.5,54.8333 28.5,61.1667 28.5,67.5C 22.1667,67.5 15.8333,67.5 9.5,67.5C 9.5,54.8333 9.5,42.1667 9.5,29.5C 47.8333,29.5 86.1667,29.5 124.5,29.5 Z"/></g>
<g><path style="opacity:1" fill="#7d7d7d" d="M 124.5,29.5 C 86.1667,29.5 47.8333,29.5 9.5,29.5C 9.5,42.1667 9.5,54.8333 9.5,67.5C 15.8333,67.5 22.1667,67.5 28.5,67.5C 28.5,67.8333 28.5,68.1667 28.5,68.5C 21.8333,68.5 15.1667,68.5 8.5,68.5C 8.5,55.1667 8.5,41.8333 8.5,28.5C 47.3369,28.1681 86.0036,28.5015 124.5,29.5 Z"/></g>
<g><path style="opacity:1" fill="#8d8d8d" d="M 66.5,49.5 C 66.1667,49.5 65.8333,49.5 65.5,49.5C 53.5,49.5 41.5,49.5 29.5,49.5C 29.8235,56.0221 29.4902,62.3554 28.5,68.5C 28.5,68.1667 28.5,67.8333 28.5,67.5C 28.5,61.1667 28.5,54.8333 28.5,48.5C 41.3443,48.1713 54.011,48.5046 66.5,49.5 Z"/></g>
<g><path style="opacity:1" fill="#a7a7a7" d="M 124.5,48.5 C 118.69,49.4896 112.69,49.8229 106.5,49.5C 106.823,56.0221 106.49,62.3554 105.5,68.5C 105.5,62.1667 105.5,55.8333 105.5,49.5C 111.645,48.5098 117.978,48.1765 124.5,48.5 Z"/></g>
<g><path style="opacity:1" fill="#c3c3c3" d="M 65.5,49.5 C 65.8333,49.5 66.1667,49.5 66.5,49.5C 66.8229,55.69 66.4896,61.69 65.5,67.5C 59.5,67.5 53.5,67.5 47.5,67.5C 53.31,66.5104 59.31,66.1771 65.5,66.5C 65.5,60.8333 65.5,55.1667 65.5,49.5 Z"/></g>
<g><path style="opacity:1" fill="#5b5b5b" d="M 105.5,49.5 C 105.5,55.8333 105.5,62.1667 105.5,68.5C 99.1667,68.5 92.8333,68.5 86.5,68.5C 92.31,67.5104 98.31,67.1771 104.5,67.5C 104.177,61.31 104.51,55.31 105.5,49.5 Z"/></g>
<g><path style="opacity:1" fill="#333333" d="M 47.5,67.5 C 53.5,67.5 59.5,67.5 65.5,67.5C 60.0247,68.4889 54.358,68.8222 48.5,68.5C 48.8222,74.358 48.4889,80.0247 47.5,85.5C 47.5,79.5 47.5,73.5 47.5,67.5 Z"/></g>
<g><path style="opacity:1" fill="#767676" d="M 47.5,67.5 C 47.5,73.5 47.5,79.5 47.5,85.5C 41.588,87.4563 35.2547,88.1229 28.5,87.5C 28.5,87.1667 28.5,86.8333 28.5,86.5C 34.5,86.5 40.5,86.5 46.5,86.5C 46.1765,79.9779 46.5098,73.6446 47.5,67.5 Z"/></g>
<g><path style="opacity:1" fill="#525252" d="M 86.5,68.5 C 86.8235,75.0221 86.4902,81.3554 85.5,87.5C 79.5,87.5 73.5,87.5 67.5,87.5C 73.31,86.5104 79.31,86.1771 85.5,86.5C 85.1771,80.31 85.5104,74.31 86.5,68.5 Z"/></g>
<g><path style="opacity:1" fill="#818181" d="M 124.5,125.5 C 124.5,119.5 124.5,113.5 124.5,107.5C 124.5,100.833 124.5,94.1667 124.5,87.5C 118.167,87.5 111.833,87.5 105.5,87.5C 105.823,93.69 105.49,99.69 104.5,105.5C 104.5,99.1667 104.5,92.8333 104.5,86.5C 111.5,86.5 118.5,86.5 125.5,86.5C 125.829,99.6774 125.495,112.677 124.5,125.5 Z"/></g>
<g><path style="opacity:1" fill="#aeaeae" d="M 67.5,87.5 C 73.5,87.5 79.5,87.5 85.5,87.5C 80.0247,88.4889 74.358,88.8222 68.5,88.5C 68.5,94.1667 68.5,99.8333 68.5,105.5C 80.5,105.5 92.5,105.5 104.5,105.5C 92.3403,106.66 80.0069,106.827 67.5,106C 66.1742,99.7345 66.1742,93.5678 67.5,87.5 Z"/></g>
<g><path style="opacity:1" fill="#898989" d="M 28.5,86.5 C 28.5,86.8333 28.5,87.1667 28.5,87.5C 28.5,93.8333 28.5,100.167 28.5,106.5C 22.1667,106.5 15.8333,106.5 9.5,106.5C 9.5,112.833 9.5,119.167 9.5,125.5C 41.8333,125.5 74.1667,125.5 106.5,125.5C 112.5,125.5 118.5,125.5 124.5,125.5C 86.0036,126.499 47.3369,126.832 8.5,126.5C 8.5,119.5 8.5,112.5 8.5,105.5C 14.8333,105.5 21.1667,105.5 27.5,105.5C 27.1765,98.9779 27.5098,92.6446 28.5,86.5 Z"/></g>
<g><path style="opacity:1" fill="#1c1c1c" d="M 124.5,107.5 C 124.5,113.5 124.5,119.5 124.5,125.5C 118.5,125.5 112.5,125.5 106.5,125.5C 111.975,124.511 117.642,124.178 123.5,124.5C 123.178,118.642 123.511,112.975 124.5,107.5 Z"/></g>
</svg>
