<?xml version="1.0" encoding="UTF-8"?>
<!DOCTYPE svg PUBLIC "-//W3C//DTD SVG 1.1//EN" "http://www.w3.org/Graphics/SVG/1.1/DTD/svg11.dtd">
<svg xmlns="http://www.w3.org/2000/svg" version="1.1" width="148px" height="148px" style="shape-rendering:geometricPrecision; text-rendering:geometricPrecision; image-rendering:optimizeQuality; fill-rule:evenodd; clip-rule:evenodd" xmlns:xlink="http://www.w3.org/1999/xlink">
<g><path style="opacity:1" fill="#fdfdfd" d="M -0.5,-0.5 C 48.8333,-0.5 98.1667,-0.5 147.5,-0.5C 147.5,48.8333 147.5,98.1667 147.5,147.5C 98.1667,147.5 48.8333,147.5 -0.5,147.5C -0.5,98.1667 -0.5,48.8333 -0.5,-0.5 Z"/></g>
<g><path style="opacity:1" fill="#585858" d="M 52.5,2.5 C 52.5,2.16667 52.5,1.83333 52.5,1.5C 65.5,1.5 78.5,1.5 91.5,1.5C 91.5,7.83333 91.5,14.1667 91.5,20.5C 90.5104,14.69 90.1771,8.68996 90.5,2.5C 77.8333,2.5 65.1667,2.5 52.5,2.5 Z"/></g>
<g><path style="opacity:1" fill="#010101" d="M 52.5,2.5 C 65.1667,2.5 77.8333,2.5 90.5,2.5C 90.1771,8.68996 90.5104,14.69 91.5,20.5C 97.31,21.4896 103.31,21.8229 109.5,21.5C 109.177,27.69 109.51,33.69 110.5,39.5C 116.645,40.4902 122.978,40.8235 129.5,40.5C 129.5,66.5 129.5,92.5 129.5,118.5C 128.511,123.975 128.178,129.642 128.5,135.5C 122.642,135.178 116.975,135.511 111.5,136.5C 104.833,136.5 98.1667,136.5 91.5,136.5C 91.8287,123.656 91.4954,110.989 90.5,98.5C 77.8333,98.5 65.1667,98.5 52.5,98.5C 52.5,111.167 52.5,123.833 52.5,136.5C 39.8333,136.5 27.1667,136.5 14.5,136.5C 14.5,104.5 14.5,72.5 14.5,40.5C 20.8333,40.5 27.1667,40.5 33.5,40.5C 33.5,34.1667 33.5,27.8333 33.5,21.5C 39.8333,21.5 46.1667,21.5 52.5,21.5C 52.5,15.1667 52.5,8.83333 52.5,2.5 Z"/></g>
<g><path style="opacity:1" fill="#4b4b4b" d="M 91.5,20.5 C 97.8333,20.5 104.167,20.5 110.5,20.5C 110.5,26.8333 110.5,33.1667 110.5,39.5C 109.51,33.69 109.177,27.69 109.5,21.5C 103.31,21.8229 97.31,21.4896 91.5,20.5 Z"/></g>
<g><path style="opacity:1" fill="#878787" d="M 52.5,1.5 C 52.5,1.83333 52.5,2.16667 52.5,2.5C 52.5,8.83333 52.5,15.1667 52.5,21.5C 46.1667,21.5 39.8333,21.5 33.5,21.5C 33.5,27.8333 33.5,34.1667 33.5,40.5C 27.1667,40.5 20.8333,40.5 14.5,40.5C 14.5,72.5 14.5,104.5 14.5,136.5C 27.1667,136.5 39.8333,136.5 52.5,136.5C 39.6774,137.495 26.6774,137.829 13.5,137.5C 13.5,104.833 13.5,72.1667 13.5,39.5C 19.8333,39.5 26.1667,39.5 32.5,39.5C 32.5,33.1667 32.5,26.8333 32.5,20.5C 38.8333,20.5 45.1667,20.5 51.5,20.5C 51.1765,13.9779 51.5098,7.6446 52.5,1.5 Z"/></g>
<g><path style="opacity:1" fill="#9b9b9b" d="M 110.5,20.5 C 111.49,26.6446 111.823,32.9779 111.5,39.5C 117.69,39.1771 123.69,39.5104 129.5,40.5C 122.978,40.8235 116.645,40.4902 110.5,39.5C 110.5,33.1667 110.5,26.8333 110.5,20.5 Z"/></g>
<g><path style="opacity:1" fill="#818181" d="M 90.5,78.5 C 90.8286,65.9887 90.4952,53.6554 89.5,41.5C 77.5,41.5 65.5,41.5 53.5,41.5C 53.5,53.5 53.5,65.5 53.5,77.5C 53.5,77.8333 53.5,78.1667 53.5,78.5C 52.5046,66.011 52.1713,53.3443 52.5,40.5C 65.5,40.5 78.5,40.5 91.5,40.5C 91.8287,53.3443 91.4954,66.011 90.5,78.5 Z"/></g>
<g><path style="opacity:1" fill="#fefefe" d="M 89.5,41.5 C 89.5,53.5 89.5,65.5 89.5,77.5C 77.5,77.5 65.5,77.5 53.5,77.5C 53.5,65.5 53.5,53.5 53.5,41.5C 65.5,41.5 77.5,41.5 89.5,41.5 Z"/></g>
<g><path style="opacity:1" fill="#cccccc" d="M 89.5,41.5 C 90.4952,53.6554 90.8286,65.9887 90.5,78.5C 78.1667,78.5 65.8333,78.5 53.5,78.5C 53.5,78.1667 53.5,77.8333 53.5,77.5C 65.5,77.5 77.5,77.5 89.5,77.5C 89.5,65.5 89.5,53.5 89.5,41.5 Z"/></g>
<g><path style="opacity:1" fill="#c4c4c4" d="M 90.5,98.5 C 90.5,111.167 90.5,123.833 90.5,136.5C 89.5048,124.345 89.1714,112.011 89.5,99.5C 77.5,99.5 65.5,99.5 53.5,99.5C 53.8286,112.011 53.4952,124.345 52.5,136.5C 52.5,123.833 52.5,111.167 52.5,98.5C 65.1667,98.5 77.8333,98.5 90.5,98.5 Z"/></g>
<g><path style="opacity:1" fill="#1b1b1b" d="M 129.5,118.5 C 129.5,124.5 129.5,130.5 129.5,136.5C 123.5,136.5 117.5,136.5 111.5,136.5C 116.975,135.511 122.642,135.178 128.5,135.5C 128.178,129.642 128.511,123.975 129.5,118.5 Z"/></g>
<g><path style="opacity:1" fill="#868686" d="M 90.5,98.5 C 91.4954,110.989 91.8287,123.656 91.5,136.5C 98.1667,136.5 104.833,136.5 111.5,136.5C 117.5,136.5 123.5,136.5 129.5,136.5C 116.5,137.833 103.5,137.833 90.5,136.5C 90.5,123.833 90.5,111.167 90.5,98.5 Z"/></g>
</svg>
