<?xml version="1.0" encoding="UTF-8"?>
<!DOCTYPE svg PUBLIC "-//W3C//DTD SVG 1.1//EN" "http://www.w3.org/Graphics/SVG/1.1/DTD/svg11.dtd">
<svg xmlns="http://www.w3.org/2000/svg" version="1.1" width="156px" height="156px" style="shape-rendering:geometricPrecision; text-rendering:geometricPrecision; image-rendering:optimizeQuality; fill-rule:evenodd; clip-rule:evenodd" xmlns:xlink="http://www.w3.org/1999/xlink">
<g><path style="opacity:1" fill="#fdfdfd" d="M -0.5,-0.5 C 51.5,-0.5 103.5,-0.5 155.5,-0.5C 155.5,51.5 155.5,103.5 155.5,155.5C 103.5,155.5 51.5,155.5 -0.5,155.5C -0.5,103.5 -0.5,51.5 -0.5,-0.5 Z"/></g>
<g><path style="opacity:1" fill="#585858" d="M 124.5,8.5 C 124.5,8.83333 124.5,9.16667 124.5,9.5C 86.1667,9.5 47.8333,9.5 9.5,9.5C 9.5,15.5 9.5,21.5 9.5,27.5C 15.69,27.1771 21.69,27.5104 27.5,28.5C 21.1667,28.5 14.8333,28.5 8.5,28.5C 8.5,21.8333 8.5,15.1667 8.5,8.5C 47.1667,8.5 85.8333,8.5 124.5,8.5 Z"/></g>
<g><path style="opacity:1" fill="#020202" d="M 124.5,9.5 C 124.5,15.8333 124.5,22.1667 124.5,28.5C 130.833,28.5 137.167,28.5 143.5,28.5C 143.5,41.1667 143.5,53.8333 143.5,66.5C 137.167,66.5 130.833,66.5 124.5,66.5C 124.177,73.0221 124.51,79.3554 125.5,85.5C 131.5,85.5 137.5,85.5 143.5,85.5C 143.5,98.5 143.5,111.5 143.5,124.5C 136.978,124.177 130.645,124.51 124.5,125.5C 123.511,130.975 123.178,136.642 123.5,142.5C 117.642,142.178 111.975,142.511 106.5,143.5C 74.1667,143.5 41.8333,143.5 9.5,143.5C 9.5,137.167 9.5,130.833 9.5,124.5C 15.8333,124.5 22.1667,124.5 28.5,124.5C 28.8316,92.329 28.4982,60.329 27.5,28.5C 21.69,27.5104 15.69,27.1771 9.5,27.5C 9.5,21.5 9.5,15.5 9.5,9.5C 47.8333,9.5 86.1667,9.5 124.5,9.5 Z"/></g>
<g><path style="opacity:1" fill="#808080" d="M 124.5,8.5 C 125.49,14.6446 125.823,20.9779 125.5,27.5C 131.69,27.1771 137.69,27.5104 143.5,28.5C 137.167,28.5 130.833,28.5 124.5,28.5C 124.5,22.1667 124.5,15.8333 124.5,9.5C 124.5,9.16667 124.5,8.83333 124.5,8.5 Z"/></g>
<g><path style="opacity:1" fill="#909090" d="M 8.5,28.5 C 14.8333,28.5 21.1667,28.5 27.5,28.5C 28.4982,60.329 28.8316,92.329 28.5,124.5C 22.1667,124.5 15.8333,124.5 9.5,124.5C 9.5,130.833 9.5,137.167 9.5,143.5C 41.8333,143.5 74.1667,143.5 106.5,143.5C 112.5,143.5 118.5,143.5 124.5,143.5C 86.0036,144.499 47.3369,144.832 8.5,144.5C 8.5,137.5 8.5,130.5 8.5,123.5C 14.8333,123.5 21.1667,123.5 27.5,123.5C 27.5,92.1667 27.5,60.8333 27.5,29.5C 20.9779,29.8235 14.6446,29.4902 8.5,28.5 Z"/></g>
<g><path style="opacity:1" fill="#8d8d8d" d="M 67.5,28.5 C 67.5,40.8333 67.5,53.1667 67.5,65.5C 79.8333,65.5 92.1667,65.5 104.5,65.5C 104.5,53.1667 104.5,40.8333 104.5,28.5C 105.495,40.989 105.829,53.6557 105.5,66.5C 92.5,66.5 79.5,66.5 66.5,66.5C 66.1713,53.6557 66.5046,40.989 67.5,28.5 Z"/></g>
<g><path style="opacity:1" fill="#fcfcfc" d="M 67.5,28.5 C 79.8333,28.5 92.1667,28.5 104.5,28.5C 104.5,40.8333 104.5,53.1667 104.5,65.5C 92.1667,65.5 79.8333,65.5 67.5,65.5C 67.5,53.1667 67.5,40.8333 67.5,28.5 Z"/></g>
<g><path style="opacity:1" fill="#949494" d="M 143.5,66.5 C 137.69,67.4896 131.69,67.8229 125.5,67.5C 125.5,73.1667 125.5,78.8333 125.5,84.5C 125.5,84.8333 125.5,85.1667 125.5,85.5C 124.51,79.3554 124.177,73.0221 124.5,66.5C 130.833,66.5 137.167,66.5 143.5,66.5 Z"/></g>
<g><path style="opacity:1" fill="#aaaaaa" d="M 125.5,85.5 C 125.5,85.1667 125.5,84.8333 125.5,84.5C 131.833,84.5 138.167,84.5 144.5,84.5C 144.829,98.0105 144.496,111.344 143.5,124.5C 143.5,111.5 143.5,98.5 143.5,85.5C 137.5,85.5 131.5,85.5 125.5,85.5 Z"/></g>
<g><path style="opacity:1" fill="#fdfdfd" d="M 104.5,86.5 C 104.5,98.8333 104.5,111.167 104.5,123.5C 92.1667,123.5 79.8333,123.5 67.5,123.5C 67.5,111.167 67.5,98.8333 67.5,86.5C 79.8333,86.5 92.1667,86.5 104.5,86.5 Z"/></g>
<g><path style="opacity:1" fill="#7a7a7a" d="M 104.5,86.5 C 105.495,98.989 105.829,111.656 105.5,124.5C 92.6557,124.829 79.989,124.495 67.5,123.5C 79.8333,123.5 92.1667,123.5 104.5,123.5C 104.5,111.167 104.5,98.8333 104.5,86.5 Z"/></g>
<g><path style="opacity:1" fill="#a5a5a5" d="M 143.5,124.5 C 137.69,125.49 131.69,125.823 125.5,125.5C 125.823,131.69 125.49,137.69 124.5,143.5C 124.5,137.5 124.5,131.5 124.5,125.5C 130.645,124.51 136.978,124.177 143.5,124.5 Z"/></g>
<g><path style="opacity:1" fill="#1c1c1c" d="M 124.5,125.5 C 124.5,131.5 124.5,137.5 124.5,143.5C 118.5,143.5 112.5,143.5 106.5,143.5C 111.975,142.511 117.642,142.178 123.5,142.5C 123.178,136.642 123.511,130.975 124.5,125.5 Z"/></g>
</svg>
