<?xml version="1.0" encoding="UTF-8"?>
<!DOCTYPE svg PUBLIC "-//W3C//DTD SVG 1.1//EN" "http://www.w3.org/Graphics/SVG/1.1/DTD/svg11.dtd">
<svg xmlns="http://www.w3.org/2000/svg" version="1.1" width="156px" height="156px" style="shape-rendering:geometricPrecision; text-rendering:geometricPrecision; image-rendering:optimizeQuality; fill-rule:evenodd; clip-rule:evenodd" xmlns:xlink="http://www.w3.org/1999/xlink">
<g><path style="opacity:1" fill="#fdfdfd" d="M -0.5,-0.5 C 51.5,-0.5 103.5,-0.5 155.5,-0.5C 155.5,51.5 155.5,103.5 155.5,155.5C 103.5,155.5 51.5,155.5 -0.5,155.5C -0.5,103.5 -0.5,51.5 -0.5,-0.5 Z"/></g>
<g><path style="opacity:1" fill="#3c3c3c" d="M 43.5,8.5 C 69.1667,8.5 94.8333,8.5 120.5,8.5C 120.5,8.83333 120.5,9.16667 120.5,9.5C 95.1667,9.5 69.8333,9.5 44.5,9.5C 44.8229,15.69 44.4896,21.69 43.5,27.5C 43.5,21.1667 43.5,14.8333 43.5,8.5 Z"/></g>
<g><path style="opacity:1" fill="#010101" d="M 120.5,9.5 C 120.5,15.8333 120.5,22.1667 120.5,28.5C 126.833,28.5 133.167,28.5 139.5,28.5C 139.5,34.8333 139.5,41.1667 139.5,47.5C 126.833,47.5 114.167,47.5 101.5,47.5C 101.823,40.9779 101.49,34.6446 100.5,28.5C 88.1667,28.5 75.8333,28.5 63.5,28.5C 62.5098,34.6446 62.1765,40.9779 62.5,47.5C 56.1667,47.5 49.8333,47.5 43.5,47.5C 43.1697,66.674 43.503,85.674 44.5,104.5C 50.31,105.49 56.31,105.823 62.5,105.5C 62.1771,111.69 62.5104,117.69 63.5,123.5C 75.8333,124.833 88.1667,124.833 100.5,123.5C 101.49,117.69 101.823,111.69 101.5,105.5C 114.167,105.5 126.833,105.5 139.5,105.5C 139.5,111.833 139.5,118.167 139.5,124.5C 132.978,124.177 126.645,124.51 120.5,125.5C 119.511,130.975 119.178,136.642 119.5,142.5C 113.642,142.178 107.975,142.511 102.5,143.5C 88.8333,143.5 75.1667,143.5 61.5,143.5C 56.0247,142.511 50.358,142.178 44.5,142.5C 44.8222,136.642 44.4889,130.975 43.5,125.5C 43.5,124.833 43.1667,124.5 42.5,124.5C 36.69,123.51 30.69,123.177 24.5,123.5C 24.8229,117.31 24.4896,111.31 23.5,105.5C 17.69,104.51 11.69,104.177 5.5,104.5C 5.5,85.5 5.5,66.5 5.5,47.5C 11.8333,47.5 18.1667,47.5 24.5,47.5C 24.5,41.1667 24.5,34.8333 24.5,28.5C 31.0221,28.8235 37.3554,28.4902 43.5,27.5C 44.4896,21.69 44.8229,15.69 44.5,9.5C 69.8333,9.5 95.1667,9.5 120.5,9.5 Z"/></g>
<g><path style="opacity:1" fill="#848484" d="M 43.5,8.5 C 43.5,14.8333 43.5,21.1667 43.5,27.5C 37.3554,28.4902 31.0221,28.8235 24.5,28.5C 30.31,27.5104 36.31,27.1771 42.5,27.5C 42.1765,20.9779 42.5098,14.6446 43.5,8.5 Z"/></g>
<g><path style="opacity:1" fill="#878787" d="M 120.5,8.5 C 121.49,14.6446 121.823,20.9779 121.5,27.5C 127.833,27.5 134.167,27.5 140.5,27.5C 140.824,34.3543 140.491,41.021 139.5,47.5C 139.5,41.1667 139.5,34.8333 139.5,28.5C 133.167,28.5 126.833,28.5 120.5,28.5C 120.5,22.1667 120.5,15.8333 120.5,9.5C 120.5,9.16667 120.5,8.83333 120.5,8.5 Z"/></g>
<g><path style="opacity:1" fill="#7c7c7c" d="M 24.5,28.5 C 24.5,34.8333 24.5,41.1667 24.5,47.5C 18.1667,47.5 11.8333,47.5 5.5,47.5C 5.5,66.5 5.5,85.5 5.5,104.5C 11.69,104.177 17.69,104.51 23.5,105.5C 17.1667,105.5 10.8333,105.5 4.5,105.5C 4.5,85.8333 4.5,66.1667 4.5,46.5C 10.8333,46.5 17.1667,46.5 23.5,46.5C 23.1771,40.31 23.5104,34.31 24.5,28.5 Z"/></g>
<g><path style="opacity:1" fill="#989898" d="M 100.5,28.5 C 101.49,34.6446 101.823,40.9779 101.5,47.5C 114.167,47.5 126.833,47.5 139.5,47.5C 126.677,48.4955 113.677,48.8288 100.5,48.5C 100.5,41.8333 100.5,35.1667 100.5,28.5 Z"/></g>
<g><path style="opacity:1" fill="#878787" d="M 63.5,28.5 C 63.5,35.1667 63.5,41.8333 63.5,48.5C 57.1667,48.5 50.8333,48.5 44.5,48.5C 44.5,67.1667 44.5,85.8333 44.5,104.5C 43.503,85.674 43.1697,66.674 43.5,47.5C 49.8333,47.5 56.1667,47.5 62.5,47.5C 62.1765,40.9779 62.5098,34.6446 63.5,28.5 Z"/></g>
<g><path style="opacity:1" fill="#6d6d6d" d="M 139.5,124.5 C 139.5,118.167 139.5,111.833 139.5,105.5C 126.833,105.5 114.167,105.5 101.5,105.5C 101.823,111.69 101.49,117.69 100.5,123.5C 100.5,117.167 100.5,110.833 100.5,104.5C 113.833,104.5 127.167,104.5 140.5,104.5C 140.824,111.354 140.491,118.021 139.5,124.5 Z"/></g>
<g><path style="opacity:1" fill="#6c6c6c" d="M 44.5,104.5 C 50.8333,104.5 57.1667,104.5 63.5,104.5C 63.5,110.833 63.5,117.167 63.5,123.5C 62.5104,117.69 62.1771,111.69 62.5,105.5C 56.31,105.823 50.31,105.49 44.5,104.5 Z"/></g>
<g><path style="opacity:1" fill="#515151" d="M 23.5,105.5 C 24.4896,111.31 24.8229,117.31 24.5,123.5C 30.69,123.177 36.69,123.51 42.5,124.5C 36.5,124.5 30.5,124.5 24.5,124.5C 23.5098,118.355 23.1765,112.022 23.5,105.5 Z"/></g>
<g><path style="opacity:1" fill="#aaaaaa" d="M 24.5,124.5 C 30.5,124.5 36.5,124.5 42.5,124.5C 43.1667,124.5 43.5,124.833 43.5,125.5C 43.5,131.5 43.5,137.5 43.5,143.5C 42.5104,137.69 42.1771,131.69 42.5,125.5C 36.31,125.823 30.31,125.49 24.5,124.5 Z"/></g>
<g><path style="opacity:1" fill="#a5a5a5" d="M 139.5,124.5 C 133.69,125.49 127.69,125.823 121.5,125.5C 121.823,131.69 121.49,137.69 120.5,143.5C 120.5,137.5 120.5,131.5 120.5,125.5C 126.645,124.51 132.978,124.177 139.5,124.5 Z"/></g>
<g><path style="opacity:1" fill="#1f1f1f" d="M 43.5,125.5 C 44.4889,130.975 44.8222,136.642 44.5,142.5C 50.358,142.178 56.0247,142.511 61.5,143.5C 55.5,143.5 49.5,143.5 43.5,143.5C 43.5,137.5 43.5,131.5 43.5,125.5 Z"/></g>
<g><path style="opacity:1" fill="#1d1d1d" d="M 120.5,125.5 C 120.5,131.5 120.5,137.5 120.5,143.5C 114.5,143.5 108.5,143.5 102.5,143.5C 107.975,142.511 113.642,142.178 119.5,142.5C 119.178,136.642 119.511,130.975 120.5,125.5 Z"/></g>
</svg>
