<?xml version="1.0" encoding="UTF-8"?>
<!DOCTYPE svg PUBLIC "-//W3C//DTD SVG 1.1//EN" "http://www.w3.org/Graphics/SVG/1.1/DTD/svg11.dtd">
<svg xmlns="http://www.w3.org/2000/svg" version="1.1" width="153px" height="153px" style="shape-rendering:geometricPrecision; text-rendering:geometricPrecision; image-rendering:optimizeQuality; fill-rule:evenodd; clip-rule:evenodd" xmlns:xlink="http://www.w3.org/1999/xlink">
<g><path style="opacity:1" fill="#fdfdfd" d="M -0.5,-0.5 C 50.5,-0.5 101.5,-0.5 152.5,-0.5C 152.5,50.5 152.5,101.5 152.5,152.5C 101.5,152.5 50.5,152.5 -0.5,152.5C -0.5,101.5 -0.5,50.5 -0.5,-0.5 Z"/></g>
<g><path style="opacity:1" fill="#535353" d="M 106.5,27.5 C 105.51,21.69 105.177,15.69 105.5,9.5C 73.8333,9.5 42.1667,9.5 10.5,9.5C 10.5,15.5 10.5,21.5 10.5,27.5C 16.69,27.1771 22.69,27.5104 28.5,28.5C 22.1667,28.5 15.8333,28.5 9.5,28.5C 9.5,21.8333 9.5,15.1667 9.5,8.5C 41.8333,8.5 74.1667,8.5 106.5,8.5C 106.5,14.8333 106.5,21.1667 106.5,27.5 Z"/></g>
<g><path style="opacity:1" fill="#000000" d="M 106.5,27.5 C 112.645,28.4902 118.978,28.8235 125.5,28.5C 125.5,34.8333 125.5,41.1667 125.5,47.5C 131.833,47.5 138.167,47.5 144.5,47.5C 144.5,66.5 144.5,85.5 144.5,104.5C 138.31,104.177 132.31,104.51 126.5,105.5C 125.833,105.5 125.5,105.833 125.5,106.5C 124.511,111.975 124.178,117.642 124.5,123.5C 118.31,123.177 112.31,123.51 106.5,124.5C 106.5,130.833 106.5,137.167 106.5,143.5C 74.5,143.5 42.5,143.5 10.5,143.5C 10.5,137.167 10.5,130.833 10.5,124.5C 16.8333,124.5 23.1667,124.5 29.5,124.5C 29.8316,92.329 29.4982,60.329 28.5,28.5C 22.69,27.5104 16.69,27.1771 10.5,27.5C 10.5,21.5 10.5,15.5 10.5,9.5C 42.1667,9.5 73.8333,9.5 105.5,9.5C 105.177,15.69 105.51,21.69 106.5,27.5 Z"/></g>
<g><path style="opacity:1" fill="#fcfcfc" d="M 86.5,47.5 C 92.6446,48.4902 98.9779,48.8235 105.5,48.5C 105.5,67.1667 105.5,85.8333 105.5,104.5C 99.1667,104.5 92.8333,104.5 86.5,104.5C 86.5,110.833 86.5,117.167 86.5,123.5C 80.5,124.833 74.5,124.833 68.5,123.5C 68.5,92.1667 68.5,60.8333 68.5,29.5C 74.1667,29.5 79.8333,29.5 85.5,29.5C 85.1771,35.69 85.5104,41.69 86.5,47.5 Z"/></g>
<g><path style="opacity:1" fill="#a6a6a6" d="M 86.5,28.5 C 86.5,34.8333 86.5,41.1667 86.5,47.5C 85.5104,41.69 85.1771,35.69 85.5,29.5C 79.8333,29.5 74.1667,29.5 68.5,29.5C 68.5,60.8333 68.5,92.1667 68.5,123.5C 67.5018,92.0044 67.1685,60.3377 67.5,28.5C 73.8333,28.5 80.1667,28.5 86.5,28.5 Z"/></g>
<g><path style="opacity:1" fill="#353535" d="M 86.5,28.5 C 87.4896,34.31 87.8229,40.31 87.5,46.5C 93.69,46.1771 99.69,46.5104 105.5,47.5C 99.1667,47.5 92.8333,47.5 86.5,47.5C 86.5,41.1667 86.5,34.8333 86.5,28.5 Z"/></g>
<g><path style="opacity:1" fill="#8a8a8a" d="M 106.5,27.5 C 113.167,27.5 119.833,27.5 126.5,27.5C 126.5,33.8333 126.5,40.1667 126.5,46.5C 132.69,46.1771 138.69,46.5104 144.5,47.5C 138.167,47.5 131.833,47.5 125.5,47.5C 125.5,41.1667 125.5,34.8333 125.5,28.5C 118.978,28.8235 112.645,28.4902 106.5,27.5 Z"/></g>
<g><path style="opacity:1" fill="#7f7f7f" d="M 86.5,47.5 C 92.8333,47.5 99.1667,47.5 105.5,47.5C 106.833,66.5 106.833,85.5 105.5,104.5C 105.5,85.8333 105.5,67.1667 105.5,48.5C 98.9779,48.8235 92.6446,48.4902 86.5,47.5 Z"/></g>
<g><path style="opacity:1" fill="#909090" d="M 9.5,28.5 C 15.8333,28.5 22.1667,28.5 28.5,28.5C 29.4982,60.329 29.8316,92.329 29.5,124.5C 23.1667,124.5 16.8333,124.5 10.5,124.5C 10.5,130.833 10.5,137.167 10.5,143.5C 42.5,143.5 74.5,143.5 106.5,143.5C 74.3376,144.498 42.0043,144.832 9.5,144.5C 9.5,137.5 9.5,130.5 9.5,123.5C 15.8333,123.5 22.1667,123.5 28.5,123.5C 28.5,92.1667 28.5,60.8333 28.5,29.5C 21.9779,29.8235 15.6446,29.4902 9.5,28.5 Z"/></g>
<g><path style="opacity:1" fill="#676767" d="M 144.5,47.5 C 145.497,66.6595 145.83,85.9928 145.5,105.5C 139.167,105.5 132.833,105.5 126.5,105.5C 132.31,104.51 138.31,104.177 144.5,104.5C 144.5,85.5 144.5,66.5 144.5,47.5 Z"/></g>
<g><path style="opacity:1" fill="#5f5f5f" d="M 105.5,104.5 C 99.69,105.49 93.69,105.823 87.5,105.5C 87.8229,111.69 87.4896,117.69 86.5,123.5C 86.5,117.167 86.5,110.833 86.5,104.5C 92.8333,104.5 99.1667,104.5 105.5,104.5 Z"/></g>
<g><path style="opacity:1" fill="#2e2e2e" d="M 125.5,106.5 C 125.5,112.5 125.5,118.5 125.5,124.5C 119.167,124.5 112.833,124.5 106.5,124.5C 112.31,123.51 118.31,123.177 124.5,123.5C 124.178,117.642 124.511,111.975 125.5,106.5 Z"/></g>
<g><path style="opacity:1" fill="#b8b8b8" d="M 106.5,124.5 C 112.833,124.5 119.167,124.5 125.5,124.5C 119.69,125.49 113.69,125.823 107.5,125.5C 107.823,131.69 107.49,137.69 106.5,143.5C 106.5,137.167 106.5,130.833 106.5,124.5 Z"/></g>
</svg>
