<?xml version="1.0" encoding="UTF-8"?>
<!DOCTYPE svg PUBLIC "-//W3C//DTD SVG 1.1//EN" "http://www.w3.org/Graphics/SVG/1.1/DTD/svg11.dtd">
<svg xmlns="http://www.w3.org/2000/svg" version="1.1" width="159px" height="159px" style="shape-rendering:geometricPrecision; text-rendering:geometricPrecision; image-rendering:optimizeQuality; fill-rule:evenodd; clip-rule:evenodd" xmlns:xlink="http://www.w3.org/1999/xlink">
<g><path style="opacity:1" fill="#222423" d="M -0.5,-0.5 C 52.5,-0.5 105.5,-0.5 158.5,-0.5C 158.5,0.166667 158.5,0.833333 158.5,1.5C 105.5,1.5 52.5,1.5 -0.5,1.5C -0.5,0.833333 -0.5,0.166667 -0.5,-0.5 Z"/></g>
<g><path style="opacity:1" fill="#fcfcfc" d="M -0.5,1.5 C 52.5,1.5 105.5,1.5 158.5,1.5C 158.5,53.8333 158.5,106.167 158.5,158.5C 105.5,158.5 52.5,158.5 -0.5,158.5C -0.5,106.167 -0.5,53.8333 -0.5,1.5 Z"/></g>
<g><path style="opacity:1" fill="#5e5e5e" d="M 145.5,53.5 C 145.5,40.8333 145.5,28.1667 145.5,15.5C 100.833,15.5 56.1667,15.5 11.5,15.5C 11.5,21.5 11.5,27.5 11.5,33.5C 17.69,33.1771 23.69,33.5104 29.5,34.5C 23.5,34.5 17.5,34.5 11.5,34.5C 10.5093,28.021 10.176,21.3543 10.5,14.5C 55.8333,14.5 101.167,14.5 146.5,14.5C 146.829,27.6774 146.495,40.6774 145.5,53.5 Z"/></g>
<g><path style="opacity:1" fill="#010101" d="M 145.5,53.5 C 139.167,53.5 132.833,53.5 126.5,53.5C 126.5,47.1667 126.5,40.8333 126.5,34.5C 107.167,34.5 87.8333,34.5 68.5,34.5C 68.5,47.1667 68.5,59.8333 68.5,72.5C 75.0221,72.8235 81.3554,72.4902 87.5,71.5C 88.4896,65.69 88.8229,59.69 88.5,53.5C 94.5,53.5 100.5,53.5 106.5,53.5C 106.5,72.5 106.5,91.5 106.5,110.5C 100.5,110.5 94.5,110.5 88.5,110.5C 88.8229,104.31 88.4896,98.31 87.5,92.5C 81.1667,92.5 74.8333,92.5 68.5,92.5C 68.1714,105.011 68.5048,117.345 69.5,129.5C 88.326,130.497 107.326,130.83 126.5,130.5C 126.5,124.167 126.5,117.833 126.5,111.5C 132.833,111.5 139.167,111.5 145.5,111.5C 145.5,124.167 145.5,136.833 145.5,149.5C 100.833,149.5 56.1667,149.5 11.5,149.5C 11.5,143.167 11.5,136.833 11.5,130.5C 17.8333,130.5 24.1667,130.5 30.5,130.5C 30.8316,98.329 30.4982,66.329 29.5,34.5C 23.69,33.5104 17.69,33.1771 11.5,33.5C 11.5,27.5 11.5,21.5 11.5,15.5C 56.1667,15.5 100.833,15.5 145.5,15.5C 145.5,28.1667 145.5,40.8333 145.5,53.5 Z"/></g>
<g><path style="opacity:1" fill="#979797" d="M 126.5,53.5 C 125.51,47.69 125.177,41.69 125.5,35.5C 106.833,35.5 88.1667,35.5 69.5,35.5C 69.5,47.5 69.5,59.5 69.5,71.5C 75.5,71.5 81.5,71.5 87.5,71.5C 81.3554,72.4902 75.0221,72.8235 68.5,72.5C 68.5,59.8333 68.5,47.1667 68.5,34.5C 87.8333,34.5 107.167,34.5 126.5,34.5C 126.5,40.8333 126.5,47.1667 126.5,53.5 Z"/></g>
<g><path style="opacity:1" fill="#909090" d="M 11.5,34.5 C 17.5,34.5 23.5,34.5 29.5,34.5C 30.4982,66.329 30.8316,98.329 30.5,130.5C 24.1667,130.5 17.8333,130.5 11.5,130.5C 11.5,136.833 11.5,143.167 11.5,149.5C 56.1667,149.5 100.833,149.5 145.5,149.5C 100.67,150.499 55.6698,150.832 10.5,150.5C 10.5,143.5 10.5,136.5 10.5,129.5C 16.8333,129.5 23.1667,129.5 29.5,129.5C 29.5,98.1667 29.5,66.8333 29.5,35.5C 23.31,35.8229 17.31,35.4896 11.5,34.5 Z"/></g>
<g><path style="opacity:1" fill="#6e6e6e" d="M 107.5,53.5 C 107.167,53.5 106.833,53.5 106.5,53.5C 100.5,53.5 94.5,53.5 88.5,53.5C 88.8229,59.69 88.4896,65.69 87.5,71.5C 87.5,65.1667 87.5,58.8333 87.5,52.5C 94.3543,52.176 101.021,52.5093 107.5,53.5 Z"/></g>
<g><path style="opacity:1" fill="#cacaca" d="M 87.5,92.5 C 87.5,98.8333 87.5,105.167 87.5,111.5C 86.5104,105.69 86.1771,99.69 86.5,93.5C 81.1667,93.5 75.8333,93.5 70.5,93.5C 70.5,105.5 70.5,117.5 70.5,129.5C 70.1667,129.5 69.8333,129.5 69.5,129.5C 68.5048,117.345 68.1714,105.011 68.5,92.5C 74.8333,92.5 81.1667,92.5 87.5,92.5 Z"/></g>
<g><path style="opacity:1" fill="#4b4b4b" d="M 106.5,53.5 C 106.833,53.5 107.167,53.5 107.5,53.5C 107.5,72.8333 107.5,92.1667 107.5,111.5C 100.833,111.5 94.1667,111.5 87.5,111.5C 87.5,105.167 87.5,98.8333 87.5,92.5C 88.4896,98.31 88.8229,104.31 88.5,110.5C 94.5,110.5 100.5,110.5 106.5,110.5C 106.5,91.5 106.5,72.5 106.5,53.5 Z"/></g>
<g><path style="opacity:1" fill="#7e7e7e" d="M 145.5,149.5 C 145.5,136.833 145.5,124.167 145.5,111.5C 139.167,111.5 132.833,111.5 126.5,111.5C 126.5,117.833 126.5,124.167 126.5,130.5C 107.326,130.83 88.326,130.497 69.5,129.5C 69.8333,129.5 70.1667,129.5 70.5,129.5C 88.8333,129.5 107.167,129.5 125.5,129.5C 125.5,123.167 125.5,116.833 125.5,110.5C 132.5,110.5 139.5,110.5 146.5,110.5C 146.829,123.677 146.495,136.677 145.5,149.5 Z"/></g>
</svg>
