<?xml version="1.0" encoding="UTF-8"?>
<!DOCTYPE svg PUBLIC "-//W3C//DTD SVG 1.1//EN" "http://www.w3.org/Graphics/SVG/1.1/DTD/svg11.dtd">
<svg xmlns="http://www.w3.org/2000/svg" version="1.1" width="156px" height="156px" style="shape-rendering:geometricPrecision; text-rendering:geometricPrecision; image-rendering:optimizeQuality; fill-rule:evenodd; clip-rule:evenodd" xmlns:xlink="http://www.w3.org/1999/xlink">
<g><path style="opacity:1" fill="#fefefe" d="M -0.5,-0.5 C 51.5,-0.5 103.5,-0.5 155.5,-0.5C 155.5,51.5 155.5,103.5 155.5,155.5C 103.5,155.5 51.5,155.5 -0.5,155.5C -0.5,103.5 -0.5,51.5 -0.5,-0.5 Z"/></g>
<g><path style="opacity:1" fill="#c7c7c7" d="M 146.5,50.5 C 146.5,37.5 146.5,24.5 146.5,11.5C 101.664,11.1679 56.9969,11.5013 12.5,12.5C 12.1667,12.5 11.8333,12.5 11.5,12.5C 56.4877,10.5051 101.821,9.8384 147.5,10.5C 147.829,24.0105 147.496,37.3438 146.5,50.5 Z"/></g>
<g><path style="opacity:1" fill="#030303" d="M 146.5,50.5 C 140.167,50.5 133.833,50.5 127.5,50.5C 127.5,44.1667 127.5,37.8333 127.5,31.5C 108.167,31.5 88.8333,31.5 69.5,31.5C 69.5,44.1667 69.5,56.8333 69.5,69.5C 75.8333,69.5 82.1667,69.5 88.5,69.5C 89.4902,63.3554 89.8235,57.0221 89.5,50.5C 95.5,50.5 101.5,50.5 107.5,50.5C 107.5,69.5 107.5,88.5 107.5,107.5C 101.5,107.5 95.5,107.5 89.5,107.5C 89.8229,101.31 89.4896,95.31 88.5,89.5C 82.1667,89.5 75.8333,89.5 69.5,89.5C 69.1714,102.011 69.5048,114.345 70.5,126.5C 76.31,127.49 82.31,127.823 88.5,127.5C 88.5,133.833 88.5,140.167 88.5,146.5C 63.1667,146.5 37.8333,146.5 12.5,146.5C 12.5,140.167 12.5,133.833 12.5,127.5C 18.69,127.823 24.69,127.49 30.5,126.5C 31.8333,94.8333 31.8333,63.1667 30.5,31.5C 24.69,30.5104 18.69,30.1771 12.5,30.5C 12.5,24.5 12.5,18.5 12.5,12.5C 56.9969,11.5013 101.664,11.1679 146.5,11.5C 146.5,24.5 146.5,37.5 146.5,50.5 Z"/></g>
<g><path style="opacity:1" fill="#505050" d="M 11.5,12.5 C 11.8333,12.5 12.1667,12.5 12.5,12.5C 12.5,18.5 12.5,24.5 12.5,30.5C 18.69,30.1771 24.69,30.5104 30.5,31.5C 24.5,31.5 18.5,31.5 12.5,31.5C 11.5098,25.3554 11.1765,19.0221 11.5,12.5 Z"/></g>
<g><path style="opacity:1" fill="#989898" d="M 127.5,50.5 C 126.51,44.69 126.177,38.69 126.5,32.5C 107.833,32.5 89.1667,32.5 70.5,32.5C 70.5,44.5 70.5,56.5 70.5,68.5C 76.5,68.5 82.5,68.5 88.5,68.5C 88.5,68.8333 88.5,69.1667 88.5,69.5C 82.1667,69.5 75.8333,69.5 69.5,69.5C 69.5,56.8333 69.5,44.1667 69.5,31.5C 88.8333,31.5 108.167,31.5 127.5,31.5C 127.5,37.8333 127.5,44.1667 127.5,50.5 Z"/></g>
<g><path style="opacity:1" fill="#6d6d6d" d="M 108.5,50.5 C 108.167,50.5 107.833,50.5 107.5,50.5C 101.5,50.5 95.5,50.5 89.5,50.5C 89.8235,57.0221 89.4902,63.3554 88.5,69.5C 88.5,69.1667 88.5,68.8333 88.5,68.5C 88.5,62.1667 88.5,55.8333 88.5,49.5C 95.3543,49.176 102.021,49.5093 108.5,50.5 Z"/></g>
<g><path style="opacity:1" fill="#cacaca" d="M 88.5,89.5 C 88.5,95.8333 88.5,102.167 88.5,108.5C 87.5104,102.69 87.1771,96.69 87.5,90.5C 82.1667,90.5 76.8333,90.5 71.5,90.5C 71.5,102.5 71.5,114.5 71.5,126.5C 71.1667,126.5 70.8333,126.5 70.5,126.5C 69.5048,114.345 69.1714,102.011 69.5,89.5C 75.8333,89.5 82.1667,89.5 88.5,89.5 Z"/></g>
<g><path style="opacity:1" fill="#4b4b4b" d="M 107.5,50.5 C 107.833,50.5 108.167,50.5 108.5,50.5C 108.5,69.8333 108.5,89.1667 108.5,108.5C 101.833,108.5 95.1667,108.5 88.5,108.5C 88.5,102.167 88.5,95.8333 88.5,89.5C 89.4896,95.31 89.8229,101.31 89.5,107.5C 95.5,107.5 101.5,107.5 107.5,107.5C 107.5,88.5 107.5,69.5 107.5,50.5 Z"/></g>
<g><path style="opacity:1" fill="#919191" d="M 12.5,31.5 C 18.5,31.5 24.5,31.5 30.5,31.5C 31.8333,63.1667 31.8333,94.8333 30.5,126.5C 30.5,95.1667 30.5,63.8333 30.5,32.5C 24.31,32.8229 18.31,32.4896 12.5,31.5 Z"/></g>
<g><path style="opacity:1" fill="#858585" d="M 30.5,126.5 C 24.69,127.49 18.69,127.823 12.5,127.5C 12.5,133.833 12.5,140.167 12.5,146.5C 37.8333,146.5 63.1667,146.5 88.5,146.5C 88.8333,146.5 89.1667,146.5 89.5,146.5C 63.672,147.498 37.672,147.831 11.5,147.5C 11.5,140.5 11.5,133.5 11.5,126.5C 17.8333,126.5 24.1667,126.5 30.5,126.5 Z"/></g>
<g><path style="opacity:1" fill="#636363" d="M 70.5,126.5 C 70.8333,126.5 71.1667,126.5 71.5,126.5C 77.5,126.5 83.5,126.5 89.5,126.5C 89.5,133.167 89.5,139.833 89.5,146.5C 89.1667,146.5 88.8333,146.5 88.5,146.5C 88.5,140.167 88.5,133.833 88.5,127.5C 82.31,127.823 76.31,127.49 70.5,126.5 Z"/></g>
</svg>
