<?xml version="1.0" encoding="UTF-8"?>
<!DOCTYPE svg PUBLIC "-//W3C//DTD SVG 1.1//EN" "http://www.w3.org/Graphics/SVG/1.1/DTD/svg11.dtd">
<svg xmlns="http://www.w3.org/2000/svg" version="1.1" width="156px" height="156px" style="shape-rendering:geometricPrecision; text-rendering:geometricPrecision; image-rendering:optimizeQuality; fill-rule:evenodd; clip-rule:evenodd" xmlns:xlink="http://www.w3.org/1999/xlink">
<g><path style="opacity:1" fill="#fcfcfc" d="M -0.5,-0.5 C 51.5,-0.5 103.5,-0.5 155.5,-0.5C 155.5,51.5 155.5,103.5 155.5,155.5C 103.5,155.5 51.5,155.5 -0.5,155.5C -0.5,103.5 -0.5,51.5 -0.5,-0.5 Z"/></g>
<g><path style="opacity:1" fill="#010101" d="M 122.5,9.5 C 122.5,15.8333 122.5,22.1667 122.5,28.5C 128.833,28.5 135.167,28.5 141.5,28.5C 141.5,34.8333 141.5,41.1667 141.5,47.5C 128.833,47.5 116.167,47.5 103.5,47.5C 103.823,40.9779 103.49,34.6446 102.5,28.5C 90.1667,28.5 77.8333,28.5 65.5,28.5C 64.5104,34.31 64.1771,40.31 64.5,46.5C 58.31,46.1771 52.31,46.5104 46.5,47.5C 45.1667,66.5 45.1667,85.5 46.5,104.5C 52.31,105.49 58.31,105.823 64.5,105.5C 64.1771,111.69 64.5104,117.69 65.5,123.5C 77.6554,124.495 89.9887,124.829 102.5,124.5C 102.5,118.167 102.5,111.833 102.5,105.5C 96.69,104.51 90.69,104.177 84.5,104.5C 84.5,98.5 84.5,92.5 84.5,86.5C 103.5,86.5 122.5,86.5 141.5,86.5C 141.5,105.5 141.5,124.5 141.5,143.5C 115.5,143.5 89.5,143.5 63.5,143.5C 58.0247,142.511 52.358,142.178 46.5,142.5C 46.8229,136.31 46.4896,130.31 45.5,124.5C 45.1667,124.5 44.8333,124.5 44.5,124.5C 38.69,123.51 32.69,123.177 26.5,123.5C 26.8229,117.31 26.4896,111.31 25.5,105.5C 19.69,104.51 13.69,104.177 7.5,104.5C 7.5,85.5 7.5,66.5 7.5,47.5C 13.8333,47.5 20.1667,47.5 26.5,47.5C 26.5,41.1667 26.5,34.8333 26.5,28.5C 33.0221,28.8235 39.3554,28.4902 45.5,27.5C 46.4896,21.69 46.8229,15.69 46.5,9.5C 71.8333,9.5 97.1667,9.5 122.5,9.5 Z"/></g>
<g><path style="opacity:1" fill="#3c3c3c" d="M 45.5,8.5 C 71.1667,8.5 96.8333,8.5 122.5,8.5C 122.5,8.83333 122.5,9.16667 122.5,9.5C 97.1667,9.5 71.8333,9.5 46.5,9.5C 46.8229,15.69 46.4896,21.69 45.5,27.5C 45.5,21.1667 45.5,14.8333 45.5,8.5 Z"/></g>
<g><path style="opacity:1" fill="#838383" d="M 45.5,8.5 C 45.5,14.8333 45.5,21.1667 45.5,27.5C 39.3554,28.4902 33.0221,28.8235 26.5,28.5C 32.31,27.5104 38.31,27.1771 44.5,27.5C 44.1765,20.9779 44.5098,14.6446 45.5,8.5 Z"/></g>
<g><path style="opacity:1" fill="#878787" d="M 122.5,8.5 C 123.49,14.6446 123.823,20.9779 123.5,27.5C 129.833,27.5 136.167,27.5 142.5,27.5C 142.824,34.3543 142.491,41.021 141.5,47.5C 141.5,41.1667 141.5,34.8333 141.5,28.5C 135.167,28.5 128.833,28.5 122.5,28.5C 122.5,22.1667 122.5,15.8333 122.5,9.5C 122.5,9.16667 122.5,8.83333 122.5,8.5 Z"/></g>
<g><path style="opacity:1" fill="#8c8c8c" d="M 26.5,28.5 C 26.5,34.8333 26.5,41.1667 26.5,47.5C 20.1667,47.5 13.8333,47.5 7.5,47.5C 13.31,46.5104 19.31,46.1771 25.5,46.5C 25.1771,40.31 25.5104,34.31 26.5,28.5 Z"/></g>
<g><path style="opacity:1" fill="#3b3b3b" d="M 65.5,28.5 C 65.8235,35.0221 65.4902,41.3554 64.5,47.5C 58.5,47.5 52.5,47.5 46.5,47.5C 52.31,46.5104 58.31,46.1771 64.5,46.5C 64.1771,40.31 64.5104,34.31 65.5,28.5 Z"/></g>
<g><path style="opacity:1" fill="#989898" d="M 102.5,28.5 C 103.49,34.6446 103.823,40.9779 103.5,47.5C 116.167,47.5 128.833,47.5 141.5,47.5C 128.677,48.4955 115.677,48.8288 102.5,48.5C 102.5,41.8333 102.5,35.1667 102.5,28.5 Z"/></g>
<g><path style="opacity:1" fill="#8b8b8b" d="M 46.5,47.5 C 52.5,47.5 58.5,47.5 64.5,47.5C 58.69,48.4896 52.69,48.8229 46.5,48.5C 46.5,67.1667 46.5,85.8333 46.5,104.5C 45.1667,85.5 45.1667,66.5 46.5,47.5 Z"/></g>
<g><path style="opacity:1" fill="#5f5f5f" d="M 7.5,47.5 C 7.5,66.5 7.5,85.5 7.5,104.5C 13.69,104.177 19.69,104.51 25.5,105.5C 19.1667,105.5 12.8333,105.5 6.5,105.5C 6.16965,85.9928 6.50299,66.6595 7.5,47.5 Z"/></g>
<g><path style="opacity:1" fill="#5d5d5d" d="M 141.5,143.5 C 141.5,124.5 141.5,105.5 141.5,86.5C 122.5,86.5 103.5,86.5 84.5,86.5C 84.5,92.5 84.5,98.5 84.5,104.5C 90.69,104.177 96.69,104.51 102.5,105.5C 96.1667,105.5 89.8333,105.5 83.5,105.5C 83.5,98.8333 83.5,92.1667 83.5,85.5C 103.167,85.5 122.833,85.5 142.5,85.5C 142.83,105.007 142.497,124.341 141.5,143.5 Z"/></g>
<g><path style="opacity:1" fill="#6c6c6c" d="M 46.5,104.5 C 52.8333,104.5 59.1667,104.5 65.5,104.5C 65.5,110.833 65.5,117.167 65.5,123.5C 64.5104,117.69 64.1771,111.69 64.5,105.5C 58.31,105.823 52.31,105.49 46.5,104.5 Z"/></g>
<g><path style="opacity:1" fill="#515151" d="M 25.5,105.5 C 26.4896,111.31 26.8229,117.31 26.5,123.5C 32.69,123.177 38.69,123.51 44.5,124.5C 38.5,124.5 32.5,124.5 26.5,124.5C 25.5098,118.355 25.1765,112.022 25.5,105.5 Z"/></g>
<g><path style="opacity:1" fill="#aaaaaa" d="M 26.5,124.5 C 32.5,124.5 38.5,124.5 44.5,124.5C 44.8333,124.5 45.1667,124.5 45.5,124.5C 45.5,130.833 45.5,137.167 45.5,143.5C 44.5104,137.69 44.1771,131.69 44.5,125.5C 38.31,125.823 32.31,125.49 26.5,124.5 Z"/></g>
<g><path style="opacity:1" fill="#1f1f1f" d="M 45.5,124.5 C 46.4896,130.31 46.8229,136.31 46.5,142.5C 52.358,142.178 58.0247,142.511 63.5,143.5C 57.5,143.5 51.5,143.5 45.5,143.5C 45.5,137.167 45.5,130.833 45.5,124.5 Z"/></g>
</svg>
