<?xml version="1.0" encoding="UTF-8"?>
<!DOCTYPE svg PUBLIC "-//W3C//DTD SVG 1.1//EN" "http://www.w3.org/Graphics/SVG/1.1/DTD/svg11.dtd">
<svg xmlns="http://www.w3.org/2000/svg" version="1.1" width="151px" height="151px" style="shape-rendering:geometricPrecision; text-rendering:geometricPrecision; image-rendering:optimizeQuality; fill-rule:evenodd; clip-rule:evenodd" xmlns:xlink="http://www.w3.org/1999/xlink">
<g><path style="opacity:1" fill="#fefefe" d="M -0.5,-0.5 C 49.8333,-0.5 100.167,-0.5 150.5,-0.5C 150.5,49.8333 150.5,100.167 150.5,150.5C 100.167,150.5 49.8333,150.5 -0.5,150.5C -0.5,100.167 -0.5,49.8333 -0.5,-0.5 Z"/></g>
<g><path style="opacity:1" fill="#7d7d7d" d="M 93.5,65.5 C 93.5,65.8333 93.5,66.1667 93.5,66.5C 80.8333,66.5 68.1667,66.5 55.5,66.5C 55.5,47.5 55.5,28.5 55.5,9.5C 42.8333,9.5 30.1667,9.5 17.5,9.5C 17.5,54.1667 17.5,98.8333 17.5,143.5C 30.1667,143.5 42.8333,143.5 55.5,143.5C 42.6774,144.495 29.6774,144.829 16.5,144.5C 16.5,99.1667 16.5,53.8333 16.5,8.5C 29.8333,8.5 43.1667,8.5 56.5,8.5C 56.5,27.5 56.5,46.5 56.5,65.5C 68.8333,65.5 81.1667,65.5 93.5,65.5 Z"/></g>
<g><path style="opacity:1" fill="#000000" d="M 93.5,66.5 C 94.497,47.674 94.8303,28.674 94.5,9.5C 107.167,9.5 119.833,9.5 132.5,9.5C 132.5,48.1667 132.5,86.8333 132.5,125.5C 131.511,130.975 131.178,136.642 131.5,142.5C 125.642,142.178 119.975,142.511 114.5,143.5C 107.833,143.5 101.167,143.5 94.5,143.5C 94.8303,124.326 94.497,105.326 93.5,86.5C 81.011,85.5046 68.3443,85.1713 55.5,85.5C 55.5,104.833 55.5,124.167 55.5,143.5C 42.8333,143.5 30.1667,143.5 17.5,143.5C 17.5,98.8333 17.5,54.1667 17.5,9.5C 30.1667,9.5 42.8333,9.5 55.5,9.5C 55.5,28.5 55.5,47.5 55.5,66.5C 68.1667,66.5 80.8333,66.5 93.5,66.5 Z"/></g>
<g><path style="opacity:1" fill="#737373" d="M 132.5,143.5 C 132.5,137.5 132.5,131.5 132.5,125.5C 132.5,86.8333 132.5,48.1667 132.5,9.5C 119.833,9.5 107.167,9.5 94.5,9.5C 94.8303,28.674 94.497,47.674 93.5,66.5C 93.5,66.1667 93.5,65.8333 93.5,65.5C 93.5,46.5 93.5,27.5 93.5,8.5C 106.833,8.5 120.167,8.5 133.5,8.5C 133.832,53.6698 133.499,98.6698 132.5,143.5 Z"/></g>
<g><path style="opacity:1" fill="#7f7f7f" d="M 93.5,86.5 C 80.9887,86.1714 68.6554,86.5048 56.5,87.5C 56.8302,106.341 56.4969,125.007 55.5,143.5C 55.5,124.167 55.5,104.833 55.5,85.5C 68.3443,85.1713 81.011,85.5046 93.5,86.5 Z"/></g>
<g><path style="opacity:1" fill="#e2e2e2" d="M 56.5,87.5 C 68.6554,86.5048 80.9887,86.1714 93.5,86.5C 93.5,105.5 93.5,124.5 93.5,143.5C 92.5031,125.007 92.1698,106.341 92.5,87.5C 80.5,87.5 68.5,87.5 56.5,87.5 Z"/></g>
<g><path style="opacity:1" fill="#1c1c1c" d="M 132.5,125.5 C 132.5,131.5 132.5,137.5 132.5,143.5C 126.5,143.5 120.5,143.5 114.5,143.5C 119.975,142.511 125.642,142.178 131.5,142.5C 131.178,136.642 131.511,130.975 132.5,125.5 Z"/></g>
<g><path style="opacity:1" fill="#838383" d="M 93.5,86.5 C 94.497,105.326 94.8303,124.326 94.5,143.5C 101.167,143.5 107.833,143.5 114.5,143.5C 120.5,143.5 126.5,143.5 132.5,143.5C 119.5,144.833 106.5,144.833 93.5,143.5C 93.5,124.5 93.5,105.5 93.5,86.5 Z"/></g>
</svg>
