<?xml version="1.0" encoding="UTF-8"?>
<!DOCTYPE svg PUBLIC "-//W3C//DTD SVG 1.1//EN" "http://www.w3.org/Graphics/SVG/1.1/DTD/svg11.dtd">
<svg xmlns="http://www.w3.org/2000/svg" version="1.1" width="154px" height="154px" style="shape-rendering:geometricPrecision; text-rendering:geometricPrecision; image-rendering:optimizeQuality; fill-rule:evenodd; clip-rule:evenodd" xmlns:xlink="http://www.w3.org/1999/xlink">
<g><path style="opacity:1" fill="#fefefe" d="M -0.5,-0.5 C 50.8333,-0.5 102.167,-0.5 153.5,-0.5C 153.5,50.8333 153.5,102.167 153.5,153.5C 102.167,153.5 50.8333,153.5 -0.5,153.5C -0.5,102.167 -0.5,50.8333 -0.5,-0.5 Z"/></g>
<g><path style="opacity:1" fill="#585858" d="M 135.5,27.5 C 123.167,27.5 110.833,27.5 98.5,27.5C 110.655,26.5048 122.989,26.1714 135.5,26.5C 135.5,20.5 135.5,14.5 135.5,8.5C 97.1667,8.5 58.8333,8.5 20.5,8.5C 20.5,14.5 20.5,20.5 20.5,26.5C 33.0113,26.1714 45.3446,26.5048 57.5,27.5C 45.1667,27.5 32.8333,27.5 20.5,27.5C 19.5093,21.021 19.176,14.3543 19.5,7.5C 58.5,7.5 97.5,7.5 136.5,7.5C 136.824,14.3543 136.491,21.021 135.5,27.5 Z"/></g>
<g><path style="opacity:1" fill="#020202" d="M 98.5,27.5 C 97.5018,58.9956 97.1685,90.6623 97.5,122.5C 109.655,123.495 121.989,123.829 134.5,123.5C 134.5,129.5 134.5,135.5 134.5,141.5C 128.642,141.178 122.975,141.511 117.5,142.5C 85.1667,142.5 52.8333,142.5 20.5,142.5C 20.5,136.167 20.5,129.833 20.5,123.5C 33.3443,123.829 46.011,123.495 58.5,122.5C 58.8315,90.6623 58.4982,58.9956 57.5,27.5C 45.3446,26.5048 33.0113,26.1714 20.5,26.5C 20.5,20.5 20.5,14.5 20.5,8.5C 58.8333,8.5 97.1667,8.5 135.5,8.5C 135.5,14.5 135.5,20.5 135.5,26.5C 122.989,26.1714 110.655,26.5048 98.5,27.5 Z"/></g>
<g><path style="opacity:1" fill="#cccccc" d="M 98.5,27.5 C 110.833,27.5 123.167,27.5 135.5,27.5C 123.345,28.4952 111.011,28.8286 98.5,28.5C 98.5,59.8333 98.5,91.1667 98.5,122.5C 98.1667,122.5 97.8333,122.5 97.5,122.5C 97.1685,90.6623 97.5018,58.9956 98.5,27.5 Z"/></g>
<g><path style="opacity:1" fill="#ababab" d="M 20.5,27.5 C 32.8333,27.5 45.1667,27.5 57.5,27.5C 58.4982,58.9956 58.8315,90.6623 58.5,122.5C 58.1667,122.5 57.8333,122.5 57.5,122.5C 57.5,91.1667 57.5,59.8333 57.5,28.5C 44.9887,28.8286 32.6554,28.4952 20.5,27.5 Z"/></g>
<g><path style="opacity:1" fill="#878787" d="M 57.5,122.5 C 57.8333,122.5 58.1667,122.5 58.5,122.5C 46.011,123.495 33.3443,123.829 20.5,123.5C 20.5,129.833 20.5,136.167 20.5,142.5C 52.8333,142.5 85.1667,142.5 117.5,142.5C 123.5,142.5 129.5,142.5 135.5,142.5C 97.0036,143.499 58.3369,143.832 19.5,143.5C 19.5,136.5 19.5,129.5 19.5,122.5C 32.1667,122.5 44.8333,122.5 57.5,122.5 Z"/></g>
<g><path style="opacity:1" fill="#858585" d="M 97.5,122.5 C 97.8333,122.5 98.1667,122.5 98.5,122.5C 111.167,122.5 123.833,122.5 136.5,122.5C 136.824,129.354 136.491,136.021 135.5,142.5C 135.823,135.978 135.49,129.645 134.5,123.5C 121.989,123.829 109.655,123.495 97.5,122.5 Z"/></g>
<g><path style="opacity:1" fill="#1b1b1b" d="M 134.5,123.5 C 135.49,129.645 135.823,135.978 135.5,142.5C 129.5,142.5 123.5,142.5 117.5,142.5C 122.975,141.511 128.642,141.178 134.5,141.5C 134.5,135.5 134.5,129.5 134.5,123.5 Z"/></g>
</svg>
