<?xml version="1.0" encoding="UTF-8"?>
<!DOCTYPE svg PUBLIC "-//W3C//DTD SVG 1.1//EN" "http://www.w3.org/Graphics/SVG/1.1/DTD/svg11.dtd">
<svg xmlns="http://www.w3.org/2000/svg" version="1.1" width="154px" height="154px" style="shape-rendering:geometricPrecision; text-rendering:geometricPrecision; image-rendering:optimizeQuality; fill-rule:evenodd; clip-rule:evenodd" xmlns:xlink="http://www.w3.org/1999/xlink">
<g><path style="opacity:1" fill="#fdfdfd" d="M -0.5,-0.5 C 50.8333,-0.5 102.167,-0.5 153.5,-0.5C 153.5,50.8333 153.5,102.167 153.5,153.5C 102.167,153.5 50.8333,153.5 -0.5,153.5C -0.5,102.167 -0.5,50.8333 -0.5,-0.5 Z"/></g>
<g><path style="opacity:1" fill="#020202" d="M 127.5,27.5 C 126.503,46.6595 126.17,65.9928 126.5,85.5C 125.505,97.6554 125.171,109.989 125.5,122.5C 119.642,122.178 113.975,122.511 108.5,123.5C 107.51,129.645 107.177,135.978 107.5,142.5C 81.8333,142.5 56.1667,142.5 30.5,142.5C 30.8235,135.978 30.4902,129.645 29.5,123.5C 23.69,122.51 17.69,122.177 11.5,122.5C 11.5,110.167 11.5,97.8333 11.5,85.5C 24.1667,85.5 36.8333,85.5 49.5,85.5C 49.5,98.1667 49.5,110.833 49.5,123.5C 62.3443,123.829 75.011,123.495 87.5,122.5C 87.5,90.8333 87.5,59.1667 87.5,27.5C 81.69,26.5104 75.69,26.1771 69.5,26.5C 69.5,20.5 69.5,14.5 69.5,8.5C 94.8333,8.5 120.167,8.5 145.5,8.5C 145.5,14.5 145.5,20.5 145.5,26.5C 139.31,26.1771 133.31,26.5104 127.5,27.5 Z"/></g>
<g><path style="opacity:1" fill="#4f4f4f" d="M 145.5,27.5 C 139.5,27.5 133.5,27.5 127.5,27.5C 133.31,26.5104 139.31,26.1771 145.5,26.5C 145.5,20.5 145.5,14.5 145.5,8.5C 120.167,8.5 94.8333,8.5 69.5,8.5C 69.5,14.5 69.5,20.5 69.5,26.5C 75.69,26.1771 81.69,26.5104 87.5,27.5C 81.1667,27.5 74.8333,27.5 68.5,27.5C 68.5,20.8333 68.5,14.1667 68.5,7.5C 94.5,7.5 120.5,7.5 146.5,7.5C 146.824,14.3543 146.491,21.021 145.5,27.5 Z"/></g>
<g><path style="opacity:1" fill="#d8d8d8" d="M 68.5,27.5 C 74.8333,27.5 81.1667,27.5 87.5,27.5C 87.5,59.1667 87.5,90.8333 87.5,122.5C 87.1667,122.5 86.8333,122.5 86.5,122.5C 86.5,91.1667 86.5,59.8333 86.5,28.5C 80.31,28.8229 74.31,28.4896 68.5,27.5 Z"/></g>
<g><path style="opacity:1" fill="#9f9f9f" d="M 127.5,27.5 C 133.5,27.5 139.5,27.5 145.5,27.5C 139.69,28.4896 133.69,28.8229 127.5,28.5C 127.832,60.3377 127.498,92.0044 126.5,123.5C 126.5,110.833 126.5,98.1667 126.5,85.5C 126.17,65.9928 126.503,46.6595 127.5,27.5 Z"/></g>
<g><path style="opacity:1" fill="#252525" d="M 126.5,85.5 C 126.5,98.1667 126.5,110.833 126.5,123.5C 120.5,123.5 114.5,123.5 108.5,123.5C 113.975,122.511 119.642,122.178 125.5,122.5C 125.171,109.989 125.505,97.6554 126.5,85.5 Z"/></g>
<g><path style="opacity:1" fill="#5c5c5c" d="M 49.5,84.5 C 49.5,84.8333 49.5,85.1667 49.5,85.5C 36.8333,85.5 24.1667,85.5 11.5,85.5C 11.5,97.8333 11.5,110.167 11.5,122.5C 17.69,122.177 23.69,122.51 29.5,123.5C 23.1667,123.5 16.8333,123.5 10.5,123.5C 10.5,110.5 10.5,97.5 10.5,84.5C 23.5,84.5 36.5,84.5 49.5,84.5 Z"/></g>
<g><path style="opacity:1" fill="#808080" d="M 49.5,84.5 C 50.4954,96.989 50.8287,109.656 50.5,122.5C 62.5,122.5 74.5,122.5 86.5,122.5C 86.8333,122.5 87.1667,122.5 87.5,122.5C 75.011,123.495 62.3443,123.829 49.5,123.5C 49.5,110.833 49.5,98.1667 49.5,85.5C 49.5,85.1667 49.5,84.8333 49.5,84.5 Z"/></g>
<g><path style="opacity:1" fill="#989898" d="M 10.5,123.5 C 16.8333,123.5 23.1667,123.5 29.5,123.5C 30.4902,129.645 30.8235,135.978 30.5,142.5C 29.5104,136.69 29.1771,130.69 29.5,124.5C 22.9779,124.823 16.6446,124.49 10.5,123.5 Z"/></g>
<g><path style="opacity:1" fill="#b8b8b8" d="M 108.5,123.5 C 114.5,123.5 120.5,123.5 126.5,123.5C 120.69,124.49 114.69,124.823 108.5,124.5C 108.823,130.69 108.49,136.69 107.5,142.5C 107.177,135.978 107.51,129.645 108.5,123.5 Z"/></g>
</svg>
