<?xml version="1.0" encoding="UTF-8"?>
<!DOCTYPE svg PUBLIC "-//W3C//DTD SVG 1.1//EN" "http://www.w3.org/Graphics/SVG/1.1/DTD/svg11.dtd">
<svg xmlns="http://www.w3.org/2000/svg" version="1.1" width="160px" height="160px" style="shape-rendering:geometricPrecision; text-rendering:geometricPrecision; image-rendering:optimizeQuality; fill-rule:evenodd; clip-rule:evenodd" xmlns:xlink="http://www.w3.org/1999/xlink">
<g><path style="opacity:1" fill="#fdfdfd" d="M -0.5,-0.5 C 52.8333,-0.5 106.167,-0.5 159.5,-0.5C 159.5,52.8333 159.5,106.167 159.5,159.5C 106.167,159.5 52.8333,159.5 -0.5,159.5C -0.5,106.167 -0.5,52.8333 -0.5,-0.5 Z"/></g>
<g><path style="opacity:1" fill="#5e5e5e" d="M 68.5,67.5 C 68.5,67.8333 68.5,68.1667 68.5,68.5C 67.503,49.674 67.1697,30.674 67.5,11.5C 48.5,11.5 29.5,11.5 10.5,11.5C 10.5,17.5 10.5,23.5 10.5,29.5C 16.69,29.1771 22.69,29.5104 28.5,30.5C 22.5,30.5 16.5,30.5 10.5,30.5C 9.50929,24.021 9.17596,17.3543 9.5,10.5C 29.1667,10.5 48.8333,10.5 68.5,10.5C 68.5,29.5 68.5,48.5 68.5,67.5 Z"/></g>
<g><path style="opacity:1" fill="#010101" d="M 68.5,68.5 C 74.8333,68.5 81.1667,68.5 87.5,68.5C 87.5,62.1667 87.5,55.8333 87.5,49.5C 93.8333,49.5 100.167,49.5 106.5,49.5C 106.5,36.8333 106.5,24.1667 106.5,11.5C 119.167,11.5 131.833,11.5 144.5,11.5C 144.5,24.1667 144.5,36.8333 144.5,49.5C 138.167,49.5 131.833,49.5 125.5,49.5C 125.5,55.8333 125.5,62.1667 125.5,68.5C 119.167,68.5 112.833,68.5 106.5,68.5C 106.5,74.8333 106.5,81.1667 106.5,87.5C 112.833,87.5 119.167,87.5 125.5,87.5C 125.177,94.0221 125.51,100.355 126.5,106.5C 132.31,107.49 138.31,107.823 144.5,107.5C 144.5,120.167 144.5,132.833 144.5,145.5C 131.833,145.5 119.167,145.5 106.5,145.5C 106.829,132.656 106.495,119.989 105.5,107.5C 99.69,106.51 93.69,106.177 87.5,106.5C 87.8229,100.31 87.4896,94.31 86.5,88.5C 80.5,88.5 74.5,88.5 68.5,88.5C 67.503,107.326 67.1697,126.326 67.5,145.5C 48.5,145.5 29.5,145.5 10.5,145.5C 10.5,139.167 10.5,132.833 10.5,126.5C 16.8333,126.5 23.1667,126.5 29.5,126.5C 29.8316,94.329 29.4982,62.329 28.5,30.5C 22.69,29.5104 16.69,29.1771 10.5,29.5C 10.5,23.5 10.5,17.5 10.5,11.5C 29.5,11.5 48.5,11.5 67.5,11.5C 67.1697,30.674 67.503,49.674 68.5,68.5 Z"/></g>
<g><path style="opacity:1" fill="#787878" d="M 144.5,49.5 C 144.5,36.8333 144.5,24.1667 144.5,11.5C 131.833,11.5 119.167,11.5 106.5,11.5C 106.5,24.1667 106.5,36.8333 106.5,49.5C 100.167,49.5 93.8333,49.5 87.5,49.5C 87.5,55.8333 87.5,62.1667 87.5,68.5C 81.1667,68.5 74.8333,68.5 68.5,68.5C 68.5,68.1667 68.5,67.8333 68.5,67.5C 74.5,67.5 80.5,67.5 86.5,67.5C 86.5,61.1667 86.5,54.8333 86.5,48.5C 92.8333,48.5 99.1667,48.5 105.5,48.5C 105.5,35.8333 105.5,23.1667 105.5,10.5C 118.833,10.5 132.167,10.5 145.5,10.5C 145.829,23.6774 145.495,36.6774 144.5,49.5 Z"/></g>
<g><path style="opacity:1" fill="#8c8c8c" d="M 10.5,30.5 C 16.5,30.5 22.5,30.5 28.5,30.5C 29.4982,62.329 29.8316,94.329 29.5,126.5C 23.1667,126.5 16.8333,126.5 10.5,126.5C 10.5,132.833 10.5,139.167 10.5,145.5C 10.1667,145.5 9.83333,145.5 9.5,145.5C 9.5,138.833 9.5,132.167 9.5,125.5C 15.8333,125.5 22.1667,125.5 28.5,125.5C 28.5,94.1667 28.5,62.8333 28.5,31.5C 22.31,31.8229 16.31,31.4896 10.5,30.5 Z"/></g>
<g><path style="opacity:1" fill="#9e9e9e" d="M 144.5,49.5 C 138.69,50.4896 132.69,50.8229 126.5,50.5C 126.823,56.69 126.49,62.69 125.5,68.5C 125.5,62.1667 125.5,55.8333 125.5,49.5C 131.833,49.5 138.167,49.5 144.5,49.5 Z"/></g>
<g><path style="opacity:1" fill="#b1b1b1" d="M 125.5,68.5 C 119.69,69.4896 113.69,69.8229 107.5,69.5C 107.5,75.1667 107.5,80.8333 107.5,86.5C 113.69,86.1771 119.69,86.5104 125.5,87.5C 119.167,87.5 112.833,87.5 106.5,87.5C 106.5,81.1667 106.5,74.8333 106.5,68.5C 112.833,68.5 119.167,68.5 125.5,68.5 Z"/></g>
<g><path style="opacity:1" fill="#565656" d="M 86.5,88.5 C 87.4896,94.31 87.8229,100.31 87.5,106.5C 93.69,106.177 99.69,106.51 105.5,107.5C 99.1667,107.5 92.8333,107.5 86.5,107.5C 86.5,101.167 86.5,94.8333 86.5,88.5 Z"/></g>
<g><path style="opacity:1" fill="#7b7b7b" d="M 126.5,106.5 C 132.833,106.5 139.167,106.5 145.5,106.5C 145.829,119.677 145.495,132.677 144.5,145.5C 144.5,132.833 144.5,120.167 144.5,107.5C 138.31,107.823 132.31,107.49 126.5,106.5 Z"/></g>
<g><path style="opacity:1" fill="#8b8b8b" d="M 68.5,88.5 C 68.5,107.833 68.5,127.167 68.5,146.5C 48.6596,146.83 28.9929,146.497 9.5,145.5C 9.83333,145.5 10.1667,145.5 10.5,145.5C 29.5,145.5 48.5,145.5 67.5,145.5C 67.1697,126.326 67.503,107.326 68.5,88.5 Z"/></g>
</svg>
