<?xml version="1.0" encoding="UTF-8"?>
<!DOCTYPE svg PUBLIC "-//W3C//DTD SVG 1.1//EN" "http://www.w3.org/Graphics/SVG/1.1/DTD/svg11.dtd">
<svg xmlns="http://www.w3.org/2000/svg" version="1.1" width="157px" height="157px" style="shape-rendering:geometricPrecision; text-rendering:geometricPrecision; image-rendering:optimizeQuality; fill-rule:evenodd; clip-rule:evenodd" xmlns:xlink="http://www.w3.org/1999/xlink">
<g><path style="opacity:1" fill="#fefefe" d="M -0.5,-0.5 C 51.8333,-0.5 104.167,-0.5 156.5,-0.5C 156.5,51.8333 156.5,104.167 156.5,156.5C 104.167,156.5 51.8333,156.5 -0.5,156.5C -0.5,104.167 -0.5,51.8333 -0.5,-0.5 Z"/></g>
<g><path style="opacity:1" fill="#585858" d="M 10.5,7.5 C 36.0055,7.16893 61.3388,7.50226 86.5,8.5C 61.1667,8.5 35.8333,8.5 10.5,8.5C 10.5,14.5 10.5,20.5 10.5,26.5C 16.69,26.1771 22.69,26.5104 28.5,27.5C 22.5,27.5 16.5,27.5 10.5,27.5C 9.16667,20.8333 9.16667,14.1667 10.5,7.5 Z"/></g>
<g><path style="opacity:1" fill="#020202" d="M 86.5,8.5 C 86.5,14.5 86.5,20.5 86.5,26.5C 80.31,26.1771 74.31,26.5104 68.5,27.5C 68.5,59.5 68.5,91.5 68.5,123.5C 81.0113,123.829 93.3446,123.495 105.5,122.5C 106.49,116.69 106.823,110.69 106.5,104.5C 112.69,104.823 118.69,104.49 124.5,103.5C 125.49,97.69 125.823,91.69 125.5,85.5C 131.833,85.5 138.167,85.5 144.5,85.5C 144.5,104.5 144.5,123.5 144.5,142.5C 99.8333,142.5 55.1667,142.5 10.5,142.5C 10.5,136.167 10.5,129.833 10.5,123.5C 16.8333,123.5 23.1667,123.5 29.5,123.5C 29.8316,91.329 29.4982,59.329 28.5,27.5C 22.69,26.5104 16.69,26.1771 10.5,26.5C 10.5,20.5 10.5,14.5 10.5,8.5C 35.8333,8.5 61.1667,8.5 86.5,8.5 Z"/></g>
<g><path style="opacity:1" fill="#d6d6d6" d="M 10.5,7.5 C 35.9967,6.33659 61.6634,6.16992 87.5,7C 88.8265,13.932 88.8265,20.7653 87.5,27.5C 87.8235,20.9779 87.4902,14.6446 86.5,8.5C 61.3388,7.50226 36.0055,7.16893 10.5,7.5 Z"/></g>
<g><path style="opacity:1" fill="#464646" d="M 86.5,8.5 C 87.4902,14.6446 87.8235,20.9779 87.5,27.5C 81.1667,27.5 74.8333,27.5 68.5,27.5C 74.31,26.5104 80.31,26.1771 86.5,26.5C 86.5,20.5 86.5,14.5 86.5,8.5 Z"/></g>
<g><path style="opacity:1" fill="#727272" d="M 124.5,103.5 C 118.69,104.49 112.69,104.823 106.5,104.5C 106.823,110.69 106.49,116.69 105.5,122.5C 105.5,116.167 105.5,109.833 105.5,103.5C 111.833,103.5 118.167,103.5 124.5,103.5 Z"/></g>
<g><path style="opacity:1" fill="#909090" d="M 10.5,27.5 C 16.5,27.5 22.5,27.5 28.5,27.5C 29.4982,59.329 29.8316,91.329 29.5,123.5C 23.1667,123.5 16.8333,123.5 10.5,123.5C 10.5,129.833 10.5,136.167 10.5,142.5C 55.1667,142.5 99.8333,142.5 144.5,142.5C 99.6698,143.499 54.6698,143.832 9.5,143.5C 9.5,136.5 9.5,129.5 9.5,122.5C 15.8333,122.5 22.1667,122.5 28.5,122.5C 28.5,91.1667 28.5,59.8333 28.5,28.5C 22.31,28.8229 16.31,28.4896 10.5,27.5 Z"/></g>
<g><path style="opacity:1" fill="#7b7b7b" d="M 144.5,142.5 C 144.5,123.5 144.5,104.5 144.5,85.5C 138.167,85.5 131.833,85.5 125.5,85.5C 125.823,91.69 125.49,97.69 124.5,103.5C 124.5,97.1667 124.5,90.8333 124.5,84.5C 131.5,84.5 138.5,84.5 145.5,84.5C 145.83,104.007 145.497,123.341 144.5,142.5 Z"/></g>
</svg>
