<?xml version="1.0" encoding="UTF-8"?>
<!DOCTYPE svg PUBLIC "-//W3C//DTD SVG 1.1//EN" "http://www.w3.org/Graphics/SVG/1.1/DTD/svg11.dtd">
<svg xmlns="http://www.w3.org/2000/svg" version="1.1" width="160px" height="160px" style="shape-rendering:geometricPrecision; text-rendering:geometricPrecision; image-rendering:optimizeQuality; fill-rule:evenodd; clip-rule:evenodd" xmlns:xlink="http://www.w3.org/1999/xlink">
<g><path style="opacity:1" fill="#fcfcfc" d="M -0.5,-0.5 C 52.8333,-0.5 106.167,-0.5 159.5,-0.5C 159.5,52.8333 159.5,106.167 159.5,159.5C 106.167,159.5 52.8333,159.5 -0.5,159.5C -0.5,106.167 -0.5,52.8333 -0.5,-0.5 Z"/></g>
<g><path style="opacity:1" fill="#d8d8d8" d="M 13.5,10.5 C 19.8245,9.83374 26.3245,9.5004 33,9.5C 39.8693,9.50337 46.3693,10.17 52.5,11.5C 52.1667,11.5 51.8333,11.5 51.5,11.5C 39.011,10.5046 26.3443,10.1713 13.5,10.5 Z"/></g>
<g><path style="opacity:1" fill="#000000" d="M 51.5,11.5 C 51.5,17.8333 51.5,24.1667 51.5,30.5C 57.8333,30.5 64.1667,30.5 70.5,30.5C 70.1771,36.69 70.5104,42.69 71.5,48.5C 77.6446,49.4902 83.9779,49.8235 90.5,49.5C 90.5,43.1667 90.5,36.8333 90.5,30.5C 96.69,30.8229 102.69,30.4896 108.5,29.5C 109.49,23.69 109.823,17.69 109.5,11.5C 122.167,11.5 134.833,11.5 147.5,11.5C 147.5,56.1667 147.5,100.833 147.5,145.5C 134.833,145.5 122.167,145.5 109.5,145.5C 109.5,126.5 109.5,107.5 109.5,88.5C 103.167,88.5 96.8333,88.5 90.5,88.5C 89.5104,94.31 89.1771,100.31 89.5,106.5C 83.5,106.5 77.5,106.5 71.5,106.5C 71.8229,100.31 71.4896,94.31 70.5,88.5C 64.5,87.1667 58.5,87.1667 52.5,88.5C 51.503,107.326 51.1697,126.326 51.5,145.5C 38.8333,145.5 26.1667,145.5 13.5,145.5C 13.5,100.833 13.5,56.1667 13.5,11.5C 26.1667,11.5 38.8333,11.5 51.5,11.5 Z"/></g>
<g><path style="opacity:1" fill="#757575" d="M 147.5,145.5 C 147.5,100.833 147.5,56.1667 147.5,11.5C 134.833,11.5 122.167,11.5 109.5,11.5C 109.823,17.69 109.49,23.69 108.5,29.5C 108.5,23.1667 108.5,16.8333 108.5,10.5C 121.833,10.5 135.167,10.5 148.5,10.5C 148.832,55.6698 148.499,100.67 147.5,145.5 Z"/></g>
<g><path style="opacity:1" fill="#787878" d="M 51.5,11.5 C 51.8333,11.5 52.1667,11.5 52.5,11.5C 52.5,17.5 52.5,23.5 52.5,29.5C 58.8333,29.5 65.1667,29.5 71.5,29.5C 71.5,35.8333 71.5,42.1667 71.5,48.5C 70.5104,42.69 70.1771,36.69 70.5,30.5C 64.1667,30.5 57.8333,30.5 51.5,30.5C 51.5,24.1667 51.5,17.8333 51.5,11.5 Z"/></g>
<g><path style="opacity:1" fill="#6c6c6c" d="M 108.5,29.5 C 102.69,30.4896 96.69,30.8229 90.5,30.5C 90.5,36.8333 90.5,43.1667 90.5,49.5C 83.9779,49.8235 77.6446,49.4902 71.5,48.5C 77.5,48.5 83.5,48.5 89.5,48.5C 89.5,42.1667 89.5,35.8333 89.5,29.5C 95.8333,29.5 102.167,29.5 108.5,29.5 Z"/></g>
<g><path style="opacity:1" fill="#747474" d="M 13.5,10.5 C 26.3443,10.1713 39.011,10.5046 51.5,11.5C 38.8333,11.5 26.1667,11.5 13.5,11.5C 13.5,56.1667 13.5,100.833 13.5,145.5C 26.1667,145.5 38.8333,145.5 51.5,145.5C 38.6774,146.495 25.6774,146.829 12.5,146.5C 12.1679,100.997 12.5012,55.6636 13.5,10.5 Z"/></g>
<g><path style="opacity:1" fill="#a5a5a5" d="M 52.5,88.5 C 58.5,87.1667 64.5,87.1667 70.5,88.5C 70.5,94.8333 70.5,101.167 70.5,107.5C 69.5098,101.355 69.1765,95.0221 69.5,88.5C 63.8333,88.5 58.1667,88.5 52.5,88.5 Z"/></g>
<g><path style="opacity:1" fill="#505050" d="M 70.5,88.5 C 71.4896,94.31 71.8229,100.31 71.5,106.5C 77.5,106.5 83.5,106.5 89.5,106.5C 89.1771,100.31 89.5104,94.31 90.5,88.5C 90.5,94.8333 90.5,101.167 90.5,107.5C 83.8333,107.5 77.1667,107.5 70.5,107.5C 70.5,101.167 70.5,94.8333 70.5,88.5 Z"/></g>
</svg>
