<?xml version="1.0" encoding="UTF-8"?>
<!DOCTYPE svg PUBLIC "-//W3C//DTD SVG 1.1//EN" "http://www.w3.org/Graphics/SVG/1.1/DTD/svg11.dtd">
<svg xmlns="http://www.w3.org/2000/svg" version="1.1" width="157px" height="157px" style="shape-rendering:geometricPrecision; text-rendering:geometricPrecision; image-rendering:optimizeQuality; fill-rule:evenodd; clip-rule:evenodd" xmlns:xlink="http://www.w3.org/1999/xlink">
<g><path style="opacity:1" fill="#1c2728" d="M -0.5,-0.5 C 0.5,-0.5 1.5,-0.5 2.5,-0.5C 3.37904,51.9633 3.71237,104.297 3.5,156.5C 2.16667,156.5 0.833333,156.5 -0.5,156.5C -0.5,104.167 -0.5,51.8333 -0.5,-0.5 Z"/></g>
<g><path style="opacity:1" fill="#fbfbfb" d="M 5.5,-0.5 C 55.8333,-0.5 106.167,-0.5 156.5,-0.5C 156.5,51.8333 156.5,104.167 156.5,156.5C 106.167,156.5 55.8333,156.5 5.5,156.5C 5.5,104.167 5.5,51.8333 5.5,-0.5 Z"/></g>
<g><path style="opacity:1" fill="#000000" d="M 51.5,10.5 C 51.5,16.8333 51.5,23.1667 51.5,29.5C 57.8333,29.5 64.1667,29.5 70.5,29.5C 70.1771,35.69 70.5104,41.69 71.5,47.5C 77.31,48.4896 83.31,48.8229 89.5,48.5C 89.1771,54.69 89.5104,60.69 90.5,66.5C 96.6446,67.4902 102.978,67.8235 109.5,67.5C 109.5,48.5 109.5,29.5 109.5,10.5C 122.167,10.5 134.833,10.5 147.5,10.5C 147.5,55.1667 147.5,99.8333 147.5,144.5C 134.833,144.5 122.167,144.5 109.5,144.5C 109.829,131.656 109.495,118.989 108.5,106.5C 102.69,105.51 96.69,105.177 90.5,105.5C 90.8229,99.31 90.4896,93.31 89.5,87.5C 83.69,86.5104 77.69,86.1771 71.5,86.5C 71.8229,80.31 71.4896,74.31 70.5,68.5C 64.3554,67.5098 58.0221,67.1765 51.5,67.5C 51.5,93.1667 51.5,118.833 51.5,144.5C 38.8333,144.5 26.1667,144.5 13.5,144.5C 13.5,99.8333 13.5,55.1667 13.5,10.5C 26.1667,10.5 38.8333,10.5 51.5,10.5 Z"/></g>
<g><path style="opacity:1" fill="#7b7b7b" d="M 147.5,144.5 C 147.5,99.8333 147.5,55.1667 147.5,10.5C 134.833,10.5 122.167,10.5 109.5,10.5C 109.5,29.5 109.5,48.5 109.5,67.5C 102.978,67.8235 96.6446,67.4902 90.5,66.5C 96.5,66.5 102.5,66.5 108.5,66.5C 108.5,47.5 108.5,28.5 108.5,9.5C 121.833,9.5 135.167,9.5 148.5,9.5C 148.832,54.6698 148.499,99.6698 147.5,144.5 Z"/></g>
<g><path style="opacity:1" fill="#787878" d="M 51.5,9.5 C 52.4902,15.6446 52.8235,21.9779 52.5,28.5C 58.8333,28.5 65.1667,28.5 71.5,28.5C 71.5,34.8333 71.5,41.1667 71.5,47.5C 70.5104,41.69 70.1771,35.69 70.5,29.5C 64.1667,29.5 57.8333,29.5 51.5,29.5C 51.5,23.1667 51.5,16.8333 51.5,10.5C 51.5,10.1667 51.5,9.83333 51.5,9.5 Z"/></g>
<g><path style="opacity:1" fill="#747474" d="M 51.5,9.5 C 51.5,9.83333 51.5,10.1667 51.5,10.5C 38.8333,10.5 26.1667,10.5 13.5,10.5C 13.5,55.1667 13.5,99.8333 13.5,144.5C 26.1667,144.5 38.8333,144.5 51.5,144.5C 38.6774,145.495 25.6774,145.829 12.5,145.5C 12.5,100.167 12.5,54.8333 12.5,9.5C 25.5,9.5 38.5,9.5 51.5,9.5 Z"/></g>
<g><path style="opacity:1" fill="#686868" d="M 71.5,47.5 C 77.8333,47.5 84.1667,47.5 90.5,47.5C 90.5,53.8333 90.5,60.1667 90.5,66.5C 89.5104,60.69 89.1771,54.69 89.5,48.5C 83.31,48.8229 77.31,48.4896 71.5,47.5 Z"/></g>
<g><path style="opacity:1" fill="#888888" d="M 70.5,68.5 C 64.5,68.5 58.5,68.5 52.5,68.5C 52.8311,94.0055 52.4977,119.339 51.5,144.5C 51.5,118.833 51.5,93.1667 51.5,67.5C 58.0221,67.1765 64.3554,67.5098 70.5,68.5 Z"/></g>
<g><path style="opacity:1" fill="#5f5f5f" d="M 70.5,68.5 C 71.4896,74.31 71.8229,80.31 71.5,86.5C 77.69,86.1771 83.69,86.5104 89.5,87.5C 83.1667,87.5 76.8333,87.5 70.5,87.5C 70.5,81.1667 70.5,74.8333 70.5,68.5 Z"/></g>
<g><path style="opacity:1" fill="#e0e0e0" d="M 70.5,87.5 C 76.8333,87.5 83.1667,87.5 89.5,87.5C 89.5,93.5 89.5,99.5 89.5,105.5C 88.5111,100.025 88.1778,94.358 88.5,88.5C 82.31,88.8229 76.31,88.4896 70.5,87.5 Z"/></g>
<g><path style="opacity:1" fill="#555555" d="M 89.5,87.5 C 90.4896,93.31 90.8229,99.31 90.5,105.5C 96.69,105.177 102.69,105.51 108.5,106.5C 101.978,106.823 95.6446,106.49 89.5,105.5C 89.5,99.5 89.5,93.5 89.5,87.5 Z"/></g>
<g><path style="opacity:1" fill="#202425" d="M 2.5,-0.5 C 3.5,-0.5 4.5,-0.5 5.5,-0.5C 5.5,51.8333 5.5,104.167 5.5,156.5C 4.83333,156.5 4.16667,156.5 3.5,156.5C 3.71237,104.297 3.37904,51.9633 2.5,-0.5 Z"/></g>
</svg>
