<?xml version="1.0" encoding="UTF-8"?>
<!DOCTYPE svg PUBLIC "-//W3C//DTD SVG 1.1//EN" "http://www.w3.org/Graphics/SVG/1.1/DTD/svg11.dtd">
<svg xmlns="http://www.w3.org/2000/svg" version="1.1" width="157px" height="157px" style="shape-rendering:geometricPrecision; text-rendering:geometricPrecision; image-rendering:optimizeQuality; fill-rule:evenodd; clip-rule:evenodd" xmlns:xlink="http://www.w3.org/1999/xlink">
<g><path style="opacity:1" fill="#fefefe" d="M -0.5,-0.5 C 51.8333,-0.5 104.167,-0.5 156.5,-0.5C 156.5,51.8333 156.5,104.167 156.5,156.5C 104.167,156.5 51.8333,156.5 -0.5,156.5C -0.5,104.167 -0.5,51.8333 -0.5,-0.5 Z"/></g>
<g><path style="opacity:1" fill="#d2d2d2" d="M 48.5,9.5 C 67.9929,8.50293 87.6596,8.1696 107.5,8.5C 107.5,15.1667 107.5,21.8333 107.5,28.5C 107.167,28.5 106.833,28.5 106.5,28.5C 106.5,22.1667 106.5,15.8333 106.5,9.5C 87.1667,9.5 67.8333,9.5 48.5,9.5 Z"/></g>
<g><path style="opacity:1" fill="#525252" d="M 48.5,10.5 C 48.5,10.1667 48.5,9.83333 48.5,9.5C 67.8333,9.5 87.1667,9.5 106.5,9.5C 106.5,15.8333 106.5,22.1667 106.5,28.5C 105.51,22.69 105.177,16.69 105.5,10.5C 86.5,10.5 67.5,10.5 48.5,10.5 Z"/></g>
<g><path style="opacity:1" fill="#010101" d="M 48.5,10.5 C 67.5,10.5 86.5,10.5 105.5,10.5C 105.177,16.69 105.51,22.69 106.5,28.5C 112.645,29.4902 118.978,29.8235 125.5,29.5C 125.5,35.8333 125.5,42.1667 125.5,48.5C 131.833,48.5 138.167,48.5 144.5,48.5C 144.5,67.8333 144.5,87.1667 144.5,106.5C 137.978,106.177 131.645,106.51 125.5,107.5C 124.511,112.975 124.178,118.642 124.5,124.5C 118.642,124.178 112.975,124.511 107.5,125.5C 106.51,131.645 106.177,137.978 106.5,144.5C 93.1667,144.5 79.8333,144.5 66.5,144.5C 61.0247,143.511 55.358,143.178 49.5,143.5C 49.8222,137.642 49.4889,131.975 48.5,126.5C 42.3554,125.51 36.0221,125.177 29.5,125.5C 29.8235,118.978 29.4902,112.645 28.5,106.5C 22.69,105.51 16.69,105.177 10.5,105.5C 10.5,86.5 10.5,67.5 10.5,48.5C 16.8333,48.5 23.1667,48.5 29.5,48.5C 29.5,42.1667 29.5,35.8333 29.5,29.5C 35.8333,29.5 42.1667,29.5 48.5,29.5C 48.5,23.1667 48.5,16.8333 48.5,10.5 Z"/></g>
<g><path style="opacity:1" fill="#838383" d="M 48.5,9.5 C 48.5,9.83333 48.5,10.1667 48.5,10.5C 48.5,16.8333 48.5,23.1667 48.5,29.5C 42.1667,29.5 35.8333,29.5 29.5,29.5C 35.31,28.5104 41.31,28.1771 47.5,28.5C 47.1765,21.9779 47.5098,15.6446 48.5,9.5 Z"/></g>
<g><path style="opacity:1" fill="#fdfdfd" d="M 68.5,30.5 C 74.1667,30.5 79.8333,30.5 85.5,30.5C 85.1771,36.69 85.5104,42.69 86.5,48.5C 92.6446,49.4902 98.9779,49.8235 105.5,49.5C 105.5,68.1667 105.5,86.8333 105.5,105.5C 99.1667,105.5 92.8333,105.5 86.5,105.5C 86.5,111.833 86.5,118.167 86.5,124.5C 80.69,125.49 74.69,125.823 68.5,125.5C 68.8235,118.978 68.4902,112.645 67.5,106.5C 61.69,105.51 55.69,105.177 49.5,105.5C 49.5,86.8333 49.5,68.1667 49.5,49.5C 55.8333,49.5 62.1667,49.5 68.5,49.5C 68.5,43.1667 68.5,36.8333 68.5,30.5 Z"/></g>
<g><path style="opacity:1" fill="#d1d1d1" d="M 68.5,30.5 C 68.5,30.1667 68.5,29.8333 68.5,29.5C 74.5,29.5 80.5,29.5 86.5,29.5C 86.5,35.8333 86.5,42.1667 86.5,48.5C 85.5104,42.69 85.1771,36.69 85.5,30.5C 79.8333,30.5 74.1667,30.5 68.5,30.5 Z"/></g>
<g><path style="opacity:1" fill="#7c7c7c" d="M 29.5,29.5 C 29.5,35.8333 29.5,42.1667 29.5,48.5C 23.1667,48.5 16.8333,48.5 10.5,48.5C 10.5,67.5 10.5,86.5 10.5,105.5C 16.69,105.177 22.69,105.51 28.5,106.5C 22.1667,106.5 15.8333,106.5 9.5,106.5C 9.5,87.1667 9.5,67.8333 9.5,48.5C 15.6446,47.5098 21.9779,47.1765 28.5,47.5C 28.1771,41.31 28.5104,35.31 29.5,29.5 Z"/></g>
<g><path style="opacity:1" fill="#363636" d="M 86.5,29.5 C 87.4896,35.31 87.8229,41.31 87.5,47.5C 93.69,47.1771 99.69,47.5104 105.5,48.5C 99.1667,48.5 92.8333,48.5 86.5,48.5C 86.5,42.1667 86.5,35.8333 86.5,29.5 Z"/></g>
<g><path style="opacity:1" fill="#8a8a8a" d="M 106.5,28.5 C 106.833,28.5 107.167,28.5 107.5,28.5C 113.833,28.5 120.167,28.5 126.5,28.5C 126.5,34.8333 126.5,41.1667 126.5,47.5C 132.69,47.1771 138.69,47.5104 144.5,48.5C 138.167,48.5 131.833,48.5 125.5,48.5C 125.5,42.1667 125.5,35.8333 125.5,29.5C 118.978,29.8235 112.645,29.4902 106.5,28.5 Z"/></g>
<g><path style="opacity:1" fill="#dbdbdb" d="M 9.5,48.5 C 9.5,67.8333 9.5,87.1667 9.5,106.5C 15.8333,106.5 22.1667,106.5 28.5,106.5C 29.4902,112.645 29.8235,118.978 29.5,125.5C 28.5104,119.69 28.1771,113.69 28.5,107.5C 21.8333,107.5 15.1667,107.5 8.5,107.5C 8.1696,87.6596 8.50293,67.9929 9.5,48.5 Z"/></g>
<g><path style="opacity:1" fill="#7f7f7f" d="M 86.5,48.5 C 92.8333,48.5 99.1667,48.5 105.5,48.5C 106.833,67.5 106.833,86.5 105.5,105.5C 105.5,86.8333 105.5,68.1667 105.5,49.5C 98.9779,49.8235 92.6446,49.4902 86.5,48.5 Z"/></g>
<g><path style="opacity:1" fill="#808080" d="M 68.5,29.5 C 68.5,29.8333 68.5,30.1667 68.5,30.5C 68.5,36.8333 68.5,43.1667 68.5,49.5C 62.1667,49.5 55.8333,49.5 49.5,49.5C 49.5,68.1667 49.5,86.8333 49.5,105.5C 55.69,105.177 61.69,105.51 67.5,106.5C 61.1667,106.5 54.8333,106.5 48.5,106.5C 48.5,87.1667 48.5,67.8333 48.5,48.5C 54.8333,48.5 61.1667,48.5 67.5,48.5C 67.1765,41.9779 67.5098,35.6446 68.5,29.5 Z"/></g>
<g><path style="opacity:1" fill="#5f5f5f" d="M 105.5,105.5 C 99.69,106.49 93.69,106.823 87.5,106.5C 87.8229,112.69 87.4896,118.69 86.5,124.5C 86.5,118.167 86.5,111.833 86.5,105.5C 92.8333,105.5 99.1667,105.5 105.5,105.5 Z"/></g>
<g><path style="opacity:1" fill="#adadad" d="M 144.5,48.5 C 145.497,67.9929 145.83,87.6596 145.5,107.5C 139.167,107.5 132.833,107.5 126.5,107.5C 126.823,113.69 126.49,119.69 125.5,125.5C 125.5,119.5 125.5,113.5 125.5,107.5C 131.645,106.51 137.978,106.177 144.5,106.5C 144.5,87.1667 144.5,67.8333 144.5,48.5 Z"/></g>
<g><path style="opacity:1" fill="#2f2f2f" d="M 125.5,107.5 C 125.5,113.5 125.5,119.5 125.5,125.5C 119.5,125.5 113.5,125.5 107.5,125.5C 112.975,124.511 118.642,124.178 124.5,124.5C 124.178,118.642 124.511,112.975 125.5,107.5 Z"/></g>
<g><path style="opacity:1" fill="#aaaaaa" d="M 29.5,125.5 C 36.0221,125.177 42.3554,125.51 48.5,126.5C 48.5,132.5 48.5,138.5 48.5,144.5C 47.5104,138.69 47.1771,132.69 47.5,126.5C 41.31,126.823 35.31,126.49 29.5,125.5 Z"/></g>
<g><path style="opacity:1" fill="#b8b8b8" d="M 107.5,125.5 C 113.5,125.5 119.5,125.5 125.5,125.5C 119.69,126.49 113.69,126.823 107.5,126.5C 107.823,132.69 107.49,138.69 106.5,144.5C 106.177,137.978 106.51,131.645 107.5,125.5 Z"/></g>
<g><path style="opacity:1" fill="#1f1f1f" d="M 48.5,126.5 C 49.4889,131.975 49.8222,137.642 49.5,143.5C 55.358,143.178 61.0247,143.511 66.5,144.5C 60.5,144.5 54.5,144.5 48.5,144.5C 48.5,138.5 48.5,132.5 48.5,126.5 Z"/></g>
</svg>
