<?xml version="1.0" encoding="UTF-8"?>
<!DOCTYPE svg PUBLIC "-//W3C//DTD SVG 1.1//EN" "http://www.w3.org/Graphics/SVG/1.1/DTD/svg11.dtd">
<svg xmlns="http://www.w3.org/2000/svg" version="1.1" width="157px" height="157px" style="shape-rendering:geometricPrecision; text-rendering:geometricPrecision; image-rendering:optimizeQuality; fill-rule:evenodd; clip-rule:evenodd" xmlns:xlink="http://www.w3.org/1999/xlink">
<g><path style="opacity:1" fill="#fefefe" d="M -0.5,-0.5 C 51.8333,-0.5 104.167,-0.5 156.5,-0.5C 156.5,51.8333 156.5,104.167 156.5,156.5C 104.167,156.5 51.8333,156.5 -0.5,156.5C -0.5,104.167 -0.5,51.8333 -0.5,-0.5 Z"/></g>
<g><path style="opacity:1" fill="#585858" d="M 122.5,9.5 C 122.5,9.83333 122.5,10.1667 122.5,10.5C 84.1667,10.5 45.8333,10.5 7.5,10.5C 7.5,16.5 7.5,22.5 7.5,28.5C 13.69,28.1771 19.69,28.5104 25.5,29.5C 19.5,29.5 13.5,29.5 7.5,29.5C 6.50929,23.021 6.17596,16.3543 6.5,9.5C 45.1667,9.5 83.8333,9.5 122.5,9.5 Z"/></g>
<g><path style="opacity:1" fill="#030303" d="M 122.5,10.5 C 122.5,16.8333 122.5,23.1667 122.5,29.5C 128.833,29.5 135.167,29.5 141.5,29.5C 141.5,42.1667 141.5,54.8333 141.5,67.5C 135.167,67.5 128.833,67.5 122.5,67.5C 122.5,73.8333 122.5,80.1667 122.5,86.5C 103.674,87.497 84.674,87.8303 65.5,87.5C 65.5,99.8333 65.5,112.167 65.5,124.5C 71.31,125.49 77.31,125.823 83.5,125.5C 83.5,131.833 83.5,138.167 83.5,144.5C 58.1667,144.5 32.8333,144.5 7.5,144.5C 6.16667,138.167 6.16667,131.833 7.5,125.5C 13.8333,125.5 20.1667,125.5 26.5,125.5C 26.8316,93.329 26.4982,61.329 25.5,29.5C 19.69,28.5104 13.69,28.1771 7.5,28.5C 7.5,22.5 7.5,16.5 7.5,10.5C 45.8333,10.5 84.1667,10.5 122.5,10.5 Z"/></g>
<g><path style="opacity:1" fill="#868686" d="M 122.5,9.5 C 123.49,15.6446 123.823,21.9779 123.5,28.5C 129.833,28.5 136.167,28.5 142.5,28.5C 142.829,41.6774 142.495,54.6774 141.5,67.5C 141.5,54.8333 141.5,42.1667 141.5,29.5C 135.167,29.5 128.833,29.5 122.5,29.5C 122.5,23.1667 122.5,16.8333 122.5,10.5C 122.5,10.1667 122.5,9.83333 122.5,9.5 Z"/></g>
<g><path style="opacity:1" fill="#8e8e8e" d="M 7.5,29.5 C 13.5,29.5 19.5,29.5 25.5,29.5C 26.4982,61.329 26.8316,93.329 26.5,125.5C 20.1667,125.5 13.8333,125.5 7.5,125.5C 13.31,124.51 19.31,124.177 25.5,124.5C 25.5,93.1667 25.5,61.8333 25.5,30.5C 19.31,30.8229 13.31,30.4896 7.5,29.5 Z"/></g>
<g><path style="opacity:1" fill="#8c8c8c" d="M 65.5,29.5 C 65.5,41.8333 65.5,54.1667 65.5,66.5C 77.8333,66.5 90.1667,66.5 102.5,66.5C 102.5,54.1667 102.5,41.8333 102.5,29.5C 103.495,41.989 103.829,54.6557 103.5,67.5C 90.5,67.5 77.5,67.5 64.5,67.5C 64.1713,54.6557 64.5046,41.989 65.5,29.5 Z"/></g>
<g><path style="opacity:1" fill="#fcfcfc" d="M 65.5,29.5 C 77.8333,29.5 90.1667,29.5 102.5,29.5C 102.5,41.8333 102.5,54.1667 102.5,66.5C 90.1667,66.5 77.8333,66.5 65.5,66.5C 65.5,54.1667 65.5,41.8333 65.5,29.5 Z"/></g>
<g><path style="opacity:1" fill="#969696" d="M 141.5,67.5 C 135.69,68.4896 129.69,68.8229 123.5,68.5C 123.823,74.69 123.49,80.69 122.5,86.5C 122.5,80.1667 122.5,73.8333 122.5,67.5C 128.833,67.5 135.167,67.5 141.5,67.5 Z"/></g>
<g><path style="opacity:1" fill="#787878" d="M 65.5,124.5 C 71.8333,124.5 78.1667,124.5 84.5,124.5C 84.5,131.5 84.5,138.5 84.5,145.5C 58.6612,145.831 32.9946,145.498 7.5,144.5C 32.8333,144.5 58.1667,144.5 83.5,144.5C 83.5,138.167 83.5,131.833 83.5,125.5C 77.31,125.823 71.31,125.49 65.5,124.5 Z"/></g>
</svg>
