<?xml version="1.0" encoding="UTF-8"?>
<!DOCTYPE svg PUBLIC "-//W3C//DTD SVG 1.1//EN" "http://www.w3.org/Graphics/SVG/1.1/DTD/svg11.dtd">
<svg xmlns="http://www.w3.org/2000/svg" version="1.1" width="156px" height="156px" style="shape-rendering:geometricPrecision; text-rendering:geometricPrecision; image-rendering:optimizeQuality; fill-rule:evenodd; clip-rule:evenodd" xmlns:xlink="http://www.w3.org/1999/xlink">
<g><path style="opacity:1" fill="#fdfdfd" d="M -0.5,-0.5 C 51.5,-0.5 103.5,-0.5 155.5,-0.5C 155.5,51.5 155.5,103.5 155.5,155.5C 103.5,155.5 51.5,155.5 -0.5,155.5C -0.5,103.5 -0.5,51.5 -0.5,-0.5 Z"/></g>
<g><path style="opacity:1" fill="#525252" d="M 46.5,11.5 C 46.5,11.1667 46.5,10.8333 46.5,10.5C 65.8333,10.5 85.1667,10.5 104.5,10.5C 104.5,16.8333 104.5,23.1667 104.5,29.5C 103.51,23.69 103.177,17.69 103.5,11.5C 84.5,11.5 65.5,11.5 46.5,11.5 Z"/></g>
<g><path style="opacity:1" fill="#010101" d="M 46.5,11.5 C 65.5,11.5 84.5,11.5 103.5,11.5C 103.177,17.69 103.51,23.69 104.5,29.5C 110.645,30.4902 116.978,30.8235 123.5,30.5C 123.5,36.8333 123.5,43.1667 123.5,49.5C 129.833,49.5 136.167,49.5 142.5,49.5C 142.5,68.5 142.5,87.5 142.5,106.5C 136.167,106.5 129.833,106.5 123.5,106.5C 123.823,100.31 123.49,94.31 122.5,88.5C 116.69,87.5104 110.69,87.1771 104.5,87.5C 104.829,74.6557 104.495,61.989 103.5,49.5C 97.69,48.5104 91.69,48.1771 85.5,48.5C 85.8229,42.31 85.4896,36.31 84.5,30.5C 78.5,30.5 72.5,30.5 66.5,30.5C 65.5098,36.6446 65.1765,42.9779 65.5,49.5C 59.1667,49.5 52.8333,49.5 46.5,49.5C 46.5,75.1667 46.5,100.833 46.5,126.5C 59.1667,126.5 71.8333,126.5 84.5,126.5C 84.5,132.833 84.5,139.167 84.5,145.5C 65.5,145.5 46.5,145.5 27.5,145.5C 27.8235,138.978 27.4902,132.645 26.5,126.5C 20.69,125.51 14.69,125.177 8.5,125.5C 8.5,100.167 8.5,74.8333 8.5,49.5C 14.8333,49.5 21.1667,49.5 27.5,49.5C 27.5,43.1667 27.5,36.8333 27.5,30.5C 33.8333,30.5 40.1667,30.5 46.5,30.5C 46.5,24.1667 46.5,17.8333 46.5,11.5 Z"/></g>
<g><path style="opacity:1" fill="#838383" d="M 46.5,10.5 C 46.5,10.8333 46.5,11.1667 46.5,11.5C 46.5,17.8333 46.5,24.1667 46.5,30.5C 40.1667,30.5 33.8333,30.5 27.5,30.5C 33.31,29.5104 39.31,29.1771 45.5,29.5C 45.1765,22.9779 45.5098,16.6446 46.5,10.5 Z"/></g>
<g><path style="opacity:1" fill="#fdfdfd" d="M 66.5,31.5 C 72.1667,31.5 77.8333,31.5 83.5,31.5C 83.1771,37.69 83.5104,43.69 84.5,49.5C 90.6446,50.4902 96.9779,50.8235 103.5,50.5C 103.5,62.8333 103.5,75.1667 103.5,87.5C 90.8333,87.5 78.1667,87.5 65.5,87.5C 65.5,94.1667 65.5,100.833 65.5,107.5C 71.31,108.49 77.31,108.823 83.5,108.5C 83.5,114.167 83.5,119.833 83.5,125.5C 71.5,125.5 59.5,125.5 47.5,125.5C 47.5,100.5 47.5,75.5 47.5,50.5C 53.8333,50.5 60.1667,50.5 66.5,50.5C 66.5,44.1667 66.5,37.8333 66.5,31.5 Z"/></g>
<g><path style="opacity:1" fill="#d1d1d1" d="M 66.5,31.5 C 66.5,31.1667 66.5,30.8333 66.5,30.5C 72.5,30.5 78.5,30.5 84.5,30.5C 84.5,36.8333 84.5,43.1667 84.5,49.5C 83.5104,43.69 83.1771,37.69 83.5,31.5C 77.8333,31.5 72.1667,31.5 66.5,31.5 Z"/></g>
<g><path style="opacity:1" fill="#8c8c8c" d="M 27.5,30.5 C 27.5,36.8333 27.5,43.1667 27.5,49.5C 21.1667,49.5 14.8333,49.5 8.5,49.5C 14.31,48.5104 20.31,48.1771 26.5,48.5C 26.1771,42.31 26.5104,36.31 27.5,30.5 Z"/></g>
<g><path style="opacity:1" fill="#363636" d="M 84.5,30.5 C 85.4896,36.31 85.8229,42.31 85.5,48.5C 91.69,48.1771 97.69,48.5104 103.5,49.5C 97.1667,49.5 90.8333,49.5 84.5,49.5C 84.5,43.1667 84.5,36.8333 84.5,30.5 Z"/></g>
<g><path style="opacity:1" fill="#8a8a8a" d="M 104.5,29.5 C 111.167,29.5 117.833,29.5 124.5,29.5C 124.5,35.8333 124.5,42.1667 124.5,48.5C 130.69,48.1771 136.69,48.5104 142.5,49.5C 136.167,49.5 129.833,49.5 123.5,49.5C 123.5,43.1667 123.5,36.8333 123.5,30.5C 116.978,30.8235 110.645,30.4902 104.5,29.5 Z"/></g>
<g><path style="opacity:1" fill="#818181" d="M 84.5,49.5 C 90.8333,49.5 97.1667,49.5 103.5,49.5C 104.495,61.989 104.829,74.6557 104.5,87.5C 104.167,87.5 103.833,87.5 103.5,87.5C 103.5,75.1667 103.5,62.8333 103.5,50.5C 96.9779,50.8235 90.6446,50.4902 84.5,49.5 Z"/></g>
<g><path style="opacity:1" fill="#494949" d="M 103.5,87.5 C 103.833,87.5 104.167,87.5 104.5,87.5C 110.69,87.1771 116.69,87.5104 122.5,88.5C 116.5,88.5 110.5,88.5 104.5,88.5C 104.5,94.5 104.5,100.5 104.5,106.5C 103.51,100.69 103.177,94.69 103.5,88.5C 91.1667,88.5 78.8333,88.5 66.5,88.5C 66.5,94.5 66.5,100.5 66.5,106.5C 72.69,106.177 78.69,106.51 84.5,107.5C 78.1667,107.5 71.8333,107.5 65.5,107.5C 65.5,100.833 65.5,94.1667 65.5,87.5C 78.1667,87.5 90.8333,87.5 103.5,87.5 Z"/></g>
<g><path style="opacity:1" fill="#010101" d="M 104.5,106.5 C 110.645,107.49 116.978,107.823 123.5,107.5C 123.5,113.833 123.5,120.167 123.5,126.5C 129.833,126.5 136.167,126.5 142.5,126.5C 142.5,132.833 142.5,139.167 142.5,145.5C 129.833,145.5 117.167,145.5 104.5,145.5C 104.823,138.978 104.49,132.645 103.5,126.5C 97.69,125.51 91.69,125.177 85.5,125.5C 85.8229,119.31 85.4896,113.31 84.5,107.5C 78.69,106.51 72.69,106.177 66.5,106.5C 66.5,100.5 66.5,94.5 66.5,88.5C 78.8333,88.5 91.1667,88.5 103.5,88.5C 103.177,94.69 103.51,100.69 104.5,106.5 Z"/></g>
<g><path style="opacity:1" fill="#858585" d="M 66.5,30.5 C 66.5,30.8333 66.5,31.1667 66.5,31.5C 66.5,37.8333 66.5,44.1667 66.5,50.5C 60.1667,50.5 53.8333,50.5 47.5,50.5C 47.5,75.5 47.5,100.5 47.5,125.5C 59.5,125.5 71.5,125.5 83.5,125.5C 83.8333,125.5 84.1667,125.5 84.5,125.5C 84.5,125.833 84.5,126.167 84.5,126.5C 71.8333,126.5 59.1667,126.5 46.5,126.5C 46.5,100.833 46.5,75.1667 46.5,49.5C 52.8333,49.5 59.1667,49.5 65.5,49.5C 65.1765,42.9779 65.5098,36.6446 66.5,30.5 Z"/></g>
<g><path style="opacity:1" fill="#f8f8f8" d="M 122.5,88.5 C 122.5,94.5 122.5,100.5 122.5,106.5C 116.5,106.5 110.5,106.5 104.5,106.5C 104.5,100.5 104.5,94.5 104.5,88.5C 110.5,88.5 116.5,88.5 122.5,88.5 Z"/></g>
<g><path style="opacity:1" fill="#6b6b6b" d="M 142.5,49.5 C 143.497,68.6595 143.83,87.9928 143.5,107.5C 137.167,107.5 130.833,107.5 124.5,107.5C 124.167,107.5 123.833,107.5 123.5,107.5C 116.978,107.823 110.645,107.49 104.5,106.5C 110.5,106.5 116.5,106.5 122.5,106.5C 122.5,100.5 122.5,94.5 122.5,88.5C 123.49,94.31 123.823,100.31 123.5,106.5C 129.833,106.5 136.167,106.5 142.5,106.5C 142.5,87.5 142.5,68.5 142.5,49.5 Z"/></g>
<g><path style="opacity:1" fill="#d7d7d7" d="M 65.5,107.5 C 71.8333,107.5 78.1667,107.5 84.5,107.5C 84.5,113.5 84.5,119.5 84.5,125.5C 84.1667,125.5 83.8333,125.5 83.5,125.5C 83.5,119.833 83.5,114.167 83.5,108.5C 77.31,108.823 71.31,108.49 65.5,107.5 Z"/></g>
<g><path style="opacity:1" fill="#505050" d="M 8.5,49.5 C 8.5,74.8333 8.5,100.167 8.5,125.5C 14.69,125.177 20.69,125.51 26.5,126.5C 20.5,126.5 14.5,126.5 8.5,126.5C 7.16667,100.833 7.16667,75.1667 8.5,49.5 Z"/></g>
<g><path style="opacity:1" fill="#606060" d="M 84.5,107.5 C 85.4896,113.31 85.8229,119.31 85.5,125.5C 91.69,125.177 97.69,125.51 103.5,126.5C 97.5,126.5 91.5,126.5 85.5,126.5C 85.5,132.833 85.5,139.167 85.5,145.5C 66.1667,146.833 46.8333,146.833 27.5,145.5C 46.5,145.5 65.5,145.5 84.5,145.5C 84.5,139.167 84.5,132.833 84.5,126.5C 84.5,126.167 84.5,125.833 84.5,125.5C 84.5,119.5 84.5,113.5 84.5,107.5 Z"/></g>
<g><path style="opacity:1" fill="#868686" d="M 123.5,107.5 C 123.833,107.5 124.167,107.5 124.5,107.5C 124.5,113.5 124.5,119.5 124.5,125.5C 130.69,125.177 136.69,125.51 142.5,126.5C 136.167,126.5 129.833,126.5 123.5,126.5C 123.5,120.167 123.5,113.833 123.5,107.5 Z"/></g>
<g><path style="opacity:1" fill="#989898" d="M 8.5,126.5 C 14.5,126.5 20.5,126.5 26.5,126.5C 27.4902,132.645 27.8235,138.978 27.5,145.5C 26.5104,139.69 26.1771,133.69 26.5,127.5C 20.31,127.823 14.31,127.49 8.5,126.5 Z"/></g>
<g><path style="opacity:1" fill="#b4b4b4" d="M 103.5,126.5 C 104.49,132.645 104.823,138.978 104.5,145.5C 103.51,139.69 103.177,133.69 103.5,127.5C 97.8333,127.5 92.1667,127.5 86.5,127.5C 86.8229,133.69 86.4896,139.69 85.5,145.5C 85.5,139.167 85.5,132.833 85.5,126.5C 91.5,126.5 97.5,126.5 103.5,126.5 Z"/></g>
</svg>
