<?xml version="1.0" encoding="UTF-8"?>
<!DOCTYPE svg PUBLIC "-//W3C//DTD SVG 1.1//EN" "http://www.w3.org/Graphics/SVG/1.1/DTD/svg11.dtd">
<svg xmlns="http://www.w3.org/2000/svg" version="1.1" width="156px" height="156px" style="shape-rendering:geometricPrecision; text-rendering:geometricPrecision; image-rendering:optimizeQuality; fill-rule:evenodd; clip-rule:evenodd" xmlns:xlink="http://www.w3.org/1999/xlink">
<g><path style="opacity:1" fill="#fdfdfd" d="M -0.5,-0.5 C 51.5,-0.5 103.5,-0.5 155.5,-0.5C 155.5,51.5 155.5,103.5 155.5,155.5C 103.5,155.5 51.5,155.5 -0.5,155.5C -0.5,103.5 -0.5,51.5 -0.5,-0.5 Z"/></g>
<g><path style="opacity:1" fill="#d7d7d7" d="M 121.5,10.5 C 82.9964,10.1681 44.663,10.5015 6.5,11.5C 6.16667,11.5 5.83333,11.5 5.5,11.5C 24.4883,10.167 43.8216,9.50036 63.5,9.5C 83.0029,9.50004 102.336,9.83338 121.5,10.5 Z"/></g>
<g><path style="opacity:1" fill="#010101" d="M 6.5,11.5 C 44.8333,11.5 83.1667,11.5 121.5,11.5C 121.5,17.8333 121.5,24.1667 121.5,30.5C 127.833,30.5 134.167,30.5 140.5,30.5C 140.5,43.1667 140.5,55.8333 140.5,68.5C 134.167,68.5 127.833,68.5 121.5,68.5C 121.5,81.1667 121.5,93.8333 121.5,106.5C 127.645,107.49 133.978,107.823 140.5,107.5C 140.5,120.167 140.5,132.833 140.5,145.5C 127.833,145.5 115.167,145.5 102.5,145.5C 102.829,132.656 102.495,119.989 101.5,107.5C 95.69,106.51 89.69,106.177 83.5,106.5C 83.8229,100.31 83.4896,94.31 82.5,88.5C 76.5,88.5 70.5,88.5 64.5,88.5C 63.503,107.326 63.1697,126.326 63.5,145.5C 44.5,145.5 25.5,145.5 6.5,145.5C 6.5,139.167 6.5,132.833 6.5,126.5C 12.8333,126.5 19.1667,126.5 25.5,126.5C 25.8316,94.329 25.4982,62.329 24.5,30.5C 18.69,29.5104 12.69,29.1771 6.5,29.5C 6.5,23.5 6.5,17.5 6.5,11.5 Z"/></g>
<g><path style="opacity:1" fill="#7c7c7c" d="M 6.5,11.5 C 44.663,10.5015 82.9964,10.1681 121.5,10.5C 122.49,16.6446 122.823,22.9779 122.5,29.5C 128.69,29.1771 134.69,29.5104 140.5,30.5C 134.167,30.5 127.833,30.5 121.5,30.5C 121.5,24.1667 121.5,17.8333 121.5,11.5C 83.1667,11.5 44.8333,11.5 6.5,11.5 Z"/></g>
<g><path style="opacity:1" fill="#505050" d="M 5.5,11.5 C 5.83333,11.5 6.16667,11.5 6.5,11.5C 6.5,17.5 6.5,23.5 6.5,29.5C 12.69,29.1771 18.69,29.5104 24.5,30.5C 18.5,30.5 12.5,30.5 6.5,30.5C 5.50984,24.3554 5.1765,18.0221 5.5,11.5 Z"/></g>
<g><path style="opacity:1" fill="#8c8c8c" d="M 64.5,30.5 C 64.5,42.8333 64.5,55.1667 64.5,67.5C 76.8333,67.5 89.1667,67.5 101.5,67.5C 101.5,55.1667 101.5,42.8333 101.5,30.5C 102.495,42.989 102.829,55.6557 102.5,68.5C 89.5,68.5 76.5,68.5 63.5,68.5C 63.1713,55.6557 63.5046,42.989 64.5,30.5 Z"/></g>
<g><path style="opacity:1" fill="#fcfcfc" d="M 64.5,30.5 C 76.8333,30.5 89.1667,30.5 101.5,30.5C 101.5,42.8333 101.5,55.1667 101.5,67.5C 89.1667,67.5 76.8333,67.5 64.5,67.5C 64.5,55.1667 64.5,42.8333 64.5,30.5 Z"/></g>
<g><path style="opacity:1" fill="#979797" d="M 140.5,68.5 C 134.69,69.4896 128.69,69.8229 122.5,69.5C 122.5,81.8333 122.5,94.1667 122.5,106.5C 122.167,106.5 121.833,106.5 121.5,106.5C 121.5,93.8333 121.5,81.1667 121.5,68.5C 127.833,68.5 134.167,68.5 140.5,68.5 Z"/></g>
<g><path style="opacity:1" fill="#8c8c8c" d="M 6.5,30.5 C 12.5,30.5 18.5,30.5 24.5,30.5C 25.4982,62.329 25.8316,94.329 25.5,126.5C 19.1667,126.5 12.8333,126.5 6.5,126.5C 6.5,132.833 6.5,139.167 6.5,145.5C 6.16667,145.5 5.83333,145.5 5.5,145.5C 5.5,138.833 5.5,132.167 5.5,125.5C 11.8333,125.5 18.1667,125.5 24.5,125.5C 24.5,94.1667 24.5,62.8333 24.5,31.5C 18.31,31.8229 12.31,31.4896 6.5,30.5 Z"/></g>
<g><path style="opacity:1" fill="#555555" d="M 82.5,88.5 C 83.4896,94.31 83.8229,100.31 83.5,106.5C 89.69,106.177 95.69,106.51 101.5,107.5C 95.1667,107.5 88.8333,107.5 82.5,107.5C 82.5,101.167 82.5,94.8333 82.5,88.5 Z"/></g>
<g><path style="opacity:1" fill="#7a7a7a" d="M 121.5,106.5 C 121.833,106.5 122.167,106.5 122.5,106.5C 128.833,106.5 135.167,106.5 141.5,106.5C 141.829,119.677 141.495,132.677 140.5,145.5C 140.5,132.833 140.5,120.167 140.5,107.5C 133.978,107.823 127.645,107.49 121.5,106.5 Z"/></g>
<g><path style="opacity:1" fill="#8b8b8b" d="M 64.5,88.5 C 64.5,107.833 64.5,127.167 64.5,146.5C 44.6596,146.83 24.9929,146.497 5.5,145.5C 5.83333,145.5 6.16667,145.5 6.5,145.5C 25.5,145.5 44.5,145.5 63.5,145.5C 63.1697,126.326 63.503,107.326 64.5,88.5 Z"/></g>
</svg>
