<?xml version="1.0" encoding="UTF-8"?>
<!DOCTYPE svg PUBLIC "-//W3C//DTD SVG 1.1//EN" "http://www.w3.org/Graphics/SVG/1.1/DTD/svg11.dtd">
<svg xmlns="http://www.w3.org/2000/svg" version="1.1" width="156px" height="156px" style="shape-rendering:geometricPrecision; text-rendering:geometricPrecision; image-rendering:optimizeQuality; fill-rule:evenodd; clip-rule:evenodd" xmlns:xlink="http://www.w3.org/1999/xlink">
<g><path style="opacity:1" fill="#fdfdfd" d="M -0.5,-0.5 C 51.5,-0.5 103.5,-0.5 155.5,-0.5C 155.5,51.5 155.5,103.5 155.5,155.5C 103.5,155.5 51.5,155.5 -0.5,155.5C -0.5,103.5 -0.5,51.5 -0.5,-0.5 Z"/></g>
<g><path style="opacity:1" fill="#020202" d="M 41.5,11.5 C 66.8333,11.5 92.1667,11.5 117.5,11.5C 117.177,17.69 117.51,23.69 118.5,29.5C 124.31,30.4896 130.31,30.8229 136.5,30.5C 136.5,36.5 136.5,42.5 136.5,48.5C 130.642,48.1778 124.975,48.5111 119.5,49.5C 112.833,49.5 106.167,49.5 99.5,49.5C 99.5,43.1667 99.5,36.8333 99.5,30.5C 86.5,30.5 73.5,30.5 60.5,30.5C 60.1713,43.3443 60.5046,56.011 61.5,68.5C 79.9925,69.4969 98.6592,69.8302 117.5,69.5C 117.178,75.358 117.511,81.0247 118.5,86.5C 124.645,87.4902 130.978,87.8235 137.5,87.5C 137.5,100.5 137.5,113.5 137.5,126.5C 131.167,126.5 124.833,126.5 118.5,126.5C 118.5,132.833 118.5,139.167 118.5,145.5C 92.8333,145.5 67.1667,145.5 41.5,145.5C 41.8235,138.978 41.4902,132.645 40.5,126.5C 34.69,125.51 28.69,125.177 22.5,125.5C 22.5,119.5 22.5,113.5 22.5,107.5C 35.1667,107.5 47.8333,107.5 60.5,107.5C 60.5,113.833 60.5,120.167 60.5,126.5C 73.3443,126.829 86.011,126.495 98.5,125.5C 98.5,113.167 98.5,100.833 98.5,88.5C 79.674,87.503 60.674,87.1697 41.5,87.5C 41.5,81.1667 41.5,74.8333 41.5,68.5C 35.1667,68.5 28.8333,68.5 22.5,68.5C 22.5,55.8333 22.5,43.1667 22.5,30.5C 28.8333,30.5 35.1667,30.5 41.5,30.5C 41.5,24.1667 41.5,17.8333 41.5,11.5 Z"/></g>
<g><path style="opacity:1" fill="#454545" d="M 41.5,11.5 C 41.5,11.1667 41.5,10.8333 41.5,10.5C 67.1667,10.5 92.8333,10.5 118.5,10.5C 118.5,16.8333 118.5,23.1667 118.5,29.5C 117.51,23.69 117.177,17.69 117.5,11.5C 92.1667,11.5 66.8333,11.5 41.5,11.5 Z"/></g>
<g><path style="opacity:1" fill="#7a7a7a" d="M 41.5,10.5 C 41.5,10.8333 41.5,11.1667 41.5,11.5C 41.5,17.8333 41.5,24.1667 41.5,30.5C 35.1667,30.5 28.8333,30.5 22.5,30.5C 28.31,29.5104 34.31,29.1771 40.5,29.5C 40.1765,22.9779 40.5098,16.6446 41.5,10.5 Z"/></g>
<g><path style="opacity:1" fill="#979797" d="M 119.5,49.5 C 125.5,49.5 131.5,49.5 137.5,49.5C 124.677,50.4955 111.677,50.8288 98.5,50.5C 98.5,44.1667 98.5,37.8333 98.5,31.5C 86.1667,31.5 73.8333,31.5 61.5,31.5C 61.5,43.5 61.5,55.5 61.5,67.5C 80.674,67.1697 99.674,67.503 118.5,68.5C 99.5,68.5 80.5,68.5 61.5,68.5C 60.5046,56.011 60.1713,43.3443 60.5,30.5C 73.5,30.5 86.5,30.5 99.5,30.5C 99.5,36.8333 99.5,43.1667 99.5,49.5C 106.167,49.5 112.833,49.5 119.5,49.5 Z"/></g>
<g><path style="opacity:1" fill="#8f8f8f" d="M 118.5,29.5 C 125.167,29.5 131.833,29.5 138.5,29.5C 138.824,36.3543 138.491,43.021 137.5,49.5C 137.823,42.9779 137.49,36.6446 136.5,30.5C 130.31,30.8229 124.31,30.4896 118.5,29.5 Z"/></g>
<g><path style="opacity:1" fill="#222222" d="M 136.5,30.5 C 137.49,36.6446 137.823,42.9779 137.5,49.5C 131.5,49.5 125.5,49.5 119.5,49.5C 124.975,48.5111 130.642,48.1778 136.5,48.5C 136.5,42.5 136.5,36.5 136.5,30.5 Z"/></g>
<g><path style="opacity:1" fill="#2b2b2b" d="M 61.5,68.5 C 80.5,68.5 99.5,68.5 118.5,68.5C 118.5,74.5 118.5,80.5 118.5,86.5C 117.511,81.0247 117.178,75.358 117.5,69.5C 98.6592,69.8302 79.9925,69.4969 61.5,68.5 Z"/></g>
<g><path style="opacity:1" fill="#7d7d7d" d="M 22.5,30.5 C 22.5,43.1667 22.5,55.8333 22.5,68.5C 28.8333,68.5 35.1667,68.5 41.5,68.5C 41.5,74.8333 41.5,81.1667 41.5,87.5C 60.674,87.1697 79.674,87.503 98.5,88.5C 79.5,88.5 60.5,88.5 41.5,88.5C 40.5098,82.3554 40.1765,76.0221 40.5,69.5C 34.1667,69.5 27.8333,69.5 21.5,69.5C 21.1712,56.3226 21.5045,43.3226 22.5,30.5 Z"/></g>
<g><path style="opacity:1" fill="#bfbfbf" d="M 118.5,68.5 C 119.49,74.31 119.823,80.31 119.5,86.5C 125.69,86.1771 131.69,86.5104 137.5,87.5C 130.978,87.8235 124.645,87.4902 118.5,86.5C 118.5,80.5 118.5,74.5 118.5,68.5 Z"/></g>
<g><path style="opacity:1" fill="#5d5d5d" d="M 60.5,106.5 C 60.5,106.833 60.5,107.167 60.5,107.5C 47.8333,107.5 35.1667,107.5 22.5,107.5C 22.5,113.5 22.5,119.5 22.5,125.5C 28.69,125.177 34.69,125.51 40.5,126.5C 34.1667,126.5 27.8333,126.5 21.5,126.5C 21.5,119.833 21.5,113.167 21.5,106.5C 34.5,106.5 47.5,106.5 60.5,106.5 Z"/></g>
<g><path style="opacity:1" fill="#e3e3e3" d="M 41.5,88.5 C 60.5,88.5 79.5,88.5 98.5,88.5C 98.5,100.833 98.5,113.167 98.5,125.5C 98.1667,125.5 97.8333,125.5 97.5,125.5C 97.5,113.5 97.5,101.5 97.5,89.5C 78.6592,89.8302 59.9925,89.4969 41.5,88.5 Z"/></g>
<g><path style="opacity:1" fill="#7f7f7f" d="M 60.5,106.5 C 61.4902,112.645 61.8235,118.978 61.5,125.5C 73.5,125.5 85.5,125.5 97.5,125.5C 97.8333,125.5 98.1667,125.5 98.5,125.5C 86.011,126.495 73.3443,126.829 60.5,126.5C 60.5,120.167 60.5,113.833 60.5,107.5C 60.5,107.167 60.5,106.833 60.5,106.5 Z"/></g>
<g><path style="opacity:1" fill="#9a9a9a" d="M 21.5,126.5 C 27.8333,126.5 34.1667,126.5 40.5,126.5C 41.4902,132.645 41.8235,138.978 41.5,145.5C 40.5104,139.69 40.1771,133.69 40.5,127.5C 33.9779,127.823 27.6446,127.49 21.5,126.5 Z"/></g>
<g><path style="opacity:1" fill="#b6b6b6" d="M 137.5,126.5 C 131.69,127.49 125.69,127.823 119.5,127.5C 119.823,133.69 119.49,139.69 118.5,145.5C 118.5,139.167 118.5,132.833 118.5,126.5C 124.833,126.5 131.167,126.5 137.5,126.5 Z"/></g>
</svg>
