<?xml version="1.0" encoding="UTF-8"?>
<!DOCTYPE svg PUBLIC "-//W3C//DTD SVG 1.1//EN" "http://www.w3.org/Graphics/SVG/1.1/DTD/svg11.dtd">
<svg xmlns="http://www.w3.org/2000/svg" version="1.1" width="155px" height="155px" style="shape-rendering:geometricPrecision; text-rendering:geometricPrecision; image-rendering:optimizeQuality; fill-rule:evenodd; clip-rule:evenodd" xmlns:xlink="http://www.w3.org/1999/xlink">
<g><path style="opacity:1" fill="#fefefe" d="M -0.5,-0.5 C 51.1667,-0.5 102.833,-0.5 154.5,-0.5C 154.5,51.1667 154.5,102.833 154.5,154.5C 102.833,154.5 51.1667,154.5 -0.5,154.5C -0.5,102.833 -0.5,51.1667 -0.5,-0.5 Z"/></g>
<g><path style="opacity:1" fill="#d7d7d7" d="M 138.5,11.5 C 99.9964,11.1681 61.663,11.5015 23.5,12.5C 23.1667,12.5 22.8333,12.5 22.5,12.5C 41.4883,11.167 60.8216,10.5004 80.5,10.5C 100.003,10.5 119.336,10.8334 138.5,11.5 Z"/></g>
<g><path style="opacity:1" fill="#030303" d="M 23.5,12.5 C 61.8333,12.5 100.167,12.5 138.5,12.5C 138.5,19.1667 138.5,25.8333 138.5,32.5C 137.511,37.9753 137.178,43.642 137.5,49.5C 131.5,49.5 125.5,49.5 119.5,49.5C 119.823,43.31 119.49,37.31 118.5,31.5C 112.5,31.5 106.5,31.5 100.5,31.5C 100.5,63.1667 100.5,94.8333 100.5,126.5C 106.31,127.49 112.31,127.823 118.5,127.5C 118.5,133.833 118.5,140.167 118.5,146.5C 93.1667,146.5 67.8333,146.5 42.5,146.5C 42.5,140.167 42.5,133.833 42.5,127.5C 48.8333,127.5 55.1667,127.5 61.5,127.5C 61.5,95.5 61.5,63.5 61.5,31.5C 54.9779,31.1765 48.6446,31.5098 42.5,32.5C 41.5111,37.9753 41.1778,43.642 41.5,49.5C 35.5,49.5 29.5,49.5 23.5,49.5C 23.5,37.1667 23.5,24.8333 23.5,12.5 Z"/></g>
<g><path style="opacity:1" fill="#7e7e7e" d="M 23.5,12.5 C 61.663,11.5015 99.9964,11.1681 138.5,11.5C 139.833,24.5 139.833,37.5 138.5,50.5C 138.5,44.5 138.5,38.5 138.5,32.5C 138.5,25.8333 138.5,19.1667 138.5,12.5C 100.167,12.5 61.8333,12.5 23.5,12.5 Z"/></g>
<g><path style="opacity:1" fill="#242424" d="M 42.5,32.5 C 42.5,38.5 42.5,44.5 42.5,50.5C 35.9779,50.8235 29.6446,50.4902 23.5,49.5C 29.5,49.5 35.5,49.5 41.5,49.5C 41.1778,43.642 41.5111,37.9753 42.5,32.5 Z"/></g>
<g><path style="opacity:1" fill="#222222" d="M 138.5,32.5 C 138.5,38.5 138.5,44.5 138.5,50.5C 131.978,50.8235 125.645,50.4902 119.5,49.5C 125.5,49.5 131.5,49.5 137.5,49.5C 137.178,43.642 137.511,37.9753 138.5,32.5 Z"/></g>
<g><path style="opacity:1" fill="#919191" d="M 22.5,12.5 C 22.8333,12.5 23.1667,12.5 23.5,12.5C 23.5,24.8333 23.5,37.1667 23.5,49.5C 29.6446,50.4902 35.9779,50.8235 42.5,50.5C 36.021,51.4907 29.3543,51.824 22.5,51.5C 22.5,38.5 22.5,25.5 22.5,12.5 Z"/></g>
<g><path style="opacity:1" fill="#969696" d="M 118.5,31.5 C 119.49,37.31 119.823,43.31 119.5,49.5C 125.645,50.4902 131.978,50.8235 138.5,50.5C 132.021,51.4907 125.354,51.824 118.5,51.5C 118.5,45.1667 118.5,38.8333 118.5,32.5C 118.5,32.1667 118.5,31.8333 118.5,31.5 Z"/></g>
<g><path style="opacity:1" fill="#a3a3a3" d="M 42.5,127.5 C 48.31,126.51 54.31,126.177 60.5,126.5C 60.5,95.1667 60.5,63.8333 60.5,32.5C 54.8333,32.5 49.1667,32.5 43.5,32.5C 43.8229,38.69 43.4896,44.69 42.5,50.5C 42.5,44.5 42.5,38.5 42.5,32.5C 48.6446,31.5098 54.9779,31.1765 61.5,31.5C 61.5,63.5 61.5,95.5 61.5,127.5C 55.1667,127.5 48.8333,127.5 42.5,127.5 Z"/></g>
<g><path style="opacity:1" fill="#cfcfcf" d="M 118.5,31.5 C 118.5,31.8333 118.5,32.1667 118.5,32.5C 112.833,32.5 107.167,32.5 101.5,32.5C 101.5,63.8333 101.5,95.1667 101.5,126.5C 101.167,126.5 100.833,126.5 100.5,126.5C 100.5,94.8333 100.5,63.1667 100.5,31.5C 106.5,31.5 112.5,31.5 118.5,31.5 Z"/></g>
<g><path style="opacity:1" fill="#6b6b6b" d="M 100.5,126.5 C 100.833,126.5 101.167,126.5 101.5,126.5C 107.5,126.5 113.5,126.5 119.5,126.5C 119.5,133.5 119.5,140.5 119.5,147.5C 93.6612,147.831 67.9946,147.498 42.5,146.5C 67.8333,146.5 93.1667,146.5 118.5,146.5C 118.5,140.167 118.5,133.833 118.5,127.5C 112.31,127.823 106.31,127.49 100.5,126.5 Z"/></g>
</svg>
