<?xml version="1.0" encoding="UTF-8"?>
<!DOCTYPE svg PUBLIC "-//W3C//DTD SVG 1.1//EN" "http://www.w3.org/Graphics/SVG/1.1/DTD/svg11.dtd">
<svg xmlns="http://www.w3.org/2000/svg" version="1.1" width="155px" height="155px" style="shape-rendering:geometricPrecision; text-rendering:geometricPrecision; image-rendering:optimizeQuality; fill-rule:evenodd; clip-rule:evenodd" xmlns:xlink="http://www.w3.org/1999/xlink">
<g><path style="opacity:1" fill="#fefefe" d="M -0.5,-0.5 C 51.1667,-0.5 102.833,-0.5 154.5,-0.5C 154.5,51.1667 154.5,102.833 154.5,154.5C 102.833,154.5 51.1667,154.5 -0.5,154.5C -0.5,102.833 -0.5,51.1667 -0.5,-0.5 Z"/></g>
<g><path style="opacity:1" fill="#6e6e6e" d="M 59.5,11.5 C 59.5,11.8333 59.5,12.1667 59.5,12.5C 46.8333,12.5 34.1667,12.5 21.5,12.5C 21.5,50.8333 21.5,89.1667 21.5,127.5C 20.5015,89.0036 20.1681,50.3369 20.5,11.5C 33.5,11.5 46.5,11.5 59.5,11.5 Z"/></g>
<g><path style="opacity:1" fill="#020202" d="M 59.5,12.5 C 59.5,50.8333 59.5,89.1667 59.5,127.5C 72.3443,127.829 85.011,127.495 97.5,126.5C 97.1682,88.3297 97.5015,50.3297 98.5,12.5C 111.167,12.5 123.833,12.5 136.5,12.5C 136.5,50.8333 136.5,89.1667 136.5,127.5C 130.167,127.5 123.833,127.5 117.5,127.5C 117.5,133.833 117.5,140.167 117.5,146.5C 91.8333,146.5 66.1667,146.5 40.5,146.5C 40.5,140.167 40.5,133.833 40.5,127.5C 34.1667,127.5 27.8333,127.5 21.5,127.5C 21.5,89.1667 21.5,50.8333 21.5,12.5C 34.1667,12.5 46.8333,12.5 59.5,12.5 Z"/></g>
<g><path style="opacity:1" fill="#858585" d="M 59.5,11.5 C 60.4985,49.663 60.8319,87.9964 60.5,126.5C 72.5,126.5 84.5,126.5 96.5,126.5C 96.8333,126.5 97.1667,126.5 97.5,126.5C 85.011,127.495 72.3443,127.829 59.5,127.5C 59.5,89.1667 59.5,50.8333 59.5,12.5C 59.5,12.1667 59.5,11.8333 59.5,11.5 Z"/></g>
<g><path style="opacity:1" fill="#8e8e8e" d="M 98.5,12.5 C 110.989,11.5046 123.656,11.1713 136.5,11.5C 137.833,50.1667 137.833,88.8333 136.5,127.5C 136.5,89.1667 136.5,50.8333 136.5,12.5C 123.833,12.5 111.167,12.5 98.5,12.5 Z"/></g>
<g><path style="opacity:1" fill="#dddddd" d="M 136.5,11.5 C 123.656,11.1713 110.989,11.5046 98.5,12.5C 97.5015,50.3297 97.1682,88.3297 97.5,126.5C 97.1667,126.5 96.8333,126.5 96.5,126.5C 96.3333,88.1652 96.5,49.8319 97,11.5C 110.265,10.1702 123.431,10.1702 136.5,11.5 Z"/></g>
<g><path style="opacity:1" fill="#999999" d="M 21.5,127.5 C 27.8333,127.5 34.1667,127.5 40.5,127.5C 40.5,133.833 40.5,140.167 40.5,146.5C 39.5104,140.69 39.1771,134.69 39.5,128.5C 33.31,128.823 27.31,128.49 21.5,127.5 Z"/></g>
<g><path style="opacity:1" fill="#b6b6b6" d="M 136.5,127.5 C 130.69,128.49 124.69,128.823 118.5,128.5C 118.823,134.69 118.49,140.69 117.5,146.5C 117.5,140.167 117.5,133.833 117.5,127.5C 123.833,127.5 130.167,127.5 136.5,127.5 Z"/></g>
</svg>
