<?xml version="1.0" encoding="UTF-8"?>
<!DOCTYPE svg PUBLIC "-//W3C//DTD SVG 1.1//EN" "http://www.w3.org/Graphics/SVG/1.1/DTD/svg11.dtd">
<svg xmlns="http://www.w3.org/2000/svg" version="1.1" width="155px" height="155px" style="shape-rendering:geometricPrecision; text-rendering:geometricPrecision; image-rendering:optimizeQuality; fill-rule:evenodd; clip-rule:evenodd" xmlns:xlink="http://www.w3.org/1999/xlink">
<g><path style="opacity:1" fill="#fefefe" d="M -0.5,-0.5 C 51.1667,-0.5 102.833,-0.5 154.5,-0.5C 154.5,51.1667 154.5,102.833 154.5,154.5C 102.833,154.5 51.1667,154.5 -0.5,154.5C -0.5,102.833 -0.5,51.1667 -0.5,-0.5 Z"/></g>
<g><path style="opacity:1" fill="#d7d7d7" d="M 58.5,11.5 C 45.6557,11.1713 32.989,11.5046 20.5,12.5C 20.1667,12.5 19.8333,12.5 19.5,12.5C 25.6307,11.17 32.1307,10.5034 39,10.5C 45.6755,10.5004 52.1755,10.8337 58.5,11.5 Z"/></g>
<g><path style="opacity:1" fill="#020202" d="M 20.5,12.5 C 33.1667,12.5 45.8333,12.5 58.5,12.5C 58.1685,44.3377 58.5018,76.0044 59.5,107.5C 71.8333,107.5 84.1667,107.5 96.5,107.5C 96.1685,75.6623 96.5018,43.9956 97.5,12.5C 110.167,12.5 122.833,12.5 135.5,12.5C 135.5,44.1667 135.5,75.8333 135.5,107.5C 129.167,108.167 122.833,108.833 116.5,109.5C 115.511,114.975 115.178,120.642 115.5,126.5C 109.642,126.178 103.975,126.511 98.5,127.5C 97.8333,127.5 97.5,127.833 97.5,128.5C 96.5104,134.31 96.1771,140.31 96.5,146.5C 89.8333,146.5 83.1667,146.5 76.5,146.5C 71.0247,145.511 65.358,145.178 59.5,145.5C 59.8222,139.642 59.4889,133.975 58.5,128.5C 58.5,127.833 58.1667,127.5 57.5,127.5C 51.69,126.51 45.69,126.177 39.5,126.5C 39.8229,120.31 39.4896,114.31 38.5,108.5C 32.69,107.51 26.69,107.177 20.5,107.5C 20.5,75.8333 20.5,44.1667 20.5,12.5 Z"/></g>
<g><path style="opacity:1" fill="#7c7c7c" d="M 20.5,12.5 C 32.989,11.5046 45.6557,11.1713 58.5,11.5C 59.4982,42.9956 59.8315,74.6623 59.5,106.5C 59.5,106.833 59.5,107.167 59.5,107.5C 58.5018,76.0044 58.1685,44.3377 58.5,12.5C 45.8333,12.5 33.1667,12.5 20.5,12.5 Z"/></g>
<g><path style="opacity:1" fill="#8c8c8c" d="M 97.5,12.5 C 109.989,11.5046 122.656,11.1713 135.5,11.5C 136.498,43.329 136.832,75.329 136.5,107.5C 136.167,107.5 135.833,107.5 135.5,107.5C 135.5,75.8333 135.5,44.1667 135.5,12.5C 122.833,12.5 110.167,12.5 97.5,12.5 Z"/></g>
<g><path style="opacity:1" fill="#dddddd" d="M 135.5,11.5 C 122.656,11.1713 109.989,11.5046 97.5,12.5C 96.5018,43.9956 96.1685,75.6623 96.5,107.5C 84.1667,107.5 71.8333,107.5 59.5,107.5C 59.5,107.167 59.5,106.833 59.5,106.5C 71.5,106.5 83.5,106.5 95.5,106.5C 95.3334,74.8316 95.5,43.1649 96,11.5C 109.265,10.1702 122.431,10.1702 135.5,11.5 Z"/></g>
<g><path style="opacity:1" fill="#606060" d="M 19.5,12.5 C 19.8333,12.5 20.1667,12.5 20.5,12.5C 20.5,44.1667 20.5,75.8333 20.5,107.5C 26.69,107.177 32.69,107.51 38.5,108.5C 32.1667,108.5 25.8333,108.5 19.5,108.5C 19.5,76.5 19.5,44.5 19.5,12.5 Z"/></g>
<g><path style="opacity:1" fill="#bfbfbf" d="M 135.5,107.5 C 135.833,107.5 136.167,107.5 136.5,107.5C 130.588,109.456 124.255,110.123 117.5,109.5C 117.823,115.69 117.49,121.69 116.5,127.5C 116.5,121.5 116.5,115.5 116.5,109.5C 122.833,108.833 129.167,108.167 135.5,107.5 Z"/></g>
<g><path style="opacity:1" fill="#525252" d="M 38.5,108.5 C 39.4896,114.31 39.8229,120.31 39.5,126.5C 45.69,126.177 51.69,126.51 57.5,127.5C 51.5,127.5 45.5,127.5 39.5,127.5C 38.5098,121.355 38.1765,115.022 38.5,108.5 Z"/></g>
<g><path style="opacity:1" fill="#373737" d="M 116.5,109.5 C 116.5,115.5 116.5,121.5 116.5,127.5C 110.5,127.5 104.5,127.5 98.5,127.5C 103.975,126.511 109.642,126.178 115.5,126.5C 115.178,120.642 115.511,114.975 116.5,109.5 Z"/></g>
<g><path style="opacity:1" fill="#ababab" d="M 39.5,127.5 C 45.5,127.5 51.5,127.5 57.5,127.5C 58.1667,127.5 58.5,127.833 58.5,128.5C 58.5,134.5 58.5,140.5 58.5,146.5C 57.5104,140.69 57.1771,134.69 57.5,128.5C 51.31,128.823 45.31,128.49 39.5,127.5 Z"/></g>
<g><path style="opacity:1" fill="#c8c8c8" d="M 98.5,127.5 C 104.5,127.5 110.5,127.5 116.5,127.5C 110.69,128.49 104.69,128.823 98.5,128.5C 98.8229,134.69 98.4896,140.69 97.5,146.5C 97.5,140.5 97.5,134.5 97.5,128.5C 97.5,127.833 97.8333,127.5 98.5,127.5 Z"/></g>
<g><path style="opacity:1" fill="#202020" d="M 58.5,128.5 C 59.4889,133.975 59.8222,139.642 59.5,145.5C 65.358,145.178 71.0247,145.511 76.5,146.5C 70.5,146.5 64.5,146.5 58.5,146.5C 58.5,140.5 58.5,134.5 58.5,128.5 Z"/></g>
<g><path style="opacity:1" fill="#888888" d="M 97.5,128.5 C 97.5,134.5 97.5,140.5 97.5,146.5C 84.5,147.833 71.5,147.833 58.5,146.5C 64.5,146.5 70.5,146.5 76.5,146.5C 83.1667,146.5 89.8333,146.5 96.5,146.5C 96.1771,140.31 96.5104,134.31 97.5,128.5 Z"/></g>
</svg>
