<?xml version="1.0" encoding="UTF-8"?>
<!DOCTYPE svg PUBLIC "-//W3C//DTD SVG 1.1//EN" "http://www.w3.org/Graphics/SVG/1.1/DTD/svg11.dtd">
<svg xmlns="http://www.w3.org/2000/svg" version="1.1" width="160px" height="160px" style="shape-rendering:geometricPrecision; text-rendering:geometricPrecision; image-rendering:optimizeQuality; fill-rule:evenodd; clip-rule:evenodd" xmlns:xlink="http://www.w3.org/1999/xlink">
<g><path style="opacity:1" fill="#fdfdfd" d="M -0.5,-0.5 C 52.8333,-0.5 106.167,-0.5 159.5,-0.5C 159.5,52.8333 159.5,106.167 159.5,159.5C 106.167,159.5 52.8333,159.5 -0.5,159.5C -0.5,106.167 -0.5,52.8333 -0.5,-0.5 Z"/></g>
<g><path style="opacity:1" fill="#c5c5c5" d="M 52.5,14.5 C 39.6557,14.1713 26.989,14.5046 14.5,15.5C 14.5,60.1667 14.5,104.833 14.5,149.5C 13.1669,127.343 12.5003,104.843 12.5,82C 12.6667,59.5 12.8333,37 13,14.5C 26.2646,13.1702 39.4312,13.1702 52.5,14.5 Z"/></g>
<g><path style="opacity:1" fill="#000000" d="M 14.5,15.5 C 27.1667,15.5 39.8333,15.5 52.5,15.5C 52.1689,41.0055 52.5023,66.3388 53.5,91.5C 59.69,91.8229 65.69,91.4896 71.5,90.5C 72.4889,85.0247 72.8222,79.358 72.5,73.5C 78.5,73.5 84.5,73.5 90.5,73.5C 90.1771,79.69 90.5104,85.69 91.5,91.5C 97.5,91.5 103.5,91.5 109.5,91.5C 110.498,66.3388 110.831,41.0055 110.5,15.5C 123.167,15.5 135.833,15.5 148.5,15.5C 148.5,60.1667 148.5,104.833 148.5,149.5C 135.833,149.5 123.167,149.5 110.5,149.5C 110.823,142.978 110.49,136.645 109.5,130.5C 103.69,129.51 97.69,129.177 91.5,129.5C 91.8229,123.31 91.4896,117.31 90.5,111.5C 84.5,111.5 78.5,111.5 72.5,111.5C 71.5104,117.31 71.1771,123.31 71.5,129.5C 65.31,129.177 59.31,129.51 53.5,130.5C 52.5098,136.645 52.1765,142.978 52.5,149.5C 39.8333,149.5 27.1667,149.5 14.5,149.5C 14.5,104.833 14.5,60.1667 14.5,15.5 Z"/></g>
<g><path style="opacity:1" fill="#767676" d="M 148.5,149.5 C 148.5,104.833 148.5,60.1667 148.5,15.5C 135.833,15.5 123.167,15.5 110.5,15.5C 110.831,41.0055 110.498,66.3388 109.5,91.5C 109.5,91.1667 109.5,90.8333 109.5,90.5C 109.5,65.1667 109.5,39.8333 109.5,14.5C 122.833,14.5 136.167,14.5 149.5,14.5C 149.832,59.6698 149.499,104.67 148.5,149.5 Z"/></g>
<g><path style="opacity:1" fill="#7c7c7c" d="M 14.5,15.5 C 26.989,14.5046 39.6557,14.1713 52.5,14.5C 53.4977,39.6612 53.8311,64.9945 53.5,90.5C 53.5,90.8333 53.5,91.1667 53.5,91.5C 52.5023,66.3388 52.1689,41.0055 52.5,15.5C 39.8333,15.5 27.1667,15.5 14.5,15.5 Z"/></g>
<g><path style="opacity:1" fill="#414141" d="M 71.5,72.5 C 78.1667,72.5 84.8333,72.5 91.5,72.5C 91.5,78.8333 91.5,85.1667 91.5,91.5C 90.5104,85.69 90.1771,79.69 90.5,73.5C 84.5,73.5 78.5,73.5 72.5,73.5C 72.8222,79.358 72.4889,85.0247 71.5,90.5C 71.5,84.5 71.5,78.5 71.5,72.5 Z"/></g>
<g><path style="opacity:1" fill="#c2c2c2" d="M 71.5,72.5 C 71.5,78.5 71.5,84.5 71.5,90.5C 65.69,91.4896 59.69,91.8229 53.5,91.5C 53.5,91.1667 53.5,90.8333 53.5,90.5C 59.1667,90.5 64.8333,90.5 70.5,90.5C 70.1771,84.31 70.5104,78.31 71.5,72.5 Z"/></g>
<g><path style="opacity:1" fill="#c8c8c8" d="M 91.5,72.5 C 92.4896,78.31 92.8229,84.31 92.5,90.5C 98.1667,90.5 103.833,90.5 109.5,90.5C 109.5,90.8333 109.5,91.1667 109.5,91.5C 103.5,91.5 97.5,91.5 91.5,91.5C 91.5,85.1667 91.5,78.8333 91.5,72.5 Z"/></g>
<g><path style="opacity:1" fill="#d7d7d7" d="M 72.5,112.5 C 72.5,112.167 72.5,111.833 72.5,111.5C 78.5,111.5 84.5,111.5 90.5,111.5C 90.5,117.833 90.5,124.167 90.5,130.5C 89.5104,124.69 89.1771,118.69 89.5,112.5C 83.8333,112.5 78.1667,112.5 72.5,112.5 Z"/></g>
<g><path style="opacity:1" fill="#484848" d="M 72.5,111.5 C 72.5,111.833 72.5,112.167 72.5,112.5C 72.5,118.5 72.5,124.5 72.5,130.5C 66.1667,130.5 59.8333,130.5 53.5,130.5C 59.31,129.51 65.31,129.177 71.5,129.5C 71.1771,123.31 71.5104,117.31 72.5,111.5 Z"/></g>
<g><path style="opacity:1" fill="#434343" d="M 90.5,111.5 C 91.4896,117.31 91.8229,123.31 91.5,129.5C 97.69,129.177 103.69,129.51 109.5,130.5C 103.167,130.5 96.8333,130.5 90.5,130.5C 90.5,124.167 90.5,117.833 90.5,111.5 Z"/></g>
<g><path style="opacity:1" fill="#8b8b8b" d="M 90.5,130.5 C 96.8333,130.5 103.167,130.5 109.5,130.5C 110.49,136.645 110.823,142.978 110.5,149.5C 109.51,143.69 109.177,137.69 109.5,131.5C 102.978,131.823 96.6446,131.49 90.5,130.5 Z"/></g>
<g><path style="opacity:1" fill="#989898" d="M 53.5,130.5 C 59.8333,130.5 66.1667,130.5 72.5,130.5C 66.3554,131.49 60.0221,131.823 53.5,131.5C 53.8229,137.69 53.4896,143.69 52.5,149.5C 52.1765,142.978 52.5098,136.645 53.5,130.5 Z"/></g>
</svg>
