<?xml version="1.0" encoding="UTF-8"?>
<!DOCTYPE svg PUBLIC "-//W3C//DTD SVG 1.1//EN" "http://www.w3.org/Graphics/SVG/1.1/DTD/svg11.dtd">
<svg xmlns="http://www.w3.org/2000/svg" version="1.1" width="163px" height="163px" style="shape-rendering:geometricPrecision; text-rendering:geometricPrecision; image-rendering:optimizeQuality; fill-rule:evenodd; clip-rule:evenodd" xmlns:xlink="http://www.w3.org/1999/xlink">
<g><path style="opacity:1" fill="#fdfdfd" d="M -0.5,-0.5 C 53.8333,-0.5 108.167,-0.5 162.5,-0.5C 162.5,53.8333 162.5,108.167 162.5,162.5C 108.167,162.5 53.8333,162.5 -0.5,162.5C -0.5,108.167 -0.5,53.8333 -0.5,-0.5 Z"/></g>
<g><path style="opacity:1" fill="#595959" d="M 51.5,14.5 C 51.5,14.8333 51.5,15.1667 51.5,15.5C 38.8333,15.5 26.1667,15.5 13.5,15.5C 13.5,21.5 13.5,27.5 13.5,33.5C 19.69,33.1771 25.69,33.5104 31.5,34.5C 25.5,34.5 19.5,34.5 13.5,34.5C 12.5093,28.021 12.176,21.3543 12.5,14.5C 25.5,14.5 38.5,14.5 51.5,14.5 Z"/></g>
<g><path style="opacity:1" fill="#010101" d="M 51.5,15.5 C 51.5,21.8333 51.5,28.1667 51.5,34.5C 57.8333,34.5 64.1667,34.5 70.5,34.5C 70.1771,40.69 70.5104,46.69 71.5,52.5C 77.6446,53.4902 83.9779,53.8235 90.5,53.5C 90.5,47.1667 90.5,40.8333 90.5,34.5C 96.69,34.8229 102.69,34.4896 108.5,33.5C 109.49,27.69 109.823,21.69 109.5,15.5C 122.167,15.5 134.833,15.5 147.5,15.5C 147.5,21.5 147.5,27.5 147.5,33.5C 141.31,33.1771 135.31,33.5104 129.5,34.5C 128.833,34.5 128.5,34.8333 128.5,35.5C 127.511,40.9753 127.178,46.642 127.5,52.5C 121.642,52.1778 115.975,52.5111 110.5,53.5C 109.505,65.989 109.171,78.6557 109.5,91.5C 115.833,91.5 122.167,91.5 128.5,91.5C 128.5,98.1667 128.5,104.833 128.5,111.5C 134.833,111.5 141.167,111.5 147.5,111.5C 147.5,124.167 147.5,136.833 147.5,149.5C 134.833,149.5 122.167,149.5 109.5,149.5C 109.829,136.656 109.495,123.989 108.5,111.5C 102.69,110.51 96.69,110.177 90.5,110.5C 90.8229,104.31 90.4896,98.31 89.5,92.5C 83.5,92.5 77.5,92.5 71.5,92.5C 70.5104,98.31 70.1771,104.31 70.5,110.5C 64.31,110.177 58.31,110.51 52.5,111.5C 51.5046,123.989 51.1713,136.656 51.5,149.5C 38.8333,149.5 26.1667,149.5 13.5,149.5C 13.5,136.833 13.5,124.167 13.5,111.5C 20.0221,111.823 26.3554,111.49 32.5,110.5C 32.5,104.5 32.5,98.5 32.5,92.5C 38.69,92.8229 44.69,92.4896 50.5,91.5C 51.4954,79.011 51.8287,66.3443 51.5,53.5C 45.1667,53.5 38.8333,53.5 32.5,53.5C 32.8235,46.9779 32.4902,40.6446 31.5,34.5C 25.69,33.5104 19.69,33.1771 13.5,33.5C 13.5,27.5 13.5,21.5 13.5,15.5C 26.1667,15.5 38.8333,15.5 51.5,15.5 Z"/></g>
<g><path style="opacity:1" fill="#696969" d="M 148.5,34.5 C 142.167,34.5 135.833,34.5 129.5,34.5C 135.31,33.5104 141.31,33.1771 147.5,33.5C 147.5,27.5 147.5,21.5 147.5,15.5C 134.833,15.5 122.167,15.5 109.5,15.5C 109.823,21.69 109.49,27.69 108.5,33.5C 108.5,27.1667 108.5,20.8333 108.5,14.5C 121.833,14.5 135.167,14.5 148.5,14.5C 148.5,21.1667 148.5,27.8333 148.5,34.5 Z"/></g>
<g><path style="opacity:1" fill="#787878" d="M 51.5,14.5 C 52.4902,20.6446 52.8235,26.9779 52.5,33.5C 58.8333,33.5 65.1667,33.5 71.5,33.5C 71.5,39.8333 71.5,46.1667 71.5,52.5C 70.5104,46.69 70.1771,40.69 70.5,34.5C 64.1667,34.5 57.8333,34.5 51.5,34.5C 51.5,28.1667 51.5,21.8333 51.5,15.5C 51.5,15.1667 51.5,14.8333 51.5,14.5 Z"/></g>
<g><path style="opacity:1" fill="#9b9b9b" d="M 13.5,34.5 C 19.5,34.5 25.5,34.5 31.5,34.5C 32.4902,40.6446 32.8235,46.9779 32.5,53.5C 31.5104,47.69 31.1771,41.69 31.5,35.5C 25.31,35.8229 19.31,35.4896 13.5,34.5 Z"/></g>
<g><path style="opacity:1" fill="#6d6d6d" d="M 108.5,33.5 C 102.69,34.4896 96.69,34.8229 90.5,34.5C 90.5,40.8333 90.5,47.1667 90.5,53.5C 83.9779,53.8235 77.6446,53.4902 71.5,52.5C 77.5,52.5 83.5,52.5 89.5,52.5C 89.5,46.1667 89.5,39.8333 89.5,33.5C 95.8333,33.5 102.167,33.5 108.5,33.5 Z"/></g>
<g><path style="opacity:1" fill="#a8a8a8" d="M 129.5,34.5 C 135.833,34.5 142.167,34.5 148.5,34.5C 142.355,35.4902 136.022,35.8235 129.5,35.5C 129.823,41.69 129.49,47.69 128.5,53.5C 128.5,47.5 128.5,41.5 128.5,35.5C 128.5,34.8333 128.833,34.5 129.5,34.5 Z"/></g>
<g><path style="opacity:1" fill="#232323" d="M 128.5,35.5 C 128.5,41.5 128.5,47.5 128.5,53.5C 122.5,53.5 116.5,53.5 110.5,53.5C 115.975,52.5111 121.642,52.1778 127.5,52.5C 127.178,46.642 127.511,40.9753 128.5,35.5 Z"/></g>
<g><path style="opacity:1" fill="#aaaaaa" d="M 32.5,53.5 C 38.8333,53.5 45.1667,53.5 51.5,53.5C 51.8287,66.3443 51.4954,79.011 50.5,91.5C 44.5,91.5 38.5,91.5 32.5,91.5C 38.31,90.5104 44.31,90.1771 50.5,90.5C 50.5,78.5 50.5,66.5 50.5,54.5C 44.31,54.8229 38.31,54.4896 32.5,53.5 Z"/></g>
<g><path style="opacity:1" fill="#b6b6b6" d="M 110.5,53.5 C 116.5,53.5 122.5,53.5 128.5,53.5C 122.69,54.4896 116.69,54.8229 110.5,54.5C 110.5,66.5 110.5,78.5 110.5,90.5C 116.69,90.1771 122.69,90.5104 128.5,91.5C 122.167,91.5 115.833,91.5 109.5,91.5C 109.171,78.6557 109.505,65.989 110.5,53.5 Z"/></g>
<g><path style="opacity:1" fill="#747474" d="M 32.5,91.5 C 38.5,91.5 44.5,91.5 50.5,91.5C 44.69,92.4896 38.69,92.8229 32.5,92.5C 32.5,98.5 32.5,104.5 32.5,110.5C 32.1667,110.5 31.8333,110.5 31.5,110.5C 31.1765,103.978 31.5098,97.6446 32.5,91.5 Z"/></g>
<g><path style="opacity:1" fill="#5b5b5b" d="M 71.5,92.5 C 71.5,98.8333 71.5,105.167 71.5,111.5C 65.1667,111.5 58.8333,111.5 52.5,111.5C 58.31,110.51 64.31,110.177 70.5,110.5C 70.1771,104.31 70.5104,98.31 71.5,92.5 Z"/></g>
<g><path style="opacity:1" fill="#555555" d="M 89.5,92.5 C 90.4896,98.31 90.8229,104.31 90.5,110.5C 96.69,110.177 102.69,110.51 108.5,111.5C 102.167,111.5 95.8333,111.5 89.5,111.5C 89.5,105.167 89.5,98.8333 89.5,92.5 Z"/></g>
<g><path style="opacity:1" fill="#797979" d="M 128.5,91.5 C 129.49,97.6446 129.823,103.978 129.5,110.5C 135.833,110.5 142.167,110.5 148.5,110.5C 148.829,123.677 148.495,136.677 147.5,149.5C 147.5,136.833 147.5,124.167 147.5,111.5C 141.167,111.5 134.833,111.5 128.5,111.5C 128.5,104.833 128.5,98.1667 128.5,91.5 Z"/></g>
<g><path style="opacity:1" fill="#7a7a7a" d="M 31.5,110.5 C 31.8333,110.5 32.1667,110.5 32.5,110.5C 26.3554,111.49 20.0221,111.823 13.5,111.5C 13.5,124.167 13.5,136.833 13.5,149.5C 26.1667,149.5 38.8333,149.5 51.5,149.5C 38.6774,150.495 25.6774,150.829 12.5,150.5C 12.5,137.167 12.5,123.833 12.5,110.5C 18.8333,110.5 25.1667,110.5 31.5,110.5 Z"/></g>
</svg>
