<?xml version="1.0" encoding="UTF-8"?>
<!DOCTYPE svg PUBLIC "-//W3C//DTD SVG 1.1//EN" "http://www.w3.org/Graphics/SVG/1.1/DTD/svg11.dtd">
<svg xmlns="http://www.w3.org/2000/svg" version="1.1" width="150px" height="150px" style="shape-rendering:geometricPrecision; text-rendering:geometricPrecision; image-rendering:optimizeQuality; fill-rule:evenodd; clip-rule:evenodd" xmlns:xlink="http://www.w3.org/1999/xlink">
<g><path style="opacity:1" fill="#fefefe" d="M -0.5,-0.5 C 49.5,-0.5 99.5,-0.5 149.5,-0.5C 149.5,49.5 149.5,99.5 149.5,149.5C 99.5,149.5 49.5,149.5 -0.5,149.5C -0.5,99.5 -0.5,49.5 -0.5,-0.5 Z"/></g>
<g><path style="opacity:1" fill="#7c7c7c" d="M 92.5,68.5 C 92.5,68.8333 92.5,69.1667 92.5,69.5C 79.8333,69.5 67.1667,69.5 54.5,69.5C 54.5,50.5 54.5,31.5 54.5,12.5C 41.8333,12.5 29.1667,12.5 16.5,12.5C 16.5,31.5 16.5,50.5 16.5,69.5C 15.503,50.3405 15.1697,31.0072 15.5,11.5C 28.8333,11.5 42.1667,11.5 55.5,11.5C 55.5,30.5 55.5,49.5 55.5,68.5C 67.8333,68.5 80.1667,68.5 92.5,68.5 Z"/></g>
<g><path style="opacity:1" fill="#010101" d="M 92.5,69.5 C 93.497,50.674 93.8303,31.674 93.5,12.5C 106.167,12.5 118.833,12.5 131.5,12.5C 131.5,31.5 131.5,50.5 131.5,69.5C 124.978,69.1765 118.645,69.5098 112.5,70.5C 111.51,76.31 111.177,82.31 111.5,88.5C 105.31,88.1771 99.31,88.5104 93.5,89.5C 93.5,101.833 93.5,114.167 93.5,126.5C 99.31,127.49 105.31,127.823 111.5,127.5C 111.5,133.833 111.5,140.167 111.5,146.5C 86.1667,146.5 60.8333,146.5 35.5,146.5C 35.5,140.167 35.5,133.833 35.5,127.5C 41.8333,127.5 48.1667,127.5 54.5,127.5C 54.5,114.833 54.5,102.167 54.5,89.5C 48.3554,88.5098 42.0221,88.1765 35.5,88.5C 35.5,82.1667 35.5,75.8333 35.5,69.5C 29.1667,69.5 22.8333,69.5 16.5,69.5C 16.5,50.5 16.5,31.5 16.5,12.5C 29.1667,12.5 41.8333,12.5 54.5,12.5C 54.5,31.5 54.5,50.5 54.5,69.5C 67.1667,69.5 79.8333,69.5 92.5,69.5 Z"/></g>
<g><path style="opacity:1" fill="#6e6e6e" d="M 131.5,69.5 C 131.5,50.5 131.5,31.5 131.5,12.5C 118.833,12.5 106.167,12.5 93.5,12.5C 93.8303,31.674 93.497,50.674 92.5,69.5C 92.5,69.1667 92.5,68.8333 92.5,68.5C 92.5,49.5 92.5,30.5 92.5,11.5C 105.833,11.5 119.167,11.5 132.5,11.5C 132.83,31.0072 132.497,50.3405 131.5,69.5 Z"/></g>
<g><path style="opacity:1" fill="#848484" d="M 16.5,69.5 C 22.8333,69.5 29.1667,69.5 35.5,69.5C 35.5,75.8333 35.5,82.1667 35.5,88.5C 42.0221,88.1765 48.3554,88.5098 54.5,89.5C 54.1667,89.5 53.8333,89.5 53.5,89.5C 47.1667,89.5 40.8333,89.5 34.5,89.5C 34.5,83.1667 34.5,76.8333 34.5,70.5C 28.31,70.8229 22.31,70.4896 16.5,69.5 Z"/></g>
<g><path style="opacity:1" fill="#a8a8a8" d="M 131.5,69.5 C 125.69,70.4896 119.69,70.8229 113.5,70.5C 113.823,77.0221 113.49,83.3554 112.5,89.5C 112.5,83.1667 112.5,76.8333 112.5,70.5C 118.645,69.5098 124.978,69.1765 131.5,69.5 Z"/></g>
<g><path style="opacity:1" fill="#5b5b5b" d="M 112.5,70.5 C 112.5,76.8333 112.5,83.1667 112.5,89.5C 106.167,89.5 99.8333,89.5 93.5,89.5C 99.31,88.5104 105.31,88.1771 111.5,88.5C 111.177,82.31 111.51,76.31 112.5,70.5 Z"/></g>
<g><path style="opacity:1" fill="#939393" d="M 53.5,89.5 C 53.8333,89.5 54.1667,89.5 54.5,89.5C 54.5,102.167 54.5,114.833 54.5,127.5C 48.1667,127.5 41.8333,127.5 35.5,127.5C 35.5,133.833 35.5,140.167 35.5,146.5C 34.5093,140.021 34.176,133.354 34.5,126.5C 40.8333,126.5 47.1667,126.5 53.5,126.5C 53.5,114.167 53.5,101.833 53.5,89.5 Z"/></g>
<g><path style="opacity:1" fill="#6b6b6b" d="M 93.5,126.5 C 99.8333,126.5 106.167,126.5 112.5,126.5C 112.5,133.5 112.5,140.5 112.5,147.5C 86.6612,147.831 60.9946,147.498 35.5,146.5C 60.8333,146.5 86.1667,146.5 111.5,146.5C 111.5,140.167 111.5,133.833 111.5,127.5C 105.31,127.823 99.31,127.49 93.5,126.5 Z"/></g>
</svg>
