<?xml version="1.0" encoding="UTF-8"?>
<!DOCTYPE svg PUBLIC "-//W3C//DTD SVG 1.1//EN" "http://www.w3.org/Graphics/SVG/1.1/DTD/svg11.dtd">
<svg xmlns="http://www.w3.org/2000/svg" version="1.1" width="157px" height="157px" style="shape-rendering:geometricPrecision; text-rendering:geometricPrecision; image-rendering:optimizeQuality; fill-rule:evenodd; clip-rule:evenodd" xmlns:xlink="http://www.w3.org/1999/xlink">
<g><path style="opacity:1" fill="#fcfcfc" d="M -0.5,-0.5 C 51.8333,-0.5 104.167,-0.5 156.5,-0.5C 156.5,51.8333 156.5,104.167 156.5,156.5C 104.167,156.5 51.8333,156.5 -0.5,156.5C -0.5,104.167 -0.5,51.8333 -0.5,-0.5 Z"/></g>
<g><path style="opacity:1" fill="#d7d7d7" d="M 147.5,8.5 C 102.664,8.16793 57.9969,8.50126 13.5,9.5C 13.1667,9.5 12.8333,9.5 12.5,9.5C 34.6566,8.16693 57.1566,7.50026 80,7.5C 102.669,7.50003 125.169,7.83337 147.5,8.5 Z"/></g>
<g><path style="opacity:1" fill="#777777" d="M 12.5,9.5 C 12.8333,9.5 13.1667,9.5 13.5,9.5C 13.5,28.5 13.5,47.5 13.5,66.5C 19.8333,66.5 26.1667,66.5 32.5,66.5C 26.021,67.4907 19.3543,67.824 12.5,67.5C 12.5,48.1667 12.5,28.8333 12.5,9.5 Z"/></g>
<g><path style="opacity:1" fill="#010101" d="M 13.5,9.5 C 58.1667,9.5 102.833,9.5 147.5,9.5C 147.5,22.1667 147.5,34.8333 147.5,47.5C 141.167,47.5 134.833,47.5 128.5,47.5C 128.5,53.8333 128.5,60.1667 128.5,66.5C 121.978,66.1765 115.645,66.5098 109.5,67.5C 108.51,73.31 108.177,79.31 108.5,85.5C 102.31,85.1771 96.31,85.5104 90.5,86.5C 89.5104,92.31 89.1771,98.31 89.5,104.5C 83.31,104.177 77.31,104.51 71.5,105.5C 71.5,111.833 71.5,118.167 71.5,124.5C 84.0113,124.829 96.3446,124.495 108.5,123.5C 109.49,117.69 109.823,111.69 109.5,105.5C 115.69,105.823 121.69,105.49 127.5,104.5C 128.49,98.3554 128.823,92.0221 128.5,85.5C 134.833,85.5 141.167,85.5 147.5,85.5C 147.5,104.833 147.5,124.167 147.5,143.5C 102.833,143.5 58.1667,143.5 13.5,143.5C 13.5,137.167 13.5,130.833 13.5,124.5C 19.8333,124.5 26.1667,124.5 32.5,124.5C 32.5,118.167 32.5,111.833 32.5,105.5C 38.69,105.823 44.69,105.49 50.5,104.5C 51.1667,104.5 51.5,104.167 51.5,103.5C 52.4889,98.0247 52.8222,92.358 52.5,86.5C 58.69,86.8229 64.69,86.4896 70.5,85.5C 70.5,85.1667 70.5,84.8333 70.5,84.5C 71.4889,79.0247 71.8222,73.358 71.5,67.5C 77.358,67.8222 83.0247,67.4889 88.5,66.5C 90.4563,60.588 91.1229,54.2547 90.5,47.5C 96.8333,47.5 103.167,47.5 109.5,47.5C 109.823,40.9779 109.49,34.6446 108.5,28.5C 89.5,28.5 70.5,28.5 51.5,28.5C 51.5,34.8333 51.5,41.1667 51.5,47.5C 45.1667,47.5 38.8333,47.5 32.5,47.5C 32.5,53.8333 32.5,60.1667 32.5,66.5C 26.1667,66.5 19.8333,66.5 13.5,66.5C 13.5,47.5 13.5,28.5 13.5,9.5 Z"/></g>
<g><path style="opacity:1" fill="#9f9f9f" d="M 108.5,28.5 C 108.5,28.8333 108.5,29.1667 108.5,29.5C 89.8333,29.5 71.1667,29.5 52.5,29.5C 52.8229,35.69 52.4896,41.69 51.5,47.5C 51.5,41.1667 51.5,34.8333 51.5,28.5C 70.5,28.5 89.5,28.5 108.5,28.5 Z"/></g>
<g><path style="opacity:1" fill="#707070" d="M 13.5,9.5 C 57.9969,8.50126 102.664,8.16793 147.5,8.5C 148.833,21.5 148.833,34.5 147.5,47.5C 147.5,34.8333 147.5,22.1667 147.5,9.5C 102.833,9.5 58.1667,9.5 13.5,9.5 Z"/></g>
<g><path style="opacity:1" fill="#848484" d="M 108.5,28.5 C 109.49,34.6446 109.823,40.9779 109.5,47.5C 103.167,47.5 96.8333,47.5 90.5,47.5C 96.31,46.5104 102.31,46.1771 108.5,46.5C 108.5,40.8333 108.5,35.1667 108.5,29.5C 108.5,29.1667 108.5,28.8333 108.5,28.5 Z"/></g>
<g><path style="opacity:1" fill="#a3a3a3" d="M 51.5,47.5 C 45.69,48.4896 39.69,48.8229 33.5,48.5C 33.8229,54.69 33.4896,60.69 32.5,66.5C 32.5,60.1667 32.5,53.8333 32.5,47.5C 38.8333,47.5 45.1667,47.5 51.5,47.5 Z"/></g>
<g><path style="opacity:1" fill="#9e9e9e" d="M 147.5,47.5 C 141.69,48.4896 135.69,48.8229 129.5,48.5C 129.823,54.69 129.49,60.69 128.5,66.5C 128.5,60.1667 128.5,53.8333 128.5,47.5C 134.833,47.5 141.167,47.5 147.5,47.5 Z"/></g>
<g><path style="opacity:1" fill="#8e8e8e" d="M 90.5,47.5 C 91.1229,54.2547 90.4563,60.588 88.5,66.5C 82.5,66.5 76.5,66.5 70.5,66.5C 76.6446,65.5098 82.9779,65.1765 89.5,65.5C 89.1771,59.31 89.5104,53.31 90.5,47.5 Z"/></g>
<g><path style="opacity:1" fill="#3b3b3b" d="M 70.5,66.5 C 76.5,66.5 82.5,66.5 88.5,66.5C 83.0247,67.4889 77.358,67.8222 71.5,67.5C 71.8222,73.358 71.4889,79.0247 70.5,84.5C 70.5,78.5 70.5,72.5 70.5,66.5 Z"/></g>
<g><path style="opacity:1" fill="#a9a9a9" d="M 128.5,66.5 C 122.69,67.4896 116.69,67.8229 110.5,67.5C 110.823,74.0221 110.49,80.3554 109.5,86.5C 109.5,80.1667 109.5,73.8333 109.5,67.5C 115.645,66.5098 121.978,66.1765 128.5,66.5 Z"/></g>
<g><path style="opacity:1" fill="#c3c3c3" d="M 70.5,66.5 C 70.5,72.5 70.5,78.5 70.5,84.5C 70.5,84.8333 70.5,85.1667 70.5,85.5C 64.1667,85.5 57.8333,85.5 51.5,85.5C 57.31,84.5104 63.31,84.1771 69.5,84.5C 69.1771,78.31 69.5104,72.31 70.5,66.5 Z"/></g>
<g><path style="opacity:1" fill="#a8a8a8" d="M 128.5,85.5 C 134.979,84.5093 141.646,84.176 148.5,84.5C 148.83,104.34 148.497,124.007 147.5,143.5C 147.5,124.167 147.5,104.833 147.5,85.5C 141.167,85.5 134.833,85.5 128.5,85.5 Z"/></g>
<g><path style="opacity:1" fill="#5b5b5b" d="M 109.5,67.5 C 109.5,73.8333 109.5,80.1667 109.5,86.5C 103.167,86.5 96.8333,86.5 90.5,86.5C 96.31,85.5104 102.31,85.1771 108.5,85.5C 108.177,79.31 108.51,73.31 109.5,67.5 Z"/></g>
<g><path style="opacity:1" fill="#323232" d="M 51.5,85.5 C 57.8333,85.5 64.1667,85.5 70.5,85.5C 64.69,86.4896 58.69,86.8229 52.5,86.5C 52.8222,92.358 52.4889,98.0247 51.5,103.5C 51.5,97.5 51.5,91.5 51.5,85.5 Z"/></g>
<g><path style="opacity:1" fill="#525252" d="M 90.5,86.5 C 90.5,92.8333 90.5,99.1667 90.5,105.5C 84.1667,105.5 77.8333,105.5 71.5,105.5C 77.31,104.51 83.31,104.177 89.5,104.5C 89.1771,98.31 89.5104,92.31 90.5,86.5 Z"/></g>
<g><path style="opacity:1" fill="#717171" d="M 127.5,104.5 C 121.69,105.49 115.69,105.823 109.5,105.5C 109.823,111.69 109.49,117.69 108.5,123.5C 108.5,117.167 108.5,110.833 108.5,104.5C 114.833,104.5 121.167,104.5 127.5,104.5 Z"/></g>
<g><path style="opacity:1" fill="#797979" d="M 50.5,104.5 C 44.69,105.49 38.69,105.823 32.5,105.5C 32.5,111.833 32.5,118.167 32.5,124.5C 26.1667,124.5 19.8333,124.5 13.5,124.5C 13.5,130.833 13.5,137.167 13.5,143.5C 12.5093,137.021 12.176,130.354 12.5,123.5C 18.8333,123.5 25.1667,123.5 31.5,123.5C 31.5,117.167 31.5,110.833 31.5,104.5C 37.8333,104.5 44.1667,104.5 50.5,104.5 Z"/></g>
</svg>
